<svg width="1169" height="283" viewBox="0 0 1169 283" fill="none" xmlns="http://www.w3.org/2000/svg">
<path d="M309.068 264.967C237.068 299.767 166.833 274.985 141.5 258.985C233.1 248.185 315.833 211.819 346 194.485L351.568 184.967L395.068 124.967C396.402 157.133 381.068 230.167 309.068 264.967Z" fill="url(#paint0_linear_1641_138)"/>
<path opacity="0.5" d="M291 271.984C377.5 241.984 396 162.484 395 124.984L378.5 150.984C369.7 224.584 316.5 262.318 291 271.984Z" fill="url(#paint1_linear_1641_138)"/>
<path d="M289.569 169.467H247.569L201.569 131.967L270.569 110.467L400.569 111.967C389.769 137.167 362.834 173.985 350.501 187.985C331.301 199.185 297.403 211.467 283.069 217.467C186.501 252.985 143.668 254.319 119.501 254.985C61.501 240.985 42.4029 205.633 41.0696 189.967C33.0696 151.967 72.4028 104.133 93.0693 84.9668C27.4693 170.967 70.4027 209.133 100.069 217.467C176.069 239.467 258.069 194.633 289.569 169.467Z" fill="#7EF8F5"/>
<path d="M310.5 175.984C354.5 141.184 388.5 119.484 400 112.984C395.6 130.584 363 171.984 351 187.484L284.5 216.984C207.3 248.584 143.167 255.818 119.5 254.984C80.3 247.384 58.6667 225.151 54 215.484C88 233.884 129.167 239.484 145.5 239.984C206.3 241.184 280.833 197.818 310.5 175.984Z" fill="url(#paint2_linear_1641_138)"/>
<path d="M325 134.485C275.8 114.485 222.5 125.536 202 131.869C219.6 134.669 239.667 139.703 247.5 141.869C300.7 154.269 314.5 156.985 325 134.485Z" fill="url(#paint3_linear_1641_138)"/>
<path d="M316 146.984L289.5 169.484H247.5L224 149.984L316 146.984Z" fill="#204690"/>
<path d="M193.069 70.4666C239.069 50.4666 280.902 69.1333 296.069 80.9666L356.068 34.9666C317 -0.515057 247.5 -2.51513 215.568 1.46657C152.326 9.35253 111.569 57.1332 99.0688 77.9666C60.2688 139.167 83.9021 196.133 100.569 216.967C135.369 226.567 173.735 220.967 188.569 216.967C160.569 202.167 147.569 179.133 144.569 169.467C126.969 113.467 169.569 80.1333 193.069 70.4666Z" fill="#3D1580"/>
<path opacity="0.8" d="M165.396 43.2167C244.196 4.4167 306.498 36.3184 327.498 56.4851L355.998 34.9851C295.998 -10.6149 218.729 -1.78333 187.896 8.71667C77.4985 52.4851 72.3957 144.55 85.3956 181.717C72.1956 107.317 133.229 58.3834 165.396 43.2167Z" fill="url(#paint4_linear_1641_138)"/>
<path d="M28.0683 235.466C-13.9317 200.266 32.9016 142.133 61.5683 117.466C5.96853 158.666 3.40152 202.299 9.06799 218.966C24.668 261.766 104.235 263.466 142.068 258.966C221.268 251.766 308.401 214.966 342.068 197.466C377.668 181.066 417.901 152.633 433.568 140.466C457.168 124.066 465.401 101.299 466.568 91.966C467.768 64.366 431.068 61.466 412.568 63.466C362.968 67.066 326.901 86.6326 315.068 95.9659C375.068 60.3659 426.068 62.4659 444.068 67.9659C490.068 92.3659 433.235 138.799 399.068 158.966C339.868 201.366 238.068 233.299 194.568 243.966C97.768 267.566 43.2349 248.133 28.0683 235.466Z" fill="url(#paint5_linear_1641_138)"/>
<path opacity="0.3" d="M338 48.4844L313 10.9844C327 14.9844 350.5 27.9844 355.5 34.9844L338 48.4844Z" fill="url(#paint6_linear_1641_138)"/>
<path d="M307 71.9859C242.6 33.9859 185.833 56.1525 165.5 71.9859C174.3 54.7859 204.5 34.4858 218.5 26.4858C274.5 18.8858 314.5 43.6525 327.5 56.9858L307 71.9859Z" fill="url(#paint7_linear_1641_138)"/>
<path d="M205.194 34.5221C191.099 44.1109 173.328 58.4062 165.395 72.2159C141.561 92.8826 103.595 145.816 142.395 192.216C127.895 195.716 96.9945 187.816 89.3945 128.216C89.7627 104.305 111.999 48.0842 197.999 14.4842C204.798 12.3054 218.395 11.6013 218.395 26.2159C218.395 26.2159 213.325 29.3312 205.194 34.5221Z" fill="url(#paint8_linear_1641_138)"/>
<path d="M223.5 149.984L277.5 148.484L236 138.484L202 131.984L223.5 149.984Z" fill="#448ED5"/>
<path d="M67 193.984C43.4 155.984 74.1668 106.651 92.5001 85.9844C-2.29961 187.184 67.3333 228.151 114 235.984C164.4 248.384 225 225.484 249 212.484L240.5 199.484C132.5 245.484 79.8332 214.318 67 193.984Z" fill="url(#paint9_linear_1641_138)"/>
<path d="M179.5 253.484C204.167 249.318 273 232.084 349 194.484C330 220.151 269.1 267.484 179.5 253.484Z" fill="url(#paint10_linear_1641_138)"/>
<g filter="url(#filter0_i_1641_138)">
<g clip-path="url(#clip0_1641_138)">
<rect x="411" y="147.984" width="27" height="27" rx="13.5" fill="url(#paint11_linear_1641_138)"/>
<g filter="url(#filter1_f_1641_138)">
<circle cx="424" cy="152.984" r="6" fill="#E131F2"/>
</g>
</g>
</g>
<g filter="url(#filter2_i_1641_138)">
<g clip-path="url(#clip1_1641_138)">
<path d="M420.5 94.9844C420.5 90.0138 424.529 85.9844 429.5 85.9844C434.471 85.9844 438.5 90.0138 438.5 94.9844C438.5 99.9549 434.471 103.984 429.5 103.984C424.529 103.984 420.5 99.9549 420.5 94.9844Z" fill="url(#paint12_linear_1641_138)"/>
<g filter="url(#filter3_f_1641_138)">
<circle cx="429.168" cy="89.3184" r="4" fill="#A3FFFF"/>
</g>
</g>
</g>
<g filter="url(#filter4_i_1641_138)">
<g clip-path="url(#clip2_1641_138)">
<rect x="383" y="21.9844" width="12" height="12" rx="6" fill="url(#paint13_linear_1641_138)"/>
<g filter="url(#filter5_f_1641_138)">
<circle cx="388.776" cy="24.2057" r="2.66667" fill="#A3FFFF"/>
</g>
</g>
</g>
<g filter="url(#filter6_i_1641_138)">
<g clip-path="url(#clip3_1641_138)">
<rect y="109.984" width="27" height="27" rx="13.5" fill="url(#paint14_linear_1641_138)"/>
<g filter="url(#filter7_f_1641_138)">
<circle cx="13" cy="114.984" r="6" fill="#E131F2"/>
</g>
</g>
</g>
<path d="M570.25 60.5879C578.526 60.5879 585.891 61.1295 592.344 62.2126C598.798 63.2957 604.619 64.7579 609.81 66.5992L603.708 81.7088C598.798 79.8675 593.747 78.5136 588.557 77.6471C583.366 76.7806 578.246 76.3473 573.196 76.3473C567.444 76.3473 561.973 77.0514 556.782 78.4594C551.732 79.8675 547.313 82.0879 543.525 85.1206C539.737 88.1534 536.721 92.0526 534.477 96.8183C532.232 101.476 531.11 107.108 531.11 113.715C531.11 125.521 534.477 134.619 541.21 141.01C548.084 147.292 557.834 150.433 570.46 150.433C577.755 150.433 583.226 149.891 586.873 148.808V124.925H564.989V108.354H614.439V160.181C608.968 162.022 602.585 163.539 595.29 164.73C587.996 165.922 579.649 166.517 570.25 166.517C560.43 166.517 551.241 165.38 542.683 163.105C534.266 160.831 526.901 157.473 520.588 153.032C514.416 148.483 509.506 142.959 505.858 136.461C502.351 129.854 500.598 122.272 500.598 113.715C500.598 105.158 502.351 97.5765 505.858 90.9695C509.506 84.2541 514.416 78.676 520.588 74.2352C526.761 69.7944 534.056 66.4368 542.473 64.1622C551.03 61.7793 560.289 60.5879 570.25 60.5879Z" fill="url(#paint15_linear_1641_138)"/>
<path d="M626.441 62.375H712.717V79.5967H655.27V102.992H707.246V120.051H655.27V147.508H713.348V164.73H626.441V62.375Z" fill="url(#paint16_linear_1641_138)"/>
<path d="M725.348 62.375H751.651L797.314 116.315C800.401 119.997 803.206 123.626 805.731 127.2C808.397 130.666 810.291 133.374 811.413 135.323H811.834C810.992 128.283 810.571 121.297 810.571 114.365C810.571 107.325 810.571 100.23 810.571 93.0815V62.375H837.296V164.73H810.992L768.486 115.015C766.662 112.849 764.838 110.628 763.014 108.354C761.331 105.971 759.718 103.696 758.175 101.53C756.631 99.3636 755.229 97.414 753.966 95.681C752.844 93.8397 752.002 92.3233 751.441 91.1319H751.02C751.721 98.6055 752.072 105.808 752.072 112.74C752.212 119.564 752.283 126.55 752.283 133.699V164.73H725.348V62.375Z" fill="url(#paint17_linear_1641_138)"/>
<path d="M884.855 62.375L912.632 98.118L940.409 62.375H973.446L930.729 112.74L975.55 164.73H941.461L911.159 127.362L882.12 164.73H849.293L892.431 112.74L851.187 62.375H884.855Z" fill="#4B51C3"/>
<path d="M987.551 62.375H1073.83V79.5967H1016.38V102.992H1068.36V120.051H1016.38V147.508H1074.46V164.73H987.551V62.375Z" fill="url(#paint18_linear_1641_138)"/>
<path d="M1086.46 62.375H1115.29V147.184H1168.73V164.73H1086.46V62.375Z" fill="url(#paint19_linear_1641_138)"/>
<path d="M563.528 193.446V197.372H555.051V221.555H550.277V197.372H541.934V193.446H563.528Z" fill="#7C7B8B"/>
<path d="M577.133 193.446H594.534V197.283H581.907V205.047H593.374V208.839H581.907V217.718H594.668V221.555H577.133V193.446Z" fill="#7C7B8B"/>
<path d="M622.106 218.164C623.564 218.164 624.768 218.045 625.72 217.807C626.702 217.539 627.624 217.197 628.486 216.781L629.513 220.484C628.561 220.93 627.46 221.287 626.211 221.555C624.962 221.852 623.43 222.001 621.615 222.001C619.682 222.001 617.868 221.689 616.172 221.064C614.506 220.41 613.049 219.473 611.8 218.253C610.58 217.004 609.613 215.487 608.899 213.702C608.186 211.888 607.829 209.821 607.829 207.501C607.829 205.24 608.171 203.217 608.855 201.433C609.539 199.618 610.491 198.086 611.71 196.837C612.96 195.588 614.432 194.636 616.127 193.982C617.853 193.327 619.741 193 621.794 193C623.668 193 625.2 193.164 626.389 193.491C627.609 193.788 628.68 194.19 629.602 194.695L628.486 198.309C627.475 197.863 626.508 197.506 625.586 197.239C624.694 196.971 623.623 196.837 622.374 196.837C621.095 196.837 619.875 197.03 618.715 197.417C617.585 197.804 616.588 198.428 615.726 199.291C614.893 200.154 614.224 201.269 613.718 202.637C613.212 203.976 612.96 205.597 612.96 207.501C612.96 209.404 613.198 211.04 613.674 212.408C614.179 213.747 614.834 214.847 615.637 215.71C616.47 216.543 617.436 217.168 618.537 217.584C619.667 217.971 620.857 218.164 622.106 218.164Z" fill="#7C7B8B"/>
<path d="M644.257 221.555V193.446H649.031V205.047H661.48V193.446H666.254V221.555H661.48V208.973H649.031V221.555H644.257Z" fill="#7C7B8B"/>
<path d="M682.83 193.446H687.069L698.848 210.267C699.383 211.04 699.889 211.813 700.365 212.587C700.841 213.36 701.242 214.059 701.569 214.684H701.659C701.51 212.483 701.435 210.297 701.435 208.125C701.435 205.924 701.435 203.708 701.435 201.477V193.446H706.031V221.555H701.792L690.326 205.27C689.761 204.467 689.21 203.604 688.675 202.682C688.14 201.73 687.679 200.882 687.292 200.139H687.203C687.351 202.459 687.426 204.764 687.426 207.054C687.426 209.315 687.426 211.59 687.426 213.881V221.555H682.83V193.446Z" fill="#7C7B8B"/>
<path d="M734.759 193C736.692 193 738.477 193.312 740.113 193.937C741.749 194.562 743.162 195.484 744.351 196.703C745.541 197.923 746.463 199.44 747.118 201.254C747.802 203.069 748.144 205.151 748.144 207.501C748.144 209.821 747.802 211.888 747.118 213.702C746.434 215.487 745.482 217.004 744.262 218.253C743.043 219.473 741.6 220.41 739.934 221.064C738.298 221.689 736.514 222.001 734.58 222.001C732.647 222.001 730.862 221.689 729.226 221.064C727.59 220.439 726.177 219.517 724.988 218.298C723.798 217.078 722.861 215.576 722.177 213.792C721.522 211.977 721.195 209.88 721.195 207.501C721.195 205.18 721.537 203.128 722.221 201.343C722.906 199.529 723.857 198.012 725.077 196.792C726.296 195.543 727.724 194.606 729.36 193.982C731.026 193.327 732.825 193 734.759 193ZM726.326 207.501C726.326 209.315 726.549 210.906 726.995 212.275C727.442 213.613 728.036 214.728 728.78 215.621C729.553 216.513 730.446 217.182 731.457 217.629C732.498 218.045 733.599 218.253 734.759 218.253C735.919 218.253 737.004 218.045 738.016 217.629C739.027 217.182 739.89 216.513 740.604 215.621C741.347 214.728 741.927 213.613 742.344 212.275C742.79 210.906 743.013 209.315 743.013 207.501C743.013 205.627 742.79 204.02 742.344 202.682C741.897 201.314 741.288 200.198 740.514 199.336C739.771 198.443 738.878 197.789 737.837 197.372C736.826 196.956 735.74 196.748 734.58 196.748C733.42 196.748 732.335 196.971 731.323 197.417C730.312 197.834 729.434 198.488 728.691 199.38C727.977 200.273 727.397 201.403 726.951 202.771C726.534 204.11 726.326 205.686 726.326 207.501Z" fill="#7C7B8B"/>
<path d="M763.331 193.446H768.105V217.629H779.884V221.555H763.331V193.446Z" fill="#7C7B8B"/>
<path d="M805.151 193C807.084 193 808.869 193.312 810.505 193.937C812.141 194.562 813.554 195.484 814.743 196.703C815.933 197.923 816.855 199.44 817.51 201.254C818.194 203.069 818.536 205.151 818.536 207.501C818.536 209.821 818.194 211.888 817.51 213.702C816.826 215.487 815.874 217.004 814.654 218.253C813.435 219.473 811.992 220.41 810.326 221.064C808.69 221.689 806.906 222.001 804.972 222.001C803.039 222.001 801.254 221.689 799.618 221.064C797.982 220.439 796.569 219.517 795.38 218.298C794.19 217.078 793.253 215.576 792.569 213.792C791.914 211.977 791.587 209.88 791.587 207.501C791.587 205.18 791.929 203.128 792.613 201.343C793.298 199.529 794.249 198.012 795.469 196.792C796.688 195.543 798.116 194.606 799.752 193.982C801.418 193.327 803.217 193 805.151 193ZM796.718 207.501C796.718 209.315 796.941 210.906 797.387 212.275C797.834 213.613 798.428 214.728 799.172 215.621C799.945 216.513 800.838 217.182 801.849 217.629C802.89 218.045 803.991 218.253 805.151 218.253C806.311 218.253 807.396 218.045 808.408 217.629C809.419 217.182 810.282 216.513 810.996 215.621C811.739 214.728 812.319 213.613 812.736 212.275C813.182 210.906 813.405 209.315 813.405 207.501C813.405 205.627 813.182 204.02 812.736 202.682C812.289 201.314 811.68 200.198 810.906 199.336C810.163 198.443 809.27 197.789 808.229 197.372C807.218 196.956 806.132 196.748 804.972 196.748C803.812 196.748 802.727 196.971 801.715 197.417C800.704 197.834 799.826 198.488 799.083 199.38C798.369 200.273 797.789 201.403 797.343 202.771C796.926 204.11 796.718 205.686 796.718 207.501Z" fill="#7C7B8B"/>
<path d="M846.394 193C849.666 193 852.402 193.55 854.603 194.651L853.533 198.176C852.462 197.67 851.376 197.298 850.276 197.06C849.205 196.822 848.089 196.703 846.929 196.703C845.65 196.703 844.431 196.897 843.271 197.283C842.14 197.67 841.129 198.295 840.237 199.157C839.374 200.02 838.675 201.135 838.14 202.503C837.634 203.872 837.381 205.552 837.381 207.545C837.381 211.025 838.17 213.687 839.746 215.532C841.322 217.346 843.553 218.253 846.439 218.253C847.45 218.253 848.312 218.209 849.026 218.119C849.77 218 850.469 217.822 851.123 217.584V210.178H846.037V206.519H855.63V220.306C854.44 220.782 853.101 221.183 851.614 221.51C850.127 221.837 848.387 222.001 846.394 222.001C844.431 222.001 842.587 221.689 840.861 221.064C839.136 220.439 837.634 219.517 836.355 218.298C835.076 217.078 834.065 215.576 833.321 213.792C832.607 211.977 832.25 209.895 832.25 207.545C832.25 205.195 832.607 203.113 833.321 201.299C834.035 199.484 835.017 197.967 836.266 196.748C837.545 195.499 839.047 194.562 840.772 193.937C842.497 193.312 844.371 193 846.394 193Z" fill="#7C7B8B"/>
<path d="M872.96 193.446L879.652 205.493L886.345 193.446H891.476L881.839 209.821V221.555H877.065V209.821L867.695 193.446H872.96Z" fill="#7C7B8B"/>
<path d="M924.605 193.446H933.797C935.313 193.446 936.682 193.64 937.901 194.026C939.151 194.413 940.206 194.978 941.069 195.722C941.961 196.436 942.646 197.328 943.121 198.399C943.627 199.44 943.88 200.644 943.88 202.013C943.88 203.53 943.612 204.853 943.077 205.984C942.541 207.084 941.798 208.006 940.846 208.75C939.894 209.464 938.764 209.999 937.455 210.356C936.176 210.713 934.778 210.891 933.261 210.891H929.379V221.555H924.605V193.446ZM929.379 207.099H931.923C932.934 207.099 933.856 207.025 934.689 206.876C935.551 206.727 936.295 206.474 936.92 206.117C937.544 205.731 938.035 205.225 938.392 204.6C938.749 203.946 938.927 203.113 938.927 202.102C938.927 201.21 938.764 200.451 938.437 199.826C938.109 199.202 937.663 198.696 937.098 198.309C936.533 197.923 935.893 197.64 935.18 197.462C934.466 197.283 933.707 197.194 932.904 197.194H929.379V207.099Z" fill="#7C7B8B"/>
<path d="M959.949 193.446L965.392 208.839C965.571 209.345 965.764 209.91 965.972 210.534C966.21 211.159 966.448 211.813 966.686 212.498C966.924 213.152 967.147 213.821 967.355 214.505C967.593 215.16 967.802 215.77 967.98 216.335H968.069C968.218 215.77 968.396 215.175 968.605 214.55C968.813 213.896 969.021 213.241 969.229 212.587C969.438 211.932 969.646 211.308 969.854 210.713C970.062 210.118 970.256 209.598 970.434 209.151L976.145 193.446H981.097L970.389 221.555H965.526L954.907 193.446H959.949Z" fill="#7C7B8B"/>
<path d="M1012.91 193.446V197.372H1004.43V221.555H999.655V197.372H991.312V193.446H1012.91Z" fill="#7C7B8B"/>
<path d="M1024.31 218.878C1024.31 218.015 1024.61 217.301 1025.2 216.736C1025.8 216.141 1026.49 215.844 1027.3 215.844C1028.1 215.844 1028.78 216.141 1029.35 216.736C1029.94 217.301 1030.24 218.015 1030.24 218.878C1030.24 219.83 1029.94 220.588 1029.35 221.153C1028.78 221.718 1028.1 222.001 1027.3 222.001C1026.49 222.001 1025.8 221.718 1025.2 221.153C1024.61 220.588 1024.31 219.83 1024.31 218.878Z" fill="#7C7B8B"/>
<path d="M1044.91 193.446H1049.68V217.629H1061.46V221.555H1044.91V193.446Z" fill="#7C7B8B"/>
<path d="M1090.33 193.446V197.372H1081.85V221.555H1077.07V197.372H1068.73V193.446H1090.33Z" fill="#7C7B8B"/>
<path d="M1113.3 193.446C1115.35 193.446 1117.24 193.729 1118.97 194.294C1120.69 194.859 1122.18 195.707 1123.43 196.837C1124.68 197.938 1125.64 199.336 1126.33 201.031C1127.04 202.697 1127.4 204.645 1127.4 206.876C1127.4 209.523 1126.98 211.784 1126.15 213.658C1125.32 215.502 1124.19 217.019 1122.76 218.209C1121.36 219.369 1119.71 220.216 1117.81 220.752C1115.93 221.287 1113.95 221.555 1111.87 221.555H1103.93V193.446H1113.3ZM1108.7 217.718H1111.47C1112.84 217.718 1114.16 217.569 1115.44 217.272C1116.75 216.944 1117.91 216.379 1118.92 215.576C1119.93 214.743 1120.74 213.628 1121.33 212.23C1121.96 210.832 1122.27 209.047 1122.27 206.876C1122.27 203.782 1121.38 201.418 1119.59 199.782C1117.84 198.116 1115.47 197.283 1112.5 197.283H1108.7V217.718Z" fill="#7C7B8B"/>
<defs>
<filter id="filter0_i_1641_138" x="411" y="144.984" width="27" height="30" filterUnits="userSpaceOnUse" color-interpolation-filters="sRGB">
<feFlood flood-opacity="0" result="BackgroundImageFix"/>
<feBlend mode="normal" in="SourceGraphic" in2="BackgroundImageFix" result="shape"/>
<feColorMatrix in="SourceAlpha" type="matrix" values="0 0 0 0 0 0 0 0 0 0 0 0 0 0 0 0 0 0 127 0" result="hardAlpha"/>
<feOffset dy="-3"/>
<feGaussianBlur stdDeviation="2"/>
<feComposite in2="hardAlpha" operator="arithmetic" k2="-1" k3="1"/>
<feColorMatrix type="matrix" values="0 0 0 0 0 0 0 0 0 0 0 0 0 0 0 0 0 0 0.31 0"/>
<feBlend mode="normal" in2="shape" result="effect1_innerShadow_1641_138"/>
</filter>
<filter id="filter1_f_1641_138" x="407.3" y="136.284" width="33.4" height="33.4" filterUnits="userSpaceOnUse" color-interpolation-filters="sRGB">
<feFlood flood-opacity="0" result="BackgroundImageFix"/>
<feBlend mode="normal" in="SourceGraphic" in2="BackgroundImageFix" result="shape"/>
<feGaussianBlur stdDeviation="5.35" result="effect1_foregroundBlur_1641_138"/>
</filter>
<filter id="filter2_i_1641_138" x="420.5" y="85.0955" width="18" height="18.8889" filterUnits="userSpaceOnUse" color-interpolation-filters="sRGB">
<feFlood flood-opacity="0" result="BackgroundImageFix"/>
<feBlend mode="normal" in="SourceGraphic" in2="BackgroundImageFix" result="shape"/>
<feColorMatrix in="SourceAlpha" type="matrix" values="0 0 0 0 0 0 0 0 0 0 0 0 0 0 0 0 0 0 127 0" result="hardAlpha"/>
<feOffset dy="-0.888889"/>
<feGaussianBlur stdDeviation="0.592593"/>
<feComposite in2="hardAlpha" operator="arithmetic" k2="-1" k3="1"/>
<feColorMatrix type="matrix" values="0 0 0 0 0 0 0 0 0 0 0 0 0 0 0 0 0 0 0.31 0"/>
<feBlend mode="normal" in2="shape" result="effect1_innerShadow_1641_138"/>
</filter>
<filter id="filter3_f_1641_138" x="418.035" y="78.185" width="22.2667" height="22.2667" filterUnits="userSpaceOnUse" color-interpolation-filters="sRGB">
<feFlood flood-opacity="0" result="BackgroundImageFix"/>
<feBlend mode="normal" in="SourceGraphic" in2="BackgroundImageFix" result="shape"/>
<feGaussianBlur stdDeviation="3.56667" result="effect1_foregroundBlur_1641_138"/>
</filter>
<filter id="filter4_i_1641_138" x="383" y="20.651" width="12" height="13.3333" filterUnits="userSpaceOnUse" color-interpolation-filters="sRGB">
<feFlood flood-opacity="0" result="BackgroundImageFix"/>
<feBlend mode="normal" in="SourceGraphic" in2="BackgroundImageFix" result="shape"/>
<feColorMatrix in="SourceAlpha" type="matrix" values="0 0 0 0 0 0 0 0 0 0 0 0 0 0 0 0 0 0 127 0" result="hardAlpha"/>
<feOffset dy="-1.33333"/>
<feGaussianBlur stdDeviation="0.888889"/>
<feComposite in2="hardAlpha" operator="arithmetic" k2="-1" k3="1"/>
<feColorMatrix type="matrix" values="0 0 0 0 0 0 0 0 0 0 0 0 0 0 0 0 0 0 0.31 0"/>
<feBlend mode="normal" in2="shape" result="effect1_innerShadow_1641_138"/>
</filter>
<filter id="filter5_f_1641_138" x="381.354" y="16.7835" width="14.8431" height="14.8451" filterUnits="userSpaceOnUse" color-interpolation-filters="sRGB">
<feFlood flood-opacity="0" result="BackgroundImageFix"/>
<feBlend mode="normal" in="SourceGraphic" in2="BackgroundImageFix" result="shape"/>
<feGaussianBlur stdDeviation="2.37778" result="effect1_foregroundBlur_1641_138"/>
</filter>
<filter id="filter6_i_1641_138" x="0" y="106.984" width="27" height="30" filterUnits="userSpaceOnUse" color-interpolation-filters="sRGB">
<feFlood flood-opacity="0" result="BackgroundImageFix"/>
<feBlend mode="normal" in="SourceGraphic" in2="BackgroundImageFix" result="shape"/>
<feColorMatrix in="SourceAlpha" type="matrix" values="0 0 0 0 0 0 0 0 0 0 0 0 0 0 0 0 0 0 127 0" result="hardAlpha"/>
<feOffset dy="-3"/>
<feGaussianBlur stdDeviation="2"/>
<feComposite in2="hardAlpha" operator="arithmetic" k2="-1" k3="1"/>
<feColorMatrix type="matrix" values="0 0 0 0 0 0 0 0 0 0 0 0 0 0 0 0 0 0 0.31 0"/>
<feBlend mode="normal" in2="shape" result="effect1_innerShadow_1641_138"/>
</filter>
<filter id="filter7_f_1641_138" x="-3.7" y="98.2844" width="33.4" height="33.4" filterUnits="userSpaceOnUse" color-interpolation-filters="sRGB">
<feFlood flood-opacity="0" result="BackgroundImageFix"/>
<feBlend mode="normal" in="SourceGraphic" in2="BackgroundImageFix" result="shape"/>
<feGaussianBlur stdDeviation="5.35" result="effect1_foregroundBlur_1641_138"/>
</filter>
<linearGradient id="paint0_linear_1641_138" x1="246" y1="282.985" x2="395" y2="185.485" gradientUnits="userSpaceOnUse">
<stop stop-color="#3D1580"/>
<stop offset="1" stop-color="#9428CA"/>
</linearGradient>
<linearGradient id="paint1_linear_1641_138" x1="392.726" y1="124.984" x2="293.312" y2="271.984" gradientUnits="userSpaceOnUse">
<stop stop-color="#CED5F1"/>
<stop offset="0.515057" stop-color="#B899D8" stop-opacity="0.5"/>
<stop offset="1" stop-color="#A361C1" stop-opacity="0.5"/>
</linearGradient>
<linearGradient id="paint2_linear_1641_138" x1="414.5" y1="141.984" x2="102.794" y2="256.419" gradientUnits="userSpaceOnUse">
<stop offset="0.0181191" stop-color="#47D6E4"/>
<stop offset="0.484361" stop-color="#7CB3F4"/>
<stop offset="1" stop-color="#55A8EE"/>
</linearGradient>
<linearGradient id="paint3_linear_1641_138" x1="202" y1="136.39" x2="325" y2="136.39" gradientUnits="userSpaceOnUse">
<stop stop-color="#53ADE3"/>
<stop offset="1" stop-color="#44D8E6"/>
</linearGradient>
<linearGradient id="paint4_linear_1641_138" x1="345.498" y1="20.4851" x2="80.3594" y2="156.796" gradientUnits="userSpaceOnUse">
<stop stop-color="#9A30CD" stop-opacity="0"/>
<stop offset="0.591909" stop-color="#C13ADC"/>
<stop offset="1" stop-color="#C13ADC"/>
</linearGradient>
<linearGradient id="paint5_linear_1641_138" x1="466.597" y1="109.153" x2="7.00001" y2="214.475" gradientUnits="userSpaceOnUse">
<stop stop-color="#4E96C8"/>
<stop offset="0.511031" stop-color="#8539AD"/>
<stop offset="1" stop-color="#4895C1"/>
</linearGradient>
<linearGradient id="paint6_linear_1641_138" x1="313" y1="15.9448" x2="355.5" y2="43.5239" gradientUnits="userSpaceOnUse">
<stop stop-color="white" stop-opacity="0"/>
<stop offset="1" stop-color="#9DA7EE"/>
</linearGradient>
<linearGradient id="paint7_linear_1641_138" x1="165.5" y1="61.0753" x2="328" y2="54.9858" gradientUnits="userSpaceOnUse">
<stop stop-color="#781EBA" stop-opacity="0.6"/>
<stop offset="1" stop-color="#591BB6"/>
</linearGradient>
<linearGradient id="paint8_linear_1641_138" x1="191.999" y1="21.4841" x2="120.999" y2="192.984" gradientUnits="userSpaceOnUse">
<stop stop-color="white" stop-opacity="0.1"/>
<stop offset="0.229199" stop-color="#A632C9" stop-opacity="0.48"/>
<stop offset="1" stop-color="#40128C" stop-opacity="0"/>
</linearGradient>
<linearGradient id="paint9_linear_1641_138" x1="47.5" y1="173.984" x2="245.5" y2="210.484" gradientUnits="userSpaceOnUse">
<stop stop-color="#70B5F8"/>
<stop offset="1" stop-color="#7EF8F5"/>
</linearGradient>
<linearGradient id="paint10_linear_1641_138" x1="349" y1="196.103" x2="180" y2="254.881" gradientUnits="userSpaceOnUse">
<stop stop-color="#3F1C8B"/>
<stop offset="1" stop-color="#8628BD"/>
</linearGradient>
<linearGradient id="paint11_linear_1641_138" x1="424.5" y1="147.984" x2="424.5" y2="174.984" gradientUnits="userSpaceOnUse">
<stop stop-color="#681DB1"/>
<stop offset="1" stop-color="#38176C"/>
</linearGradient>
<linearGradient id="paint12_linear_1641_138" x1="429.5" y1="85.9844" x2="429.5" y2="103.984" gradientUnits="userSpaceOnUse">
<stop stop-color="#45B8E0"/>
<stop offset="1" stop-color="#3975B3"/>
</linearGradient>
<linearGradient id="paint13_linear_1641_138" x1="389" y1="21.9844" x2="389" y2="33.9844" gradientUnits="userSpaceOnUse">
<stop stop-color="#45B8E0"/>
<stop offset="1" stop-color="#3975B3"/>
</linearGradient>
<linearGradient id="paint14_linear_1641_138" x1="13.5" y1="109.984" x2="13.5" y2="136.984" gradientUnits="userSpaceOnUse">
<stop stop-color="#681DB1"/>
<stop offset="1" stop-color="#38176C"/>
</linearGradient>
<linearGradient id="paint15_linear_1641_138" x1="608.513" y1="63.2361" x2="557.519" y2="166.517" gradientUnits="userSpaceOnUse">
<stop offset="0.00732104" stop-color="#3DA8DC"/>
<stop offset="1" stop-color="#336EB7"/>
</linearGradient>
<linearGradient id="paint16_linear_1641_138" x1="713.865" y1="57.9396" x2="656.682" y2="157.111" gradientUnits="userSpaceOnUse">
<stop offset="0.00732104" stop-color="#3ACFEF"/>
<stop offset="1" stop-color="#336EB7"/>
</linearGradient>
<linearGradient id="paint17_linear_1641_138" x1="735.796" y1="61.9119" x2="832.138" y2="164.246" gradientUnits="userSpaceOnUse">
<stop offset="0.00732104" stop-color="#43DBF8"/>
<stop offset="1" stop-color="#336EB7"/>
</linearGradient>
<linearGradient id="paint18_linear_1641_138" x1="1031" y1="62.375" x2="1031" y2="164.73" gradientUnits="userSpaceOnUse">
<stop stop-color="#7225C4"/>
<stop offset="1" stop-color="#5121A9"/>
</linearGradient>
<linearGradient id="paint19_linear_1641_138" x1="1127.6" y1="62.375" x2="1127.6" y2="164.73" gradientUnits="userSpaceOnUse">
<stop stop-color="#7225C4"/>
<stop offset="1" stop-color="#5121A9"/>
</linearGradient>
<clipPath id="clip0_1641_138">
<rect x="411" y="147.984" width="27" height="27" rx="13.5" fill="white"/>
</clipPath>
<clipPath id="clip1_1641_138">
<path d="M420.5 94.9844C420.5 90.0138 424.529 85.9844 429.5 85.9844C434.471 85.9844 438.5 90.0138 438.5 94.9844C438.5 99.9549 434.471 103.984 429.5 103.984C424.529 103.984 420.5 99.9549 420.5 94.9844Z" fill="white"/>
</clipPath>
<clipPath id="clip2_1641_138">
<rect x="383" y="21.9844" width="12" height="12" rx="6" fill="white"/>
</clipPath>
<clipPath id="clip3_1641_138">
<rect y="109.984" width="27" height="27" rx="13.5" fill="white"/>
</clipPath>
</defs>
</svg>
