<svg width="161" height="31" viewBox="0 0 161 31" fill="none" xmlns="http://www.w3.org/2000/svg">
<path d="M3.50562 30.2385C0.659304 30.2385 -0.99642 27.0214 0.657959 24.7053L17.0828 1.71019C19.0616 -1.0595 23.4293 0.340277 23.4294 3.74437V24.9895C23.4294 27.8884 21.0793 30.2384 18.1804 30.2385H3.50562Z" fill="#141414"/>
<path d="M45.103 0.238455C47.9493 0.238455 49.605 3.45552 47.9507 5.77166L31.5259 28.7668C29.547 31.5365 25.1793 30.1367 25.1792 26.7326V5.48748C25.1793 2.58855 27.5293 0.23849 30.4282 0.238455H45.103Z" fill="url(#paint0_linear_138_444)"/>
<path d="M135.371 16.251H142.178L139.235 21.3057H135.371V26.2109H129.867V21.3057H121.892C119.87 21.3056 118.148 20.0325 118.147 17.7861C118.147 16.9624 118.222 15.9136 119.083 14.7529L129.53 0H135.371V16.251ZM147.32 10.0723L150.615 4.19336H156.682L150.278 15.127L156.869 26.2109H150.69L147.021 19.6953L143.352 26.2109H137.248L144.062 14.5654L137.96 4.19336H144.101L147.32 10.0723ZM130.017 9.2666C130.016 8.619 129.178 8.36316 128.816 8.90039L123.876 16.251H129.143C129.625 16.2507 130.016 15.8589 130.017 15.376V9.2666Z" fill="url(#paint1_linear_138_444)"/>
<path d="M110.628 17.1118L115.084 4.19377H120.85L111.19 30.4043H105.423L107.632 24.4882L100.78 4.19377H106.958L110.628 17.1118Z" fill="#141414"/>
<path d="M94.9319 6.29061V4.19377H100.436V26.2106H94.9319V24.1137C93.4341 25.6864 91.3373 26.6599 88.529 26.6599C82.2385 26.6599 77.3708 21.8297 77.3708 15.2022C77.3708 8.6121 82.2385 3.74444 88.529 3.74444C91.0752 3.74444 93.2844 4.60565 94.9319 6.29061ZM89.1281 21.1931C92.5355 21.1931 95.0817 18.647 95.0817 15.0898C95.0817 11.5701 92.5355 9.02398 89.1281 9.02398C85.7956 9.02398 83.212 11.5701 83.212 15.0898C83.212 18.647 85.7956 21.1931 89.1281 21.1931Z" fill="#141414"/>
<path d="M76.0769 26.2106H70.2732V8.96454e-05H76.0769V26.2106Z" fill="#141414"/>
<path d="M60.9777 26.6599C56.2973 26.6599 53.1146 23.964 52.7776 19.3584H58.3192C58.4316 21.1183 59.5923 22.0918 61.0526 22.0918C62.438 22.0918 63.3741 21.268 63.3741 20.1447C63.3741 18.6095 62.2883 18.1602 58.9558 17.3365C55.6982 16.5127 52.9648 14.4533 52.9648 10.5217C52.9648 6.59015 56.0726 3.74444 60.7156 3.74444C65.3586 3.74444 68.2792 6.44038 68.6162 10.7464H63.1869C63.0746 9.13632 62.0261 8.27511 60.7531 8.27511C59.3677 8.27511 58.5065 9.13631 58.5065 10.1847C58.5065 11.6076 59.4425 12.0195 62.775 12.9556C66.2198 13.8542 68.8783 16.0259 68.8783 19.6954C68.8783 24.0388 65.6956 26.6599 60.9777 26.6599Z" fill="#141414"/>
<path d="M159.172 4.08416C160.064 4.08416 160.821 4.82724 160.821 5.71502C160.821 6.62049 160.069 7.34686 159.172 7.34686C158.275 7.34675 157.527 6.62042 157.527 5.71502C157.528 4.81856 158.275 4.08427 159.172 4.08416ZM159.172 4.29803C158.389 4.29813 157.777 4.94541 157.776 5.71502C157.776 6.48045 158.402 7.13288 159.172 7.13299C159.942 7.13299 160.572 6.48051 160.572 5.71502C160.572 4.93223 159.937 4.29803 159.172 4.29803ZM159.329 4.72674C159.696 4.72674 159.968 4.98924 159.968 5.34783C159.968 5.61466 159.828 5.80718 159.657 5.88592L159.968 6.61639H159.426L159.198 5.9826H159.023V6.61639H158.542V4.72674H159.329ZM159.023 5.5451H159.246C159.377 5.5451 159.456 5.46195 159.456 5.3615C159.456 5.24777 159.382 5.17693 159.246 5.17693H159.023V5.5451Z" fill="#141414"/>
<defs>
<linearGradient id="paint0_linear_138_444" x1="36.8939" y1="0.238455" x2="36.8939" y2="30.2385" gradientUnits="userSpaceOnUse">
<stop stop-color="#1DABFD"/>
<stop offset="1" stop-color="#4957F5"/>
</linearGradient>
<linearGradient id="paint1_linear_138_444" x1="137.508" y1="0" x2="137.508" y2="26.2109" gradientUnits="userSpaceOnUse">
<stop stop-color="#1DABFD"/>
<stop offset="1" stop-color="#4957F5"/>
</linearGradient>
</defs>
</svg>
