<svg width="1078" height="150" viewBox="0 0 1078 150" fill="none" xmlns="http://www.w3.org/2000/svg">
<g clip-path="url(#clip0_1146_3042)">
<mask id="mask0_1146_3042" style="mask-type:luminance" maskUnits="userSpaceOnUse" x="0" y="0" width="1078" height="150">
<path d="M1078 0H0V150H1078V0Z" fill="white"/>
</mask>
<g mask="url(#mask0_1146_3042)">
<path d="M107.797 26.5992H0V0H125.514L117.829 19.8438C115.694 24.3474 112.35 26.5992 107.797 26.5992ZM30.9515 147.773H0V61.0092H96.2698L89.6525 79.5865C87.5179 84.3715 84.1738 86.764 79.62 86.764H36.2879C34.8649 86.764 33.5841 87.2566 32.4457 88.2417C31.4495 89.2269 30.9515 90.4935 30.9515 92.0416V147.773Z" fill="black"/>
<path d="M197.279 149.798C184.07 149.798 171.738 146.616 160.282 140.254C148.961 133.891 139.796 125.108 132.787 113.904C125.913 102.562 122.477 89.5604 122.477 74.8988C122.477 61.2054 125.711 48.6877 132.181 37.3457C138.785 26.0036 147.748 16.9439 159.069 10.1663C170.39 3.38877 183.127 0 197.279 0C210.757 0 223.156 3.25045 234.478 9.75136C245.934 16.114 255.099 24.8971 261.973 36.1008C268.846 47.3045 272.283 60.2372 272.283 74.8988C272.283 88.5922 268.981 101.11 262.377 112.452C255.908 123.794 247.012 132.854 235.691 139.631C224.369 146.409 211.565 149.798 197.279 149.798ZM197.279 122.203C210.352 122.203 221.067 117.708 229.423 108.717C237.915 99.5884 242.16 88.3156 242.16 74.8988C242.16 61.482 237.915 50.2783 229.423 41.2877C221.067 32.1588 210.352 27.5943 197.279 27.5943C184.61 27.5943 173.962 32.0896 165.336 41.0802C156.845 50.0708 152.6 61.3437 152.6 74.8988C152.6 88.3156 156.845 99.5884 165.336 108.717C173.962 117.708 184.61 122.203 197.279 122.203Z" fill="black"/>
<path d="M426.14 147.773H398.386C394.432 147.773 391.254 145.873 388.853 142.073L365.76 96.897C363.501 93.0971 360.323 91.1972 356.227 91.1972H329.321V147.773H298.602V66.0758H368.303C375.365 66.0758 380.943 64.2462 385.039 60.587C389.135 56.9279 391.183 52.1429 391.183 46.2319C391.183 40.321 389.135 35.536 385.039 31.8768C380.943 28.2177 375.365 26.3881 368.303 26.3881H309.194C306.228 26.3881 303.686 25.4029 301.568 23.4326C299.59 21.3216 298.602 18.7883 298.602 15.8329V0H371.057C385.887 0 398.104 4.22209 407.708 12.6663C417.453 20.9697 422.326 32.0175 422.326 45.8097C422.326 55.5205 419.572 63.9647 414.064 71.1423C408.697 78.1791 401.776 83.4567 393.302 86.9751L426.14 147.773Z" fill="black"/>
<path d="M547.893 26.5992H446.383V0H564.811L557.157 19.8438C555.009 24.3474 551.921 26.5992 547.893 26.5992ZM520.904 86.764H446.383V61.0092H537.419L530.169 80.0087C528.02 84.5122 524.932 86.764 520.904 86.764ZM548.497 147.773H446.383V121.174H564.811L557.963 140.807C555.949 145.451 552.794 147.773 548.497 147.773Z" fill="black"/>
<path d="M735.872 147.773H702.47L656.92 30.8704L613.395 147.773H578.98L640.042 0H667.042C674.11 0 677.315 2.57856 680.707 9.61538L735.872 147.773Z" fill="black"/>
<path d="M804.705 64.7773L755.106 0H793.03L823.936 40.4858L804.705 64.7773ZM903.901 147.773H865.437L833.552 105.263L853.29 81.4777L903.901 147.773ZM783.448 147.773H753.082L858.612 6.75535C862.458 2.25178 867.015 0 872.284 0H901.876L796.607 141.7C792.904 146.204 788.86 147.773 783.448 147.773Z" fill="black"/>
<path d="M1078 147.773H1044.6L1000.57 30.3644L955.524 147.773H921.109L982.17 0H1009.17C1016.24 0 1019.44 2.57856 1022.84 9.61538L1078 147.773Z" fill="black"/>
</g>
</g>
<defs>
<clipPath id="clip0_1146_3042">
<rect width="1078" height="150" fill="white"/>
</clipPath>
</defs>
</svg>
