<svg width="80" height="20" viewBox="0 0 80 20" fill="none" xmlns="http://www.w3.org/2000/svg">
<path fill-rule="evenodd" clip-rule="evenodd" d="M31.1095 15.208V4.6724H33.7911V5.84006C34.1855 5.35448 34.6259 4.98704 35.1122 4.7445C35.592 4.50156 36.1375 4.37705 36.7226 4.37705C37.393 4.37705 37.9582 4.50156 38.4312 4.75096C38.9045 5.00036 39.3187 5.3872 39.6673 5.92509C40.0351 5.40689 40.469 5.02005 40.9815 4.76419C41.4811 4.50832 42.0464 4.37695 42.664 4.37695C43.7224 4.37695 44.5637 4.68523 45.1881 5.30854C45.8057 5.92509 46.1211 6.77155 46.1211 7.84743V15.2079H43.3343V8.4245C43.3343 7.91316 43.1965 7.51946 42.9202 7.23744C42.651 6.95502 42.2695 6.81759 41.7768 6.81759C41.2248 6.81759 40.7844 6.9945 40.4621 7.35548C40.1402 7.71616 39.9758 8.20164 39.9758 8.82496V15.2079H37.2152V8.44419C37.2152 7.92599 37.0774 7.52593 36.8079 7.24381C36.5451 6.96178 36.1705 6.81749 35.6842 6.81749C35.1319 6.81749 34.6979 7.00087 34.376 7.36184C34.0541 7.72253 33.8962 8.21447 33.8962 8.84425V15.2078H31.1094L31.1095 15.208Z" fill="#0D0D2B"/>
<path fill-rule="evenodd" clip-rule="evenodd" d="M57.7695 15.2077V4.67204H60.5301V5.92483C60.9242 5.41349 61.3911 5.03272 61.9297 4.77686C62.4624 4.52099 63.0671 4.39648 63.7242 4.39648C64.8874 4.39648 65.7616 4.69829 66.3402 5.30192C66.9183 5.90554 67.2076 6.81057 67.2076 8.02418V15.2078H64.3882V8.83772C64.3882 8.08345 64.2564 7.54546 64.0003 7.22396C63.744 6.90246 63.3298 6.73838 62.7581 6.73838C62.0877 6.73838 61.5619 6.93537 61.174 7.33553C60.7863 7.72923 60.5889 8.27358 60.5889 8.95576V15.2078L57.7695 15.2077Z" fill="#0D0D2B"/>
<path fill-rule="evenodd" clip-rule="evenodd" d="M26.889 11.7508C26.889 12.7071 26.1061 13.4883 25.148 13.4883C24.1899 13.4883 23.4074 12.7071 23.4074 11.7508C23.4074 10.7946 24.1903 10.0133 25.148 10.0133H26.889V11.7508ZM29.7623 14.2442C29.6704 14.0278 29.6244 13.6998 29.6244 13.2602V7.27736C29.6244 6.31276 29.23 5.57131 28.4412 5.06643C27.6527 4.5547 26.5287 4.29883 25.05 4.29883C23.7024 4.29883 22.6444 4.6071 21.8821 5.22355C21.1194 5.8404 20.7383 6.69303 20.7383 7.77577V7.966H23.3804V7.81495C23.3804 7.38863 23.5314 7.06743 23.8405 6.83782C24.1427 6.61457 24.5831 6.50299 25.1483 6.50299C25.7728 6.50299 26.2196 6.59488 26.4826 6.77855C26.7458 6.96232 26.8835 7.27049 26.8835 7.69721C26.8835 8.67931 26.7556 8.88545 24.0728 8.88545C24.0049 8.88545 23.9377 8.89003 23.8698 8.88734C23.4222 8.86875 20.7383 8.90137 20.7383 12.3453C20.7383 15.6612 23.5577 15.5891 23.5577 15.5891C24.3203 15.5891 24.9908 15.4445 25.5689 15.156C26.1475 14.8675 26.614 14.4476 26.969 13.9029C26.9755 14.1523 27.002 14.3885 27.0544 14.6116C27.1072 14.828 27.1793 15.0315 27.278 15.2084H30.2223V14.7361C30.0055 14.6245 29.8546 14.4605 29.7623 14.2442Z" fill="#0D0D2B"/>
<path fill-rule="evenodd" clip-rule="evenodd" d="M53.5412 11.7508C53.5412 12.7071 52.7584 13.4883 51.8002 13.4883C50.8421 13.4883 50.0597 12.7071 50.0597 11.7508C50.0597 10.7946 50.8425 10.0133 51.8002 10.0133H53.5412V11.7508ZM56.4146 14.2442C56.3227 14.0278 56.2768 13.6998 56.2768 13.2602V7.27736C56.2768 6.31276 55.8824 5.57131 55.0935 5.06643C54.305 4.5547 53.181 4.29883 51.7024 4.29883C50.3547 4.29883 49.2968 4.6071 48.5344 5.22355C47.7718 5.8404 47.3906 6.69303 47.3906 7.77577V7.966H50.0327V7.81495C50.0327 7.38863 50.1838 7.06743 50.4929 6.83782C50.7951 6.61457 51.2354 6.50299 51.8006 6.50299C52.4251 6.50299 52.8719 6.59488 53.135 6.77855C53.398 6.96232 53.5358 7.27049 53.5358 7.69721C53.5358 8.67931 53.4078 8.88545 50.7252 8.88545C50.6572 8.88545 50.59 8.89003 50.5221 8.88734C50.0745 8.86875 47.3906 8.90137 47.3906 12.3453C47.3906 15.6612 50.21 15.5891 50.21 15.5891C50.9727 15.5891 51.6431 15.4445 52.2213 15.156C52.7998 14.8675 53.2664 14.4476 53.6213 13.9029C53.6278 14.1523 53.6544 14.3885 53.7068 14.6116C53.7596 14.828 53.8317 15.0315 53.9304 15.2084H56.8747V14.7361C56.6579 14.6245 56.5069 14.4605 56.4146 14.2442Z" fill="#0D0D2B"/>
<path fill-rule="evenodd" clip-rule="evenodd" d="M74.631 11.7508C74.631 12.7071 73.8479 13.4883 72.8901 13.4883C71.9322 13.4883 71.1491 12.7071 71.1491 11.7508C71.1491 10.7946 71.932 10.0133 72.8901 10.0133H74.631V11.7508ZM77.5045 14.2442C77.4126 14.0278 77.3666 13.6998 77.3666 13.2602V7.27736C77.3666 6.31276 76.9722 5.57131 76.1834 5.06643C75.3945 4.5547 74.2709 4.29883 72.7918 4.29883C71.4446 4.29883 70.3866 4.6071 69.6239 5.22355C68.8615 5.8404 68.4805 6.69303 68.4805 7.77577V7.966H71.1227V7.81495C71.1227 7.38863 71.2737 7.06743 71.5828 6.83782C71.885 6.61457 72.3253 6.50299 72.8906 6.50299C73.5151 6.50299 73.9619 6.59488 74.2249 6.77855C74.4876 6.96232 74.6258 7.27049 74.6258 7.69721C74.6258 8.67931 74.4975 8.88545 71.8147 8.88545C71.7468 8.88545 71.6796 8.89003 71.6116 8.88734C71.1644 8.86875 68.4806 8.90137 68.4806 12.3453C68.4806 15.6612 71.3 15.5891 71.3 15.5891C72.0626 15.5891 72.7327 15.4445 73.3112 15.156C73.8898 14.8675 74.3563 14.4476 74.7113 13.9029C74.7178 14.1523 74.7439 14.3885 74.7967 14.6116C74.8491 14.828 74.9216 15.0315 75.02 15.2084H77.9647V14.7361C77.7479 14.6245 77.5964 14.4605 77.5046 14.2442H77.5045Z" fill="#0D0D2B"/>
<path fill-rule="evenodd" clip-rule="evenodd" d="M1.9794 2.19336V6.31539H12.9691V17.2997H17.0934V7.51378C17.0946 7.19367 17.0655 6.87386 17.0074 6.55912C16.7787 5.33587 16.1303 4.23046 15.174 3.43362C14.2179 2.63678 13.0132 2.19793 11.7683 2.19336H1.9794ZM11.8164 7.47589H6.70296C5.69172 7.47589 4.70335 7.77551 3.86236 8.33707C3.02167 8.89873 2.36624 9.69676 1.9791 10.6304C1.59227 11.5645 1.49074 12.5921 1.68803 13.5835C1.88573 14.575 2.3725 15.4855 3.0876 16.2002C3.80269 16.9149 4.71389 17.4017 5.70574 17.5989C6.69759 17.7958 7.72544 17.6947 8.65991 17.3079C9.59438 16.921 10.3928 16.266 10.9545 15.4257C11.5165 14.5854 11.8164 13.597 11.8164 12.5862V7.47589Z" fill="url(#paint0_linear_1248_352)"/>
<defs>
<linearGradient id="paint0_linear_1248_352" x1="-0.046658" y1="14.0662" x2="18.6475" y2="5.63957" gradientUnits="userSpaceOnUse">
<stop stop-color="#662D91"/>
<stop offset="1" stop-color="#FF00FF"/>
</linearGradient>
</defs>
</svg>
