<svg width="82" height="20" viewBox="0 0 82 20" fill="none" xmlns="http://www.w3.org/2000/svg">
<g clip-path="url(#clip0_1248_310)">
<path d="M26.5598 14.2496C24.2281 12.9036 22.9895 10.5855 22.9883 8.3498V8.34528C22.9838 7.43293 23.2187 6.59737 23.6737 5.80583C24.7487 4.11776 26.5022 3.15686 28.6058 3.15234H28.6318C29.9676 3.16364 31.2763 3.41092 32.4291 4.08502C32.7905 4.29278 33.1348 4.53103 33.4578 4.79412L33.4273 4.76702C33.4465 4.78396 33.4657 4.79977 33.4849 4.8167C33.5312 4.85397 33.5763 4.89349 33.6215 4.93188C33.5775 4.89236 33.5323 4.85509 33.486 4.81783C35.8764 6.90111 36.791 10.2231 35.4236 12.5931C35.4078 12.6191 35.3931 12.6451 35.3762 12.671C35.1594 13.0256 34.7732 13.2424 34.3566 13.2435C33.6972 13.2435 33.1631 12.7094 33.1631 12.05C33.1631 11.6571 33.3562 11.289 33.6802 11.0654C34.1104 10.7752 34.4695 10.3924 34.7303 9.94415C35.6212 8.40061 34.9844 6.1841 33.4578 4.79638C33.2342 4.61459 32.996 4.45086 32.7464 4.30633C30.5762 3.05298 27.9464 3.54529 26.8726 5.40499C25.7988 7.26469 26.6886 9.7872 28.8588 11.0406C29.4335 11.3736 30.067 11.5938 30.7241 11.6876C31.6139 11.8174 32.2744 12.5807 32.2744 13.4795C32.2744 14.4799 31.4637 15.2907 30.4644 15.2929C30.4305 15.2929 30.3978 15.2929 30.3639 15.2929C29.027 15.2828 27.7149 14.9237 26.5598 14.2496Z" fill="url(#paint0_linear_1248_310)"/>
<path d="M60.0192 9.86401C60.8536 9.86063 61.1991 9.44962 61.1957 8.48307C61.1844 5.85329 59.2051 3.24609 55.524 3.24609C51.7335 3.24609 49.4786 6.26204 49.5983 9.35703C49.7056 12.1381 51.7008 15.0728 55.9644 15.0728C57.7575 15.0728 60.6029 14.0159 60.6108 12.6722C60.6108 12.6722 60.6108 12.3323 60.6108 12.3312L60.6063 10.9299C60.6063 10.8419 60.5002 10.7967 60.4381 10.8588C59.9503 11.3421 58.4666 12.6812 56.2625 12.6937C53.9974 12.7061 52.6933 11.5702 52.6729 9.90353C52.6729 9.88208 52.6899 9.86401 52.7113 9.86401H60.018H60.0192ZM52.7655 8.02689C52.7407 8.02689 52.7226 8.00318 52.7283 7.97947C53.084 6.47545 54.0912 5.67827 55.6494 5.67827C57.0371 5.67827 58.0443 6.56126 58.2329 7.98399C58.2362 8.00657 58.2182 8.02802 58.1945 8.02802H52.7667L52.7655 8.02689Z" fill="#0E0D51"/>
<path d="M10.673 9.20729C10.673 9.17681 10.673 9.14745 10.673 9.11696C10.673 9.08647 10.673 9.05712 10.673 9.02776C10.673 5.40433 13.9498 3.15169 17.1724 3.17201H17.2345C17.3609 3.17201 17.4851 3.1754 17.606 3.18104C20.0156 3.28267 21.9419 4.55521 21.8787 5.61435V7.18951C21.8787 7.27871 21.7782 7.33065 21.7059 7.27758C21.1424 6.86093 19.285 5.59967 17.449 5.59967C15.3375 5.59967 13.8888 7.19628 13.838 9.11922C13.8888 11.0422 15.5645 12.6568 17.6748 12.6568C19.5029 12.6568 21.1955 11.3154 21.7161 10.8626C21.7793 10.8073 21.8787 10.8525 21.8787 10.9371V12.7359C21.8798 13.7047 19.6249 15.0088 17.6082 15.0653C17.4829 15.0709 17.3553 15.0732 17.2243 15.0743H17.1746C13.3141 15.0743 10.6662 12.4118 10.6719 9.20955L10.673 9.20729Z" fill="#0E0D51"/>
<path d="M0.00112915 6.76051C0.00112915 8.87427 1.42385 9.62854 3.25758 10.0813L5.11164 10.5341C6.23288 10.8141 6.92279 10.944 6.92279 11.7423C6.92279 12.3893 6.21143 12.7721 5.09019 12.7721C2.89964 12.7721 1.22625 11.8473 0.283415 10.9056C0.220183 10.8424 0.114044 10.8875 0.114044 10.9767V12.8252C0.114044 13.576 2.14763 15.0857 4.99421 15.0857C7.36654 15.0857 10.072 13.9001 10.072 11.3336C10.072 9.13285 7.93676 8.37858 6.14707 7.9687L4.83161 7.66722C3.86168 7.45155 3.14919 7.27879 3.14919 6.54597C3.14919 5.87752 3.86055 5.57604 4.96033 5.57604C6.66083 5.57604 8.80507 6.7447 9.3832 7.07893C9.44982 7.11732 9.53224 7.0699 9.53224 6.99312V5.64153C9.53224 4.22558 7.31009 3.17773 4.9163 3.17773C2.73818 3.17773 0 4.19622 0 6.76277L0.00112915 6.76051Z" fill="#0E0D51"/>
<path d="M43.3889 3.22461C41.8578 3.22461 41.1182 3.89532 40.4509 4.46102V3.32623C40.4509 3.2709 40.4057 3.22461 40.3493 3.22461H37.2724C37.2204 3.22461 37.1775 3.26752 37.1775 3.31946V16.2527H37.1719V19.5193C38.9762 19.5193 40.4385 18.0571 40.4385 16.2527H40.4396V13.9199C41.1713 14.5477 42.0295 15.0637 43.4748 15.0637C46.7956 15.0637 48.88 12.3221 48.88 9.3028C48.88 5.22658 46.0199 3.22461 43.3889 3.22461ZM46.1316 9.11084C46.1316 10.5776 45.2227 12.5491 43.2173 12.5491C41.2978 12.5705 40.1528 10.7289 40.1528 9.11084C40.1528 7.32115 41.3836 5.72115 43.2173 5.72115C44.8997 5.76406 46.1316 7.25566 46.1316 9.11084Z" fill="#0E0D51"/>
<path d="M63.207 15.0546V12.0703H64.571C64.8443 12.0703 65.0791 12.1143 65.2767 12.2024C65.4743 12.2905 65.6268 12.4181 65.7352 12.5841C65.8436 12.7501 65.8966 12.9465 65.8966 13.1746C65.8966 13.4027 65.8425 13.5935 65.7352 13.7561C65.6268 13.9199 65.4743 14.0441 65.2767 14.131C65.0791 14.2179 64.8443 14.2609 64.571 14.2609H63.6756L64.0505 13.9074V15.0546H63.207ZM64.0516 13.9978L63.6768 13.6093H64.5214C64.6975 13.6093 64.8285 13.5709 64.9154 13.4942C65.0024 13.4174 65.0453 13.3112 65.0453 13.1746C65.0453 13.038 65.0024 12.9273 64.9154 12.8506C64.8285 12.7738 64.6975 12.7354 64.5214 12.7354H63.6768L64.0516 12.347V13.9966V13.9978ZM65.0532 15.0546L64.3113 13.9673H65.2101L65.9565 15.0546H65.0532Z" fill="#0E0D51"/>
<path d="M67.8646 15.1127C67.6264 15.1127 67.4062 15.0743 67.2041 14.9975C67.002 14.9207 66.8269 14.8123 66.6779 14.6712C66.5288 14.53 66.4125 14.3663 66.3301 14.1789C66.2477 13.9914 66.207 13.7848 66.207 13.5612C66.207 13.3376 66.2488 13.131 66.3301 12.9436C66.4125 12.7561 66.5288 12.5924 66.6779 12.4513C66.8269 12.3101 67.0031 12.2017 67.2041 12.1249C67.4051 12.0482 67.6264 12.0098 67.8646 12.0098C68.1029 12.0098 68.3276 12.0482 68.5274 12.1249C68.7273 12.2017 68.9023 12.3101 69.0491 12.4513C69.1959 12.5924 69.3122 12.7561 69.3969 12.9436C69.4816 13.131 69.5222 13.3376 69.5222 13.5612C69.5222 13.7848 69.4804 13.9925 69.3969 14.1811C69.3133 14.3697 69.197 14.5345 69.0491 14.6734C68.9012 14.8123 68.7273 14.9207 68.5274 14.9975C68.3276 15.0743 68.1063 15.1127 67.8646 15.1127ZM67.8646 14.4126C67.9787 14.4126 68.0837 14.3923 68.1819 14.3527C68.2801 14.3132 68.3648 14.2556 68.4382 14.18C68.5105 14.1043 68.5669 14.014 68.6087 13.909C68.6505 13.804 68.6708 13.6877 68.6708 13.559C68.6708 13.4302 68.6505 13.3105 68.6087 13.2067C68.5669 13.1028 68.5105 13.0136 68.4382 12.9379C68.366 12.8623 68.2801 12.8047 68.1819 12.7652C68.0837 12.7256 67.9775 12.7053 67.8646 12.7053C67.7517 12.7053 67.6456 12.7256 67.5473 12.7652C67.4491 12.8047 67.3644 12.8623 67.2921 12.9379C67.2199 13.0136 67.1623 13.1028 67.1216 13.2067C67.0799 13.3105 67.0595 13.428 67.0595 13.559C67.0595 13.6899 67.0799 13.8028 67.1216 13.909C67.1623 14.014 67.2199 14.1043 67.2921 14.18C67.3644 14.2556 67.4502 14.3132 67.5473 14.3527C67.6456 14.3923 67.7517 14.4126 67.8646 14.4126Z" fill="#0E0D51"/>
<path d="M71.0157 15.1124C70.7707 15.1124 70.5358 15.0819 70.31 15.0209C70.0841 14.9599 69.9001 14.8809 69.7578 14.7849L70.0345 14.1627C70.1677 14.2486 70.3224 14.3186 70.4974 14.3739C70.6724 14.4292 70.8463 14.4574 71.0191 14.4574C71.1354 14.4574 71.2291 14.4473 71.3002 14.4258C71.3714 14.4044 71.4233 14.3761 71.4561 14.3411C71.4888 14.3061 71.5046 14.2632 71.5046 14.2158C71.5046 14.1481 71.473 14.0939 71.4109 14.0543C71.3488 14.0148 71.2675 13.9821 71.1681 13.9561C71.0687 13.9301 70.9581 13.9053 70.8373 13.8793C70.7165 13.8534 70.5956 13.8206 70.4748 13.7811C70.354 13.7416 70.2445 13.6896 70.144 13.6253C70.0446 13.5609 69.9633 13.4773 69.9012 13.3735C69.8391 13.2696 69.8075 13.1386 69.8075 12.9794C69.8075 12.801 69.856 12.6384 69.9543 12.4939C70.0525 12.3493 70.1993 12.233 70.3958 12.1438C70.5923 12.0558 70.8361 12.0117 71.1286 12.0117C71.3251 12.0117 71.517 12.0343 71.7067 12.0772C71.8953 12.1212 72.0647 12.1856 72.2114 12.2714L71.9517 12.8981C71.8095 12.8213 71.6695 12.7637 71.5294 12.7253C71.3906 12.6869 71.2551 12.6678 71.1241 12.6678C71.0078 12.6678 70.9141 12.6802 70.8429 12.7039C70.7718 12.7276 70.721 12.7603 70.6894 12.7999C70.6577 12.8394 70.6419 12.8845 70.6419 12.9365C70.6419 13.002 70.6724 13.0539 70.7334 13.0923C70.7944 13.1307 70.8757 13.1623 70.9762 13.186C71.0767 13.2097 71.1884 13.2346 71.3093 13.2606C71.4301 13.2865 71.5509 13.3181 71.6717 13.3565C71.7925 13.3949 71.9021 13.4457 72.0026 13.5101C72.1019 13.5745 72.1821 13.658 72.2431 13.7619C72.304 13.8658 72.3345 13.9956 72.3345 14.1514C72.3345 14.3253 72.286 14.4845 72.1877 14.6313C72.0895 14.7781 71.9438 14.8944 71.7485 14.9825C71.5543 15.0706 71.3081 15.1146 71.0134 15.1146L71.0157 15.1124Z" fill="#0E0D51"/>
<path d="M73.3153 15.0546V12.7399H72.3984V12.0703H75.0711V12.7399H74.1588V15.0546H73.3153Z" fill="#0E0D51"/>
<path d="M75.3906 15.0546V12.0703H76.7546C77.0279 12.0703 77.2627 12.1143 77.4603 12.2024C77.658 12.2905 77.8104 12.4181 77.9188 12.5841C78.0272 12.7501 78.0802 12.9465 78.0802 13.1746C78.0802 13.4027 78.0261 13.5935 77.9188 13.7561C77.8104 13.9199 77.658 14.0441 77.4603 14.131C77.2627 14.2179 77.0279 14.2609 76.7546 14.2609H75.8592L76.2341 13.9074V15.0546H75.3906ZM76.2341 13.9978L75.8592 13.6093H76.7038C76.88 13.6093 77.0109 13.5709 77.0979 13.4942C77.1848 13.4174 77.2277 13.3112 77.2277 13.1746C77.2277 13.038 77.1848 12.9273 77.0979 12.8506C77.0109 12.7738 76.88 12.7354 76.7038 12.7354H75.8592L76.2341 12.347V13.9966V13.9978ZM77.2357 15.0546L76.4938 13.9673H77.3926L78.139 15.0546H77.2357Z" fill="#0E0D51"/>
<path d="M80.0482 15.1127C79.81 15.1127 79.5898 15.0743 79.3877 14.9975C79.1855 14.9207 79.0105 14.8123 78.8615 14.6712C78.7124 14.53 78.5961 14.3663 78.5137 14.1789C78.4313 13.9914 78.3906 13.7848 78.3906 13.5612C78.3906 13.3376 78.4324 13.131 78.5137 12.9436C78.5961 12.7561 78.7124 12.5924 78.8615 12.4513C79.0105 12.3101 79.1867 12.2017 79.3877 12.1249C79.5886 12.0482 79.81 12.0098 80.0482 12.0098C80.2865 12.0098 80.5112 12.0482 80.711 12.1249C80.9109 12.2017 81.0859 12.3101 81.2327 12.4513C81.3795 12.5924 81.4958 12.7561 81.5805 12.9436C81.6651 13.131 81.7058 13.3376 81.7058 13.5612C81.7058 13.7848 81.664 13.9925 81.5805 14.1811C81.4969 14.3697 81.3806 14.5345 81.2327 14.6734C81.0848 14.8123 80.9109 14.9207 80.711 14.9975C80.5112 15.0743 80.2898 15.1127 80.0482 15.1127ZM80.0482 14.4126C80.1623 14.4126 80.2673 14.3923 80.3655 14.3527C80.4637 14.3132 80.5484 14.2556 80.6218 14.18C80.6941 14.1043 80.7505 14.014 80.7923 13.909C80.8341 13.804 80.8544 13.6877 80.8544 13.559C80.8544 13.4302 80.8341 13.3105 80.7923 13.2067C80.7505 13.1028 80.6941 13.0136 80.6218 12.9379C80.5496 12.8623 80.4637 12.8047 80.3655 12.7652C80.2673 12.7256 80.1611 12.7053 80.0482 12.7053C79.9353 12.7053 79.8292 12.7256 79.7309 12.7652C79.6327 12.8047 79.548 12.8623 79.4757 12.9379C79.4035 13.0136 79.3459 13.1028 79.3052 13.2067C79.2635 13.3105 79.2431 13.428 79.2431 13.559C79.2431 13.6899 79.2635 13.8028 79.3052 13.909C79.3459 14.014 79.4035 14.1043 79.4757 14.18C79.548 14.2556 79.6338 14.3132 79.7309 14.3527C79.8292 14.3923 79.9353 14.4126 80.0482 14.4126Z" fill="#0E0D51"/>
<path d="M63.207 11.3367V9.0705H63.4216V9.56845L63.399 9.89929L63.4306 10.2335V11.3367H63.207ZM64.0607 10.7416C63.9173 10.7416 63.7885 10.7089 63.6734 10.6423C63.5582 10.5756 63.4656 10.4808 63.3979 10.3555C63.329 10.2301 63.2951 10.0777 63.2951 9.89703C63.2951 9.71637 63.329 9.56393 63.3956 9.4386C63.4633 9.31326 63.5548 9.21841 63.67 9.15292C63.7852 9.08743 63.9161 9.05469 64.0607 9.05469C64.2187 9.05469 64.3599 9.08969 64.4841 9.16083C64.6094 9.23083 64.7077 9.3302 64.7788 9.45666C64.8499 9.58426 64.8861 9.72992 64.8861 9.8959C64.8861 10.0619 64.8499 10.2109 64.7788 10.3374C64.7077 10.4639 64.6094 10.5621 64.4841 10.6332C64.3588 10.7044 64.2176 10.7405 64.0607 10.7405V10.7416ZM64.0449 10.5429C64.1623 10.5429 64.2673 10.5158 64.3599 10.4627C64.4525 10.4097 64.5259 10.334 64.5801 10.2358C64.6343 10.1375 64.6625 10.0246 64.6625 9.89703C64.6625 9.76944 64.6354 9.65652 64.5801 9.55942C64.5259 9.46231 64.4513 9.38666 64.3599 9.33246C64.2673 9.27826 64.1623 9.25003 64.0449 9.25003C63.9274 9.25003 63.8213 9.27713 63.7276 9.33246C63.6338 9.38779 63.5605 9.46231 63.5074 9.55942C63.4543 9.65652 63.4272 9.76831 63.4272 9.89703C63.4272 10.0258 63.4543 10.1387 63.5074 10.2358C63.5605 10.3329 63.635 10.4097 63.7276 10.4627C63.8202 10.5158 63.9263 10.5429 64.0449 10.5429Z" fill="#0E0D51"/>
<path d="M65.8005 10.7428C65.6763 10.7428 65.5691 10.7224 65.4776 10.6818C65.3861 10.6411 65.3161 10.5836 65.2676 10.5113C65.219 10.439 65.1953 10.3555 65.1953 10.2606C65.1953 10.1748 65.2156 10.0958 65.2563 10.0258C65.2969 9.95575 65.3647 9.89816 65.4584 9.85525C65.5521 9.81234 65.6775 9.79089 65.8355 9.79089H66.4058V9.958H65.8412C65.682 9.958 65.5702 9.98623 65.5092 10.0427C65.4471 10.0991 65.4166 10.1703 65.4166 10.2538C65.4166 10.3487 65.4539 10.4243 65.5273 10.4808C65.6007 10.5373 65.7034 10.5655 65.8367 10.5655C65.9699 10.5655 66.0715 10.5361 66.163 10.4785C66.2545 10.421 66.3211 10.3374 66.3628 10.2279L66.4137 10.3826C66.3719 10.4921 66.2985 10.579 66.1946 10.6445C66.0907 10.71 65.9597 10.7428 65.8017 10.7428H65.8005ZM66.3707 10.727V10.3611L66.3617 10.3013V9.68927C66.3617 9.54812 66.3222 9.43973 66.2432 9.36407C66.1641 9.28842 66.0467 9.25116 65.892 9.25116C65.7847 9.25116 65.6831 9.26922 65.586 9.30423C65.4889 9.34036 65.4076 9.38779 65.3398 9.4465L65.2394 9.27939C65.3229 9.20825 65.4245 9.15292 65.542 9.1134C65.6594 9.07501 65.7836 9.05469 65.9134 9.05469C66.128 9.05469 66.2928 9.10776 66.4103 9.2139C66.5266 9.32004 66.5853 9.4815 66.5853 9.6983V10.7258H66.3707V10.727Z" fill="#0E0D51"/>
<path d="M67.1914 10.7258V9.0705H67.4059V9.52102L67.3834 9.44198C67.4297 9.31552 67.5076 9.21954 67.6171 9.15405C67.7266 9.08743 67.8621 9.05469 68.0236 9.05469V9.27261C68.0146 9.27261 68.0066 9.27261 67.9987 9.27148C67.9908 9.27148 67.9818 9.27035 67.9739 9.27035C67.8 9.27035 67.6634 9.32342 67.564 9.42956C67.4647 9.5357 67.4161 9.68588 67.4161 9.88235V10.727H67.1925L67.1914 10.7258Z" fill="#0E0D51"/>
<path d="M68.2461 9.25805V9.07175H69.2702V9.25805H68.2461ZM69.0286 10.7429C68.8728 10.7429 68.7531 10.7011 68.6695 10.6164C68.5848 10.5329 68.5431 10.4143 68.5431 10.2607V8.70703H68.7666V10.2483C68.7666 10.3454 68.7915 10.4199 68.8412 10.4719C68.8908 10.5238 68.9608 10.5509 69.0534 10.5509C69.1528 10.5509 69.2341 10.5227 69.2996 10.4662L69.3786 10.6266C69.3346 10.6661 69.2815 10.6955 69.2194 10.7147C69.1573 10.7338 69.0941 10.7429 69.0286 10.7429Z" fill="#0E0D51"/>
<path d="M71.2838 10.7425C71.1234 10.7425 70.98 10.7063 70.8535 10.6341C70.726 10.5618 70.6266 10.4613 70.5521 10.3348C70.4775 10.2084 70.4414 10.0616 70.4414 9.89785C70.4414 9.73413 70.4787 9.58621 70.5521 9.45975C70.6255 9.33328 70.726 9.23505 70.8513 9.16391C70.9778 9.09277 71.1212 9.05664 71.2838 9.05664C71.4463 9.05664 71.5931 9.09277 71.7207 9.16391C71.8483 9.23505 71.9477 9.33441 72.02 9.45975C72.0922 9.58621 72.1283 9.73187 72.1283 9.89785C72.1283 10.0638 72.0922 10.2072 72.02 10.3348C71.9477 10.4624 71.8472 10.5618 71.7185 10.6341C71.5909 10.7063 71.4452 10.7425 71.2838 10.7425ZM71.2838 10.5437C71.4034 10.5437 71.5096 10.5166 71.6022 10.4636C71.6948 10.4105 71.7682 10.3348 71.8212 10.2366C71.8743 10.1384 71.9014 10.0254 71.9014 9.89785C71.9014 9.77026 71.8743 9.65396 71.8212 9.55685C71.7682 9.45975 71.6948 9.38522 71.6022 9.33102C71.5096 9.27795 71.4046 9.25085 71.2871 9.25085C71.1697 9.25085 71.0647 9.27795 70.9721 9.33102C70.8795 9.38409 70.8061 9.45975 70.7519 9.55685C70.6977 9.65396 70.6695 9.76687 70.6695 9.89785C70.6695 10.0288 70.6966 10.1395 70.7519 10.2366C70.8061 10.3348 70.8806 10.4105 70.9721 10.4636C71.0647 10.5166 71.1686 10.5437 71.2838 10.5437Z" fill="#0E0D51"/>
<path d="M72.3281 9.25634V9.07003H73.3523V9.25634H72.3281ZM72.6251 10.7254V8.86227C72.6251 8.71548 72.668 8.59692 72.7538 8.50659C72.8396 8.41626 72.9638 8.37109 73.1253 8.37109C73.1885 8.37109 73.2495 8.379 73.3082 8.39594C73.3669 8.41287 73.4166 8.43884 73.4561 8.47497L73.3805 8.64209C73.3489 8.61499 73.3116 8.59466 73.2698 8.58111C73.2281 8.56757 73.1829 8.56079 73.1343 8.56079C73.0395 8.56079 72.9672 8.58676 72.9164 8.63983C72.8656 8.69177 72.8408 8.76968 72.8408 8.87356V9.12536L72.8475 9.22924V10.7265H72.624L72.6251 10.7254Z" fill="#0E0D51"/>
<path d="M63.8202 1.92578H63.1992V3.47045H63.8202V1.92578Z" fill="#0E0D51"/>
<path d="M64.8438 3.47045H64.1517L63.2461 1.92578H63.9304L64.8438 3.47045Z" fill="#0E0D51"/>
<path d="M63.0406 1.92577C63.0824 1.63106 63.3545 1.42669 63.6493 1.46847C63.8864 1.50234 64.0727 1.68865 64.1066 1.92577H64.7637C64.7118 1.27877 64.1449 0.796626 63.4979 0.849696C62.9243 0.895991 62.4682 1.35217 62.4219 1.92577H63.0406Z" fill="#0E0D51"/>
<path d="M63.6056 0.1976C64.78 0.1976 65.7363 1.15286 65.7363 2.3283C65.7363 3.50374 64.7811 4.45899 63.6056 4.45899C62.4302 4.45899 61.4749 3.50374 61.4749 2.3283C61.4749 1.15286 62.4302 0.1976 63.6056 0.1976ZM63.6056 0C62.3195 0 61.2773 1.0422 61.2773 2.3283C61.2773 3.61439 62.3195 4.65659 63.6056 4.65659C64.8917 4.65659 65.9339 3.61439 65.9339 2.3283C65.9339 1.0422 64.8917 0 63.6056 0Z" fill="#0E0D51"/>
</g>
<defs>
<linearGradient id="paint0_linear_1248_310" x1="21.9401" y1="10.4687" x2="35.0322" y2="10.4687" gradientUnits="userSpaceOnUse">
<stop stop-color="#03CFFF"/>
<stop offset="0.11" stop-color="#02C9FF"/>
<stop offset="0.25" stop-color="#02B8FF"/>
<stop offset="0.41" stop-color="#019EFF"/>
<stop offset="0.59" stop-color="#0079FF"/>
<stop offset="0.73" stop-color="#0055FF"/>
</linearGradient>
<clipPath id="clip0_1248_310">
<rect width="81.7083" height="19.5195" fill="white"/>
</clipPath>
</defs>
</svg>
