<svg width="186" height="76" viewBox="0 0 186 76" fill="none" xmlns="http://www.w3.org/2000/svg">
<g clip-path="url(#clip0_112_32)">
<path d="M17.6803 69.2923C17.915 69.1314 17.9227 68.8585 17.9984 68.6298C19.1675 65.0866 20.3428 61.5435 21.4841 57.9909C21.6524 57.4672 21.8748 57.2384 22.4308 57.2873C23.0115 57.3394 23.5984 57.2968 24.1837 57.2999C24.9852 57.3047 24.9914 57.3094 24.7288 58.1155C23.4563 62.0104 22.1806 65.9054 20.9065 69.8003C20.3227 71.5845 19.7297 73.3655 19.166 75.156C19.0285 75.593 18.8324 75.7681 18.3582 75.7697C16.3243 75.776 16.3274 75.7934 15.6803 73.8072C14.6965 70.7815 13.7096 67.7558 12.7181 64.7317C12.6486 64.5219 12.6363 64.2774 12.4201 64.0912C12.2085 64.3168 12.1761 64.6181 12.0896 64.8831C10.9915 68.2575 9.89036 71.6318 8.82473 75.0156C8.64249 75.5962 8.37531 75.7855 7.77609 75.7729C5.91974 75.735 5.91974 75.7634 5.32823 73.9508C3.60161 68.6613 1.87498 63.3734 0.149899 58.084C-0.104925 57.3031 -0.101836 57.3015 0.674991 57.2999C1.28194 57.2984 1.89197 57.3378 2.49428 57.2889C3.02092 57.2463 3.24022 57.464 3.3962 57.9562C4.56376 61.6208 5.75603 65.2775 6.94367 68.9358C7.02706 69.193 7.12281 69.4469 7.22165 69.7246C7.5259 69.5337 7.52281 69.234 7.60158 68.9895C8.77994 65.3517 9.9614 61.7155 11.1104 58.0682C11.2865 57.5066 11.5151 57.2621 12.1328 57.281C13.6509 57.3267 13.6509 57.292 14.1328 58.7607C15.2031 62.0231 16.2733 65.287 17.3498 68.5478C17.4332 68.8002 17.4532 69.0904 17.6803 69.2892V69.2923Z" fill="#D2E5F1"/>
<path d="M59.2613 69.8634C59.4513 69.5936 59.3756 69.2892 59.3756 69.0068C59.3818 65.4006 59.3787 61.7959 59.3803 58.1897C59.3803 57.3015 59.3864 57.3015 60.2729 57.2999C60.7671 57.2999 61.266 57.3362 61.7571 57.2905C62.2976 57.24 62.4582 57.4593 62.452 57.9862C62.4304 59.57 62.4443 61.1554 62.4459 62.7393C62.4459 66.7809 62.4351 70.8241 62.4567 74.8658C62.4598 75.5078 62.3285 75.7082 61.6227 75.7949C60.0119 75.9921 59.0945 75.3722 58.2528 73.9571C56.1772 70.466 53.9069 67.0948 51.7124 63.6763C51.5919 63.4886 51.5116 63.263 51.2599 63.1242C51.0853 63.3671 51.1579 63.6463 51.1564 63.9019C51.1502 67.5539 51.1533 71.2059 51.1517 74.8563C51.1517 75.7523 51.1471 75.7523 50.2514 75.7539C49.7572 75.7539 49.2583 75.7192 48.7672 75.7634C48.1834 75.8154 48.0491 75.5567 48.0537 75.0077C48.0753 72.5736 48.063 70.1395 48.063 67.7053C48.063 64.4903 48.0769 61.2753 48.0506 58.0603C48.046 57.4577 48.2375 57.3473 48.8089 57.2715C50.4429 57.0538 51.4251 57.6438 52.2992 59.1346C54.3301 62.5989 56.588 65.9243 58.7594 69.3034C58.8876 69.5037 58.9617 69.7656 59.2598 69.8634H59.2613Z" fill="#D2E5F1"/>
<path d="M96.7141 66.5301C96.7141 63.7079 96.728 60.8841 96.7033 58.0619C96.6971 57.4624 96.8701 57.2778 97.4662 57.2857C99.9372 57.3188 102.41 57.2983 104.882 57.2999C108.484 57.3031 110.91 59.9817 110.632 63.6526C110.451 66.0505 109.397 67.841 107.146 68.7607C106.657 68.9611 106.833 69.1851 107.018 69.4753C108.197 71.3195 109.372 73.1668 110.541 75.0188C110.658 75.2049 110.91 75.3942 110.804 75.6151C110.674 75.8848 110.36 75.7381 110.13 75.7429C109.434 75.7618 108.736 75.7192 108.041 75.7602C107.57 75.7886 107.306 75.5883 107.065 75.2018C105.906 73.3434 104.716 71.5072 103.56 69.6473C103.327 69.2718 103.072 69.1125 102.635 69.133C101.896 69.1661 101.151 69.1661 100.411 69.133C99.9311 69.1125 99.7921 69.3097 99.7967 69.7766C99.8137 71.5214 99.7859 73.2646 99.8121 75.0093C99.8199 75.5583 99.6809 75.8139 99.0986 75.765C98.5627 75.7208 98.016 75.7113 97.4832 75.7665C96.8176 75.8359 96.6971 75.5189 96.7048 74.9289C96.7295 72.9554 96.7141 70.9819 96.7141 69.0084C96.7141 68.1817 96.7141 67.3567 96.7141 66.5301ZM102.66 60.354C101.897 60.3524 101.133 60.3635 100.37 60.3461C99.9743 60.3367 99.7982 60.4802 99.8013 60.9014C99.8137 62.4379 99.8137 63.9745 99.8013 65.5094C99.7982 65.929 99.9728 66.0757 100.367 66.0726C101.892 66.0584 103.423 66.1152 104.946 66.0395C106.558 65.9606 107.621 64.7285 107.576 63.1447C107.531 61.5498 106.421 60.4171 104.816 60.3572C104.098 60.3304 103.38 60.3524 102.662 60.3524L102.66 60.354Z" fill="#D2E5F1"/>
<path d="M138.587 66.5016C138.598 71.3967 135.727 75.0219 131.193 75.8406C125.04 76.9528 119.874 72.0609 120.493 65.7066C120.92 61.3321 123.321 58.2622 127.151 57.3583C133.042 55.9669 138.518 59.5605 138.589 66.5016H138.587ZM135.451 66.5411C135.46 62.8213 133.069 60.242 129.591 60.2183C126.064 60.1947 123.539 62.826 123.537 66.5285C123.537 70.1978 126.035 72.8102 129.543 72.8102C133.035 72.8102 135.441 70.2578 135.451 66.5411Z" fill="#D2E5F1"/>
<path d="M77.6549 57.2999C78.8009 57.2999 79.9483 57.2968 81.0943 57.2999C84.0765 57.311 86.2062 59.2024 86.6448 62.225C87.105 65.399 85.4572 68.1817 82.6757 68.939C81.8603 69.1614 81.0294 69.1362 80.197 69.1362C79.0511 69.1362 77.9036 69.1551 76.7576 69.1283C76.2603 69.1156 76.0827 69.2923 76.0874 69.8003C76.1059 71.4993 76.0719 73.1983 76.1028 74.8957C76.1152 75.5378 75.9407 75.8265 75.2688 75.7618C74.7113 75.7082 74.1445 75.7255 73.5839 75.7571C73.1268 75.7839 73.0001 75.5741 73.0032 75.1513C73.014 73.6826 73.0048 72.2139 73.0048 70.7437C73.0048 66.5663 73.0048 62.3875 73.0048 58.2102C73.0048 57.3015 73.0094 57.2999 73.8758 57.2999C75.1345 57.2999 76.3932 57.2999 77.6518 57.2999H77.6549ZM76.1198 63.1936C76.1198 63.9729 76.1244 64.7538 76.1183 65.5331C76.1152 65.8533 76.2063 66.0694 76.5677 66.0663C78.0935 66.0536 79.6256 66.1215 81.1452 66.0126C82.6927 65.9022 83.6502 64.6875 83.6132 63.1179C83.5761 61.5798 82.5167 60.4297 80.9738 60.3698C79.5391 60.3146 78.0997 60.3635 76.6619 60.3477C76.2464 60.343 76.1074 60.5244 76.1152 60.9235C76.1291 61.6807 76.1198 62.4379 76.1198 63.1936Z" fill="#D2E5F1"/>
<path d="M172.248 57.2999C173.593 56.9071 174.283 57.6596 174.925 58.7402C175.858 60.3083 176.932 61.788 177.923 63.3198C178.186 63.7236 178.331 63.7583 178.609 63.3277C179.796 61.4883 181.021 59.6725 182.21 57.8331C182.459 57.4482 182.726 57.2652 183.191 57.2889C183.954 57.3283 184.72 57.2936 185.484 57.3031C185.653 57.3046 185.883 57.21 185.976 57.4009C186.067 57.587 185.872 57.7337 185.775 57.8789C184 60.5622 182.234 63.2504 180.434 65.9148C180.129 66.3676 180.129 66.6673 180.434 67.1185C182.221 69.764 183.976 72.4332 185.736 75.0992C185.844 75.2617 186.07 75.4226 185.966 75.634C185.86 75.8485 185.6 75.7444 185.412 75.7444C184.491 75.7413 183.464 75.9747 182.681 75.6324C181.886 75.2854 181.577 74.1842 181.052 73.4176C180.252 72.2518 179.492 71.0576 178.714 69.8776C178.42 69.4317 178.12 69.4395 177.812 69.9012C176.638 71.6697 175.457 73.4302 174.302 75.2112C174.051 75.5961 173.784 75.7839 173.318 75.7602C172.6 75.7223 171.878 75.7602 171.16 75.7444C170.95 75.7397 170.66 75.858 170.552 75.6024C170.47 75.4084 170.686 75.2317 170.797 75.0661C172.535 72.4411 174.258 69.8066 176.028 67.2037C176.385 66.6799 176.366 66.336 176.019 65.8233C174.252 63.2188 172.527 60.5859 170.791 57.9593C170.683 57.7952 170.465 57.628 170.555 57.4245C170.652 57.2037 170.913 57.3125 171.103 57.3046C171.485 57.2904 171.868 57.2999 172.249 57.2999H172.248Z" fill="#D2E5F1"/>
<path d="M148.688 66.4638C148.688 63.6858 148.708 60.9077 148.674 58.1297C148.666 57.4592 148.869 57.281 149.51 57.2857C153.017 57.3141 156.524 57.3173 160.03 57.2826C160.68 57.2763 160.847 57.5066 160.805 58.1045C160.77 58.6077 160.784 59.1141 160.801 59.6189C160.819 60.1158 160.625 60.3004 160.124 60.2957C157.652 60.2751 155.179 60.2862 152.705 60.2878C151.78 60.2878 151.777 60.2925 151.775 61.2485C151.772 62.419 151.794 63.5911 151.767 64.7617C151.755 65.3043 151.962 65.4763 152.481 65.4715C154.819 65.4526 157.157 65.4794 159.496 65.4526C160.062 65.4463 160.34 65.5835 160.28 66.2114C160.212 66.915 160.56 67.8079 160.127 68.2843C159.69 68.7654 158.81 68.4342 158.127 68.4436C156.262 68.4704 154.394 68.4752 152.53 68.4405C151.925 68.4294 151.757 68.6487 151.766 69.234C151.792 71.116 151.752 72.9995 151.786 74.8815C151.798 75.5725 151.582 75.8391 150.896 75.7602C150.408 75.705 149.905 75.716 149.414 75.7586C148.839 75.8075 148.676 75.5567 148.679 75.0046C148.696 72.318 148.686 69.6315 148.685 66.9465C148.685 66.7856 148.685 66.6247 148.685 66.4638H148.688Z" fill="#D2E5F1"/>
<path d="M34.4462 66.508C34.4462 63.6842 34.4586 60.8604 34.4354 58.0366C34.4308 57.4829 34.5667 57.2415 35.1458 57.2888C35.7265 57.3362 36.3165 57.3299 36.8972 57.2888C37.4145 57.2526 37.5489 57.4687 37.5458 57.964C37.5273 60.283 37.5381 62.6004 37.5381 64.9194C37.5381 68.248 37.5226 71.5766 37.5504 74.9052C37.5566 75.552 37.396 75.828 36.7288 75.7649C36.1945 75.7129 35.6478 75.7208 35.1119 75.7649C34.5574 75.8091 34.4323 75.563 34.4354 75.0471C34.4539 72.2013 34.4431 69.3538 34.4431 66.508H34.4462Z" fill="#D2E5F1"/>
<path d="M93.726 18.2883C94.7608 18.2883 95.7955 18.3041 96.8287 18.2804C97.2303 18.271 97.4851 18.3956 97.7059 18.7553C100.336 23.0336 102.977 27.3039 105.632 31.568C105.862 31.9372 105.846 32.199 105.615 32.5555C101.564 38.7931 97.5237 45.0401 93.4805 51.284C93.0836 51.8977 93.0743 51.8961 92.6511 51.2525C87.2952 43.1156 81.9408 34.9771 76.5849 26.8386C73.0976 21.5396 69.612 16.2423 66.1278 10.9418C65.995 10.7398 65.7155 10.5269 65.8282 10.2934C65.9641 10.011 66.3116 10.1483 66.5664 10.1467C68.4784 10.1372 70.3903 10.164 72.3007 10.1278C72.8706 10.1167 73.1872 10.3328 73.4915 10.8045C79.8281 20.6199 86.1817 30.4243 92.5307 40.2302C92.6295 40.3833 92.733 40.5347 92.8334 40.6862C92.9708 40.896 93.1083 40.8975 93.2411 40.683C93.5423 40.1987 93.8388 39.7112 94.143 39.2285C94.3268 38.9382 94.1044 38.7505 93.9778 38.5518C93.0481 37.0878 92.1245 35.6191 91.167 34.1741C90.8921 33.7592 90.8504 33.4484 91.1423 33.0115C92.0797 31.609 92.9708 30.1719 93.882 28.7505C94.2758 28.1369 94.2836 28.1369 94.7021 28.7774C95.6009 30.1514 96.5075 31.5223 97.3893 32.9089C97.6488 33.3175 97.8032 33.3333 98.0936 32.9278C98.8596 31.8614 98.875 31.8741 98.1476 30.7856C95.5222 26.8606 92.8967 22.9357 90.2759 19.0077C90.1539 18.8247 89.9052 18.6385 90.0041 18.4177C90.1091 18.1826 90.4056 18.2946 90.6156 18.2931C91.6504 18.2836 92.6851 18.2883 93.7199 18.2883H93.726Z" fill="#D2E5F1"/>
<path d="M97.6209 9.93373C104.929 9.93373 112.239 9.93373 119.547 9.93846C119.781 9.93846 120.103 9.81068 120.235 10.0568C120.374 10.3108 120.079 10.5048 119.951 10.702C118.989 12.1722 117.99 13.6173 117.059 15.1065C116.728 15.6365 116.331 15.7438 115.772 15.7438C106.484 15.7312 97.1962 15.7327 87.9082 15.7438C87.4758 15.7438 86.8519 15.515 86.6557 15.911C86.4673 16.2912 87.0001 16.6935 87.2395 17.0658C89.1098 19.9873 90.9862 22.9042 92.8858 25.8053C93.1823 26.2565 93.1993 26.5735 92.8843 27.0247C91.8279 28.5392 90.8055 30.0788 89.7939 31.6248C89.5128 32.0539 89.3692 32.087 89.0665 31.628C84.4457 24.5906 79.8095 17.5643 75.1794 10.5348C75.0852 10.3912 74.8798 10.2429 75.0002 10.0568C75.1454 9.83119 75.4141 9.94004 75.6273 9.94004C82.9585 9.9353 90.2897 9.9353 97.6209 9.9353V9.93373Z" fill="#D2E5F1"/>
<path d="M110.527 8.35778C109.031 8.35778 107.534 8.36251 106.038 8.35305C105.801 8.35147 105.646 8.14166 105.468 8.00599C97.9267 2.27008 87.6549 2.27008 80.1291 8.01703C79.8033 8.26471 79.4851 8.3846 79.0789 8.37986C77.8094 8.36251 76.5384 8.37356 75.2473 8.27733C80.0643 2.74176 86.0735 -0.111998 93.312 0.00316153C100.234 0.113589 105.962 2.97839 110.584 8.15901C110.566 8.22527 110.546 8.29152 110.527 8.35778Z" fill="#D2E5F1"/>
<path d="M107.411 18.1842C109.859 18.1842 112.308 18.1827 114.756 18.1874C114.951 18.1874 115.215 18.0975 115.324 18.2836C115.465 18.525 115.198 18.6891 115.074 18.8594C113.805 20.6105 112.52 22.3505 111.258 24.1063C111.008 24.4549 110.736 24.6111 110.305 24.608C108.126 24.5906 105.947 24.5906 103.769 24.608C103.36 24.6111 103.111 24.4628 102.898 24.111C101.823 22.3363 100.724 20.5774 99.641 18.8074C99.295 18.2426 99.3259 18.189 100.001 18.1874C102.472 18.1827 104.943 18.1858 107.414 18.1858L107.411 18.1842Z" fill="#D2E5F1"/>
<path d="M72.0874 22.6266C72.5924 23.327 73.1746 23.9107 73.2441 24.884C73.6673 30.8061 75.8804 35.8416 80.4749 39.645C81.7568 40.7051 83.1637 41.5633 84.668 42.2527C85.0556 42.4309 85.3351 42.6802 85.5622 43.043C86.3004 44.223 87.0633 45.3872 87.8108 46.5609C87.9313 46.7486 88.0996 46.9174 88.1104 47.285C83.2703 45.8463 79.1298 43.3822 76.0024 39.3405C72.1831 34.4044 71.3337 28.7095 72.0889 22.6266H72.0874Z" fill="#D2E5F1"/>
<path d="M113.667 22.5445C114.327 28.5013 113.556 34.0463 109.987 38.9193C106.843 43.2118 102.574 45.7832 97.6349 47.2818C97.5901 47.2298 97.5438 47.1793 97.499 47.1272C98.4596 45.6365 99.4141 44.1425 100.39 42.6612C100.492 42.5051 100.705 42.4104 100.884 42.3237C108.239 38.7805 111.899 32.7259 112.46 24.5654C112.495 24.0527 112.955 23.245 113.667 22.543V22.5445Z" fill="#D2E5F1"/>
<path d="M111.184 38.6275C112.844 35.8873 114.044 32.9626 114.552 29.7665C114.966 27.1588 114.981 24.5527 114.441 21.964C114.347 21.5144 114.401 21.1752 114.66 20.8156C115.054 20.2682 115.414 19.6939 115.882 18.9903C116.197 20.601 116.269 22.0523 116.286 23.5084C116.342 28.5218 115.265 33.2087 112.385 37.3607C112.05 37.845 111.727 38.3483 111.258 38.719C111.233 38.689 111.21 38.659 111.185 38.6291L111.184 38.6275Z" fill="#D2E5F1"/>
<path d="M74.5402 38.8263C73.3541 37.6983 72.5356 36.299 71.8128 34.8461C69.7248 30.6515 69.1488 26.1697 69.4854 21.5286C69.5395 20.7745 69.6553 20.0268 69.7464 19.2759C69.7511 19.238 69.7989 19.2065 69.8854 19.096C70.3642 19.8296 70.826 20.5237 71.2723 21.2273C71.3897 21.4119 71.3094 21.6311 71.2708 21.8331C70.1742 27.5958 71.2306 32.9594 74.1371 37.9807C74.2931 38.2489 74.5479 38.4776 74.5294 38.8326L74.5402 38.8231V38.8263Z" fill="#D2E5F1"/>
<path d="M111.256 38.7158C111.21 38.8184 111.144 38.8452 111.054 38.7679C111.097 38.7206 111.14 38.6748 111.184 38.6275C111.208 38.6575 111.232 38.6874 111.256 38.7174V38.7158Z" fill="#D2E5F1"/>
<path d="M74.5293 38.8357C74.5571 38.8988 74.5834 38.9619 74.6112 39.025H74.6251C74.5973 38.9604 74.5695 38.8941 74.5417 38.8278L74.5308 38.8357H74.5293Z" fill="#D2E5F1"/>
<path d="M74.6113 39.0251L74.6627 38.9998C74.6627 38.9998 74.6285 39.0235 74.6269 39.0251C74.6253 39.0267 74.6113 39.0251 74.6113 39.0251Z" fill="#D2E5F1"/>
</g>
<defs>
<clipPath id="clip0_112_32">
<rect width="186" height="76" fill="white"/>
</clipPath>
</defs>
</svg>
