<svg width="34" height="34" viewBox="0 0 34 34" fill="none" xmlns="http://www.w3.org/2000/svg">
<rect width="34" height="34" rx="17" fill="#E6EDFF"/>
<path d="M15.7812 10H11.0937C10.4906 10 10 10.4906 10 11.0937V13.9062C10 14.5094 10.4906 15 11.0937 15H15.7812C16.3844 15 16.875 14.5094 16.875 13.9062V11.0937C16.875 10.4906 16.3844 10 15.7812 10ZM15.7812 16.25H11.0937C10.4906 16.25 10 16.7406 10 17.3438V23.9063C10 24.5094 10.4906 25 11.0937 25H15.7812C16.3844 25 16.875 24.5094 16.875 23.9063V17.3438C16.875 16.7406 16.3844 16.25 15.7812 16.25ZM23.9063 20H19.2188C18.6156 20 18.125 20.4906 18.125 21.0938V23.9063C18.125 24.5094 18.6156 25 19.2188 25H23.9063C24.5094 25 25 24.5094 25 23.9063V21.0938C25 20.4906 24.5094 20 23.9063 20ZM23.9063 10H19.2188C18.6156 10 18.125 10.4906 18.125 11.0937V17.6562C18.125 18.2594 18.6156 18.75 19.2188 18.75H23.9063C24.5094 18.75 25 18.2594 25 17.6562V11.0937C25 10.4906 24.5094 10 23.9063 10Z" fill="#014EFF"/>
</svg>
