<svg width="34" height="34" viewBox="0 0 34 34" fill="none" xmlns="http://www.w3.org/2000/svg">
<rect width="34" height="34" rx="17" fill="#E6EDFF"/>
<g clip-path="url(#clip0_640_916)">
<path d="M13.342 18.0745C13.5917 17.7881 13.3883 17.3408 13.0083 17.3408H11.8705C11.8629 17.2275 11.8591 17.114 11.8589 17.0004C11.8589 14.1656 14.1652 11.8593 17 11.8593C18.3623 11.8593 19.6023 12.3921 20.5232 13.26L22.1276 11.3831C20.7232 10.0983 18.9157 9.39453 17 9.39453C14.9684 9.39453 13.0584 10.1857 11.6219 11.6222C10.1853 13.0588 9.39418 14.9688 9.39418 17.0003C9.39418 17.1143 9.39703 17.2277 9.40198 17.3408H8.44362C8.0636 17.3408 7.86015 17.788 8.10989 18.0745L10.2718 20.5543L10.7259 21.0752L12.3563 19.2051L13.342 18.0745ZM25.8901 16.6277L24.2776 14.778L23.2741 13.6269L21.8413 15.2704L20.6581 16.6277C20.4084 16.9141 20.6118 17.3614 20.9918 17.3614H22.1282C21.9423 20.0284 19.7134 22.1414 17 22.1414C15.8156 22.1414 14.7235 21.7386 13.8533 21.063L12.2488 22.9401C13.5929 24.0195 15.2513 24.6062 17.0001 24.6062C19.0317 24.6062 20.9416 23.8151 22.3782 22.3785C23.7293 21.0274 24.5093 19.2574 24.5973 17.3614H25.5565C25.9364 17.3614 26.1399 16.9141 25.8901 16.6277Z" fill="#014EFF"/>
</g>
<defs>
<clipPath id="clip0_640_916">
<rect width="18" height="18" fill="white" transform="translate(8 8)"/>
</clipPath>
</defs>
</svg>
