<svg width="34" height="34" viewBox="0 0 34 34" fill="none" xmlns="http://www.w3.org/2000/svg">
<rect width="34" height="34" rx="17" fill="#E6EDFF"/>
<g clip-path="url(#clip0_640_928)">
<path d="M24.0367 17.2459C24.0367 17.3822 23.9276 17.4913 23.8185 17.5186L22.4549 17.7641C22.3731 18.0368 22.2913 18.2822 22.1822 18.555C22.1549 18.6368 22.0731 18.6913 21.9913 18.7186C21.9094 18.7459 21.8004 18.7186 21.7458 18.6368L20.5185 17.4095C20.4367 17.355 20.4094 17.2459 20.4367 17.1641C21.1458 14.3004 18.964 11.5732 16.0731 11.5732C12.1185 11.5732 10.0731 16.4004 12.9094 19.2368C14.0276 20.355 15.6367 20.7913 17.164 20.4095C17.2458 20.3822 17.3549 20.4095 17.4367 20.4913L18.664 21.7186C18.7185 21.7732 18.7458 21.8822 18.7458 21.9641C18.7185 22.0459 18.664 22.1277 18.5822 22.155C18.3367 22.2641 18.0913 22.3459 17.8458 22.4004L17.6004 23.7641C17.5731 23.9004 17.464 23.9822 17.3276 23.9822H14.9276C14.7913 23.9822 14.6822 23.9004 14.6549 23.7641L14.4094 22.4004C13.8367 22.2641 13.3185 22.0459 12.8276 21.7459L11.6822 22.5368C11.5731 22.6186 11.4367 22.5913 11.3276 22.5095L9.63672 20.8732C9.5549 20.7913 9.52763 20.6277 9.60945 20.5186L10.4004 19.3732C10.1276 18.9095 9.88217 18.3641 9.74581 17.8186L8.3549 17.5732C8.21854 17.5459 8.13672 17.4368 8.13672 17.3004V14.9004C8.13672 14.7641 8.24581 14.655 8.3549 14.6277L9.71854 14.3822C9.8549 13.8368 10.0731 13.2913 10.3731 12.8004L9.58217 11.655C9.50036 11.5459 9.52763 11.4095 9.60945 11.3004L11.3004 9.63679C11.3822 9.55497 11.5458 9.5277 11.6549 9.60952L12.8004 10.4004C13.2913 10.1277 13.8094 9.88224 14.3549 9.74588L14.6004 8.38224C14.6276 8.24588 14.7367 8.16406 14.8731 8.16406H17.2731C17.4094 8.16406 17.5185 8.27315 17.5458 8.38224L17.7913 9.74588C18.3367 9.88224 18.8822 10.1004 19.3731 10.4004L20.5185 9.60952C20.6276 9.5277 20.764 9.55497 20.8731 9.63679L22.564 11.3277C22.6731 11.4095 22.6731 11.5732 22.5913 11.6822L21.8004 12.8277C22.0731 13.3186 22.3185 13.8368 22.4549 14.4095L23.8185 14.655C23.9549 14.6822 24.0367 14.7913 24.0367 14.9277V17.2459Z" fill="#014EFF"/>
<path d="M23.4905 21.2289C22.3178 21.3652 21.336 22.2925 21.1996 23.5198L17.436 19.7016C17.136 19.4016 16.7269 19.2379 16.3451 19.2652C14.0814 19.4561 12.3087 17.2198 13.0996 14.9834C13.1814 14.7925 13.3996 14.7379 13.536 14.8743L15.1996 16.5379C15.336 16.6743 15.5269 16.6743 15.6633 16.5379L16.5905 15.6107C16.7269 15.4743 16.7269 15.2834 16.5905 15.147L14.9269 13.4834C14.7905 13.347 14.8451 13.1016 15.036 13.047C17.1633 12.2834 19.4542 14.0016 19.2633 16.3198C19.236 16.7289 19.3996 17.1107 19.6996 17.4107L23.4905 21.2289Z" fill="#014EFF"/>
<path d="M25.8642 23.7915C25.8642 22.646 24.9369 21.746 23.7915 21.7188C22.646 21.7188 21.746 22.646 21.7188 23.7915C21.7188 24.9369 22.646 25.8642 23.7915 25.8642C24.9369 25.8642 25.8642 24.9369 25.8642 23.7915ZM23.8188 24.5551C23.4097 24.5551 23.0551 24.2278 23.0551 23.7915C23.0551 23.3824 23.3824 23.0278 23.8188 23.0278C24.2278 23.0278 24.5551 23.3551 24.5824 23.7915C24.5551 24.2278 24.2278 24.5551 23.8188 24.5551Z" fill="#014EFF"/>
</g>
<defs>
<clipPath id="clip0_640_928">
<rect width="18" height="18" fill="white" transform="translate(8 8)"/>
</clipPath>
</defs>
</svg>
