<svg width="34" height="34" viewBox="0 0 34 34" fill="none" xmlns="http://www.w3.org/2000/svg">
<rect width="34" height="34" rx="17" fill="#E6EDFF"/>
<g clip-path="url(#clip0_640_1115)">
<path fill-rule="evenodd" clip-rule="evenodd" d="M25.7188 24.9651H24.4656V15.102C24.4656 15.0274 24.4359 14.9559 24.3832 14.9031C24.3305 14.8504 24.2589 14.8208 24.1843 14.8208H21.5707C21.4961 14.8208 21.4245 14.8504 21.3718 14.9031C21.319 14.9559 21.2894 15.0274 21.2894 15.102V24.9651H20.5473V17.2869C20.5473 17.2123 20.5176 17.1408 20.4649 17.088C20.4121 17.0353 20.3406 17.0057 20.266 17.0057H17.6523C17.5777 17.0057 17.5062 17.0353 17.4534 17.088C17.4007 17.1408 17.371 17.2123 17.371 17.2869V24.965H16.6289V19.4714C16.6289 19.3969 16.5993 19.3253 16.5465 19.2726C16.4938 19.2198 16.4222 19.1902 16.3476 19.1902H13.734C13.6594 19.1902 13.5879 19.2198 13.5351 19.2726C13.4824 19.3253 13.4527 19.3969 13.4527 19.4714V24.9651H12.7106V21.6562C12.7106 21.5816 12.681 21.5101 12.6282 21.4573C12.5755 21.4046 12.5039 21.3749 12.4293 21.3749H9.81571C9.74112 21.3749 9.66959 21.4046 9.61684 21.4573C9.5641 21.5101 9.53446 21.5816 9.53446 21.6562V24.9651H8.28125C8.20666 24.9651 8.13512 24.9947 8.08238 25.0475C8.02963 25.1002 8 25.1718 8 25.2464C8 25.3209 8.02963 25.3925 8.08238 25.4452C8.13512 25.498 8.20666 25.5276 8.28125 25.5276H25.7188C25.7933 25.5276 25.8649 25.498 25.9176 25.4452C25.9704 25.3925 26 25.3209 26 25.2464C26 25.1718 25.9704 25.1002 25.9176 25.0475C25.8649 24.9947 25.7933 24.9651 25.7188 24.9651ZM10.6914 18.7008C10.6206 18.7006 10.5524 18.6737 10.5006 18.6255C10.4488 18.5773 10.417 18.5113 10.4117 18.4407C10.4064 18.3701 10.4279 18.3001 10.4719 18.2447C10.5159 18.1892 10.5792 18.1524 10.6492 18.1416C14.4311 17.5655 17.9102 15.0042 20.227 11.1002L18.884 10.0828C18.8421 10.0511 18.81 10.0083 18.7912 9.95927C18.7724 9.91023 18.7677 9.8569 18.7776 9.80533C18.7876 9.75376 18.8118 9.70601 18.8475 9.66748C18.8832 9.62895 18.929 9.60119 18.9796 9.58733L23.0416 8.47868C23.0832 8.46734 23.1268 8.46569 23.1691 8.47386C23.2114 8.48203 23.2512 8.4998 23.2855 8.52581C23.3199 8.55182 23.3478 8.58536 23.3671 8.62386C23.3864 8.66235 23.3966 8.70477 23.397 8.74784L23.4296 12.9583C23.43 13.0108 23.4156 13.0624 23.3882 13.1072C23.3608 13.152 23.3214 13.1882 23.2745 13.2118C23.2275 13.2354 23.1749 13.2453 23.1226 13.2405C23.0703 13.2357 23.0204 13.2163 22.9785 13.1846L21.9857 12.4326C20.6507 14.1616 19.0004 15.6222 17.122 16.7372C15.0414 17.9657 12.8204 18.6448 10.6989 18.7008H10.6914Z" fill="#014EFF"/>
</g>
<defs>
<clipPath id="clip0_640_1115">
<rect width="18" height="18" fill="white" transform="translate(8 8)"/>
</clipPath>
</defs>
</svg>
