<svg width="34" height="34" viewBox="0 0 34 34" fill="none" xmlns="http://www.w3.org/2000/svg">
<rect width="34" height="34" rx="17" fill="#E6EDFF"/>
<path d="M14.2663 12.761H19.0673L20.5878 9.95383C20.6368 9.86352 20.6557 9.75998 20.6418 9.65821C20.628 9.55644 20.5822 9.46171 20.5109 9.38772C20.4397 9.31374 20.3468 9.26434 20.2456 9.24668C20.1444 9.22901 20.0402 9.244 19.9481 9.28947C18.86 9.82672 17.9085 9.59745 16.8067 9.33211C15.7171 9.06968 14.4824 8.77224 13.0165 9.26463C12.9496 9.2871 12.8884 9.32394 12.8372 9.37256C12.7861 9.42118 12.7462 9.48041 12.7203 9.54608C12.6945 9.61175 12.6833 9.68229 12.6876 9.75273C12.6919 9.82318 12.7115 9.89184 12.7451 9.95389L14.2663 12.761ZM19.5735 13.9253C19.5106 13.8601 19.4473 13.7945 19.3835 13.7285H13.9501C13.8865 13.7945 13.8232 13.8601 13.7602 13.9253C12.7791 14.9403 11.8524 15.8991 11.1626 16.9723C10.3694 18.2064 10 19.4162 10 20.7797C10 22.3617 10.853 23.5695 12.4667 24.2725C13.8468 24.8738 15.5123 25 16.6665 25C17.829 25 19.5037 24.8737 20.8799 24.2723C22.4852 23.5707 23.3338 22.3629 23.3338 20.7797C23.3338 19.4162 22.9644 18.2064 22.1712 16.9723C21.4814 15.8991 20.5547 14.9403 19.5735 13.9253ZM16.7659 18.4073C17.1125 18.4802 17.4709 18.5557 17.7782 18.7583C18.1776 19.0216 18.3801 19.4284 18.3801 19.9677C18.3801 20.6795 17.8603 21.2819 17.1502 21.4738V21.7234C17.1502 21.8517 17.0992 21.9748 17.0085 22.0656C16.9177 22.1563 16.7947 22.2073 16.6663 22.2073C16.538 22.2073 16.4149 22.1563 16.3242 22.0656C16.2334 21.9748 16.1824 21.8517 16.1824 21.7234V21.4738C15.4724 21.2819 14.9525 20.6795 14.9525 19.9677C14.9525 19.8393 15.0035 19.7163 15.0942 19.6255C15.185 19.5348 15.3081 19.4838 15.4364 19.4838C15.5648 19.4838 15.6878 19.5348 15.7786 19.6255C15.8693 19.7163 15.9203 19.8393 15.9203 19.9677C15.9203 20.2999 16.255 20.5701 16.6663 20.5701C17.0777 20.5701 17.4123 20.2999 17.4123 19.9677C17.4123 19.5935 17.2938 19.5074 16.5667 19.3544C16.2201 19.2815 15.8618 19.206 15.5544 19.0035C15.155 18.7401 14.9525 18.3333 14.9525 17.794C14.9525 17.0817 15.4724 16.479 16.1824 16.2871V16.0383C16.1824 15.91 16.2334 15.7869 16.3242 15.6961C16.4149 15.6054 16.538 15.5544 16.6663 15.5544C16.7947 15.5544 16.9177 15.6054 17.0085 15.6961C17.0992 15.7869 17.1502 15.91 17.1502 16.0383V16.287C17.8603 16.4789 18.3801 17.0816 18.3801 17.7939C18.3801 17.9223 18.3292 18.0454 18.2384 18.1361C18.1477 18.2268 18.0246 18.2778 17.8962 18.2778C17.7679 18.2778 17.6448 18.2268 17.5541 18.1361C17.4633 18.0454 17.4123 17.9223 17.4123 17.7939C17.4123 17.4612 17.0777 17.1907 16.6663 17.1907C16.255 17.1907 15.9203 17.4613 15.9203 17.7939C15.9204 18.1683 16.039 18.2543 16.7661 18.4073H16.7659Z" fill="#014EFF"/>
</svg>
