<svg width="34" height="34" viewBox="0 0 34 34" fill="none" xmlns="http://www.w3.org/2000/svg">
<rect width="34" height="34" rx="17" fill="#E6EDFF"/>
<path d="M19.3149 17.6484L18.0045 18.9632C17.4732 19.4965 16.5382 19.508 15.9954 18.9632L14.6849 17.6484L9.97852 22.3701C10.1537 22.4511 10.3469 22.4995 10.5522 22.4995H23.4477C23.653 22.4995 23.8461 22.4512 24.0213 22.3702L19.3149 17.6484Z" fill="#014EFF"/>
<path d="M23.4483 11.5H10.5528C10.3475 11.5 10.1543 11.5483 9.97921 11.6294L15.0084 16.6752C15.0087 16.6755 15.0091 16.6756 15.0094 16.6759C15.0096 16.6761 15.0098 16.6764 15.0098 16.6767L16.6451 18.3174C16.8188 18.4911 17.1825 18.4911 17.3562 18.3174L18.9911 16.677C18.9911 16.677 18.9915 16.6763 18.9918 16.6759C18.9918 16.6759 18.9925 16.6755 18.9929 16.6752L24.0219 11.6293C23.8468 11.5483 23.6537 11.5 23.4483 11.5ZM9.32398 12.2704C9.23335 12.4537 9.17773 12.6572 9.17773 12.8751V21.1258C9.17773 21.3437 9.23329 21.5472 9.32395 21.7305L14.0385 17.0006L9.32398 12.2704ZM24.6772 12.2704L19.9627 17.0006L24.6772 21.7305C24.7678 21.5472 24.8234 21.3438 24.8234 21.1258V12.8751C24.8234 12.6571 24.7678 12.4537 24.6772 12.2704Z" fill="#014EFF"/>
</svg>
