<svg width="34" height="34" viewBox="0 0 34 34" fill="none" xmlns="http://www.w3.org/2000/svg">
<rect width="34" height="34" rx="17" fill="#E6EDFF"/>
<g clip-path="url(#clip0_640_1128)">
<path fill-rule="evenodd" clip-rule="evenodd" d="M17.0119 18.0828H16.9891C16.9145 18.0828 16.8429 18.1125 16.7902 18.1652C16.7374 18.218 16.7078 18.2895 16.7078 18.3641C16.7078 18.4387 16.7374 18.5102 16.7902 18.563C16.8429 18.6157 16.9145 18.6453 16.9891 18.6453H17.0119C17.0865 18.6453 17.158 18.6157 17.2108 18.563C17.2635 18.5102 17.2932 18.4387 17.2932 18.3641C17.2932 18.2895 17.2635 18.218 17.2108 18.1652C17.158 18.1125 17.0865 18.0828 17.0119 18.0828ZM16.7192 15.6364V17.5517C16.7192 17.6263 16.7489 17.6979 16.8017 17.7507C16.8544 17.8034 16.926 17.8331 17.0006 17.8331C17.0753 17.8331 17.1469 17.8034 17.1996 17.7507C17.2524 17.6979 17.282 17.6263 17.282 17.5517V15.6364C17.282 15.5618 17.2524 15.4902 17.1996 15.4374C17.1469 15.3846 17.0753 15.355 17.0006 15.355C16.926 15.355 16.8544 15.3846 16.8017 15.4374C16.7489 15.4902 16.7192 15.5618 16.7192 15.6364ZM17.0005 14.8061C17.4344 14.806 17.8587 14.9346 18.2195 15.1757C18.5804 15.4168 18.8617 15.7594 19.0278 16.1603C19.1939 16.5612 19.2374 17.0024 19.1527 17.428C19.0681 17.8537 18.8592 18.2446 18.5523 18.5515C18.2455 18.8584 17.8545 19.0674 17.4289 19.152C17.0033 19.2367 16.5621 19.1933 16.1612 19.0272C15.7602 18.8611 15.4176 18.5799 15.1765 18.2191C14.9354 17.8582 14.8067 17.434 14.8067 17C14.8074 16.4184 15.0387 15.8608 15.45 15.4495C15.8612 15.0382 16.4188 14.8068 17.0005 14.8061ZM17.0005 14.2436C17.5457 14.2435 18.0787 14.4052 18.532 14.7081C18.9854 15.011 19.3387 15.4415 19.5474 15.9452C19.7561 16.449 19.8107 17.0032 19.7043 17.538C19.5979 18.0727 19.3354 18.5639 18.9498 18.9495C18.5643 19.335 18.0731 19.5975 17.5384 19.7039C17.0036 19.8103 16.4493 19.7556 15.9456 19.547C15.4419 19.3383 15.0114 18.985 14.7085 18.5316C14.4056 18.0783 14.2439 17.5453 14.244 17C14.2448 16.2692 14.5355 15.5686 15.0523 15.0518C15.569 14.5351 16.2697 14.2444 17.0005 14.2435V14.2436ZM18.3045 13.1953C18.4631 13.2496 18.6181 13.314 18.7685 13.3879L19.3873 12.965C19.4696 12.9087 19.5691 12.8829 19.6684 12.8921C19.7677 12.9014 19.8607 12.945 19.9313 13.0155L20.9854 14.0695C21.0557 14.1401 21.0992 14.233 21.1084 14.3322C21.1176 14.4315 21.0918 14.5308 21.0356 14.613L20.6116 15.2338C20.6847 15.3836 20.7485 15.5377 20.8025 15.6954L21.5419 15.8343C21.6399 15.8527 21.7283 15.9049 21.7919 15.9816C21.8556 16.0584 21.8903 16.155 21.8903 16.2547V17.7458C21.8903 17.8455 21.8555 17.942 21.7919 18.0187C21.7283 18.0955 21.6398 18.1475 21.5419 18.166L20.7995 18.3054C20.7456 18.4617 20.682 18.6145 20.6091 18.7629L21.0356 19.3873C21.0918 19.4696 21.1176 19.5689 21.1084 19.6681C21.0992 19.7673 21.0557 19.8602 20.9854 19.9308L19.9307 20.9846C19.8602 21.0552 19.7673 21.0989 19.6681 21.1082C19.5688 21.1174 19.4694 21.0917 19.3872 21.0353L18.7614 20.6079C18.6135 20.68 18.4614 20.7429 18.3058 20.7963L18.1659 21.5416C18.1474 21.6395 18.0952 21.7278 18.0185 21.7914C17.9418 21.855 17.8454 21.8899 17.7457 21.89H16.2544C16.1548 21.8898 16.0583 21.8548 15.9817 21.7911C15.9051 21.7275 15.8531 21.639 15.8347 21.5411L15.6944 20.7962C15.5389 20.7428 15.387 20.6797 15.2395 20.6073L14.6137 21.0356C14.5314 21.0918 14.432 21.1175 14.3327 21.1082C14.2335 21.0989 14.1406 21.0552 14.0702 20.9846L13.0158 19.9308C12.9454 19.8603 12.9018 19.7674 12.8926 19.6682C12.8833 19.569 12.909 19.4696 12.9651 19.3873L13.3916 18.7629C13.3187 18.6145 13.2552 18.4617 13.2015 18.3054L12.4588 18.166C12.361 18.1474 12.2727 18.0952 12.2092 18.0185C12.1457 17.9418 12.111 17.8454 12.1109 17.7458V16.2547C12.1109 16.1551 12.1456 16.0586 12.2091 15.9818C12.2726 15.9051 12.3609 15.8529 12.4588 15.8343L13.1982 15.6954C13.2524 15.5378 13.3162 15.3837 13.3891 15.2338L12.9651 14.6129C12.909 14.5306 12.8833 14.4313 12.8926 14.332C12.9018 14.2328 12.9454 14.1399 13.0158 14.0694L14.0702 13.0154C14.1407 12.9449 14.2336 12.9013 14.3328 12.8921C14.4321 12.8828 14.5314 12.9086 14.6137 12.9649L15.2328 13.3878C15.3831 13.3138 15.5379 13.2495 15.6964 13.1952L15.835 12.4586C15.8535 12.3607 15.9055 12.2724 15.9821 12.2088C16.0587 12.1452 16.1551 12.1103 16.2547 12.1102H17.746C17.8457 12.1103 17.9423 12.1453 18.019 12.209C18.0957 12.2727 18.1478 12.3613 18.1662 12.4593L18.3043 13.1952L18.3045 13.1953ZM24.4131 17C24.4131 21.0872 21.0881 24.4127 17.0003 24.4127C16.8323 24.4127 16.6635 24.4064 16.4948 24.3952L17.6198 25.5198C17.6459 25.5459 17.6666 25.5769 17.6808 25.6111C17.6949 25.6452 17.7022 25.6818 17.7022 25.7187C17.7022 25.7557 17.695 25.7923 17.6808 25.8264C17.6667 25.8605 17.646 25.8916 17.6198 25.9177C17.5937 25.9438 17.5627 25.9645 17.5286 25.9787C17.4944 25.9928 17.4579 26.0001 17.4209 26.0001C17.384 26.0001 17.3474 25.9928 17.3132 25.9787C17.2791 25.9646 17.2481 25.9439 17.222 25.9177L15.6337 24.3294C15.581 24.2767 15.5514 24.2052 15.5514 24.1307C15.5514 24.0561 15.581 23.9846 15.6337 23.9319L17.222 22.3438C17.2753 22.2941 17.3457 22.2671 17.4186 22.2683C17.4914 22.2696 17.5609 22.299 17.6125 22.3505C17.664 22.402 17.6936 22.4715 17.6949 22.5443C17.6963 22.6172 17.6693 22.6877 17.6197 22.7411L16.5274 23.8336C16.6846 23.8446 16.8429 23.8502 17.0003 23.8502C20.7779 23.8502 23.8502 20.7771 23.8502 17C23.8513 15.4817 23.3476 14.006 22.4184 12.8052C21.4891 11.6044 20.187 10.7466 18.7169 10.3668C18.6802 10.3585 18.6456 10.3429 18.615 10.3209C18.5844 10.299 18.5585 10.2711 18.5389 10.239C18.5193 10.2069 18.5063 10.1712 18.5008 10.1339C18.4952 10.0967 18.4972 10.0588 18.5066 10.0223C18.516 9.98586 18.5326 9.95167 18.5554 9.92175C18.5782 9.89184 18.6069 9.86681 18.6395 9.84815C18.6722 9.8295 18.7083 9.81759 18.7457 9.81315C18.7831 9.8087 18.821 9.8118 18.8571 9.82226C20.448 10.2332 21.8572 11.1613 22.863 12.4607C23.8687 13.7601 24.414 15.3569 24.4131 17ZM16.7454 9.59262L15.6339 8.48027C15.6077 8.45417 15.587 8.42317 15.5728 8.38906C15.5587 8.35494 15.5514 8.31837 15.5514 8.28143C15.5513 8.24449 15.5586 8.20792 15.5727 8.17378C15.5868 8.13965 15.6075 8.10863 15.6336 8.0825C15.6863 8.02972 15.7579 8.00004 15.8325 8C15.8694 7.99998 15.906 8.00723 15.9401 8.02135C15.9742 8.03546 16.0053 8.05616 16.0314 8.08227L17.6197 9.67105C17.6458 9.69712 17.6665 9.72809 17.6806 9.76217C17.6948 9.79625 17.702 9.83279 17.702 9.86968C17.702 9.90658 17.6948 9.94311 17.6806 9.97719C17.6665 10.0113 17.6458 10.0422 17.6197 10.0683L16.0314 11.6566C15.9782 11.7067 15.9075 11.7341 15.8344 11.733C15.7613 11.7319 15.6915 11.7023 15.6398 11.6506C15.5881 11.5989 15.5585 11.5291 15.5574 11.456C15.5563 11.3829 15.5837 11.3123 15.6339 11.259L16.7374 10.1555C13.0819 10.2944 10.1505 13.3112 10.1505 17C10.1514 18.4196 10.5927 19.804 11.4136 20.9621C12.2345 22.1203 13.3946 22.9952 14.7337 23.4663C14.7964 23.4882 14.8494 23.5316 14.8831 23.5888C14.9169 23.646 14.9293 23.7134 14.9182 23.7789C14.9071 23.8444 14.8731 23.9038 14.8223 23.9467C14.7715 23.9895 14.7072 24.013 14.6408 24.013C14.6089 24.0129 14.5773 24.0076 14.5471 23.9972C13.0981 23.4874 11.8429 22.5406 10.9546 21.2873C10.0664 20.0341 9.58887 18.5361 9.58789 17C9.58789 12.9977 12.776 9.72723 16.7454 9.59262Z" fill="#014EFF"/>
</g>
<defs>
<clipPath id="clip0_640_1128">
<rect width="18" height="18" fill="white" transform="translate(8 8)"/>
</clipPath>
</defs>
</svg>
