<svg width="34" height="34" viewBox="0 0 34 34" fill="none" xmlns="http://www.w3.org/2000/svg">
<rect width="34" height="34" rx="17" fill="#E6EDFF"/>
<path d="M25.6261 21.2431L19.6283 10.2175C18.6646 8.59523 16.3155 8.59308 15.3506 10.2175L9.35307 21.2431C8.36796 22.9008 9.56063 25 11.4914 25H23.4872C25.4164 25 26.6112 22.9025 25.6261 21.2431ZM17.4894 23.0103C16.941 23.0103 16.4946 22.5639 16.4946 22.0154C16.4946 21.467 16.941 21.0206 17.4894 21.0206C18.0379 21.0206 18.4843 21.467 18.4843 22.0154C18.4843 22.5639 18.0379 23.0103 17.4894 23.0103ZM18.4843 19.0309C18.4843 19.5793 18.0379 20.0257 17.4894 20.0257C16.941 20.0257 16.4946 19.5793 16.4946 19.0309V14.0566C16.4946 13.5082 16.941 13.0617 17.4894 13.0617C18.0379 13.0617 18.4843 13.5082 18.4843 14.0566V19.0309Z" fill="#014EFF"/>
</svg>
