<svg width="34" height="34" viewBox="0 0 34 34" fill="none" xmlns="http://www.w3.org/2000/svg">
<rect width="34" height="34" rx="17" fill="#E6EDFF"/>
<g clip-path="url(#clip0_637_458)">
<path d="M17.5555 14.2072C17.3726 14.1707 17.1865 14.1524 17 14.1523C15.4298 14.1523 14.1523 15.4298 14.1523 17C14.1523 18.5702 15.4298 19.8477 17 19.8477C18.5702 19.8477 19.8477 18.5702 19.8477 17C19.8477 16.8099 19.8286 16.6242 19.7928 16.4445L18.1187 18.1187C17.8198 18.4175 17.4226 18.582 17 18.582C16.5774 18.582 16.1802 18.4175 15.8813 18.1187C15.5825 17.8198 15.418 17.4226 15.418 17C15.418 16.5774 15.5825 16.1802 15.8813 15.8813L17.5555 14.2072Z" fill="#014EFF"/>
<path d="M25.1946 13.28L24.0599 14.4146C23.9481 14.5267 23.8201 14.6214 23.6803 14.6955C23.9302 15.4183 24.0664 16.1935 24.0664 17C24.0664 20.8964 20.8964 24.0664 17 24.0664C13.1036 24.0664 9.93359 20.8964 9.93359 17C9.93359 13.1036 13.1036 9.93359 17 9.93359C17.8068 9.93359 18.5825 10.07 19.3053 10.32C19.3792 10.18 19.4736 10.0519 19.5855 9.93992L20.72 8.80543C19.5855 8.28839 18.3259 8 17 8C12.0373 8 8 12.0373 8 17C8 21.9627 12.0373 26 17 26C21.9627 26 26 21.9627 26 17C26 15.6741 25.7116 14.4145 25.1946 13.28V13.28Z" fill="#014EFF"/>
<path d="M19.2398 12.5228L19.1437 11.3835C18.4775 11.1282 17.7549 10.9883 17 10.9883C13.6851 10.9883 10.9883 13.6851 10.9883 17C10.9883 20.3149 13.6851 23.0117 17 23.0117C20.3149 23.0117 23.0117 20.3149 23.0117 17C23.0117 16.2451 22.8718 15.5225 22.6165 14.8563L21.4772 14.7602L20.641 15.5962C20.8096 16.0321 20.9023 16.5054 20.9023 17C20.9023 19.1518 19.1518 20.9023 17 20.9023C14.8482 20.9023 13.0977 19.1518 13.0977 17C13.0977 14.8482 14.8482 13.0977 17 13.0977C17.4946 13.0977 17.9679 13.1904 18.4038 13.359L19.2398 12.5228Z" fill="#014EFF"/>
<path d="M20.1785 11.102L20.332 12.9213L16.6272 16.6262C16.4212 16.832 16.4212 17.166 16.6272 17.3718C16.73 17.4748 16.865 17.5264 17 17.5264C17.135 17.5264 17.27 17.4748 17.3728 17.3718L21.0777 13.667L22.897 13.8204C22.9735 13.8268 23.0504 13.8165 23.1225 13.7902C23.1945 13.7638 23.26 13.7221 23.3142 13.6678L25.5515 11.4305C25.6226 11.3594 25.6719 11.2695 25.6936 11.1714C25.7153 11.0732 25.7085 10.9709 25.674 10.8765C25.6395 10.7821 25.5787 10.6995 25.4987 10.6385C25.4188 10.5775 25.3232 10.5406 25.223 10.5322L23.6033 10.3955L23.4668 8.77603C23.4584 8.67586 23.4215 8.58019 23.3605 8.5003C23.2995 8.4204 23.2169 8.3596 23.1225 8.32507C23.0281 8.29053 22.9258 8.2837 22.8276 8.30537C22.7294 8.32704 22.6395 8.37632 22.5684 8.44739L20.3312 10.6847C20.2769 10.739 20.2351 10.8044 20.2087 10.8765C20.1824 10.9485 20.172 11.0255 20.1785 11.102Z" fill="#014EFF"/>
</g>
<defs>
<clipPath id="clip0_637_458">
<rect width="18" height="18" fill="white" transform="translate(8 8)"/>
</clipPath>
</defs>
</svg>
