<svg width="34" height="34" viewBox="0 0 34 34" fill="none" xmlns="http://www.w3.org/2000/svg">
<rect width="34" height="34" rx="17" fill="#E6EDFF"/>
<g clip-path="url(#clip0_637_467)">
<path d="M25.0625 10.25V11C25.0625 11.72 24.47 12.3125 23.75 12.3125H10.25C9.53 12.3125 8.9375 11.72 8.9375 11V10.25C8.9375 9.53 9.53 8.9375 10.25 8.9375H23.75C24.47 8.9375 25.0625 9.53 25.0625 10.25ZM23.5625 13.4375V22.25C23.5625 23.8025 22.3025 25.0625 20.75 25.0625H13.25C11.6975 25.0625 10.4375 23.8025 10.4375 22.25V13.4375H23.5625ZM19.2725 19.9775C19.1666 19.8729 19.0238 19.8142 18.875 19.8142C18.7262 19.8142 18.5834 19.8729 18.4775 19.9775L17.5625 20.8925V16.25C17.5625 15.9425 17.3075 15.6875 17 15.6875C16.6925 15.6875 16.4375 15.9425 16.4375 16.25V20.8925L15.5225 19.9775C15.305 19.76 14.945 19.76 14.7275 19.9775C14.51 20.195 14.51 20.555 14.7275 20.7725L16.6025 22.6475C16.715 22.76 16.8575 22.8125 17 22.8125C17.1425 22.8125 17.285 22.76 17.3975 22.6475L19.2725 20.7725C19.49 20.555 19.49 20.195 19.2725 19.9775Z" fill="#014EFF"/>
</g>
<defs>
<clipPath id="clip0_637_467">
<rect width="18" height="18" fill="white" transform="translate(8 8)"/>
</clipPath>
</defs>
</svg>
