<svg width="34" height="34" viewBox="0 0 34 34" fill="none" xmlns="http://www.w3.org/2000/svg">
<rect width="34" height="34" rx="17" fill="#E6EDFF"/>
<path d="M10.8125 9.125C10.3649 9.125 9.93572 9.30279 9.61926 9.61926C9.30279 9.93572 9.125 10.3649 9.125 10.8125V18.6875C9.125 19.1351 9.30279 19.5643 9.61926 19.8807C9.93572 20.1972 10.3649 20.375 10.8125 20.375H13.0625C13.2117 20.375 13.3548 20.3157 13.4602 20.2102C13.5657 20.1048 13.625 19.9617 13.625 19.8125V14.1875C13.625 14.0383 13.6843 13.8952 13.7898 13.7898C13.8952 13.6843 14.0383 13.625 14.1875 13.625H19.8125C19.9617 13.625 20.1048 13.5657 20.2102 13.4602C20.3157 13.3548 20.375 13.2117 20.375 13.0625V10.8125C20.375 10.3649 20.1972 9.93572 19.8807 9.61926C19.5643 9.30279 19.1351 9.125 18.6875 9.125H10.8125ZM23.1875 24.875C23.6351 24.875 24.0643 24.6972 24.3807 24.3807C24.6972 24.0643 24.875 23.6351 24.875 23.1875V15.3125C24.875 14.8649 24.6972 14.4357 24.3807 14.1193C24.0643 13.8028 23.6351 13.625 23.1875 13.625H20.9375C20.7883 13.625 20.6452 13.6843 20.5398 13.7898C20.4343 13.8952 20.375 14.0383 20.375 14.1875V19.8125C20.375 19.9617 20.3157 20.1048 20.2102 20.2102C20.1048 20.3157 19.9617 20.375 19.8125 20.375H14.1875C14.0383 20.375 13.8952 20.4343 13.7898 20.5398C13.6843 20.6452 13.625 20.7883 13.625 20.9375V23.1875C13.625 23.6351 13.8028 24.0643 14.1193 24.3807C14.4357 24.6972 14.8649 24.875 15.3125 24.875H23.1875Z" fill="#014EFF"/>
</svg>
