<svg width="34" height="34" viewBox="0 0 34 34" fill="none" xmlns="http://www.w3.org/2000/svg">
<rect width="34" height="34" rx="17" fill="#E6EDFF"/>
<g clip-path="url(#clip0_637_497)">
<path fill-rule="evenodd" clip-rule="evenodd" d="M19.25 9.6875H17.5625V8H16.4375V9.6875H14.75V8H13.625V9.6875H12.5C11.7547 9.6875 11.0375 9.98394 10.5116 10.5113C10.2501 10.7722 10.0427 11.0822 9.90132 11.4235C9.75991 11.7648 9.68725 12.1306 9.6875 12.5V13.625H8V14.75H9.6875V16.4375H8V17.5625H9.6875V19.25H8V20.375H9.6875V21.5C9.68725 21.8694 9.75991 22.2352 9.90132 22.5765C10.0427 22.9178 10.2501 23.2278 10.5116 23.4887C10.7726 23.7499 11.0826 23.9571 11.4238 24.0985C11.765 24.2398 12.1307 24.3125 12.5 24.3125H13.625V26H14.75V24.3125H16.4375V26H17.5625V24.3125H19.25V26H20.375V24.3125H21.5C22.2453 24.3125 22.9625 24.0161 23.4884 23.4887C23.7499 23.2278 23.9573 22.9178 24.0987 22.5765C24.2401 22.2352 24.3127 21.8694 24.3125 21.5V20.375H26V19.25H24.3125V17.5625H26V16.4375H24.3125V14.75H26V13.625H24.3125V12.5C24.3127 12.1306 24.2401 11.7648 24.0987 11.4235C23.9573 11.0822 23.7499 10.7722 23.4884 10.5113C23.2274 10.2501 22.9174 10.0429 22.5762 9.90153C22.235 9.76018 21.8693 9.68745 21.5 9.6875H20.375V8H19.25V9.6875ZM19.25 13.625V20.375H20.375V13.625H19.25ZM13.625 15.5938V20.375H14.75V18.4062H16.4375V20.375H17.5625V15.5938C17.5625 14.5064 16.6822 13.625 15.5938 13.625C14.5053 13.625 13.625 14.5064 13.625 15.5938ZM16.4375 17.2812V15.5938C16.4375 15.1277 16.0606 14.75 15.5938 14.75C15.1269 14.75 14.75 15.1277 14.75 15.5938V17.2812H16.4375Z" fill="#014EFF"/>
</g>
<defs>
<clipPath id="clip0_637_497">
<rect width="18" height="18" fill="white" transform="translate(8 8)"/>
</clipPath>
</defs>
</svg>
