<svg width="34" height="34" viewBox="0 0 34 34" fill="none" xmlns="http://www.w3.org/2000/svg">
<rect width="34" height="34" rx="17" fill="#E6EDFF"/>
<path d="M16.9132 12.0357C16.9132 10.3618 15.5514 9 13.8775 9C12.2036 9 10.8418 10.3618 10.8418 12.0357C10.8418 13.7096 12.2036 15.0714 13.8775 15.0714C15.5514 15.0714 16.9132 13.7096 16.9132 12.0357ZM25.6936 17.5801L21.4436 15.1515C21.3519 15.0991 21.2481 15.0716 21.1425 15.0716C21.0369 15.0716 20.9331 15.0991 20.8413 15.1515L16.5914 17.5801C16.4985 17.6331 16.4212 17.7098 16.3675 17.8024C16.3137 17.8949 16.2854 18 16.2854 18.1071C16.2854 20.8295 17.4936 23.2392 19.777 25.0746L20.7618 25.8657C20.8696 25.9526 21.004 26 21.1425 26C21.281 26 21.4153 25.9526 21.5232 25.8657L22.5073 25.0746C24.792 23.2392 25.9996 20.8295 25.9996 18.1071C25.9995 18 25.9712 17.8949 25.9175 17.8024C25.8638 17.7098 25.7865 17.6331 25.6936 17.5801ZM23.4496 19.0785L21.6282 21.507C21.5762 21.5769 21.5097 21.6346 21.4333 21.6764C21.357 21.7182 21.2725 21.7431 21.1856 21.7492C21.0988 21.7554 21.0116 21.7428 20.9301 21.7122C20.8486 21.6816 20.7746 21.6338 20.7132 21.572L19.499 20.3577C19.441 20.3017 19.3947 20.2347 19.3629 20.1606C19.3311 20.0866 19.3143 20.0069 19.3136 19.9263C19.3129 19.8457 19.3283 19.7657 19.3588 19.6911C19.3894 19.6165 19.4344 19.5487 19.4914 19.4917C19.5484 19.4347 19.6162 19.3896 19.6908 19.3591C19.7655 19.3286 19.8454 19.3132 19.926 19.3139C20.0066 19.3146 20.0863 19.3313 20.1604 19.3632C20.2345 19.395 20.3015 19.4412 20.3575 19.4992L21.0769 20.2187L22.4782 18.3499C22.526 18.2861 22.586 18.2324 22.6546 18.1918C22.7232 18.1511 22.7991 18.1244 22.878 18.1132C22.957 18.1019 23.0373 18.1063 23.1146 18.1261C23.1918 18.1458 23.2644 18.1806 23.3282 18.2285C23.392 18.2763 23.4457 18.3363 23.4863 18.4049C23.5269 18.4735 23.5537 18.5494 23.5649 18.6283C23.5762 18.7073 23.5718 18.7876 23.552 18.8649C23.5323 18.9421 23.4974 19.0147 23.4496 19.0785Z" fill="#014EFF"/>
<path d="M16.2911 17.052L17.9462 16.1055C17.3894 15.4759 16.5837 15.0703 15.6767 15.0703H12.0375C10.3624 15.0703 9 16.4273 9 18.0957V22.356C9 22.517 9.06397 22.6714 9.17783 22.7853C9.29169 22.8991 9.44611 22.9631 9.60714 22.9631H17.0719C16.1535 21.5102 15.67 19.8248 15.6785 18.106C15.6785 17.6707 15.9135 17.2669 16.2911 17.052Z" fill="#014EFF"/>
</svg>
