<svg width="34" height="34" viewBox="0 0 34 34" fill="none" xmlns="http://www.w3.org/2000/svg">
<rect width="34" height="34" rx="17" fill="#E6EDFF"/>
<path d="M22.625 18.3106V20.7575C22.625 21.6463 22.1019 22.4394 21.2919 22.8106C20.3075 23.2606 18.8169 23.75 17 23.75C15.1831 23.75 13.6925 23.2606 12.7025 22.8106C11.8981 22.4394 11.375 21.6463 11.375 20.7575V18.3106L15.3744 20.1388C15.8863 20.375 16.4375 20.4931 17 20.4931C17.5625 20.4931 18.1137 20.375 18.6256 20.1388L22.625 18.3106ZM24.875 17.2812V20.9375C24.875 21.2469 24.6219 21.5 24.3125 21.5C24.0031 21.5 23.75 21.2469 23.75 20.9375V17.7988L24.875 17.2812Z" fill="#014EFF"/>
<path d="M15.8401 19.1169C16.2042 19.2831 16.5998 19.3692 17 19.3692C17.4002 19.3692 17.7958 19.2831 18.1599 19.1169L25.3436 15.833C25.7486 15.6479 26 15.2559 26 14.8098C26 14.3637 25.7486 13.9711 25.3436 13.786L18.1599 10.5027C17.796 10.3362 17.4005 10.25 17.0003 10.25C16.6001 10.25 16.2046 10.3362 15.8407 10.5027L8.65644 13.7855C8.25144 13.9711 8 14.3632 8 14.8092C8 15.2553 8.25144 15.6474 8.65644 15.833L15.8401 19.1169Z" fill="#014EFF"/>
</svg>
