<svg width="97" height="97" viewBox="0 0 97 97" fill="none" xmlns="http://www.w3.org/2000/svg">
<circle cx="48.5" cy="48.5" r="48" fill="#E6EDFF" stroke="#B0C8FF"/>
<g clip-path="url(#clip0_235_1722)">
<path d="M40.2944 41.8168C40.2944 41.6096 40.3767 41.4109 40.5233 41.2644C40.6698 41.1179 40.8685 41.0355 41.0757 41.0355H51.1142C51.3214 41.0355 51.5201 41.1179 51.6666 41.2644C51.8131 41.4109 51.8954 41.6096 51.8954 41.8168C51.8954 42.024 51.8131 42.2227 51.6666 42.3692C51.5201 42.5157 51.3214 42.598 51.1142 42.598H41.0757C40.8685 42.598 40.6698 42.5157 40.5233 42.3692C40.3767 42.2227 40.2944 42.024 40.2944 41.8168ZM73.9023 68.1625C73.9023 68.9153 73.6105 69.6216 73.0809 70.1513C72.5326 70.6995 71.8123 70.9737 71.092 70.9737C70.3718 70.9737 69.6516 70.6996 69.1032 70.1514L63.0815 64.1296V71.131C63.0815 72.6591 61.8383 73.9023 60.3102 73.9023H26.869C25.3408 73.9023 24.0977 72.6592 24.0977 71.131V31.1747C24.0977 29.6465 25.3408 28.4033 26.869 28.4033H40.1816L39.0682 26.829C38.6924 26.2979 38.6444 25.6096 38.943 25.0327C39.2415 24.4559 39.8311 24.0977 40.4817 24.0977H46.6974C47.348 24.0977 47.9377 24.456 48.2362 25.0327C48.5348 25.6095 48.4867 26.2978 48.111 26.8291L46.9977 28.4033H60.3102C61.8383 28.4033 63.0815 29.6465 63.0815 31.1747V45.4509C64.9353 47.3301 66.0813 49.9089 66.0813 52.7508C66.0813 54.9226 65.4118 56.9406 64.269 58.6105L65.1489 59.4903L65.2208 59.4185C65.3673 59.272 65.566 59.1897 65.7732 59.1897C65.9804 59.1897 66.1791 59.272 66.3256 59.4185L73.0809 66.1737C73.6106 66.7032 73.9023 67.4096 73.9023 68.1625ZM37.1858 29.9658L37.7582 32.6147C37.7986 32.8019 37.9485 32.9228 38.14 32.9228H49.0393C49.2308 32.9228 49.3807 32.8019 49.4211 32.6147L49.9935 29.9658H45.4883C45.345 29.9659 45.2045 29.9265 45.0821 29.8521C44.9597 29.7777 44.8602 29.671 44.7943 29.5438C44.7285 29.4165 44.6989 29.2737 44.7088 29.1308C44.7187 28.9879 44.7677 28.8504 44.8505 28.7335L46.8354 25.9269C46.8754 25.8703 46.8799 25.8111 46.8487 25.751C46.8176 25.6907 46.7667 25.6602 46.6976 25.6602H40.4819C40.4128 25.6602 40.3619 25.6906 40.3308 25.751C40.2996 25.8111 40.3041 25.8704 40.3439 25.9268L42.329 28.7335C42.4118 28.8504 42.4608 28.9879 42.4707 29.1308C42.4806 29.2737 42.451 29.4165 42.3852 29.5438C42.3193 29.671 42.2198 29.7777 42.0974 29.8521C41.975 29.9265 41.8345 29.9659 41.6912 29.9658H37.1858ZM36.309 33.2088H28.903V69.097H53.5132V65.1152C53.5132 64.908 53.5955 64.7093 53.742 64.5628C53.8885 64.4163 54.0872 64.334 54.2944 64.334H58.2763V62.8238C57.4283 63.0421 56.5561 63.1522 55.6805 63.1517C54.4891 63.1526 53.3066 62.9479 52.1849 62.5467H41.0757C40.8685 62.5467 40.6698 62.4644 40.5233 62.3179C40.3767 62.1713 40.2944 61.9726 40.2944 61.7654C40.2944 61.5582 40.3767 61.3595 40.5233 61.213C40.6698 61.0665 40.8685 60.9842 41.0757 60.9842H49.333C48.3284 60.208 47.473 59.2558 46.8087 58.1739H41.0756C40.8684 58.1739 40.6697 58.0916 40.5232 57.9451C40.3766 57.7986 40.2943 57.5999 40.2943 57.3927C40.2943 57.1855 40.3766 56.9868 40.5232 56.8402C40.6697 56.6937 40.8684 56.6114 41.0756 56.6114H46.0229C45.7826 56.0124 45.5991 55.3921 45.4748 54.7588H41.0756C40.8684 54.7588 40.6697 54.6765 40.5232 54.53C40.3766 54.3835 40.2943 54.1847 40.2943 53.9775C40.2943 53.7703 40.3766 53.5716 40.5232 53.4251C40.6697 53.2786 40.8684 53.1963 41.0756 53.1963H45.2897C45.2832 53.0479 45.2798 52.8993 45.2796 52.7508C45.2796 51.9376 45.3736 51.146 45.551 50.386H41.0757C40.8685 50.386 40.6698 50.3037 40.5233 50.1572C40.3767 50.0107 40.2944 49.812 40.2944 49.6048C40.2944 49.3976 40.3767 49.1989 40.5233 49.0524C40.6698 48.9058 40.8685 48.8235 41.0757 48.8235H46.0502C46.3159 48.1742 46.6467 47.5536 47.0376 46.971H41.0757C40.8685 46.971 40.6698 46.8887 40.5233 46.7422C40.3767 46.5957 40.2944 46.3969 40.2944 46.1897C40.2944 45.9825 40.3767 45.7838 40.5233 45.6373C40.6698 45.4908 40.8685 45.4085 41.0757 45.4085H48.3208C50.2048 43.52 52.8086 42.3499 55.6805 42.3499C56.5764 42.3499 57.4462 42.4638 58.2763 42.6777V33.2088H50.8702C50.5915 33.9719 49.874 34.4853 49.0393 34.4853H38.14C37.3053 34.4853 36.5878 33.9719 36.309 33.2088ZM57.1714 65.8965H55.0757V67.9922L57.1714 65.8965ZM64.5189 52.7507C64.5189 47.8772 60.554 43.9123 55.6805 43.9123C50.8069 43.9123 46.8421 47.8772 46.8421 52.7507C46.8421 57.6242 50.8069 61.5892 55.6805 61.5892C60.554 61.5892 64.5189 57.6242 64.5189 52.7507ZM63.5247 61.1145L64.044 60.5951L63.2861 59.8372C63.1191 60.0163 62.9459 60.1895 62.7668 60.3565L63.5247 61.1145ZM64.7506 63.5888L66.5186 61.8208L65.7733 61.0756L64.0054 62.8436L64.7506 63.5888ZM72.3398 68.1624C72.3398 67.827 72.2106 67.5131 71.9761 67.2785L67.6232 62.9257L65.8555 64.6937L70.2082 69.0464C70.6956 69.5337 71.4887 69.5338 71.9762 69.0463C72.2107 68.8118 72.3398 68.4979 72.3398 68.1624ZM33.2587 57.8742C33.4044 58.0166 33.6002 58.0963 33.8039 58.096C34.0052 58.096 34.2062 58.0187 34.359 57.8646L37.5882 54.6051C37.6616 54.5325 37.7199 54.446 37.7597 54.3507C37.7995 54.2554 37.82 54.1532 37.82 54.0499C37.8201 53.9467 37.7997 53.8444 37.7599 53.7491C37.7202 53.6538 37.662 53.5673 37.5886 53.4946C37.5153 53.4219 37.4282 53.3645 37.3325 53.3257C37.2369 53.2869 37.1344 53.2674 37.0312 53.2684C36.9279 53.2694 36.8259 53.2909 36.731 53.3316C36.636 53.3723 36.5501 53.4314 36.4782 53.5055L33.7944 56.2145L32.548 54.9996C32.4746 54.928 32.3878 54.8715 32.2925 54.8334C32.1972 54.7954 32.0954 54.7764 31.9928 54.7778C31.8902 54.7791 31.7888 54.8006 31.6946 54.8411C31.6003 54.8816 31.5149 54.9403 31.4434 55.0138C31.3717 55.0872 31.3153 55.1741 31.2772 55.2693C31.2392 55.3646 31.2203 55.4665 31.2216 55.569C31.2229 55.6716 31.2444 55.773 31.2849 55.8672C31.3254 55.9615 31.384 56.0469 31.4575 56.1185L33.2587 57.8742ZM63.2639 52.7507C63.2639 56.9321 59.862 60.334 55.6806 60.334C51.4991 60.334 48.0972 56.9321 48.0972 52.7507C48.0972 48.5692 51.499 45.1674 55.6806 45.1674C59.8621 45.1674 63.2639 48.5692 63.2639 52.7507ZM58.1562 54.2749C58.1562 53.0036 57.1221 51.9695 55.8509 51.9695H55.5103C55.1006 51.9695 54.7674 51.6362 54.7674 51.2267C54.7674 50.8171 55.1007 50.4839 55.5103 50.4839H55.99C56.2265 50.4839 56.4519 50.6002 56.5927 50.795C56.6528 50.8782 56.7287 50.9486 56.816 51.0025C56.9034 51.0563 57.0005 51.0923 57.1018 51.1086C57.2031 51.1249 57.3066 51.1211 57.4064 51.0973C57.5062 51.0736 57.6004 51.0304 57.6835 50.9703C57.7666 50.9102 57.8371 50.8343 57.8909 50.7469C57.9447 50.6596 57.9808 50.5625 57.997 50.4612C58.0133 50.3599 58.0095 50.2564 57.9857 50.1566C57.962 50.0568 57.9188 49.9626 57.8587 49.8795C57.5217 49.414 57.0239 49.0902 56.4617 48.9708V48.7042C56.4617 48.497 56.3794 48.2983 56.2329 48.1518C56.0864 48.0053 55.8877 47.9229 55.6805 47.9229C55.4733 47.9229 55.2746 48.0053 55.128 48.1518C54.9815 48.2983 54.8992 48.497 54.8992 48.7042V49.0035C53.9235 49.272 53.2047 50.167 53.2047 51.2268C53.2047 52.498 54.2389 53.5321 55.5101 53.5321H55.8507C56.2604 53.5321 56.5936 53.8654 56.5936 54.275C56.5936 54.6846 56.2603 55.0178 55.8507 55.0178H55.3709C55.1344 55.0178 54.9091 54.9015 54.7682 54.7066C54.7081 54.6235 54.6322 54.553 54.5448 54.4992C54.4575 54.4454 54.3604 54.4093 54.2591 54.393C54.1578 54.3768 54.0543 54.3806 53.9544 54.4043C53.8546 54.4281 53.7605 54.4712 53.6773 54.5313C53.5942 54.5915 53.5237 54.6674 53.4699 54.7547C53.4161 54.8421 53.3801 54.9392 53.3638 55.0405C53.3475 55.1418 53.3514 55.2453 53.3751 55.3451C53.3989 55.4449 53.442 55.539 53.5021 55.6222C53.8392 56.0877 54.337 56.4115 54.8991 56.5309V56.7975C54.8991 57.0047 54.9814 57.2034 55.1279 57.3499C55.2745 57.4964 55.4732 57.5787 55.6804 57.5787C55.8876 57.5787 56.0863 57.4964 56.2328 57.3499C56.3793 57.2034 56.4616 57.0047 56.4616 56.7975V56.4981C57.4374 56.2296 58.1562 55.3346 58.1562 54.2749ZM41.0757 39.1832H55.1766C55.3838 39.1832 55.5825 39.1009 55.729 38.9544C55.8755 38.8079 55.9578 38.6092 55.9578 38.402C55.9578 38.1948 55.8755 37.996 55.729 37.8495C55.5825 37.703 55.3838 37.6207 55.1766 37.6207H41.0757C40.8685 37.6207 40.6698 37.703 40.5233 37.8495C40.3767 37.996 40.2944 38.1948 40.2944 38.402C40.2944 38.6092 40.3767 38.8079 40.5233 38.9544C40.6698 39.1009 40.8685 39.1832 41.0757 39.1832ZM33.2587 50.0864C33.4044 50.2288 33.6002 50.3085 33.8039 50.3082C34.0052 50.3082 34.2062 50.231 34.359 50.0768L37.5882 46.8172C37.662 46.7447 37.7207 46.6582 37.7609 46.5628C37.801 46.4674 37.8218 46.365 37.8221 46.2615C37.8223 46.158 37.8019 46.0554 37.7622 45.9599C37.7225 45.8643 37.6642 45.7776 37.5906 45.7047C37.5171 45.6319 37.4298 45.5744 37.3339 45.5356C37.2379 45.4967 37.1352 45.4774 37.0317 45.4786C36.9282 45.4798 36.826 45.5015 36.731 45.5426C36.636 45.5836 36.55 45.6431 36.4782 45.7177L33.7944 48.4267L32.548 47.2117C32.4746 47.1401 32.3878 47.0836 32.2925 47.0456C32.1972 47.0075 32.0954 46.9886 31.9928 46.9899C31.8902 46.9912 31.7889 47.0127 31.6946 47.0532C31.6003 47.0937 31.5149 47.1524 31.4434 47.2259C31.3717 47.2993 31.3153 47.3862 31.2772 47.4815C31.2392 47.5767 31.2203 47.6786 31.2216 47.7812C31.2229 47.8837 31.2444 47.9851 31.2849 48.0793C31.3254 48.1736 31.384 48.259 31.4575 48.3306L33.2587 50.0864ZM33.2587 42.2985C33.4044 42.441 33.6002 42.5206 33.8039 42.5203C34.0052 42.5203 34.2062 42.4431 34.359 42.2889L37.5882 39.0294C37.662 38.9569 37.7207 38.8704 37.7609 38.775C37.801 38.6796 37.8218 38.5772 37.8221 38.4737C37.8223 38.3702 37.8019 38.2676 37.7622 38.1721C37.7225 38.0765 37.6642 37.9898 37.5906 37.9169C37.5171 37.8441 37.4298 37.7866 37.3339 37.7478C37.2379 37.7089 37.1352 37.6896 37.0317 37.6908C36.9282 37.692 36.826 37.7137 36.731 37.7548C36.636 37.7958 36.55 37.8553 36.4782 37.9299L33.7944 40.6388L32.548 39.4239C32.4746 39.3523 32.3878 39.2958 32.2925 39.2577C32.1972 39.2197 32.0954 39.2008 31.9928 39.2021C31.8902 39.2034 31.7888 39.2249 31.6946 39.2654C31.6003 39.3059 31.5149 39.3646 31.4434 39.4381C31.3717 39.5115 31.3153 39.5984 31.2772 39.6937C31.2392 39.7889 31.2203 39.8908 31.2216 39.9934C31.2229 40.0959 31.2444 40.1973 31.2849 40.2915C31.3254 40.3858 31.384 40.4712 31.4575 40.5428L33.2587 42.2985ZM33.2587 65.6621C33.4044 65.8045 33.6002 65.8841 33.8039 65.8839C34.0052 65.8839 34.2062 65.8066 34.359 65.6524L37.5882 62.3929C37.6604 62.32 37.7175 62.2336 37.7564 62.1386C37.7952 62.0437 37.8149 61.942 37.8144 61.8394C37.8139 61.7368 37.7933 61.6353 37.7536 61.5407C37.7138 61.4461 37.6559 61.3603 37.583 61.2881C37.4358 61.1423 37.2367 61.0609 37.0295 61.0619C36.8223 61.0629 36.624 61.1462 36.4782 61.2934L33.7944 64.0023L32.548 62.7874C32.4746 62.7158 32.3878 62.6593 32.2925 62.6212C32.1972 62.5832 32.0954 62.5642 31.9928 62.5656C31.8902 62.5669 31.7888 62.5884 31.6946 62.6289C31.6003 62.6694 31.5149 62.7281 31.4434 62.8016C31.3717 62.875 31.3153 62.9619 31.2772 63.0571C31.2392 63.1524 31.2203 63.2543 31.2216 63.3568C31.2229 63.4594 31.2444 63.5607 31.2849 63.655C31.3254 63.7493 31.384 63.8347 31.4575 63.9062L33.2587 65.6621ZM41.0757 65.9617H51.0595C51.2667 65.9617 51.4654 65.8794 51.6119 65.7329C51.7584 65.5864 51.8407 65.3877 51.8407 65.1805C51.8407 64.9733 51.7584 64.7746 51.6119 64.628C51.4654 64.4815 51.2667 64.3992 51.0595 64.3992H41.0757C40.8685 64.3992 40.6698 64.4815 40.5233 64.628C40.3767 64.7746 40.2944 64.9733 40.2944 65.1805C40.2944 65.3877 40.3767 65.5864 40.5233 65.7329C40.6698 65.8794 40.8685 65.9617 41.0757 65.9617Z" fill="#014EFF"/>
</g>
<defs>
<clipPath id="clip0_235_1722">
<rect width="50" height="50" fill="white" transform="translate(24 24)"/>
</clipPath>
</defs>
</svg>
