<svg width="80" height="80" viewBox="0 0 80 80" fill="none" xmlns="http://www.w3.org/2000/svg">
<circle opacity="0.3" cx="40" cy="40" r="39.5" fill="#E6EDFF" stroke="#B0C8FF"/>
<g clip-path="url(#clip0_731_536)">
<path d="M56.6666 28.3331H48.3334V26.6664C48.3334 24.828 46.8384 23.333 45 23.333H35C33.1616 23.333 31.6666 24.8279 31.6666 26.6664V28.333H23.3334C21.4949 28.3331 20 29.828 20 31.6664V36.6664C20 38.5048 21.4949 39.9997 23.3334 39.9997H36.6667V39.1664C36.6666 39.0569 36.6882 38.9485 36.73 38.8474C36.7719 38.7462 36.8332 38.6543 36.9106 38.5769C36.988 38.4995 37.0799 38.4382 37.1811 38.3963C37.2822 38.3544 37.3906 38.3329 37.5001 38.333H42.5001C42.6095 38.3329 42.7179 38.3544 42.8191 38.3963C42.9202 38.4382 43.0121 38.4995 43.0895 38.5769C43.1669 38.6543 43.2283 38.7462 43.2701 38.8474C43.312 38.9485 43.3335 39.0569 43.3334 39.1664V39.9997H56.6668C58.5051 39.9997 60 38.5048 60 36.6664V31.6664C60 29.828 58.5051 28.3331 56.6666 28.3331ZM45 28.3331H35V26.6664H45V28.3331ZM59.5377 40.8989C59.3988 40.8301 59.2434 40.8013 59.089 40.8158C58.9346 40.8303 58.7873 40.8876 58.6637 40.9811C58.0713 41.4296 57.3811 41.6664 56.6666 41.6664H43.3334V44.1664C43.3334 44.2758 43.3119 44.3842 43.2701 44.4854C43.2282 44.5865 43.1668 44.6784 43.0894 44.7558C43.012 44.8332 42.9201 44.8946 42.819 44.9364C42.7179 44.9783 42.6095 44.9998 42.5 44.9997H37.5C37.3905 44.9998 37.2821 44.9783 37.181 44.9364C37.0799 44.8946 36.988 44.8332 36.9106 44.7558C36.8332 44.6784 36.7718 44.5865 36.7299 44.4854C36.6881 44.3842 36.6666 44.2758 36.6666 44.1664V41.6664H23.3334C22.6188 41.6664 21.9288 41.4296 21.3363 40.9811C21.2129 40.8868 21.0656 40.8291 20.911 40.8146C20.7565 40.8001 20.6009 40.8293 20.4622 40.8989C20.3233 40.968 20.2065 41.0745 20.1248 41.2063C20.0432 41.3382 20 41.4902 20 41.6453L20 53.3331C20 55.1714 21.4949 56.6664 23.3334 56.6664H56.6667C58.5051 56.6664 60.0001 55.1715 60.0001 53.3331V41.6453C60.0001 41.4902 59.9568 41.3381 59.8751 41.2063C59.7935 41.0744 59.6766 40.968 59.5377 40.8989Z" fill="white"/>
</g>
<defs>
<clipPath id="clip0_731_536">
<rect width="40" height="40" fill="white" transform="translate(20 20)"/>
</clipPath>
</defs>
</svg>
