<svg width="97" height="97" viewBox="0 0 97 97" fill="none" xmlns="http://www.w3.org/2000/svg">
<circle cx="48.5" cy="48.5" r="48" fill="#E6EDFF" stroke="#B0C8FF"/>
<path fill-rule="evenodd" clip-rule="evenodd" d="M56.4766 38.5557L55.7568 44.2324H56.0889C56.4121 44.2324 56.6748 44.4951 56.6748 44.8184V46.1963H56.9365C57.2549 44.9658 58.043 44.0449 58.8721 43.0781C60.1025 41.6426 61.374 40.1582 61.3086 37.3594V37.3457C61.3086 33.584 58.248 30.5234 54.4863 30.5234C50.7246 30.5234 47.6641 33.584 47.6641 37.3457V37.3594C47.5977 40.1582 48.8701 41.6426 50.1006 43.0781C50.9297 44.0449 51.7178 44.9658 52.0361 46.1963H52.2978V44.8184C52.2978 44.4951 52.5605 44.2324 52.8838 44.2324H53.2129L52.4961 38.5742C52.293 38.6631 52.0586 38.7139 51.7949 38.7139C50.8603 38.7139 50.0996 37.9531 50.0996 37.0186C50.0996 36.083 50.8603 35.3223 51.7949 35.3223C52.2998 35.3223 52.748 35.5156 53.0566 35.8682C53.3232 36.1709 53.4717 36.5723 53.4756 36.998C53.4785 37.0117 53.4805 37.0254 53.4824 37.0391L54.3945 44.2324H54.5752L55.4902 37.0205C55.4912 37.0068 55.4941 36.9932 55.4961 36.9795C55.501 36.5537 55.6494 36.1523 55.915 35.8496C56.2246 35.4971 56.6719 35.3037 57.1768 35.3037C58.1123 35.3037 58.873 36.0645 58.873 37C58.873 37.9346 58.1123 38.6953 57.1768 38.6953C56.9141 38.6953 56.6797 38.6445 56.4766 38.5557ZM54.5684 63.9434C54.5684 64.9678 55.4023 65.8018 56.4268 65.8018H58.8076C59.0684 66.8184 59.9922 67.5713 61.0889 67.5713C62.3877 67.5713 63.4443 66.5146 63.4443 65.2158C63.4443 63.917 62.3877 62.8604 61.0889 62.8604C59.9922 62.8604 59.0684 63.6143 58.8076 64.6299H56.4268C56.0478 64.6299 55.7402 64.3223 55.7402 63.9434V58.6934H54.5684V63.9434ZM49.1855 64.7031C48.1689 64.9639 47.416 65.8877 47.416 66.9844C47.416 68.2832 48.4727 69.3398 49.7715 69.3398C51.0703 69.3398 52.127 68.2832 52.127 66.9844C52.127 65.8877 51.374 64.9639 50.3574 64.7031V58.6924H49.1855V64.7031ZM43.751 58.6934V67.3486C42.7344 67.6104 41.9814 68.5342 41.9814 69.6309C41.9814 70.9297 43.0381 71.9863 44.3369 71.9863C45.6357 71.9863 46.6924 70.9297 46.6924 69.6309C46.6924 68.5342 45.9395 67.6104 44.9229 67.3486V58.6934H43.751ZM37.6816 64.6289H35.3008C35.04 63.6133 34.1162 62.8594 33.0195 62.8594C31.7207 62.8594 30.6641 63.916 30.6641 65.2148C30.6641 66.5137 31.7207 67.5703 33.0195 67.5703C34.1162 67.5703 35.04 66.8174 35.3008 65.8008H37.6816C38.7061 65.8008 39.54 64.9668 39.54 63.9424V58.6924H38.3682V63.9424C38.3682 64.3223 38.0596 64.6289 37.6816 64.6289ZM67.3437 37.7744H65.0801C64.7568 37.7744 64.4941 38.0361 64.4941 38.3604C64.4941 38.6836 64.7568 38.9463 65.0801 38.9463H67.3437C67.668 38.9463 67.9297 38.6836 67.9297 38.3604C67.9297 38.0361 67.668 37.7744 67.3437 37.7744ZM65.3281 31.4238L63.3682 32.5557C63.0879 32.7178 62.9912 33.0752 63.1533 33.3555C63.2046 33.4448 63.2786 33.519 63.3677 33.5706C63.4569 33.6222 63.5581 33.6494 63.6611 33.6494C63.7607 33.6494 63.8613 33.624 63.9541 33.5703L65.9141 32.4385C66.1943 32.2764 66.291 31.918 66.1289 31.6377C66.0905 31.571 66.0392 31.5125 65.9781 31.4656C65.917 31.4188 65.8473 31.3844 65.7729 31.3645C65.6985 31.3447 65.6209 31.3397 65.5446 31.3499C65.4683 31.36 65.3947 31.3852 65.3281 31.4238ZM60.4082 26.9316L59.2754 28.8926C59.1143 29.1729 59.21 29.5312 59.4902 29.6924C59.582 29.7461 59.6836 29.7715 59.7822 29.7715C59.9853 29.7715 60.1816 29.666 60.291 29.4785L61.4228 27.5176C61.584 27.2373 61.4883 26.8789 61.208 26.7168C60.9277 26.5557 60.5693 26.6504 60.4082 26.9316ZM53.9004 25.502V27.7656C53.9004 28.0898 54.1631 28.3516 54.4863 28.3516C54.8096 28.3516 55.0723 28.0898 55.0723 27.7656V25.502C55.0723 25.1787 54.8096 24.916 54.4863 24.916C54.1631 24.916 53.9004 25.1777 53.9004 25.502ZM47.5498 27.5176L48.6816 29.4785C48.79 29.666 48.9873 29.7715 49.1894 29.7715C49.2891 29.7715 49.3896 29.7461 49.4824 29.6924C49.7627 29.5312 49.8584 29.1729 49.6963 28.8926L48.5645 26.9316C48.4033 26.6514 48.0449 26.5557 47.7646 26.7168C47.4844 26.8779 47.3877 27.2373 47.5498 27.5176ZM43.0576 32.4385L45.0186 33.5703C45.1113 33.624 45.2119 33.6494 45.3115 33.6494C45.5137 33.6494 45.7109 33.5439 45.8193 33.3555C45.8968 33.2209 45.9177 33.0611 45.8774 32.9111C45.8371 32.7611 45.739 32.6333 45.6045 32.5557L43.6436 31.4238C43.3633 31.2617 43.0049 31.3574 42.8437 31.6377C42.6816 31.917 42.7773 32.2764 43.0576 32.4385ZM41.6279 38.9463H43.8926C44.2158 38.9463 44.4785 38.6836 44.4785 38.3604C44.4785 38.0361 44.2158 37.7744 43.8926 37.7744H41.6279C41.3047 37.7744 41.042 38.0361 41.042 38.3604C41.042 38.6836 41.3047 38.9463 41.6279 38.9463ZM50.9707 50.4346C50.9707 50.5908 51.0332 50.7393 51.1436 50.8496L52.3633 52.0654C52.7725 52.4727 53.2617 52.6797 53.8174 52.6797H55.1553C55.7109 52.6797 56.2002 52.4727 56.6084 52.0654L57.8291 50.8496C57.8838 50.7952 57.9272 50.7305 57.9569 50.6593C57.9866 50.5881 58.0019 50.5117 58.002 50.4346V47.9541C59.8428 48.7148 61.0742 50.5098 61.0742 52.5478C61.0742 55.291 58.8428 57.5215 56.1006 57.5215H38.0078C35.2646 57.5215 33.0342 55.291 33.0342 52.5478C33.0342 49.9316 35.0791 47.752 37.6895 47.585C37.7782 47.5791 37.8644 47.5531 37.9417 47.5092C38.019 47.4652 38.0853 47.4043 38.1357 47.3311C38.1858 47.2576 38.2186 47.1737 38.2316 47.0858C38.2446 46.9978 38.2375 46.9081 38.2109 46.8232C38.0742 46.3936 38.0059 45.9443 38.0059 45.4893C38.0059 43.0479 39.9912 41.0625 42.4316 41.0625C43.2297 41.0623 44.0129 41.2778 44.6985 41.6863C45.384 42.0947 45.9464 42.6809 46.3262 43.3828C46.4141 43.5459 46.5732 43.6572 46.7568 43.6836C46.9395 43.7109 47.124 43.6494 47.2549 43.5186C47.5664 43.208 47.9131 42.9424 48.29 42.7236C48.5918 43.1172 48.9062 43.4844 49.2109 43.8408C50.0625 44.834 50.7979 45.6943 50.9707 46.8311V50.4346ZM56.8301 49.7295H52.1426V50.1914L53.1904 51.2354C53.3769 51.4209 53.5762 51.5078 53.8174 51.5078H55.1553C55.3965 51.5078 55.5957 51.4209 55.7812 51.2354L56.8301 50.1914V49.7295ZM56.8301 47.3682H52.1426V48.5576H56.8301V47.3682ZM55.5029 45.4043V46.1963H53.4697V45.4043H55.5029ZM51.7949 37.541C51.5068 37.541 51.2715 37.3066 51.2715 37.0176C51.2715 36.7285 51.5068 36.4932 51.7949 36.4932C51.9648 36.4932 52.0898 36.541 52.1768 36.6396C52.2578 36.7324 52.3047 36.8691 52.3047 37.0156C52.3047 37.1396 52.2676 37.541 51.7949 37.541ZM56.668 36.998C56.668 36.8516 56.7148 36.7148 56.7959 36.6221C56.8828 36.5234 57.0078 36.4756 57.1768 36.4756C57.4658 36.4756 57.7012 36.7109 57.7012 37C57.7012 37.2891 57.4658 37.5234 57.1768 37.5234C56.7051 37.5234 56.668 37.1211 56.668 36.998Z" fill="#014EFF"/>
</svg>
