<svg width="97" height="97" viewBox="0 0 97 97" fill="none" xmlns="http://www.w3.org/2000/svg">
<circle cx="48.5" cy="48.5" r="48" fill="#E6EDFF" stroke="#B0C8FF"/>
<path d="M53.425 62.6512H52.749L51.065 59.0212H41.185L39.501 62.6512H35.675C35.4761 62.6512 35.2853 62.7302 35.1447 62.8708C35.004 63.0115 34.925 63.2023 34.925 63.4012C34.925 63.6001 35.004 63.7908 35.1447 63.9315C35.2853 64.0722 35.4761 64.1512 35.675 64.1512H53.445L53.425 64.1082V62.6512ZM53.425 51.9512H25.375V54.6112C25.375 56.2212 26.675 57.5212 28.285 57.5212H53.425V51.9512ZM47.735 55.1112H44.515C44.095 55.1112 43.765 54.7812 43.765 54.3612C43.765 53.9512 44.095 53.6112 44.515 53.6112H47.735C47.9339 53.6112 48.1247 53.6902 48.2653 53.8308C48.406 53.9715 48.485 54.1623 48.485 54.3612C48.485 54.5601 48.406 54.7508 48.2653 54.8915C48.1247 55.0322 47.9339 55.1112 47.735 55.1112ZM69.675 44.2012H57.875C56.255 44.2012 54.925 45.5312 54.925 47.1612V68.3412C54.925 69.9612 56.255 71.2912 57.875 71.2912H69.675C71.295 71.2912 72.625 69.9612 72.625 68.3412V47.1612C72.625 45.5312 71.295 44.2012 69.675 44.2012ZM62.689 46.8462H64.862C65.0609 46.8462 65.2517 46.9252 65.3923 47.0658C65.533 47.2065 65.612 47.3973 65.612 47.5962C65.612 47.7951 65.533 47.9858 65.3923 48.1265C65.2517 48.2672 65.0609 48.3462 64.862 48.3462H62.689C62.4901 48.3462 62.2993 48.2672 62.1587 48.1265C62.018 47.9858 61.939 47.7951 61.939 47.5962C61.939 47.3973 62.018 47.2065 62.1587 47.0658C62.2993 46.9252 62.4901 46.8462 62.689 46.8462ZM64.473 68.6462H63.078C62.8791 68.6462 62.6883 68.5672 62.5477 68.4265C62.407 68.2858 62.328 68.0951 62.328 67.8962C62.328 67.6973 62.407 67.5065 62.5477 67.3658C62.6883 67.2252 62.8791 67.1462 63.078 67.1462H64.473C64.6719 67.1462 64.8627 67.2252 65.0033 67.3658C65.144 67.5065 65.223 67.6973 65.223 67.8962C65.223 68.0951 65.144 68.2858 65.0033 68.4265C64.8627 68.5672 64.6719 68.6462 64.473 68.6462ZM70.218 65.5462H57.332V49.9462H70.218V65.5462Z" fill="#014EFF"/>
<path d="M66.875 42.7009V29.6209C66.875 28.0209 65.575 26.7109 63.965 26.7109H28.285C26.675 26.7109 25.375 28.0209 25.375 29.6209V50.4509H53.425V47.1609C53.425 44.7009 55.425 42.7009 57.875 42.7009H66.875ZM28.975 34.2309C28.675 33.9409 28.675 33.4609 28.975 33.1709L31.585 30.5509C31.885 30.2609 32.355 30.2609 32.645 30.5509C32.945 30.8409 32.945 31.3209 32.645 31.6109L30.035 34.2309C29.9656 34.3008 29.883 34.3563 29.792 34.3942C29.7011 34.432 29.6035 34.4515 29.505 34.4515C29.4065 34.4515 29.3089 34.432 29.218 34.3942C29.127 34.3563 29.0444 34.3008 28.975 34.2309ZM36.535 32.8709L31.285 38.1209C31.001 38.4049 30.549 38.4229 30.225 38.1209C30.0858 37.9797 30.0077 37.7893 30.0077 37.5909C30.0077 37.3926 30.0858 37.2022 30.225 37.0609L35.475 31.8109C35.765 31.5209 36.245 31.5209 36.535 31.8109C36.825 32.1009 36.825 32.5809 36.535 32.8709Z" fill="#014EFF"/>
</svg>
