<svg width="97" height="97" viewBox="0 0 97 97" fill="none" xmlns="http://www.w3.org/2000/svg">
<circle cx="48.5" cy="48.5" r="48" fill="#E6EDFF" stroke="#B0C8FF"/>
<path d="M41.5391 60.7578C40.7969 60.7578 40.1719 60.25 39.9766 59.5469L33.5703 35.4062C33.4922 35.1719 33.2969 35.0156 33.0625 35.0156H29.9375V33.4531H33.0625C34 33.4531 34.8203 34.0781 35.0937 34.9766L36.9297 41.9297H66.4219C66.9297 41.9297 67.3984 42.1641 67.7109 42.5547C68.0234 42.9453 68.1406 43.4531 68.0234 43.9219L64.3125 59.5469C64.1562 60.25 63.4922 60.7969 62.75 60.7969H41.5391V60.7578ZM43.5312 55.6797H60.6406V53.3359H43.5312V55.6797ZM41.8125 49.625H62.3203V47.2812H41.8125V49.625Z" fill="#014EFF"/>
<path d="M33.0625 33.6484C33.9219 33.6484 34.6641 34.1953 34.8984 35.0547L36.6953 41.8516L36.7734 42.125H66.4219C66.8516 42.125 67.2813 42.3203 67.5547 42.6719C67.8281 43.0234 67.9063 43.4531 67.8281 43.8828L64.1172 59.5078C63.9609 60.1328 63.4141 60.6016 62.75 60.6016H41.5391C40.9141 60.6016 40.3281 60.1719 40.1719 59.5469L33.7656 35.3672C33.6875 35.0547 33.4141 34.8594 33.0625 34.8594H30.1328V33.6875H33.0625M41.6172 49.8203H62.5156V47.0859H41.6172V49.4297V49.8203ZM43.3359 55.875H60.8359V53.1406H43.3359V55.4844V55.875ZM33.0625 33.2578H29.7422V35.2109H33.0625C33.2188 35.2109 33.3359 35.3281 33.375 35.4453L39.7813 59.625C39.9766 60.4062 40.7188 60.9531 41.5391 60.9531H62.7109C63.5313 60.9531 64.2734 60.3672 64.4688 59.5469L68.1797 43.9219C68.2969 43.375 68.1797 42.8281 67.8672 42.3984C67.5156 41.9687 67.0078 41.6953 66.4609 41.6953H37.0859L35.2891 34.9375C35.0156 33.9219 34.1172 33.2578 33.0625 33.2578ZM42.0078 49.4297V47.4766H62.125V49.4297H42.0078ZM43.7266 55.4844V53.5312H60.4453V55.4844H43.7266Z" fill="#014EFF"/>
<path d="M44.7422 66.0703C45.8424 66.0703 46.7344 65.1784 46.7344 64.0781C46.7344 62.9779 45.8424 62.0859 44.7422 62.0859C43.6419 62.0859 42.75 62.9779 42.75 64.0781C42.75 65.1784 43.6419 66.0703 44.7422 66.0703Z" fill="#014EFF"/>
<path d="M44.7422 62.2813C45.7187 62.2813 46.5391 63.1016 46.5391 64.0781C46.5391 65.0547 45.7187 65.875 44.7422 65.875C43.7656 65.875 42.9453 65.0547 42.9453 64.0781C42.9453 63.1016 43.7266 62.2813 44.7422 62.2813ZM44.7422 61.8906C43.5312 61.8906 42.5547 62.8672 42.5547 64.0781C42.5547 65.2891 43.5312 66.2656 44.7422 66.2656C45.9531 66.2656 46.9297 65.2891 46.9297 64.0781C46.9297 62.8672 45.9531 61.8906 44.7422 61.8906Z" fill="#014EFF"/>
<path d="M59.9766 66.0703C61.0768 66.0703 61.9687 65.1784 61.9687 64.0781C61.9687 62.9779 61.0768 62.0859 59.9766 62.0859C58.8763 62.0859 57.9844 62.9779 57.9844 64.0781C57.9844 65.1784 58.8763 66.0703 59.9766 66.0703Z" fill="#014EFF"/>
<path d="M59.9766 62.2813C60.9531 62.2813 61.7734 63.1016 61.7734 64.0781C61.7734 65.0547 60.9531 65.875 59.9766 65.875C59 65.875 58.1797 65.0547 58.1797 64.0781C58.1797 63.1016 59 62.2813 59.9766 62.2813ZM59.9766 61.8906C58.7656 61.8906 57.7891 62.8672 57.7891 64.0781C57.7891 65.2891 58.7656 66.2656 59.9766 66.2656C61.1875 66.2656 62.1641 65.2891 62.1641 64.0781C62.1641 62.8672 61.1875 61.8906 59.9766 61.8906ZM57.0859 40.8359V40.7578C57.0859 38.3359 55.0938 36.3437 52.6719 36.3437C50.25 36.3437 48.2578 38.3359 48.2578 40.7578V40.8359H43.8047V39.3516H45.5234L45.5625 39.1953C45.7578 38.3359 46.0703 37.5547 46.5391 36.8125L46.6172 36.6953L45.4062 35.4844L47.3984 33.4922L48.6094 34.7031L48.7266 34.625C49.4687 34.1562 50.25 33.8438 51.1094 33.6484L51.2656 33.6094V31.8906H54.0781V33.6484L54.2344 33.6875C55.0938 33.8828 55.875 34.1953 56.6172 34.6641L56.7344 34.7422L57.9453 33.4922L59.9375 35.4844L58.7266 36.6953L58.8047 36.8125C59.2734 37.5547 59.5859 38.3359 59.7812 39.1953L59.8203 39.3516H61.5V40.8359H57.0859Z" fill="#014EFF"/>
<path d="M53.8438 32.125V33.8438L54.1562 33.9219C54.9766 34.1172 55.7578 34.4297 56.4609 34.8594L56.7344 35.0156L56.9688 34.7813L57.9453 33.8047L59.625 35.4844L58.6484 36.4609L58.4141 36.6953L58.5703 36.9688C59.0391 37.6719 59.3516 38.4531 59.5078 39.2734L59.5859 39.5859H61.3047V40.6797H57.2812C57.2031 38.1797 55.1719 36.1875 52.6719 36.1875C50.1719 36.1875 48.1406 38.1797 48.0625 40.6797H44V39.5859H45.6797L45.7578 39.2734C45.9531 38.4531 46.2656 37.6719 46.6953 36.9688L46.8516 36.6953L46.6563 36.4609L45.6797 35.4844L47.3594 33.8047L48.3359 34.7813L48.5703 35.0156L48.8438 34.8594C49.5469 34.3906 50.3281 34.0781 51.1484 33.9219L51.4609 33.8438V32.1641H53.8438M54.2344 31.7344H51.0312V33.4922C50.1719 33.6875 49.3516 34.0391 48.6094 34.5078L47.3594 33.2578L45.0938 35.5234L46.3438 36.7734C45.875 37.5156 45.5234 38.3359 45.3281 39.1953H43.5703V41.0703H48.4141V40.7969C48.4141 38.4531 50.2891 36.5781 52.6328 36.5781C54.9766 36.5781 56.8906 38.4531 56.8906 40.7578V41.0313H61.7344V39.1563H59.9375C59.7422 38.2969 59.3906 37.4766 58.9219 36.7344L60.1719 35.4844L57.9063 33.2188L56.6562 34.5078C55.9141 34.0391 55.0938 33.6875 54.2344 33.4922V31.7344Z" fill="#014EFF"/>
</svg>
