<svg width="97" height="97" viewBox="0 0 97 97" fill="none" xmlns="http://www.w3.org/2000/svg">
<circle cx="48.5" cy="48.5" r="48" fill="#E6EDFF" stroke="#B0C8FF"/>
<path fill-rule="evenodd" clip-rule="evenodd" d="M42.1249 54.9885H33.3248C29.0036 54.9885 25.4688 51.4537 25.4688 47.1353C25.4688 43.8588 27.503 41.0354 30.3681 39.8599C30.3546 39.6193 30.3481 39.3784 30.3486 39.1374C30.3486 32.2039 35.9677 26.582 42.9011 26.582C46.2915 26.582 49.3705 27.9271 51.6298 30.1141C52.8248 29.6861 54.1114 29.4527 55.4537 29.4527C61.2978 29.4527 66.1054 33.8741 66.7195 39.5542C70.1293 40.4796 72.5276 43.5976 72.5276 47.1353C72.5276 49.4378 71.5227 51.5176 69.9294 52.9575C69.7201 52.3881 69.4721 51.8337 69.187 51.2982C69.1871 51.2983 69.8599 49.7792 69.8599 49.7792C69.9882 49.4896 70.0258 49.1679 69.9678 48.8566C69.9098 48.5452 69.7589 48.2587 69.5349 48.0347L66.891 45.3909C66.6668 45.1666 66.3799 45.0156 66.0681 44.9578C65.7563 44.8999 65.4343 44.9379 65.1445 45.0667L63.6262 45.7418C62.8717 45.3403 62.0802 45.0123 61.2629 44.7623L60.6667 43.2108C60.5529 42.9147 60.3521 42.6601 60.0907 42.4805C59.8293 42.3009 59.5195 42.2047 59.2024 42.2047H55.4626C55.1458 42.2047 54.8365 42.3006 54.5752 42.4798C54.314 42.659 54.1132 42.9131 53.9991 43.2086L53.3997 44.7619C52.5818 45.0119 51.7899 45.3401 51.0349 45.7418L49.5167 45.0667C49.2269 44.9379 48.9049 44.8999 48.5932 44.9578C48.2814 45.0156 47.9945 45.1666 47.7702 45.3909L45.1263 48.0347C44.9021 48.2589 44.7511 48.5458 44.6932 48.8576C44.6354 49.1694 44.6734 49.4914 44.8022 49.7812L45.4773 51.2995C45.0751 52.0554 44.7463 52.8481 44.4953 53.6667L42.9454 54.2632C42.5936 54.3985 42.3023 54.656 42.1249 54.9885ZM38.3067 39.0826L40.2913 38.7683C40.4967 38.7357 40.6807 38.6228 40.803 38.4546C40.9252 38.2863 40.9757 38.0764 40.9433 37.871C40.9106 37.6656 40.7978 37.4815 40.6295 37.3593C40.4613 37.237 40.2513 37.1866 40.0459 37.219L36.5409 37.7741C36.3773 37.8 36.2261 37.877 36.109 37.9942C35.9919 38.1113 35.9149 38.2625 35.8889 38.4261L35.3338 41.9311C35.2661 42.3585 35.5583 42.7607 35.9858 42.8284C36.1913 42.8608 36.4012 42.8103 36.5694 42.6881C36.7377 42.5658 36.8505 42.3818 36.8832 42.1763L37.1975 40.1918L41.3337 44.3279C41.6397 44.634 42.1367 44.634 42.4428 44.3279C42.7488 44.0218 42.7488 43.5249 42.4428 43.2187L38.3067 39.0826ZM46.7482 36.7365L42.612 32.6004C42.4648 32.4534 42.2654 32.3708 42.0574 32.3708C41.8494 32.3708 41.6499 32.4534 41.5028 32.6004C41.3558 32.7475 41.2732 32.947 41.2732 33.155C41.2732 33.363 41.3558 33.5624 41.5028 33.7096L45.6389 37.8458L43.6543 38.1601C43.2268 38.2277 42.9346 38.6299 43.0024 39.0574C43.0701 39.485 43.4722 39.777 43.8997 39.7094L47.4046 39.1542C47.5682 39.1283 47.7194 39.0513 47.8366 38.9342C47.9537 38.817 48.0307 38.6658 48.0566 38.5022L48.6118 34.9973C48.6794 34.5698 48.3874 34.1677 47.9598 34.1C47.5323 34.0322 47.1301 34.3244 47.0625 34.7519L46.7482 36.7365ZM60.0837 46.0669C61.3038 46.3568 62.4698 46.8399 63.5373 47.4981L65.7819 46.5001L68.4257 49.1439L67.4314 51.3885C68.0902 52.457 68.5734 53.6243 68.8626 54.8459L71.1524 55.7271V59.4669L68.8626 60.3482C68.5726 61.5684 68.0868 62.7321 67.4314 63.8017L68.4257 66.0463L65.7819 68.6902L63.5373 67.696C62.4714 68.355 61.3039 68.8371 60.0837 69.127L59.2024 71.4169H55.4626L54.5813 69.127C53.3573 68.8371 52.1936 68.3513 51.124 67.696L48.8793 68.6902L46.2355 66.0463L47.2336 63.8017C46.5745 62.736 46.0924 61.5684 45.7987 60.3482L43.5088 59.4669V55.7271L45.7987 54.8459C46.0908 53.6247 46.5751 52.4577 47.2336 51.3885L46.2355 49.1439L48.8793 46.5001L51.124 47.4981C52.1915 46.8399 53.3574 46.3568 54.5776 46.0669L55.4626 43.7733H59.2024L60.0837 46.0669ZM57.33 48.175C52.1253 48.175 47.9105 52.3899 47.9105 57.5945C47.9105 62.799 52.1255 67.019 57.33 67.019C62.5344 67.019 66.7545 62.7989 66.7545 57.5945C66.7545 52.39 62.5345 48.175 57.33 48.175ZM57.33 49.7436C61.6681 49.7436 65.1859 53.2564 65.1859 57.5945C65.1859 61.9327 61.6682 65.4504 57.33 65.4504C52.992 65.4504 49.4791 61.9325 49.4791 57.5945C49.4791 53.2565 52.9921 49.7436 57.33 49.7436ZM54.4369 59.117L53.3312 57.5952L54.4369 56.0732C54.6913 55.723 54.6136 55.2321 54.2634 54.9777C53.9132 54.7233 53.4223 54.8011 53.1679 55.1512L51.7272 57.1341C51.6298 57.2681 51.5774 57.4295 51.5774 57.5951C51.5774 57.7608 51.6298 57.9221 51.7272 58.0561L53.1679 60.039C53.4223 60.3892 53.9132 60.4669 54.2634 60.2125C54.6136 59.9581 54.6913 59.4672 54.4369 59.117ZM57.0959 59.9395L58.9574 56.3557C59.0532 56.171 59.0717 55.956 59.009 55.7577C58.9463 55.5594 58.8074 55.3941 58.6229 55.2981C58.2388 55.0986 57.7649 55.2485 57.5653 55.6326L55.7039 59.2164C55.6081 59.4011 55.5895 59.6162 55.6522 59.8145C55.7149 60.0128 55.8538 60.1781 56.0384 60.274C56.223 60.3698 56.4381 60.3883 56.6364 60.3256C56.8347 60.2629 57 60.124 57.0959 59.9395ZM61.4934 60.039L62.934 58.0561C63.0314 57.9221 63.0838 57.7608 63.0838 57.5951C63.0838 57.4295 63.0314 57.2681 62.934 57.1341L61.4934 55.1512C61.2389 54.8011 60.7481 54.7233 60.3979 54.9777C60.0477 55.2321 59.9699 55.723 60.2243 56.0732L61.33 57.5951L60.2243 59.117C59.9699 59.4672 60.0477 59.9581 60.3979 60.2125C60.7481 60.4669 61.2389 60.3892 61.4934 60.039Z" fill="#014EFF"/>
</svg>
