<svg width="80" height="80" viewBox="0 0 80 80" fill="none" xmlns="http://www.w3.org/2000/svg">
<circle opacity="0.3" cx="40" cy="40" r="39.5" fill="#E6EDFF" stroke="#B0C8FF"/>
<g clip-path="url(#clip0_731_565)">
<path d="M52.7508 42.4783C53.2383 42.9658 53.5414 43.6408 53.5414 44.3854C53.5414 45.1314 53.2383 45.8049 52.7508 46.2939C52.2617 46.7814 51.5883 47.0822 50.8438 47.0822C50.0977 47.0822 49.4242 46.7814 48.9352 46.2939C48.4477 45.8049 48.1469 45.1314 48.1469 44.3854C48.1469 43.6416 48.4484 42.9658 48.9352 42.4783C49.4242 41.9908 50.0977 41.6877 50.8438 41.6877C51.5883 41.6877 52.2617 41.9908 52.7508 42.4783ZM60.0016 43.8182V44.9541C60.0016 45.2932 59.7914 45.583 59.468 45.6869L58.6617 45.9479C58.4094 46.0299 58.2297 46.2158 58.1594 46.4705C57.9991 47.0319 57.7747 47.573 57.4906 48.083C57.3625 48.3135 57.3578 48.5721 57.4773 48.8072L57.8625 49.5643C58.0172 49.865 57.9602 50.2174 57.7211 50.4588L56.9172 51.2627C56.6781 51.5018 56.3258 51.5572 56.0227 51.4041L55.2656 51.0189C55.0312 50.8971 54.7719 50.9018 54.5414 51.0322C54.0318 51.3167 53.4906 51.5403 52.9289 51.6986C52.6742 51.7721 52.4883 51.951 52.4086 52.2033L52.1453 53.0096C52.0414 53.333 51.7531 53.5408 51.4125 53.5408H50.2766C49.9375 53.5408 49.6477 53.3322 49.5438 53.0096L49.2828 52.2033C49.2008 51.951 49.0148 51.7713 48.7602 51.6986C48.1985 51.5402 47.6573 51.3165 47.1477 51.0322C46.9172 50.9041 46.6586 50.8971 46.4234 51.0189L45.6664 51.4041C45.3648 51.5572 45.0133 51.5018 44.7719 51.2627L43.968 50.4588C43.7289 50.2174 43.6734 49.865 43.8266 49.5643L44.2117 48.8072C44.3336 48.5729 44.3289 48.3135 44.1984 48.083C43.914 47.5734 43.6903 47.0322 43.532 46.4705C43.4586 46.2158 43.2797 46.0299 43.0273 45.9479L42.2211 45.6869C41.8977 45.583 41.6898 45.2924 41.6898 44.9541V43.8182C41.6898 43.4768 41.8977 43.1893 42.2211 43.0854L43.0297 42.8221C43.2797 42.74 43.4594 42.5564 43.532 42.3018C43.6915 41.7404 43.9151 41.1994 44.1984 40.6893C44.3289 40.4588 44.3336 40.2002 44.2117 39.965L43.8266 39.208C43.6734 38.9049 43.7289 38.5525 43.968 38.3135L44.7719 37.5096C45.0133 37.2705 45.3656 37.2127 45.6664 37.3682L46.4234 37.7533C46.6578 37.8729 46.9172 37.8682 47.1477 37.74C47.6523 37.4588 48.193 37.233 48.7602 37.0713C49.0148 37.0002 49.2008 36.8213 49.2828 36.5689L49.5438 35.7627C49.6477 35.4393 49.9383 35.2291 50.2766 35.2291H51.4125C51.7539 35.2291 52.0414 35.4393 52.1453 35.7627L52.4086 36.5689C52.4883 36.8213 52.6742 37.001 52.9289 37.0713C53.4903 37.2315 54.0314 37.4559 54.5414 37.74C54.7719 37.8682 55.0305 37.8729 55.2656 37.7533L56.0227 37.3682C56.3258 37.2135 56.6781 37.2705 56.9172 37.5096L57.7211 38.3135C57.9602 38.5525 58.018 38.9049 57.8625 39.208L57.4773 39.965C57.3578 40.1994 57.3625 40.4588 57.4906 40.6893C57.7719 41.1939 57.9977 41.7346 58.1594 42.3018C58.2305 42.5564 58.4094 42.7424 58.6617 42.8221L59.468 43.0854C59.7914 43.1893 60.0016 43.4768 60.0016 43.8182ZM54.8305 44.3854C54.8305 43.2846 54.3852 42.2885 53.6633 41.5666C52.9414 40.8447 51.9445 40.3971 50.8438 40.3971C49.7406 40.3971 48.7445 40.8447 48.0227 41.5666C47.3008 42.2885 46.8555 43.2854 46.8555 44.3854C46.8555 45.4885 47.3008 46.4846 48.0227 47.2064C48.7445 47.9283 49.7414 48.3736 50.8438 48.3736C51.9445 48.3736 52.9406 47.9283 53.6633 47.2064C54.3852 46.4846 54.8305 45.4877 54.8305 44.3854ZM42.1742 52.9158H39.3547L38.4953 50.5197H32.3453L31.4883 52.9158H28.6687C28.3125 52.9158 28.0219 53.2041 28.0219 53.5604C28.0219 53.9166 28.3117 54.2072 28.6687 54.2072H42.1734C42.5297 54.2072 42.8203 53.9174 42.8203 53.5604C42.8211 53.2033 42.5313 52.9158 42.1742 52.9158ZM40.425 43.4635H20V27.8135C20 26.7018 20.9102 25.7939 22.0219 25.7939H48.8227C49.9344 25.7939 50.8445 26.7018 50.8445 27.8135V33.9369H50.2758C49.3766 33.9369 48.593 34.508 48.3156 35.3635L48.1359 35.9104C47.6641 36.0611 47.2055 36.2518 46.7648 36.4799L46.2508 36.2182C45.4516 35.8104 44.4922 35.9611 43.857 36.5971L43.0531 37.401C42.4172 38.0346 42.2672 38.9932 42.6742 39.7947L42.9352 40.3088C42.7094 40.7494 42.5187 41.208 42.368 41.6799L41.8188 41.8572C41.0805 42.0971 40.5531 42.7174 40.425 43.4635ZM28.1227 34.951L32.3969 32.5635C32.707 32.3908 32.8195 31.9986 32.6469 31.6885C32.4742 31.3783 32.082 31.2658 31.7719 31.4385L26.4969 34.3838C26.3893 34.4433 26.3003 34.5315 26.2398 34.6385C26.0672 34.9486 26.1797 35.3408 26.4898 35.5135L31.7719 38.4635C32.082 38.6361 32.4742 38.5252 32.6469 38.2135C32.8195 37.9033 32.707 37.5111 32.3969 37.3385L28.1227 34.951ZM36.6688 29.5143C36.3211 29.4346 35.9758 29.6518 35.8961 29.9994L33.693 39.6174C33.6133 39.9627 33.8305 40.308 34.1758 40.3877C34.5234 40.4674 34.8687 40.2502 34.9484 39.9025L37.1516 30.2869C37.2312 29.9393 37.0141 29.5939 36.6688 29.5143ZM39.0719 38.4635L44.3539 35.5135C44.6641 35.3408 44.7766 34.9486 44.6039 34.6385C44.5436 34.5313 44.4546 34.4431 44.3469 34.3838L39.0719 31.4385C38.7617 31.2658 38.3695 31.3783 38.1969 31.6885C38.0242 31.9986 38.1367 32.3908 38.4469 32.5635L42.7211 34.951L38.4469 37.3385C38.1367 37.5111 38.0242 37.9033 38.1969 38.2135C38.3695 38.5252 38.7617 38.6361 39.0719 38.4635ZM41.8203 46.9143C40.9656 46.6377 40.3961 45.8533 40.3961 44.9541V44.7549H20V47.2088C20 48.3182 20.9102 49.2283 22.0219 49.2283H42.5664C42.5977 49.1439 42.6328 49.0604 42.675 48.9783L42.9359 48.4643C42.7099 48.0231 42.5194 47.5646 42.3664 47.0932L41.8203 46.9143Z" fill="white"/>
</g>
<defs>
<clipPath id="clip0_731_565">
<rect width="40" height="40" fill="white" transform="translate(20 20)"/>
</clipPath>
</defs>
</svg>
