<svg width="97" height="97" viewBox="0 0 97 97" fill="none" xmlns="http://www.w3.org/2000/svg">
<circle cx="48.5" cy="48.5" r="48" fill="#E6EDFF" stroke="#B0C8FF"/>
<path d="M48.165 46.7575C48.2547 46.8543 48.3634 46.9315 48.4843 46.9845C48.6051 47.0374 48.7356 47.0649 48.8676 47.0652H48.8703C49.0018 47.0653 49.132 47.0383 49.2528 46.9861C49.3735 46.9338 49.4822 46.8573 49.5722 46.7613L62.8973 32.5452C63.0647 32.3666 63.1577 32.1309 63.1573 31.8862C63.1569 31.6414 63.0632 31.406 62.8953 31.2279L59.264 27.3789C59.1709 27.2802 59.058 27.2023 58.9327 27.1504C58.8074 27.0985 58.6724 27.0736 58.5368 27.0775C58.4012 27.0815 58.268 27.114 58.1459 27.1731C58.0237 27.2322 57.9155 27.3164 57.8283 27.4203L48.739 38.2457L44.1116 34.5276C44.0052 34.4421 43.8817 34.3802 43.7495 34.3461C43.6172 34.312 43.4793 34.3065 43.3447 34.3298C43.2102 34.3532 43.0822 34.405 42.9692 34.4817C42.8562 34.5584 42.7609 34.6583 42.6895 34.7747L40.8297 37.8091C40.7201 37.9879 40.672 38.1977 40.6927 38.4064C40.7134 38.6151 40.8017 38.8113 40.9443 38.9651L48.165 46.7575ZM31.5638 43.4299C31.6531 43.5192 31.7591 43.5901 31.8758 43.6384C31.9925 43.6867 32.1175 43.7116 32.2438 43.7116C32.3701 43.7116 32.4951 43.6867 32.6118 43.6384C32.7284 43.5901 32.8344 43.5192 32.9237 43.4299L34.6748 41.6789L36.4259 43.4299C36.6065 43.609 36.8507 43.7092 37.105 43.7086C37.3593 43.708 37.603 43.6068 37.7828 43.427C37.9626 43.2472 38.0639 43.0035 38.0644 42.7492C38.065 42.4949 37.9648 42.2507 37.7858 42.0701L36.0347 40.319L37.7858 38.5675C37.9661 38.3872 38.0674 38.1426 38.0674 37.8876C38.0674 37.6326 37.9661 37.388 37.7858 37.2077C37.6055 37.0273 37.3609 36.926 37.1059 36.926C36.8509 36.926 36.6063 37.0273 36.4259 37.2076L34.6748 38.9588L32.9237 37.208C32.7427 37.0314 32.4993 36.9333 32.2464 36.9349C31.9935 36.9364 31.7514 37.0376 31.5726 37.2164C31.3937 37.3952 31.2925 37.6373 31.2909 37.8902C31.2892 38.1431 31.3873 38.3864 31.5638 38.5675L33.315 40.3186L31.5638 42.0701C31.3835 42.2505 31.2822 42.495 31.2822 42.75C31.2822 43.005 31.3835 43.2496 31.5638 43.4299ZM61.5742 37.208C61.393 37.0322 61.1499 36.9347 60.8974 36.9366C60.645 36.9385 60.4034 37.0396 60.2248 37.2181C60.0463 37.3966 59.9451 37.6382 59.9431 37.8907C59.9412 38.1432 60.0386 38.3863 60.2144 38.5675L61.9655 40.3186L60.2144 42.0697C60.1245 42.1589 60.053 42.2649 60.0042 42.3817C59.9554 42.4986 59.9301 42.6239 59.9298 42.7505C59.9295 42.8771 59.9543 43.0026 60.0026 43.1196C60.0509 43.2367 60.1219 43.343 60.2114 43.4325C60.301 43.5221 60.4073 43.593 60.5243 43.6414C60.6414 43.6897 60.7668 43.7144 60.8934 43.7142C61.0201 43.7139 61.1454 43.6886 61.2622 43.6398C61.379 43.5909 61.4851 43.5195 61.5742 43.4296L63.3254 41.6785L65.0764 43.4296C65.2567 43.6099 65.5013 43.7112 65.7563 43.7112C66.0114 43.7112 66.2559 43.6099 66.4363 43.4296C66.6166 43.2493 66.7179 43.0047 66.7179 42.7497C66.7179 42.4947 66.6167 42.2501 66.4363 42.0697L64.6852 40.3186L66.4363 38.5675C66.6167 38.3872 66.718 38.1426 66.718 37.8876C66.718 37.6326 66.6167 37.388 66.4363 37.2076C66.256 37.0273 66.0114 36.926 65.7564 36.926C65.5013 36.926 65.2568 37.0273 65.0764 37.2076L63.3254 38.9588L61.5742 37.208ZM66.4061 57.2003C67.077 56.5806 67.5454 55.773 67.7501 54.8829C67.9548 53.9929 67.8863 53.0618 67.5535 52.2113C67.2208 51.3608 66.6393 50.6303 65.885 50.1155C65.1307 49.6006 64.2387 49.3251 63.3254 49.3251C62.4121 49.3251 61.52 49.6006 60.7657 50.1155C60.0114 50.6303 59.4299 51.3608 59.0972 52.2113C58.7645 53.0618 58.696 53.9929 58.9007 54.8829C59.1054 55.773 59.5737 56.5806 60.2446 57.2003C59.2615 57.6827 58.4044 58.3877 57.7414 59.2593C57.0785 60.1309 56.628 61.1451 56.4258 62.2214C55.4342 60.8725 54.0958 59.8175 52.5527 59.1684C53.5203 58.4261 54.2311 57.3993 54.5852 56.2323C54.9393 55.0653 54.9189 53.8166 54.527 52.6618C54.135 51.5069 53.3911 50.5039 52.3999 49.7935C51.4086 49.0831 50.2196 48.7011 49.0001 48.7011C47.7805 48.7011 46.5916 49.0831 45.6003 49.7935C44.609 50.5039 43.8652 51.5069 43.4732 52.6618C43.0812 53.8166 43.0609 55.0653 43.415 56.2323C43.7691 57.3993 44.4799 58.4261 45.4475 59.1684C43.9044 59.8175 42.566 60.8725 41.5744 62.2214C41.3721 61.1451 40.9216 60.1309 40.2587 59.2593C39.5958 58.3877 38.7387 57.6827 37.7556 57.2003C38.4264 56.5806 38.8948 55.773 39.0994 54.8829C39.3041 53.9929 39.2356 53.0618 38.9029 52.2113C38.5702 51.3608 37.9887 50.6304 37.2344 50.1155C36.4801 49.6006 35.588 49.3252 34.6747 49.3252C33.7615 49.3252 32.8694 49.6006 32.1151 50.1155C31.3608 50.6304 30.7793 51.3608 30.4466 52.2113C30.1139 53.0618 30.0454 53.9929 30.2501 54.8829C30.4547 55.773 30.9231 56.5806 31.5939 57.2003C30.4135 57.7779 29.4187 58.675 28.7224 59.7896C28.0262 60.9042 27.6565 62.1917 27.6553 63.5059V65.1886C27.6553 65.4436 27.7566 65.6882 27.9369 65.8685C28.1172 66.0488 28.3618 66.1501 28.6168 66.1501H39.9122C39.8284 66.6522 39.7863 67.1603 39.7862 67.6694V69.9618C39.7862 70.2168 39.8875 70.4614 40.0679 70.6417C40.2482 70.822 40.4928 70.9233 40.7478 70.9233H57.2524C57.5074 70.9233 57.752 70.822 57.9323 70.6417C58.1126 70.4614 58.2139 70.2168 58.2139 69.9618V67.6696C58.2139 67.1605 58.1717 66.6524 58.088 66.1503H69.3834C69.6384 66.1503 69.8829 66.049 70.0633 65.8687C70.2436 65.6884 70.3449 65.4438 70.3449 65.1888V63.5061C70.3437 62.1919 69.974 60.9043 69.2777 59.7897C68.5815 58.675 67.5866 57.7779 66.4061 57.2003ZM45.0866 54.5422C45.0866 53.7681 45.3161 53.0115 45.7462 52.3679C46.1762 51.7244 46.7874 51.2228 47.5025 50.9266C48.2176 50.6304 49.0044 50.5529 49.7636 50.7039C50.5227 50.8549 51.22 51.2276 51.7673 51.7749C52.3146 52.3222 52.6873 53.0195 52.8383 53.7787C52.9893 54.5378 52.9118 55.3247 52.6156 56.0398C52.3194 56.7549 51.8178 57.3661 51.1743 57.7961C50.5307 58.2261 49.7741 58.4556 49.0001 58.4556C47.9625 58.4544 46.9678 58.0418 46.2341 57.3081C45.5005 56.5744 45.0878 55.5797 45.0866 54.5422ZM56.2908 69.0002H41.7093V67.6696C41.7093 66.7121 41.8979 65.7641 42.2643 64.8795C42.6307 63.9949 43.1677 63.1912 43.8447 62.5142C44.5217 61.8372 45.3255 61.3002 46.21 60.9338C47.0946 60.5674 48.0426 60.3788 49.0001 60.3788C49.9575 60.3788 50.9056 60.5674 51.7901 60.9338C52.6747 61.3002 53.4784 61.8372 54.1554 62.5142C54.8324 63.1912 55.3695 63.9949 55.7359 64.8795C56.1023 65.7641 56.2909 66.7121 56.2908 67.6696V69.0002Z" fill="#014EFF"/>
</svg>
