<svg width="212" height="48" viewBox="0 0 212 48" fill="none" xmlns="http://www.w3.org/2000/svg">
<path fill-rule="evenodd" clip-rule="evenodd" d="M15.5416 24L24.5208 15.0208L33.0208 23.5208L24.0416 32.5L15.5416 24ZM12.5 24L2 13.5L14.0208 1.47918L24.0416 11.5L34.5416 1L46.5624 13.0208L36.0624 23.5208L46.5624 34.0208L34.5416 46.0416L24.5208 36.0208L14.0208 46.5208L2 34.5L12.5 24Z" fill="#014EFF"/>
<path d="M78.09 28.22L78.93 35H75.21L74.64 29.42C74.54 28.28 74.22 27.47 73.68 26.99C73.14 26.51 72.28 26.27 71.1 26.27H65.88V35H62.25V13.64H72.18C74.32 13.64 75.96 14.16 77.1 15.2C78.24 16.24 78.81 17.64 78.81 19.4C78.81 20.76 78.47 21.9 77.79 22.82C77.11 23.72 76.14 24.34 74.88 24.68C76.78 25.08 77.85 26.26 78.09 28.22ZM65.88 23.24H71.07C72.41 23.24 73.43 22.94 74.13 22.34C74.85 21.74 75.21 20.91 75.21 19.85C75.21 18.87 74.9 18.11 74.28 17.57C73.68 17.01 72.79 16.73 71.61 16.73H65.88V23.24ZM96.8843 27.35V28.22H85.4543C85.5343 29.64 85.9343 30.74 86.6543 31.52C87.3943 32.28 88.3843 32.66 89.6243 32.66C91.4043 32.66 92.6043 31.82 93.2243 30.14L96.5843 30.44C96.1043 32.06 95.2543 33.3 94.0343 34.16C92.8343 35.02 91.3643 35.45 89.6243 35.45C87.2243 35.45 85.3343 34.68 83.9543 33.14C82.5743 31.62 81.8843 29.64 81.8843 27.2C81.8843 24.84 82.5543 22.9 83.8943 21.38C85.2543 19.88 87.0743 19.13 89.3543 19.13C91.6143 19.13 93.4343 19.86 94.8143 21.32C96.1943 22.8 96.8843 24.81 96.8843 27.35ZM92.1443 22.85C91.4643 22.17 90.5643 21.83 89.4443 21.83C88.3043 21.83 87.3943 22.17 86.7143 22.85C85.9943 23.55 85.5843 24.53 85.4843 25.79H93.3743C93.2143 24.49 92.8043 23.51 92.1443 22.85ZM103.696 17.06H100.186V13.64H103.696V17.06ZM99.3159 41.12H97.5459V38.09H98.4459C99.1059 38.09 99.5559 37.97 99.7959 37.73C100.056 37.51 100.186 37.1 100.186 36.5V19.52H103.696V36.62C103.696 38.2 103.346 39.34 102.646 40.04C101.966 40.76 100.856 41.12 99.3159 41.12ZM120.251 33.14C118.811 34.68 116.961 35.45 114.701 35.45C112.421 35.45 110.581 34.69 109.181 33.17C107.741 31.63 107.021 29.67 107.021 27.29C107.021 24.87 107.741 22.9 109.181 21.38C110.621 19.88 112.481 19.13 114.761 19.13C117.021 19.13 118.861 19.88 120.281 21.38C121.701 22.9 122.411 24.85 122.411 27.23C122.411 29.65 121.691 31.62 120.251 33.14ZM114.701 32.63C116.021 32.63 117.061 32.14 117.821 31.16C118.601 30.18 118.991 28.87 118.991 27.23C118.991 25.59 118.611 24.3 117.851 23.36C117.091 22.42 116.041 21.95 114.701 21.95C113.381 21.95 112.341 22.43 111.581 23.39C110.841 24.35 110.471 25.65 110.471 27.29C110.471 28.91 110.851 30.21 111.611 31.19C112.371 32.15 113.401 32.63 114.701 32.63ZM129.214 17.06H125.704V13.64H129.214V17.06ZM129.214 35H125.704V19.52H129.214V35ZM139.859 35.45C137.579 35.45 135.789 34.73 134.489 33.29C133.189 31.85 132.539 29.87 132.539 27.35C132.539 24.81 133.199 22.81 134.519 21.35C135.839 19.87 137.639 19.13 139.919 19.13C141.819 19.13 143.369 19.62 144.569 20.6C145.769 21.58 146.509 22.97 146.789 24.77H143.399C142.959 22.89 141.819 21.95 139.979 21.95C138.679 21.95 137.689 22.41 137.009 23.33C136.329 24.23 135.989 25.55 135.989 27.29C135.989 28.99 136.329 30.31 137.009 31.25C137.709 32.17 138.689 32.63 139.949 32.63C141.809 32.63 142.959 31.63 143.399 29.63H146.789C146.489 31.49 145.739 32.93 144.539 33.95C143.339 34.95 141.779 35.45 139.859 35.45ZM164.091 27.35V28.22H152.661C152.741 29.64 153.141 30.74 153.861 31.52C154.601 32.28 155.591 32.66 156.831 32.66C158.611 32.66 159.811 31.82 160.431 30.14L163.791 30.44C163.311 32.06 162.461 33.3 161.241 34.16C160.041 35.02 158.571 35.45 156.831 35.45C154.431 35.45 152.541 34.68 151.161 33.14C149.781 31.62 149.091 29.64 149.091 27.2C149.091 24.84 149.761 22.9 151.101 21.38C152.461 19.88 154.281 19.13 156.561 19.13C158.821 19.13 160.641 19.86 162.021 21.32C163.401 22.8 164.091 24.81 164.091 27.35ZM159.351 22.85C158.671 22.17 157.771 21.83 156.651 21.83C155.511 21.83 154.601 22.17 153.921 22.85C153.201 23.55 152.791 24.53 152.691 25.79H160.581C160.421 24.49 160.011 23.51 159.351 22.85ZM190.186 13.64V16.85H178.966V22.49H188.506V25.7H178.966V35H175.336V13.64H190.186ZM209.775 13.64L202.905 23.78L210.285 35H205.995L201.765 27.95L200.955 26.3L200.055 27.98L195.735 35H191.445L199.035 23.75L192.255 13.64H196.485L200.115 19.55L201.015 21.26L201.885 19.58L205.665 13.64H209.775Z" fill="#0B0B14"/>
</svg>
