<svg width="97" height="97" viewBox="0 0 97 97" fill="none" xmlns="http://www.w3.org/2000/svg">
<circle cx="48.5" cy="48.5" r="48" fill="#E6EDFF" stroke="#B0C8FF"/>
<path d="M62.3109 39.2438C62.0819 39.3957 61.8168 39.4845 61.5425 39.5012C61.2681 39.5179 60.9942 39.462 60.7484 39.3391L58.2891 38.1125L55.7797 38.7375C55.6147 38.7778 55.444 38.7894 55.275 38.7719C55.9539 39.4078 56.6289 40.0531 57.2914 40.7164C57.643 41.0672 57.9867 41.4242 58.3305 41.7797L58.6867 42.0141L62.15 42.7109L64.4219 41.4141C63.9813 40.5226 63.4642 39.6709 62.8766 38.8688L62.3109 39.2438ZM62.9281 44.0617C62.606 44.2436 62.2311 44.309 61.8664 44.2469L60.35 43.943C61.4727 45.193 62.5414 46.4539 63.5492 47.7227C64.2961 46.7258 64.9992 45.7328 65.6586 44.7438C65.4935 44.102 65.291 43.4705 65.0523 42.8523L62.9281 44.0617ZM58.143 34.9375H54.893L53.9875 36.2859L55.3937 37.2172L57.9031 36.5922C58.2712 36.498 58.6611 36.5443 58.9969 36.7219L61.4437 37.9414L61.8883 37.6453C60.9454 36.5757 59.8743 35.6263 58.6992 34.8188C58.5227 34.8924 58.3341 34.9327 58.143 34.9375ZM66.1898 49C66.1882 48.3069 66.1449 47.6145 66.0602 46.9266C65.5661 47.627 65.0593 48.3182 64.5398 49C65.0595 49.6819 65.5663 50.3734 66.0602 51.0742C66.1449 50.386 66.1882 49.6934 66.1898 49ZM63.393 58.3813C64.4248 56.8094 65.1903 55.0781 65.6586 53.257C65.0029 52.2675 64.2997 51.2742 63.5492 50.2773C62.8398 51.1706 62.1023 52.0599 61.3367 52.9453L61.9711 53.7891C62.1723 54.0604 62.2818 54.3888 62.2836 54.7266V57.2734L63.393 58.3813ZM60.3758 51.6656C61.1367 50.7802 61.8687 49.8917 62.5719 49C60.9758 46.9688 59.2125 44.9453 57.3258 42.9844L55.7992 41.9688H53.3305L52.1828 43.6773L52.768 46.0313L55.218 46.6219L56.9008 46.075C57.177 45.9873 57.4721 45.9779 57.7533 46.0478C58.0345 46.1177 58.2908 46.2643 58.4937 46.4711L59.482 47.4516C59.7737 47.748 59.9379 48.1467 59.9398 48.5625V51.0859L60.3758 51.6656ZM44.1469 62.4375L45.0961 62.75V60.4203C45.0949 60.1298 45.1753 59.8449 45.328 59.5978C45.4808 59.3507 45.6998 59.1514 45.9602 59.0227L48.2211 57.8906L48.2297 56.5859C48.2319 56.2593 48.3364 55.9416 48.5285 55.6775C48.7207 55.4133 48.9907 55.216 49.3008 55.1133L50.6586 54.6633L51.0961 52.9063H50.1859C49.9271 52.9063 49.6723 52.8421 49.4445 52.7194C49.2166 52.5967 49.0228 52.4193 48.8805 52.2031L47.8 50.5625H45.4219C45.006 50.5604 44.6079 50.3936 44.3148 50.0984L42.6359 48.4L39.6273 50.2328V52.5828L40.8711 53.8266L41.8867 54.3352C42.1473 54.4638 42.3666 54.663 42.5196 54.9101C42.6726 55.1571 42.7533 55.4422 42.7523 55.7328V58.2578L44.1469 62.4375ZM62.4672 59.6633L61.1766 58.375C60.8856 58.0821 60.7219 57.6863 60.7211 57.2734V54.7266L60.2781 54.1375C59.309 55.2127 58.3123 56.2628 57.2891 57.2867C54.0925 60.5012 50.6262 63.4357 46.9281 66.0578C49.8496 66.4197 52.815 66.0212 55.5373 64.901C58.2596 63.7807 60.6466 61.9766 62.4672 59.6633ZM45.0047 33.4086L44.4516 32.4289C41.6425 33.2067 39.0762 34.6835 36.9924 36.7216C34.9086 38.7596 33.3751 41.2925 32.5352 44.0836L34.6656 46.818L38.0648 48.5211V47.0781L36.4242 45.9781C36.2087 45.8349 36.0319 45.6408 35.9092 45.413C35.7866 45.1851 35.722 44.9306 35.7211 44.6719V43.3906C35.721 43.0293 35.8461 42.679 36.0751 42.3996C36.3042 42.1201 36.623 41.9286 36.9773 41.8578L40.1547 41.2266L43.0211 39.7938L45.0883 37.0313C45.298 36.7487 45.5979 36.5461 45.9383 36.457L48.5164 35.8125L48.8523 35.3125C48.4924 35.0325 48.1296 34.7562 47.7641 34.4836L46.1156 34.2078C45.8809 34.1707 45.6581 34.0791 45.4651 33.9403C45.2722 33.8015 45.1145 33.6194 45.0047 33.4086ZM46.9289 31.9422C47.4185 32.2859 47.9094 32.6404 48.4016 33.0055L49.4953 33.1906C49.8848 33.2535 50.2359 33.4617 50.4779 33.7733C50.7199 34.0849 50.8347 34.4766 50.7992 34.8695C51.3461 35.3117 51.8914 35.7648 52.4352 36.2289C52.4431 35.9432 52.5293 35.6651 52.6844 35.425L53.5875 34.0781C53.7305 33.8627 53.9245 33.6858 54.1522 33.5631C54.3799 33.4405 54.6343 33.3759 54.893 33.375H56.1492C53.9077 32.3443 51.4695 31.8112 49.0023 31.8125C48.3092 31.8142 47.6168 31.8575 46.9289 31.9422Z" fill="#014EFF"/>
<path d="M59.3188 52.8635L58.6875 52.0236C58.4863 51.7523 58.3768 51.4239 58.375 51.0861V48.5627L57.3797 47.5705L55.7024 48.1104C55.4172 48.2067 55.1097 48.2154 54.8196 48.1354L52.4016 47.5486C52.1246 47.4811 51.8712 47.3396 51.6684 47.1392C51.4656 46.9389 51.321 46.6872 51.25 46.4111L50.6719 44.0533C50.6202 43.8464 50.6111 43.6311 50.6451 43.4205C50.6791 43.21 50.7554 43.0085 50.8696 42.8283L52.0227 41.1049C52.1664 40.8904 52.3606 40.7145 52.5882 40.5927C52.8159 40.4709 53.07 40.4069 53.3282 40.4064H54.7344C53.2337 38.9764 51.6787 37.6046 50.0727 36.2939L49.8118 36.6846C49.5993 37.0138 49.2655 37.246 48.8828 37.3307L46.3282 37.9697L44.2633 40.7275C44.1226 40.9254 43.9346 41.085 43.7164 41.1916L40.8461 42.6221C40.7289 42.6814 40.6048 42.726 40.4766 42.7549L37.2813 43.3908V44.6721L38.9219 45.7721C39.1374 45.9153 39.3143 46.1094 39.4369 46.3372C39.5595 46.5651 39.6241 46.8196 39.625 47.0783V48.4064L41.8125 47.0705C42.1128 46.8873 42.4662 46.8107 42.8154 46.8532C43.1646 46.8958 43.4892 47.0549 43.7368 47.3049L45.4196 49.0002H47.7977C48.0566 48.9996 48.3116 49.0636 48.5395 49.1864C48.7674 49.3092 48.9612 49.4868 49.1032 49.7033L50.1828 51.3439H51.0946C51.3319 51.344 51.5661 51.3981 51.7794 51.5022C51.9927 51.6063 52.1795 51.7576 52.3256 51.9447C52.4717 52.1317 52.5732 52.3496 52.6225 52.5818C52.6718 52.8139 52.6676 53.0543 52.6102 53.2846L52.1727 55.0408C52.1095 55.2965 51.9825 55.532 51.8035 55.7252C51.6245 55.9184 51.3994 56.063 51.1493 56.1455L49.7899 56.5971L49.7813 57.9018C49.7804 58.1904 49.6991 58.473 49.5465 58.718C49.3938 58.963 49.1759 59.1605 48.9172 59.2885L46.6563 60.4205V62.7502C46.6564 62.9975 46.5978 63.2414 46.4854 63.4617C46.3729 63.682 46.2097 63.8724 46.0092 64.0173C45.8088 64.1622 45.5768 64.2575 45.3324 64.2953C45.0879 64.333 44.838 64.3122 44.6032 64.2346L43.6532 63.9221C43.423 63.8448 43.2138 63.7154 43.0421 63.5438C42.8704 63.3722 42.7407 63.1631 42.6633 62.933L41.2657 58.7518C41.2127 58.5926 41.1863 58.4258 41.1875 58.258V55.733L40.1719 55.2244C40.0216 55.1492 39.8844 55.0503 39.7657 54.9314L38.5203 53.6877C38.2284 53.394 38.0639 52.9971 38.0625 52.583V50.233C38.0665 50.1806 38.0733 50.1284 38.0828 50.0768H38.0618C37.8201 50.0761 37.5817 50.0202 37.3649 49.9135L33.9625 48.2064C33.7508 48.0997 33.5659 47.9464 33.4219 47.758L32.0735 46.0291C31.3212 50.2941 32.2089 54.6859 34.5585 58.324C36.9082 61.9621 40.5461 64.5776 44.743 65.6463C48.8561 62.873 52.6875 59.7031 56.1821 56.1822C57.2578 55.1049 58.3038 53.9982 59.3188 52.8635Z" fill="#014EFF"/>
<path d="M44.7349 65.6564C45.4569 65.8405 46.1903 65.9762 46.9303 66.0626C46.3912 66.4376 45.8599 66.797 45.3287 67.1486C39.774 70.7814 34.899 72.672 31.3287 72.672C30.5229 72.7194 29.7158 72.6048 28.955 72.3351C28.1941 72.0654 27.4951 71.646 26.899 71.1017C24.2271 68.4142 25.0006 62.7814 29.0396 55.6486L30.399 56.4142C26.7896 62.8048 25.8912 67.8751 28.0084 69.9923C30.4381 72.422 36.9068 70.797 44.4693 65.8361C44.5553 65.7814 44.649 65.7189 44.7349 65.6564ZM45.3287 30.8517C45.8599 31.2033 46.3912 31.5626 46.9303 31.9376C46.1903 32.0241 45.4569 32.1598 44.7349 32.3439C44.649 32.2814 44.5553 32.2189 44.4693 32.1642C36.9068 27.2111 30.4459 25.5783 28.0084 28.008C25.8834 30.133 26.7974 35.2345 30.4381 41.6486L29.0787 42.422C25.0084 35.2501 24.2115 29.5939 26.899 26.8986C29.9771 23.8361 36.8678 25.3126 45.3287 30.8517ZM67.149 52.672C72.6881 61.133 74.1646 68.0236 71.1021 71.1017C70.5054 71.645 69.8062 72.0638 69.0456 72.3335C68.285 72.6031 67.4781 72.7182 66.6724 72.672C63.6803 72.672 59.7506 71.3361 55.2271 68.7189L56.0084 67.3673C62.5943 71.1798 67.8209 72.1642 69.9928 69.9923C72.4224 67.5548 70.7974 61.0939 65.8365 53.5314L65.6568 53.258C65.8409 52.544 65.9766 51.8183 66.0631 51.0861C66.4381 51.6173 66.8053 52.1486 67.149 52.672ZM56.4146 30.3986L55.6412 29.0392C62.7818 25.0001 68.4146 24.2267 71.1021 26.8986C74.1646 29.9767 72.6881 36.8673 67.149 45.3283C66.8053 45.8517 66.4381 46.383 66.0631 46.9142C65.9766 46.1819 65.8409 45.4563 65.6568 44.7423L65.8365 44.4689C70.7974 36.9064 72.4224 30.4455 69.9928 28.008C67.8756 25.8908 62.7974 26.7892 56.4146 30.3986Z" fill="#014EFF"/>
</svg>
