<svg width="64" height="64" viewBox="0 0 64 64" fill="none" xmlns="http://www.w3.org/2000/svg">
<circle cx="32" cy="32" r="31" fill="#E6EDFF" fill-opacity="0.6" stroke="#B0C8FF" stroke-width="2"/>
<g clip-path="url(#clip0_746_1018)">
<path d="M43.9592 21.8656C43.9592 22.2215 44.2091 21.1823 40.6176 34.5831C40.4186 33.8112 40.4782 35.481 40.4782 20.824C41.5092 19.2541 43.9592 19.995 43.9592 21.8656ZM39.3169 16.2065V32.0014C35.0913 24.6837 36.9545 27.9088 34.904 24.3573V16.2065C34.904 14.99 35.894 14 37.1105 14C38.3459 14 39.3169 15.0013 39.3169 16.2065ZM36.7657 29.9046L35.0528 28.1924C33.5615 26.7004 31.6002 25.8452 29.2623 25.8452L25.3488 19.3187C24.745 18.2696 25.0982 16.9201 26.1581 16.3081C27.224 15.6934 28.5691 16.072 29.1723 17.1159C35.1427 27.038 32.0873 21.801 36.7657 29.9046Z" fill="#014EFF"/>
<path d="M39.9262 38.285C39.9262 41.9097 38.4849 45.4036 35.9103 47.9804C34.6539 49.2353 32.9853 49.9524 31.2114 49.9981C30.9288 49.9981 32.2992 50.0003 28.1296 50.0003C23.6688 50.0003 20.0391 46.3713 20.0391 41.9097V30.7613C20.0391 30.3984 20.3345 30.1038 20.6974 30.1038C20.7543 30.1038 20.801 30.1005 20.8708 30.0813C21.0516 30.153 22.6841 30.1281 23.7886 31.7267C24.5019 32.6797 24.452 33.7899 24.452 34.4775C24.452 36.9619 25.5247 39.3244 27.3937 40.9611C29.4176 42.7327 32.5839 41.2799 32.5839 38.6058C32.5832 35.6368 32.6973 34.9525 32.1804 33.7792C31.7178 32.7341 31.1358 32.2829 30.3557 31.5713C30.0902 31.3587 30.4177 31.4196 24.9644 31.4196C24.2456 30.1417 22.8971 29.1732 21.2904 28.9788C21.3557 28.3539 21.6912 27.7574 22.2651 27.374C23.2197 26.9083 22.154 27.0067 29.3867 27.0067C31.2165 27.0067 32.9374 27.7195 34.2315 29.0136L39.0095 33.7916L39.3709 34.4179C39.7096 35.662 39.9262 36.807 39.9262 38.285Z" fill="#014EFF"/>
</g>
<defs>
<clipPath id="clip0_746_1018">
<rect width="36" height="36" fill="white" transform="translate(14 14)"/>
</clipPath>
</defs>
</svg>
