<svg width="64" height="64" viewBox="0 0 64 64" fill="none" xmlns="http://www.w3.org/2000/svg">
<circle cx="32" cy="32" r="31" fill="#E6EDFF" fill-opacity="0.6" stroke="#B0C8FF" stroke-width="2"/>
<path d="M44.7266 38.1858L43.4618 39.8728L45.149 41.1387H41.3424C40.8708 39.324 39.2339 37.9746 37.2734 37.9746H26.7266C24.766 37.9746 23.1291 39.324 22.6575 41.1387H20.3281C18.0015 41.1387 16.1094 39.2466 16.1094 36.9199C16.1094 34.5933 18.0015 32.7012 20.3281 32.7012H22.6575C23.1291 34.5159 24.766 35.8652 26.7266 35.8652H37.2734C39.234 35.8652 40.8709 34.5159 41.3425 32.7012H43.6719C47.1614 32.7012 50 29.8626 50 26.373C50 22.8835 47.1614 20.0449 43.6719 20.0449H41.3425C40.8709 18.2302 39.234 16.8809 37.2734 16.8809H26.7266C24.766 16.8809 23.1291 18.2302 22.6575 20.0449H21.7344L17.7963 17.0921L16.5318 18.779L18.219 20.0449H14V22.1543H18.219L16.5318 23.4202L17.7963 25.1071L21.7344 22.1543H22.6575C23.1291 23.969 24.766 25.3184 26.7266 25.3184H37.2734C39.234 25.3184 40.8709 23.969 41.3425 22.1543H43.6719C45.9985 22.1543 47.8906 24.0464 47.8906 26.373C47.8906 28.6997 45.9985 30.5918 43.6719 30.5918H41.3425C40.8709 28.7771 39.234 27.4277 37.2734 27.4277H26.7266C24.766 27.4277 23.1291 28.7771 22.6575 30.5918H20.3281C16.8386 30.5918 14 33.4304 14 36.9199C14 40.4095 16.8386 43.248 20.3281 43.248H22.6575C23.1291 45.0627 24.766 46.4121 26.7266 46.4121H37.2734C39.234 46.4121 40.8709 45.0627 41.3425 43.248H45.149L43.4618 44.514L44.7266 46.2009L50 42.1934L44.7266 38.1858Z" fill="#014EFF"/>
</svg>
