<svg width="64" height="64" viewBox="0 0 64 64" fill="none" xmlns="http://www.w3.org/2000/svg">
<circle cx="32" cy="32" r="31" fill="#E6EDFF" fill-opacity="0.6" stroke="#B0C8FF" stroke-width="2"/>
<path d="M28.2286 21.3828H33.4975C34.0795 21.3828 34.5506 20.9103 34.5506 20.3281V15.0547C34.5506 14.4725 34.0795 14 33.4975 14H28.2286C27.6473 14 27.1755 14.4725 27.1755 15.0547V20.3281C27.1755 20.9103 27.6472 21.3828 28.2286 21.3828ZM44.0725 34.8716C42.8565 34.8716 41.8709 35.858 41.8709 37.0745V35.0916C41.871 33.8747 40.8843 32.8888 39.67 32.8888C38.454 32.8888 37.4683 33.8745 37.4683 35.0916V32.8888C37.4686 31.6721 36.4821 30.6849 35.2674 30.6852C34.0514 30.6852 33.0658 31.6716 33.0658 32.8888V25.9855C33.0676 24.7511 32.0458 23.7516 30.8115 23.7826C29.6089 23.8107 28.6633 24.8253 28.6633 26.0298V38.7746L26.4322 36.5415C25.5604 35.6687 24.1423 35.6828 23.2862 36.5738C22.4515 37.4443 22.4971 38.8351 23.3495 39.688L26.4637 42.8049C27.9148 44.2576 28.4583 46.0295 28.9588 47.975C29.0536 48.3062 29.1203 48.7013 29.1722 49.088C29.2424 49.6105 29.689 50 30.2155 50H43.1354C43.6151 50 44.0347 49.6756 44.1546 49.2103C44.4606 48.0229 44.8797 46.6869 45.2646 46.0365C45.9189 44.9298 46.2734 43.6719 46.2734 42.3866V37.0745C46.2736 35.8575 45.2868 34.8716 44.0725 34.8716ZM37.7863 25.8779H44.8749C45.6796 25.9032 46.216 24.9266 45.7651 24.26L42.2296 18.654C41.8459 17.9956 40.8155 17.9956 40.4324 18.654L36.8961 24.26C36.4456 24.9264 36.9827 25.9032 37.7863 25.8779ZM25.1016 23.1406C25.1016 21.1051 23.4476 19.4492 21.4145 19.4492H21.4138C19.3799 19.4499 17.7266 21.1051 17.7266 23.1406C17.7266 25.1762 19.3799 26.8313 21.4138 26.832H21.4145C23.4476 26.832 25.1016 25.1762 25.1016 23.1406Z" fill="#014EFF"/>
</svg>
