<svg width="80" height="80" viewBox="0 0 80 80" fill="none" xmlns="http://www.w3.org/2000/svg">
<circle cx="40" cy="40" r="39.5" fill="#E6EDFF" stroke="#B0C8FF"/>
<g clip-path="url(#clip0_731_1316)">
<path d="M31.0166 57.034C30.7291 56.8184 30.3697 56.6027 30.0822 56.459C30.1541 55.884 30.0822 55.2371 29.9385 54.5902C29.651 53.5121 29.076 52.5059 28.2854 51.5715C27.5666 52.1465 27.2072 53.1527 27.351 54.2309C26.8479 53.7277 26.3447 53.2246 25.9135 52.7215C26.201 52.2184 26.3447 51.5715 26.3447 50.9246C26.4166 49.8465 26.201 48.7684 25.6979 47.6902C24.7635 48.0496 24.1885 48.984 24.0447 50.0621C23.6854 49.4871 23.3979 48.8402 23.1104 48.2652C23.5416 47.834 23.901 47.259 24.1166 46.6121C24.476 45.6059 24.5479 44.5277 24.3322 43.3777C23.326 43.5215 22.4635 44.2402 22.0322 45.3184C21.8166 44.5996 21.6729 43.9527 21.601 43.234C22.176 42.9465 22.6791 42.4434 23.0385 41.8684C23.6135 41.0059 24.0447 39.9277 24.1166 38.7777C23.0385 38.634 21.9604 39.209 21.3135 40.2152C21.3135 39.4965 21.3854 38.7059 21.4572 37.9871C22.1041 37.8434 22.751 37.484 23.326 37.0527C24.1166 36.4059 24.7635 35.4715 25.1947 34.3934C24.1885 33.9621 22.9666 34.2496 22.0322 35.1121C22.2479 34.3934 22.4635 33.6027 22.751 32.884C23.4697 32.9559 24.1885 32.7402 24.8354 32.4527C25.7697 32.0215 26.6322 31.3027 27.351 30.2965C26.4885 29.5777 25.1947 29.5777 24.0447 30.2246C24.476 29.5059 24.9072 28.859 25.4104 28.2121C26.0572 28.4996 26.8479 28.4996 27.6385 28.3559C28.7166 28.1402 29.7947 27.709 30.801 26.9184C30.1541 25.984 28.8604 25.6246 27.4947 25.984C28.501 25.0496 29.5791 24.1871 30.8729 23.4684C31.2322 23.2527 31.376 22.8215 31.1604 22.4621C30.9447 22.1027 30.4416 21.959 30.0822 22.1746C28.7166 22.9652 27.4947 23.8996 26.4166 24.9059C26.9916 23.4684 27.0635 22.1746 26.4166 21.1684C25.1229 22.0309 24.1885 23.4684 23.9729 24.6902C23.7572 25.6246 23.901 26.4152 24.3322 27.0621C23.7572 27.7809 23.2541 28.5715 22.8229 29.2902C22.9666 27.7809 22.6072 26.4871 21.7447 25.7684C20.7385 27.134 20.3072 28.7152 20.451 29.9371C20.5229 30.8715 20.8822 31.5902 21.4572 32.0934C21.0979 32.9559 20.8104 33.7465 20.5947 34.609C20.3072 33.1715 19.6604 32.0215 18.5822 31.5184C18.0072 33.0996 18.0072 34.6809 18.4385 35.8309C18.7979 36.6934 19.301 37.2684 20.0197 37.6277C19.876 38.4902 19.876 39.3527 19.876 40.2152C19.2291 38.9215 18.2947 38.059 17.1447 37.9152C17.001 39.5684 17.4322 41.0777 18.151 42.084C18.6541 42.8027 19.3729 43.234 20.0916 43.3777C20.1635 44.2402 20.3791 45.0309 20.5229 45.8215C19.5885 44.8152 18.5104 44.2402 17.3604 44.384C17.6479 46.0371 18.4385 47.4027 19.4447 48.1215C20.0916 48.6965 20.8822 48.9121 21.5291 48.8402C21.8166 49.559 22.176 50.3496 22.5354 50.9965C21.3135 50.4934 20.1635 50.2059 19.1572 50.6371C19.876 52.1465 21.026 53.2965 22.176 53.7996C22.9666 54.159 23.6854 54.159 24.3322 54.0152C24.8354 54.6621 25.3385 55.2371 25.9135 55.8121C24.6916 55.5246 23.6135 55.5965 22.8229 56.2434C23.9729 57.5371 25.4822 58.3277 26.776 58.5434C27.5666 58.6871 28.2854 58.5434 28.8604 58.2559C29.1479 58.4715 29.5072 58.6871 29.7947 58.9027C30.3697 59.2621 31.0885 59.0465 31.376 58.4715C31.6635 57.9684 31.5197 57.3215 31.0166 57.034ZM59.6229 45.8215C59.8385 45.0309 59.9822 44.1684 60.0541 43.3777C60.7729 43.234 61.4197 42.8027 61.9947 42.084C62.7135 41.0777 63.1447 39.5684 63.001 37.9152C61.851 38.059 60.9166 38.9934 60.2697 40.2152C60.2697 39.3527 60.1979 38.4902 60.126 37.6277C60.7729 37.3402 61.3479 36.6934 61.7072 35.8309C62.1385 34.6809 62.2104 33.0996 61.5635 31.5184C60.4854 32.0215 59.8385 33.1715 59.551 34.609C59.3354 33.7465 59.0479 32.884 58.6885 32.0934C59.2635 31.5902 59.6229 30.8715 59.6947 29.9371C59.8385 28.7152 59.4072 27.134 58.401 25.7684C57.4666 26.4871 57.1791 27.8527 57.3229 29.2902C56.7479 28.4996 56.2447 27.7809 55.6697 27.0621C56.101 26.4871 56.2447 25.6246 56.0291 24.6902C55.8135 23.4684 54.8791 22.0309 53.4416 20.8809C52.7947 21.8152 52.8666 23.1809 53.4416 24.6184C52.3635 23.6121 51.1416 22.6777 49.776 21.8871C49.4166 21.6715 48.9135 21.8152 48.6979 22.1746C48.4822 22.534 48.626 22.9652 48.9854 23.1809C50.2072 23.8996 51.3572 24.7621 52.3635 25.6965C50.9979 25.3371 49.7041 25.6965 49.0572 26.6309C50.0635 27.4215 51.1416 27.8527 52.2197 28.0684C53.0104 28.2121 53.801 28.2121 54.4479 27.9246C54.951 28.5715 55.4541 29.2902 55.8135 29.9371C54.6635 29.2902 53.3697 29.2902 52.5072 30.009C53.226 30.9434 54.0885 31.734 55.0229 32.1652C55.7416 32.5246 56.4604 32.6684 57.1072 32.5965C57.3947 33.3152 57.6104 34.034 57.826 34.8246C56.8916 33.9621 55.6697 33.6746 54.6635 34.1059C55.0947 35.184 55.7416 36.1184 56.5322 36.7652C57.1072 37.2684 57.7541 37.5559 58.401 37.6996C58.4729 38.4184 58.5447 39.209 58.5447 39.9277C57.8979 38.9215 56.8197 38.3465 55.7416 38.4902C55.8854 39.6402 56.2447 40.7184 56.8197 41.5809C57.1791 42.1559 57.6822 42.659 58.2572 42.9465C58.1135 43.6652 57.9697 44.3121 57.826 45.0309C57.3947 43.9527 56.6041 43.1621 55.526 43.0902C55.3104 44.2402 55.4541 45.3902 55.7416 46.3246C55.9572 46.9715 56.2447 47.5465 56.7479 47.9777C56.4604 48.6246 56.1729 49.1996 55.8135 49.7746C55.6697 48.6965 55.0947 47.7621 54.1604 47.4027C53.6572 48.4809 53.4416 49.559 53.5135 50.6371C53.5135 51.284 53.6572 51.9309 53.9447 52.434C53.5135 52.9371 53.0104 53.4402 52.5072 53.9434C52.651 52.8652 52.3635 51.859 51.5729 51.284C50.7822 52.2184 50.2072 53.2246 49.9197 54.3027C49.776 54.9496 49.7041 55.5965 49.776 56.1715C49.4885 56.3871 49.201 56.6027 48.8416 56.7465C48.3385 57.034 48.1947 57.6809 48.4104 58.184C48.6979 58.759 49.4166 58.9746 49.9916 58.6152C50.351 58.3996 50.6385 58.184 50.926 57.9684C51.501 58.2559 52.2197 58.3996 53.0104 58.2559C54.3041 58.0402 55.8135 57.2496 56.9635 55.9559C56.1729 55.309 55.0947 55.2371 53.8729 55.5246C54.4479 54.9496 54.951 54.3746 55.4541 53.7277C56.101 53.8715 56.8197 53.7996 57.6104 53.5121C58.7604 53.009 59.9104 51.9309 60.6291 50.3496C59.6229 49.9184 58.4729 50.2059 57.3947 50.8527C57.7541 50.134 58.1135 49.4152 58.401 48.6965C59.1197 48.6965 59.8385 48.4809 60.4854 47.9777C61.4197 47.1871 62.2822 45.8934 62.5697 44.2402C61.6354 44.2402 60.5572 44.8871 59.6229 45.8215Z" fill="#014EFF"/>
<path d="M48.841 52.4344L47.3316 43.7375L53.6566 37.5563C53.8723 37.3406 53.9441 37.0531 53.8723 36.8375C53.8004 36.55 53.5848 36.4062 53.2973 36.3344L44.5285 35.0406L40.6473 27.1344C40.5035 26.9188 40.2879 26.7031 40.0004 26.7031C39.7129 26.7031 39.4973 26.8469 39.3535 27.1344L35.4723 35.0406L26.7035 36.3344C26.416 36.4062 26.2004 36.55 26.1285 36.8375C26.0566 37.125 26.1285 37.4125 26.3441 37.5563L32.6691 43.7375L31.1598 52.4344C31.0879 52.7219 31.2316 53.0094 31.4473 53.1531C31.6629 53.2969 31.9504 53.3688 32.2379 53.225L40.0004 49.0562L47.8348 53.1531C47.9066 53.225 48.0504 53.225 48.1941 53.225C48.3379 53.225 48.4816 53.1531 48.6254 53.0813C48.7691 52.9375 48.9129 52.7219 48.841 52.4344Z" fill="#014EFF"/>
</g>
<defs>
<clipPath id="clip0_731_1316">
<rect width="46" height="46" fill="white" transform="translate(17 17)"/>
</clipPath>
</defs>
</svg>
