<svg width="80" height="80" viewBox="0 0 80 80" fill="none" xmlns="http://www.w3.org/2000/svg">
<circle cx="40" cy="40" r="39.5" fill="#E6EDFF" stroke="#B0C8FF"/>
<g clip-path="url(#clip0_731_2489)">
<path d="M57.25 42.5665C57.25 44.3811 55.7788 45.8523 53.9643 45.8523C52.1497 45.8523 50.6786 44.3811 50.6786 42.5665C50.6786 40.752 52.1497 39.2808 53.9643 39.2808C55.7788 39.2808 57.25 40.752 57.25 42.5665ZM29.3214 42.5665C29.3214 44.3811 27.8503 45.8523 26.0357 45.8523C24.2212 45.8523 22.75 44.3811 22.75 42.5665C22.75 40.752 24.2212 39.2808 26.0357 39.2808C27.8503 39.2808 29.3214 40.752 29.3214 42.5665ZM43.2857 39.2808C43.2857 41.0954 41.8145 42.5665 40 42.5665C38.1855 42.5665 36.7143 41.0954 36.7143 39.2808C36.7143 37.4663 38.1855 35.9951 40 35.9951C41.8145 35.9951 43.2857 37.4663 43.2857 39.2808ZM30.1658 61.4594C29.6199 60.7538 29.323 59.8872 29.3214 58.9951V50.7808C29.3251 49.9497 29.469 49.1251 29.747 48.3418C29.6058 48.3322 29.4658 48.3165 29.3214 48.3165H22.75C21.5966 48.3133 20.4695 48.661 19.5184 49.3136C18.7433 49.8409 18.1088 50.5495 17.6699 51.3778C17.231 52.2061 17.001 53.1291 17 54.0665V57.3523C17.0015 58.1371 17.2274 58.9052 17.6511 59.5658C18.0748 60.2264 18.6787 60.7521 19.3914 61.0807C19.6763 61.2156 19.9767 61.3151 20.2857 61.3773V52.4237H21.9286V61.4594H30.1658ZM30.9895 62.2808C30.9807 62.2744 30.9735 62.2659 30.9643 62.2596V62.2808H30.9895ZM48.3615 48.0807C47.9211 47.2584 47.2894 46.5541 46.5197 46.0271C46.4433 45.9705 46.3632 45.9192 46.2798 45.8735C45.3783 45.3225 44.3423 45.0309 43.2857 45.0308H36.7143C33.5384 45.0308 30.9643 47.605 30.9643 50.7808V58.9951C30.9643 60.356 32.0677 61.4594 33.4286 61.4594H34.25V49.9594H35.8929V61.4594H44.1071V49.9594H45.75V61.4594H46.5714C47.9323 61.4594 49.0357 60.356 49.0357 58.9951V50.7808C49.036 49.8391 48.8045 48.9118 48.3615 48.0807ZM60.484 49.3153C59.5324 48.6618 58.4044 48.3134 57.25 48.3165H50.6786C50.535 48.3165 50.395 48.3322 50.2538 48.3418C50.5313 49.1252 50.6749 49.9497 50.6786 50.7808V58.9951C50.677 59.8872 50.3801 60.7538 49.8342 61.4594H58.0714V52.4237H59.7143V61.3773C60.0186 61.3163 60.3143 61.218 60.5947 61.0848C61.3107 60.758 61.918 60.2327 62.3443 59.571C62.7707 58.9094 62.9982 58.1394 63 57.3523V54.0665C62.999 53.1296 62.7693 52.2071 62.3308 51.3791C61.8923 50.5511 61.2584 49.8427 60.484 49.3153Z" fill="#014EFF"/>
<path d="M39.9975 27.7813C38.3446 27.7781 36.7175 28.1913 35.2666 28.983C33.8156 29.7746 32.5875 30.9191 31.6956 32.3107C30.8038 33.7023 30.2769 35.2962 30.1637 36.9452C30.0505 38.5942 30.3547 40.2451 31.048 41.7456H35.7359C34.5326 39.6743 34.9927 37.0384 36.826 35.4971C38.6595 33.9561 41.3355 33.9561 43.1689 35.4971C45.0022 37.0384 45.4623 39.6743 44.259 41.7456H48.9509C49.6445 40.2448 49.9487 38.5935 49.8353 36.9441C49.722 35.2947 49.1948 33.7005 48.3024 32.3088C47.4101 30.917 46.1814 29.7726 44.7298 28.9813C43.2783 28.19 41.6507 27.7773 39.9975 27.7813Z" fill="#014EFF"/>
<path d="M59.7109 34.3525H55.2752L55.1157 33.7356C54.7528 32.3242 54.1886 30.9725 53.4404 29.7219L53.1115 29.1725L56.2607 26.0175C56.3367 25.9419 56.397 25.852 56.4382 25.7529C56.4793 25.6539 56.5005 25.5478 56.5005 25.4406C56.5005 25.3333 56.4793 25.2272 56.4382 25.1282C56.397 25.0291 56.3367 24.9392 56.2607 24.8636L52.7725 21.3742C52.6176 21.2263 52.4116 21.1438 52.1974 21.1438C51.9832 21.1438 51.7772 21.2263 51.6222 21.3742L48.4672 24.5291L47.9178 24.2005C46.6656 23.4519 45.3122 22.8873 43.8993 22.5241L43.2824 22.3636V17.924C43.2824 17.7061 43.1958 17.4972 43.0418 17.3431C42.8877 17.1891 42.6788 17.1025 42.4609 17.1025H37.5324C37.3145 17.1025 37.1056 17.1891 36.9515 17.3431C36.7975 17.4972 36.7109 17.7061 36.7109 17.924V22.3597L36.094 22.5192C34.6826 22.8822 33.3306 23.4462 32.0796 24.1938L31.5301 24.5227L28.3759 21.3742C28.2208 21.2252 28.014 21.142 27.799 21.142C27.5839 21.142 27.3771 21.2252 27.222 21.3742L23.7326 24.8624C23.6565 24.9381 23.5961 25.0281 23.5549 25.1272C23.5137 25.2263 23.4924 25.3326 23.4923 25.4399C23.4923 25.657 23.5789 25.8647 23.7326 26.0175L26.8875 29.1725L26.5589 29.7219C25.8105 30.9724 25.2462 32.3242 24.8832 33.7356L24.722 34.3525H20.2824C20.0645 34.3525 19.8556 34.4391 19.7015 34.5931C19.5475 34.7472 19.4609 34.9561 19.4609 35.174V40.1025C19.4609 40.3204 19.5475 40.5293 19.7015 40.6834C19.8556 40.8374 20.0645 40.924 20.2824 40.924H21.3938C21.6346 40.2386 22.0245 39.6151 22.5352 39.0984C23.0459 38.5817 23.6648 38.1846 24.3474 37.9358C25.0299 37.6868 25.7592 37.5923 26.4826 37.659C27.206 37.7257 27.9057 37.9521 28.5312 38.3217C28.5179 38.0943 28.4967 37.8689 28.4967 37.6383C28.4967 31.2871 33.6455 26.1383 39.9967 26.1383C46.3478 26.1383 51.4967 31.2871 51.4967 37.6383C51.4967 37.8689 51.4754 38.0943 51.4622 38.3217C52.0876 37.9521 52.7873 37.7257 53.5107 37.659C54.2341 37.5923 54.9634 37.6868 55.6459 37.9358C56.3285 38.1846 56.9474 38.5817 57.4581 39.0984C57.9688 39.6151 58.3587 40.2386 58.5995 40.924H59.7109C59.9288 40.924 60.1377 40.8374 60.2918 40.6834C60.4458 40.5293 60.5324 40.3204 60.5324 40.1025V35.174C60.5324 34.9561 60.4458 34.7472 60.2918 34.5931C60.1377 34.4391 59.9288 34.3525 59.7109 34.3525Z" fill="#014EFF"/>
</g>
<defs>
<clipPath id="clip0_731_2489">
<rect width="46" height="46" fill="white" transform="translate(17 17)"/>
</clipPath>
</defs>
</svg>
