<svg width="97" height="97" viewBox="0 0 97 97" fill="none" xmlns="http://www.w3.org/2000/svg">
<circle cx="48.5" cy="48.5" r="48" fill="#E6EDFF" stroke="#B0C8FF"/>
<path d="M44.3203 40.8945H43.0324C42.5703 40.8945 42.1991 41.2657 42.1991 41.7279V47.8567C42.1991 48.3188 42.5703 48.69 43.0324 48.69H54.9567C55.4188 48.69 55.79 48.3188 55.79 47.8567V41.7279C55.79 41.2657 55.4188 40.8945 54.9567 40.8945H53.6688C53.2067 40.8945 52.8355 41.2657 52.8355 41.7279V43.546C52.8355 43.796 52.6309 44.0006 52.3809 44.0006H50.987C50.737 44.0006 50.5324 43.796 50.5324 43.546V41.7279C50.5324 41.2657 50.1612 40.8945 49.6991 40.8945H48.3052C47.843 40.8945 47.4718 41.2657 47.4718 41.7279V43.546C47.4718 43.796 47.2673 44.0006 47.0173 44.0006H45.6233C45.3733 44.0006 45.1688 43.796 45.1688 43.546V41.7279C45.1612 41.2733 44.7824 40.8945 44.3203 40.8945ZM58.1536 66.1597H39.8506C39.2824 66.1597 38.8203 66.6218 38.8203 67.19V73.1976H59.1839V67.19C59.1839 66.6218 58.7218 66.1597 58.1536 66.1597ZM55.7294 70.4248H42.2749C41.8658 70.4248 41.5324 70.0915 41.5324 69.6824C41.5324 69.2733 41.8658 68.94 42.2749 68.94H55.7218C56.1309 68.94 56.4643 69.2733 56.4643 69.6824C56.4718 70.0915 56.1385 70.4248 55.7294 70.4248Z" fill="#014EFF"/>
<path d="M67.728 41.4997H64.9325C64.5083 39.4391 63.6977 37.53 62.584 35.833L64.5689 33.8482C65.0462 33.3633 65.0462 32.5755 64.5689 32.0906L61.6901 29.2194C61.2128 28.7346 60.4174 28.7346 59.9325 29.2194L57.9477 31.1967C56.2264 30.0569 54.3029 29.2572 52.281 28.8406V26.0452C52.281 25.3558 51.728 24.8027 51.031 24.8027H46.9704C46.281 24.8027 45.7204 25.3558 45.7204 26.0452V28.8482C43.6598 29.2724 41.7507 30.083 40.0613 31.2043L38.0765 29.2194C37.5916 28.7346 36.8037 28.7346 36.3189 29.2194L33.4401 32.0906C33.2088 32.3246 33.0791 32.6404 33.0791 32.9694C33.0791 33.2984 33.2088 33.6142 33.4401 33.8482L35.425 35.8406C34.2907 37.5612 33.4938 39.4816 33.0765 41.4997H30.2659C29.5765 41.4997 29.0234 42.0527 29.0234 42.7421V46.8103C29.0234 47.4997 29.5765 48.0527 30.2659 48.0527H33.0765C33.5007 50.1133 34.3037 52.0224 35.425 53.7194L33.4477 55.7042C32.9628 56.1891 32.9628 56.977 33.4477 57.4618L36.3189 60.333C36.8037 60.8179 37.5916 60.8179 38.0765 60.333L40.0613 58.3482C40.9098 58.9088 41.8037 59.3861 42.7507 59.7876C43.5613 58.2649 43.9856 56.5224 44.1825 54.8709C40.4098 53.0679 37.7962 49.2346 37.7962 44.7649C37.7962 38.583 42.8113 33.5679 49.0007 33.5679C55.1901 33.5679 60.2053 38.583 60.2053 44.7649C60.2053 49.227 57.5916 53.0679 53.8189 54.8709C54.0159 56.5149 54.4325 58.2649 55.2507 59.7876C56.1977 59.3936 57.1068 58.9088 57.9553 58.3482L59.9325 60.333C60.4174 60.8179 61.2128 60.8179 61.6901 60.333L64.5689 57.4618C65.0462 56.977 65.0462 56.1891 64.5689 55.7042L62.584 53.7194C63.7053 52.0224 64.5083 50.1133 64.9325 48.0527H67.728C68.4174 48.0527 68.978 47.4997 68.978 46.8103V42.7421C68.978 42.0603 68.4174 41.4997 67.728 41.4997Z" fill="#014EFF"/>
<path d="M54.6765 61.6895C52.0477 58.0455 52.0477 52.7501 52.2371 50.1895H45.775C45.9644 52.7425 45.9644 58.0455 43.3356 61.6895H54.6765ZM40.6992 64.1516V64.6667H57.2977V64.1516C57.2977 63.6137 56.8583 63.1743 56.3204 63.1743H41.6765C41.4179 63.1763 41.1705 63.2799 40.9876 63.4627C40.8048 63.6456 40.7012 63.893 40.6992 64.1516Z" fill="#014EFF"/>
</svg>
