<svg width="80" height="80" viewBox="0 0 80 80" fill="none" xmlns="http://www.w3.org/2000/svg">
<circle cx="40" cy="40" r="39.5" fill="#E6EDFF" stroke="#B0C8FF"/>
<path d="M44.4921 47.5134L42.7218 47.0116C42.4918 46.1125 42.1363 45.2622 41.6763 44.4885L42.5754 42.8855C42.8194 42.4534 42.7427 41.9028 42.3872 41.5473L41.1118 40.2719C40.7563 39.9164 40.2127 39.8467 39.7806 40.0907L38.1706 40.9897C37.39 40.5297 36.5466 40.1673 35.6475 39.9373L35.1527 38.174C35.0203 37.6861 34.5742 37.3516 34.0794 37.3516H32.2742C31.7724 37.3516 31.3333 37.6861 31.2009 38.174L30.706 39.9373C29.8139 40.1673 28.9566 40.5228 28.183 40.9897L26.573 40.0907C26.1409 39.8467 25.5903 39.9234 25.2418 40.2719L23.9663 41.5473C23.6109 41.9028 23.5342 42.4534 23.7782 42.8855L24.6772 44.4885C24.2172 45.2691 23.8618 46.1125 23.6318 47.0116L21.8615 47.5134C21.3736 47.6458 21.0391 48.0919 21.0391 48.5867V50.3849C21.0391 50.8867 21.3736 51.3258 21.8615 51.4582L23.6248 51.9531C23.8548 52.8522 24.2103 53.7094 24.6772 54.4831L23.7782 56.0861C23.5342 56.5182 23.6109 57.0688 23.9663 57.4243L25.2418 58.6997C25.5903 59.0552 26.1409 59.1249 26.573 58.881L28.183 57.9819C28.9636 58.4419 29.8139 58.8043 30.706 59.0343L31.2009 60.7976C31.3333 61.2855 31.7794 61.62 32.2742 61.62H34.0794C34.5812 61.62 35.0203 61.2855 35.1527 60.7976L35.6475 59.0343C36.5466 58.8043 37.3969 58.4488 38.1706 57.9819L39.7806 58.881C40.2127 59.1249 40.7633 59.0482 41.1118 58.6997L42.3872 57.4243C42.7427 57.0688 42.8194 56.5182 42.5754 56.0861L41.6763 54.4831C42.1363 53.7025 42.4988 52.8522 42.7288 51.9531L44.4921 51.4582C44.98 51.3258 45.3145 50.8797 45.3145 50.3849V48.5867C45.3076 48.0919 44.98 47.6528 44.4921 47.5134ZM33.1663 54.72C30.2809 54.72 27.946 52.3782 27.946 49.4928C27.946 46.6073 30.2809 44.2655 33.1663 44.2655C36.0588 44.2655 38.3936 46.6073 38.3936 49.4928C38.3936 52.3782 36.0588 54.72 33.1663 54.72ZM60.4945 52.9428L59.4003 52.6361C59.2609 52.0855 59.0448 51.5628 58.7591 51.0819L59.3097 50.0922C59.463 49.8273 59.4142 49.4858 59.1912 49.2697L58.4106 48.4891C58.3045 48.3832 58.1667 48.315 58.0182 48.2949C57.8696 48.2747 57.7186 48.3038 57.5882 48.3776L56.5985 48.9282C56.1175 48.6425 55.6018 48.4264 55.0442 48.28L54.7376 47.1928C54.6973 47.0482 54.6107 46.9208 54.4911 46.8302C54.3715 46.7396 54.2255 46.6906 54.0754 46.691H52.9603C52.6536 46.691 52.3818 46.8931 52.2982 47.1928L51.9915 48.28C51.4409 48.4194 50.9182 48.6425 50.4372 48.9282L49.4476 48.3776C49.3171 48.3038 49.1661 48.2747 49.0176 48.2949C48.869 48.315 48.7312 48.3832 48.6251 48.4891L47.8445 49.2697C47.6215 49.4928 47.5797 49.8273 47.726 50.0922L48.2836 51.0819C47.995 51.5658 47.7789 52.0894 47.6424 52.6361L46.5482 52.9428C46.2485 53.0264 46.0463 53.2982 46.0463 53.6049V54.7131C46.0463 55.0197 46.2485 55.2916 46.5482 55.3752L47.6354 55.6819C47.7748 56.2325 47.9979 56.7622 48.2836 57.2431L47.726 58.2328C47.5727 58.4976 47.6215 58.8391 47.8445 59.0552L48.6251 59.8358C48.8412 60.0519 49.1757 60.1007 49.4476 59.9473L50.4372 59.3897C50.9182 59.6755 51.4409 59.8916 51.9915 60.0379L52.2982 61.1252C52.3818 61.4249 52.6536 61.627 52.9603 61.627H54.0754C54.3821 61.627 54.6539 61.4249 54.7376 61.1252L55.0442 60.0379C55.5948 59.8985 56.1175 59.6755 56.5985 59.3897L57.5882 59.9473C57.853 60.1007 58.1945 60.0519 58.4106 59.8358L59.1912 59.0552C59.4142 58.8322 59.456 58.4976 59.3097 58.2328L58.7591 57.2431C59.0448 56.7622 59.2609 56.2394 59.4072 55.6819L60.4945 55.3752C60.7942 55.2916 60.9963 55.0197 60.9963 54.7131V53.6049C60.9963 53.2982 60.7942 53.0264 60.4945 52.9428ZM53.5248 57.3755C51.7476 57.3755 50.3118 55.9328 50.3118 54.1625C50.3118 52.3922 51.7476 50.9494 53.5248 50.9494C55.3021 50.9494 56.7379 52.3922 56.7379 54.1625C56.7379 55.9328 55.3021 57.3755 53.5248 57.3755Z" fill="#014EFF"/>
<path d="M22.9083 44.1191L22.5877 43.5476C22.051 42.5927 22.2183 41.373 22.9989 40.5924L24.2744 39.317C24.5029 39.0881 24.7746 38.9068 25.0737 38.7835C25.3728 38.6603 25.6933 38.5976 26.0168 38.5991C26.442 38.5991 26.8601 38.7106 27.2226 38.9127L28.1774 39.4494C28.6374 39.2194 29.1113 39.0243 29.5923 38.864L29.885 37.8185C30.0299 37.2995 30.3406 36.8422 30.7698 36.5163C31.1989 36.1903 31.7228 36.0137 32.2616 36.0134H34.0668C35.168 36.0134 36.1507 36.7591 36.4435 37.8185L36.7362 38.864C37.2171 39.0243 37.691 39.2264 38.151 39.4564L39.1129 38.9197C39.4753 38.7176 39.8935 38.6061 40.3186 38.6061C40.9807 38.6061 41.601 38.864 42.061 39.324L43.3365 40.5994C43.7178 40.9813 43.9643 41.477 44.0385 42.0116C44.1127 42.5461 44.0106 43.0902 43.7477 43.5615L43.211 44.5164C43.2738 44.6349 43.3226 44.7603 43.3783 44.8788H53.8259C57.0947 44.8788 59.7432 42.2303 59.7432 38.9685C59.7439 37.4777 59.1812 36.0417 58.1679 34.9482C57.1546 33.8548 55.7655 33.1847 54.2789 33.0721C53.5053 33.1349 52.7386 33.3649 52.0695 33.7482C51.965 33.8109 51.8465 33.8388 51.735 33.8388C51.6157 33.8399 51.4983 33.8088 51.3952 33.7486C51.2922 33.6885 51.2073 33.6017 51.1495 33.4973C51.1047 33.4206 51.0756 33.3358 51.064 33.2478C51.0524 33.1597 51.0584 33.0703 51.0818 32.9846C51.1051 32.8989 51.1453 32.8188 51.2001 32.7488C51.2548 32.6789 51.3229 32.6206 51.4004 32.5773C52.3762 32.0127 53.5053 31.727 54.6274 31.72C54.6692 31.4412 54.6971 31.1555 54.6971 30.8697C54.6971 27.5661 52.0207 24.8897 48.7241 24.8897C47.4347 24.8897 46.2359 25.3009 45.2601 25.9979C44.4586 21.6488 40.6532 18.373 36.088 18.373C30.9374 18.373 26.7626 22.5479 26.7626 27.6985C26.7626 28.2491 26.8113 28.7927 26.902 29.3224C27.7104 29.5385 28.4771 29.873 29.181 30.34C29.4947 30.5491 29.5783 30.9673 29.3692 31.274C29.2368 31.4691 29.0277 31.5737 28.8047 31.5737C28.6792 31.5737 28.5468 31.5388 28.4283 31.4621C28.0659 31.2182 27.6826 31.023 27.2853 30.8627C26.881 30.793 26.4698 30.7512 26.0447 30.7512C22.1416 30.7512 18.9844 33.9155 18.9844 37.8115C18.9983 40.5715 20.5874 42.9621 22.9083 44.1191ZM45.1347 28.2352C44.7583 28.2352 44.4586 27.9355 44.4586 27.5591C44.4586 27.1827 44.7583 26.883 45.1347 26.883H47.4138C47.7901 26.883 48.0898 27.1827 48.0898 27.5591C48.0898 27.9355 47.7901 28.2352 47.4138 28.2352H46.9538V33.3858H47.4138C47.7901 33.3858 48.0898 33.6855 48.0898 34.0618C48.0898 34.4382 47.7901 34.7379 47.4138 34.7379H45.1347C44.7583 34.7379 44.4586 34.4382 44.4586 34.0618C44.4586 33.6855 44.7583 33.3858 45.1347 33.3858H45.5947V28.2352H45.1347ZM38.6947 27.7264C38.6947 27.1688 39.1477 26.7158 39.7053 26.7158H41.7753C43.1971 26.7158 44.3471 27.8727 44.3471 29.2876C44.3471 30.7024 43.1901 31.8594 41.7753 31.8594H40.0468V34.0549C40.0468 34.4312 39.7471 34.7309 39.3707 34.7309C38.9944 34.7309 38.6947 34.4312 38.6947 34.0549V27.7264ZM31.5716 29.5455C31.5716 27.9843 32.8401 26.7227 34.3944 26.7227C35.9486 26.7227 37.2171 27.9912 37.2171 29.5455V34.0618C37.2171 34.4382 36.9174 34.7379 36.541 34.7379C36.1647 34.7379 35.865 34.4382 35.865 34.0618V31.8664H32.9168V34.0618C32.9168 34.4382 32.6171 34.7379 32.2407 34.7379C31.8644 34.7379 31.5647 34.4382 31.5647 34.0618V29.5455H31.5716Z" fill="#014EFF"/>
<path d="M42.9939 29.2949C42.9939 28.6188 42.4433 28.0752 41.7742 28.0752H40.0457V30.5146H41.7742C42.4503 30.5146 42.9939 29.964 42.9939 29.2949ZM35.8709 29.5458C35.8709 29.1558 35.716 28.7817 35.4402 28.5059C35.1644 28.2301 34.7903 28.0752 34.4003 28.0752C34.0103 28.0752 33.6362 28.2301 33.3604 28.5059C33.0846 28.7817 32.9297 29.1558 32.9297 29.5458V30.5146H35.8779V29.5458H35.8709Z" fill="#014EFF"/>
</svg>
