<svg width="97" height="97" viewBox="0 0 97 97" fill="none" xmlns="http://www.w3.org/2000/svg">
<circle cx="48.5" cy="48.5" r="48" fill="#E6EDFF" fill-opacity="0.6" stroke="#B0C8FF"/>
<path d="M63.8438 52.9062H70.0938V54.4688H63.8438V52.9062ZM71.6562 52.9062H73.2188V54.4688H71.6562V52.9062ZM65.5391 63.4922C65.6098 63.5997 65.7061 63.688 65.8192 63.7493C65.9323 63.8106 66.0588 63.8431 66.1875 63.8438H69.3125V62.2812H66.6094L65.2734 60.2891C65.2027 60.1816 65.1064 60.0933 64.9933 60.0319C64.8802 59.9706 64.7537 59.9382 64.625 59.9375H61.5V61.5H64.2031L65.5391 63.4922ZM70.875 62.2812H72.4375V63.8438H70.875V62.2812ZM65.2734 47.0859L66.6094 45.0938H69.3125V43.5312H66.1875C66.0588 43.5319 65.9323 43.5644 65.8192 43.6257C65.7061 43.687 65.6098 43.7753 65.5391 43.8828L64.2031 45.875H61.5V47.4375H64.625C64.7537 47.4368 64.8802 47.4044 64.9933 47.3431C65.1064 47.2817 65.2027 47.1934 65.2734 47.0859ZM70.875 43.5312H72.4375V45.0938H70.875V43.5312ZM27.9062 52.9062H34.1562V54.4688H27.9062V52.9062ZM24.7812 52.9062H26.3438V54.4688H24.7812V52.9062ZM32.4609 63.4922L33.7969 61.5H36.5V59.9375H33.375C33.2463 59.9382 33.1198 59.9706 33.0067 60.0319C32.8936 60.0933 32.7973 60.1816 32.7266 60.2891L31.3906 62.2812H28.6875V63.8438H31.8125C31.9412 63.8431 32.0677 63.8106 32.1808 63.7493C32.2939 63.688 32.3902 63.5997 32.4609 63.4922ZM25.5625 62.2812H27.125V63.8438H25.5625V62.2812ZM36.5 45.875H33.7969L32.4609 43.8828C32.3902 43.7753 32.2939 43.687 32.1808 43.6257C32.0677 43.5644 31.9412 43.5319 31.8125 43.5312H28.6875V45.0938H31.3906L32.7266 47.0859C32.7973 47.1934 32.8936 47.2817 33.0067 47.3431C33.1198 47.4044 33.2463 47.4368 33.375 47.4375H36.5V45.875ZM25.5625 43.5312H27.125V45.0938H25.5625V43.5312ZM42.75 39.625H49.7812L46.6562 49.7812L56.8125 36.5H49L52.125 28.6875H45.875L42.75 39.625Z" fill="#014EFF"/>
<path d="M59.2268 56.8516C59.3039 56.623 59.4511 56.4244 59.6474 56.2842C59.8438 56.144 60.0793 56.0691 60.3206 56.0703C60.4744 56.0734 60.6272 56.0458 60.7702 55.9891C60.9132 55.9324 61.0435 55.8477 61.1533 55.7401C61.2632 55.6324 61.3505 55.5039 61.41 55.362C61.4696 55.2202 61.5003 55.0679 61.5002 54.9141V52.4609C61.4901 52.1611 61.3638 51.8769 61.1481 51.6685C60.9323 51.46 60.644 51.3436 60.344 51.3437C60.0985 51.3468 59.8582 51.2732 59.6565 51.1331C59.4548 50.9931 59.3019 50.7936 59.219 50.5625C59.0297 49.9473 58.7839 49.351 58.4846 48.7812C58.3699 48.56 58.3292 48.3077 58.3686 48.0616C58.408 47.8155 58.5253 47.5885 58.7034 47.4141C58.8113 47.3073 58.897 47.1801 58.9555 47.04C59.014 46.8998 59.0441 46.7495 59.0441 46.5977C59.0441 46.4458 59.014 46.2955 58.9555 46.1553C58.897 46.0152 58.8113 45.888 58.7034 45.7812L56.969 43.9844C56.8622 43.8764 56.735 43.7907 56.5949 43.7322C56.4548 43.6738 56.3044 43.6436 56.1526 43.6436C56.0007 43.6436 55.8504 43.6738 55.7103 43.7322C55.5701 43.7907 55.443 43.8764 55.3362 43.9844C55.1617 44.1624 54.9348 44.2797 54.6886 44.3191C54.4425 44.3585 54.1903 44.3178 53.969 44.2031H53.8987L51.6018 47.2031C53.0413 47.7786 54.2502 48.8137 55.0406 50.1474C55.8309 51.4811 56.1583 53.0386 55.9719 54.5776C55.7854 56.1166 55.0956 57.5508 54.0097 58.6572C52.9237 59.7636 51.5026 60.4801 49.9673 60.6952C48.432 60.9103 46.8687 60.612 45.5205 59.8467C44.1723 59.0813 43.1149 57.8919 42.5127 56.4634C41.9104 55.0349 41.7972 53.4474 42.1905 51.9478C42.5839 50.4483 43.4618 49.1208 44.6877 48.1719L46.1877 43.2969C46.0816 43.3802 45.963 43.4461 45.8362 43.4922C45.214 43.6861 44.6101 43.9344 44.0315 44.2344C43.8102 44.3491 43.558 44.3897 43.3118 44.3504C43.0657 44.311 42.8387 44.1937 42.6643 44.0156C42.5575 43.9077 42.4304 43.822 42.2902 43.7635C42.1501 43.705 41.9997 43.6749 41.8479 43.6749C41.696 43.6749 41.5457 43.705 41.4056 43.7635C41.2654 43.822 41.1383 43.9077 41.0315 44.0156L39.2971 45.7187C39.1892 45.8255 39.1035 45.9527 39.045 46.0928C38.9865 46.233 38.9564 46.3833 38.9564 46.5352C38.9564 46.687 38.9865 46.8373 39.045 46.9775C39.1035 47.1176 39.1892 47.2448 39.2971 47.3516C39.4751 47.526 39.5925 47.753 39.6319 47.9991C39.6712 48.2452 39.6306 48.4975 39.5159 48.7187C39.2166 49.2885 38.9708 49.8848 38.7815 50.5C38.6986 50.7311 38.5456 50.9306 38.344 51.0706C38.1423 51.2107 37.902 51.2843 37.6565 51.2812C37.5027 51.2812 37.3504 51.3119 37.2085 51.3715C37.0667 51.431 36.9382 51.5183 36.8305 51.6281C36.7228 51.738 36.6381 51.8683 36.5814 52.0113C36.5247 52.1543 36.4971 52.3071 36.5002 52.4609V54.9141C36.5002 55.2207 36.6221 55.5148 36.8389 55.7317C37.0557 55.9485 37.3498 56.0703 37.6565 56.0703C37.902 56.0673 38.1423 56.1409 38.344 56.2809C38.5456 56.421 38.6986 56.6205 38.7815 56.8516C38.9708 57.4667 39.2166 58.063 39.5159 58.6328C39.6306 58.8541 39.6712 59.1063 39.6319 59.3525C39.5925 59.5986 39.4751 59.8256 39.2971 60C39.1892 60.1068 39.1035 60.2339 39.045 60.3741C38.9865 60.5142 38.9564 60.6646 38.9564 60.8164C38.9564 60.9683 38.9865 61.1186 39.045 61.2587C39.1035 61.3989 39.1892 61.526 39.2971 61.6328L41.0315 63.3672C41.1383 63.4751 41.2654 63.5608 41.4056 63.6193C41.5457 63.6778 41.696 63.7079 41.8479 63.7079C41.9997 63.7079 42.1501 63.6778 42.2902 63.6193C42.4304 63.5608 42.5575 63.4751 42.6643 63.3672C42.8387 63.1892 43.0657 63.0718 43.3118 63.0324C43.558 62.9931 43.8102 63.0337 44.0315 63.1484C44.6013 63.4477 45.1976 63.6935 45.8127 63.8828C46.0438 63.9657 46.2433 64.1187 46.3834 64.3203C46.5234 64.522 46.597 64.7623 46.594 65.0078C46.5908 65.1636 46.6191 65.3184 46.6773 65.463C46.7354 65.6076 46.8222 65.7389 46.9324 65.8491C47.0426 65.9593 47.1739 66.046 47.3185 66.1042C47.463 66.1624 47.6179 66.1907 47.7737 66.1875H50.2268C50.5335 66.1875 50.8276 66.0657 51.0444 65.8488C51.2612 65.632 51.383 65.3379 51.383 65.0312C51.38 64.7858 51.4536 64.5454 51.5937 64.3438C51.7337 64.1421 51.9332 63.9892 52.1643 63.9063C52.7795 63.717 53.3758 63.4711 53.9456 63.1719C54.1668 63.0572 54.4191 63.0165 54.6652 63.0559C54.9113 63.0953 55.1383 63.2126 55.3127 63.3906C55.4195 63.4986 55.5467 63.5843 55.6868 63.6428C55.8269 63.7012 55.9773 63.7314 56.1291 63.7314C56.281 63.7314 56.4313 63.7012 56.5715 63.6428C56.7116 63.5843 56.8388 63.4986 56.9455 63.3906L58.6799 61.6562C58.7879 61.5495 58.8736 61.4223 58.9321 61.2822C58.9905 61.142 59.0207 60.9917 59.0207 60.8398C59.0207 60.688 58.9905 60.5377 58.9321 60.3975C58.8736 60.2574 58.7879 60.1302 58.6799 60.0234C58.5019 59.849 58.3846 59.622 58.3452 59.3759C58.3058 59.1298 58.3465 58.8775 58.4612 58.6562C58.7692 58.0785 59.0254 57.4746 59.2268 56.8516Z" fill="#014EFF"/>
</svg>
