<svg width="80" height="80" viewBox="0 0 80 80" fill="none" xmlns="http://www.w3.org/2000/svg">
<circle cx="40" cy="40" r="39.5" fill="#E6EDFF" stroke="#B0C8FF"/>
<path fill-rule="evenodd" clip-rule="evenodd" d="M26.5767 29.9952V33.571C26.5767 34.1372 26.1152 34.5987 25.5489 34.5987H21.9732C21.407 34.5987 20.9455 34.1372 20.9455 33.571V29.9952C20.9455 29.4289 21.407 28.9675 21.9732 28.9675H25.5489C26.1152 28.9675 26.5767 29.4289 26.5767 29.9952ZM43.4906 31.7356C42.772 28.281 44.3346 24.7207 47.4394 22.9249C49.9862 21.4518 53.0703 21.4708 55.5744 22.8658C55.5976 22.8787 55.6123 22.8992 55.6173 22.9253C55.6198 22.9377 55.6195 22.9506 55.6164 22.9629C55.6133 22.9752 55.6074 22.9866 55.5992 22.9963C55.2705 23.3966 55.5376 24.04 56.0919 24.0495L57.4045 24.0738L57.408 24.074C57.9135 24.1039 58.21 23.6649 58.0997 23.2587L57.74 21.9348C57.5796 21.344 56.7805 21.2993 56.5315 21.8179C56.5264 21.8287 56.5191 21.8384 56.51 21.8463C56.5009 21.8541 56.4903 21.8599 56.4788 21.8632C56.4673 21.8668 56.4552 21.868 56.4433 21.8665C56.4314 21.865 56.4199 21.861 56.4097 21.8548C51.5094 18.9586 45.181 20.9792 42.8619 26.1547C42.05 27.9668 41.8105 30.0147 42.2233 31.9993C42.2405 32.0826 42.274 32.1617 42.3218 32.2321C42.3696 32.3024 42.4308 32.3627 42.5019 32.4093C42.573 32.456 42.6526 32.4882 42.7362 32.5041C42.8198 32.52 42.9056 32.5193 42.9889 32.5019C43.0722 32.4846 43.1513 32.451 43.2216 32.4031C43.2918 32.3552 43.352 32.294 43.3986 32.2228C43.4452 32.1516 43.4773 32.072 43.4931 31.9884C43.5089 31.9048 43.508 31.8189 43.4906 31.7356ZM48.133 33.4375L48.1305 33.4348C48.1001 33.4011 48.0613 33.3759 48.0181 33.3619C47.9749 33.3479 47.9288 33.3455 47.8844 33.3549L46.7794 33.5898C46.7615 33.5938 46.7428 33.5919 46.7261 33.5845C46.7094 33.577 46.6955 33.5644 46.6865 33.5485L46.0998 32.5324C46.0905 32.5166 46.0865 32.4983 46.0884 32.4801C46.0904 32.4618 46.0981 32.4447 46.1105 32.4313L46.8663 31.5918C46.9231 31.528 46.9475 31.4378 46.9231 31.3494C46.8109 30.9459 46.7348 30.4413 46.7461 30.0221L46.7462 30.0208C46.7482 29.9758 46.7384 29.931 46.7177 29.891C46.6971 29.8509 46.6664 29.817 46.6286 29.7924L45.6821 29.1778C45.6667 29.1679 45.6548 29.1534 45.6482 29.1363C45.6417 29.1192 45.6408 29.1005 45.6457 29.0828L45.9496 27.9487C45.9541 27.9309 45.9643 27.9151 45.9785 27.9036C45.9927 27.8921 46.0103 27.8854 46.0286 27.8846L47.1406 27.8263L47.1443 27.8262C47.1899 27.8258 47.2347 27.8133 47.274 27.7901C47.3133 27.7668 47.3457 27.7336 47.368 27.6937C47.568 27.3377 47.8849 26.91 48.1794 26.6338L48.1806 26.6326C48.2145 26.6022 48.2398 26.5634 48.2539 26.5201C48.2681 26.4768 48.2705 26.4306 48.2611 26.386L48.0262 25.2811C48.0222 25.2632 48.0241 25.2446 48.0315 25.2278C48.0389 25.2111 48.0516 25.1972 48.0675 25.1882L49.0836 24.6015C49.0994 24.5922 49.1177 24.5882 49.1359 24.5901C49.1542 24.592 49.1713 24.5998 49.1847 24.6122L50.0242 25.368C50.088 25.4248 50.1782 25.4492 50.2666 25.4248C50.6701 25.3127 51.1748 25.2365 51.5939 25.2478L51.5953 25.2479C51.6403 25.2499 51.6851 25.2401 51.7251 25.2194C51.7652 25.1988 51.7991 25.1681 51.8237 25.1303L52.4383 24.1839C52.4482 24.1685 52.4627 24.1566 52.4798 24.15C52.4969 24.1435 52.5156 24.1426 52.5333 24.1475L53.6674 24.4514C53.7042 24.4612 53.7294 24.4923 53.7314 24.5304L53.7897 25.6425C53.7895 25.6888 53.8016 25.7343 53.8249 25.7743C53.8483 25.8143 53.8819 25.8473 53.9223 25.8699C54.2779 26.0697 54.7064 26.387 54.9822 26.6811L54.9834 26.6825C55.0138 26.7164 55.0526 26.7417 55.0959 26.7558C55.1392 26.7699 55.1855 26.7723 55.2301 26.7629L56.3351 26.528C56.3529 26.524 56.3716 26.5259 56.3884 26.5333C56.4051 26.5408 56.419 26.5534 56.428 26.5694L57.0147 27.5855C57.024 27.6013 57.028 27.6196 57.0261 27.6378C57.0241 27.6561 57.0164 27.6732 57.004 27.6866L56.2482 28.526C56.1915 28.5898 56.1671 28.68 56.1915 28.7684C56.3036 29.1721 56.3799 29.6766 56.3685 30.0958L56.3684 30.0972C56.3664 30.1422 56.3762 30.187 56.3968 30.227C56.4174 30.2671 56.4482 30.301 56.4859 30.3256L57.4323 30.9401C57.4477 30.95 57.4596 30.9645 57.4661 30.9816C57.4727 30.9987 57.4736 31.0174 57.4687 31.0351L57.1648 32.1692C57.1603 32.187 57.1501 32.2028 57.1359 32.2143C57.1216 32.2258 57.1041 32.2325 57.0858 32.2333L55.9738 32.2915C55.9275 32.2913 55.882 32.3034 55.842 32.3268C55.802 32.3501 55.769 32.3837 55.7464 32.4241C55.5463 32.7802 55.2296 33.2078 54.935 33.484L54.9337 33.4852C54.8998 33.5156 54.8745 33.5544 54.8604 33.5977C54.8463 33.641 54.8439 33.6872 54.8533 33.7318L55.0882 34.8368C55.0922 34.8547 55.0903 34.8733 55.0829 34.8901C55.0754 34.9068 55.0628 34.9207 55.0469 34.9297L54.0307 35.5164C54.015 35.5257 53.9966 35.5297 53.9784 35.5278C53.9602 35.5259 53.9431 35.5181 53.9296 35.5057L53.0901 34.7498C53.0264 34.6931 52.9361 34.6687 52.8478 34.6931C52.4443 34.8051 51.9396 34.8814 51.5204 34.8701L51.5191 34.87C51.474 34.868 51.4293 34.8778 51.3893 34.8984C51.3492 34.9191 51.3152 34.9498 51.2907 34.9876L50.6761 35.934C50.6663 35.9494 50.6518 35.9613 50.6347 35.9678C50.6176 35.9744 50.5988 35.9753 50.5812 35.9704L49.4469 35.6664C49.4292 35.6619 49.4134 35.6517 49.4019 35.6375C49.3904 35.6233 49.3837 35.6057 49.383 35.5874L49.3248 34.4755L49.3247 34.4718C49.3243 34.4262 49.3118 34.3814 49.2885 34.3421C49.2653 34.3028 49.232 34.2704 49.1922 34.2481C48.8029 34.0288 48.4464 33.7559 48.133 33.4375ZM51.0229 32.0539C50.473 31.9065 50.0342 31.5495 49.7695 31.0915L49.769 31.0917C49.1983 30.1032 49.5357 28.8426 50.5246 28.2712L50.5243 28.2707C51.513 27.7 52.7736 28.0375 53.345 29.0263L53.3454 29.0261C54.2645 30.6179 52.7919 32.5279 51.0229 32.0539ZM46.1704 38.6392C46.0043 38.6843 45.8272 38.6615 45.6779 38.576C45.5287 38.4904 45.4195 38.349 45.3745 38.183L45.0147 36.8591C44.9044 36.4529 45.201 36.0139 45.7065 36.0439L45.71 36.0441L47.0225 36.0684C47.577 36.0779 47.8439 36.7215 47.5153 37.1216C47.5071 37.1313 47.5012 37.1428 47.4981 37.1551C47.4949 37.1674 47.4946 37.1803 47.4972 37.1927C47.4994 37.2052 47.5044 37.2171 47.5118 37.2274C47.5192 37.2377 47.5289 37.2461 47.5401 37.2522C50.0442 38.6471 53.1282 38.6661 55.6751 37.1931C58.78 35.3972 60.3425 31.8371 59.6239 28.3822C59.6061 28.2988 59.6049 28.2127 59.6204 28.1289C59.636 28.045 59.668 27.965 59.7146 27.8936C59.7611 27.8221 59.8214 27.7606 59.8918 27.7125C59.9623 27.6644 60.0415 27.6307 60.125 27.6133C60.2085 27.5959 60.2946 27.5952 60.3784 27.6113C60.4622 27.6273 60.542 27.6597 60.6132 27.7067C60.6844 27.7536 60.7456 27.8142 60.7933 27.8849C60.841 27.9556 60.8743 28.0351 60.8912 28.1187C61.304 30.1032 61.0645 32.1512 60.2525 33.9632C57.9334 39.139 51.6047 41.1596 46.7043 38.263C46.6941 38.2568 46.6827 38.2528 46.6708 38.2513C46.659 38.2498 46.6469 38.2509 46.6355 38.2545C46.624 38.2577 46.6134 38.2634 46.6043 38.2711C46.5952 38.2788 46.5878 38.2884 46.5827 38.2992C46.5422 38.382 46.4844 38.4552 46.4133 38.5138C46.3422 38.5724 46.2593 38.6152 46.1704 38.6392ZM47.8844 46.9555L46.7794 46.7206C46.7615 46.7166 46.7428 46.7185 46.7261 46.7259C46.7094 46.7334 46.6955 46.746 46.6865 46.7619L46.0998 47.7781C46.0905 47.7938 46.0865 47.8122 46.0884 47.8304C46.0903 47.8485 46.098 47.8657 46.1104 47.8792L46.866 48.7188C46.923 48.7823 46.9474 48.8726 46.923 48.9609C46.8109 49.3645 46.7347 49.869 46.746 50.2883L46.7461 50.2897C46.7481 50.3347 46.7383 50.3794 46.7176 50.4195C46.697 50.4595 46.6663 50.4935 46.6285 50.518L45.682 51.1327C45.6666 51.1425 45.6547 51.157 45.6481 51.1741C45.6416 51.1912 45.6407 51.21 45.6456 51.2276L45.9495 52.3618C45.9593 52.3986 45.9904 52.4238 46.0285 52.4257L47.1405 52.484C47.1868 52.4838 47.2323 52.496 47.2723 52.5193C47.3123 52.5426 47.3453 52.5762 47.3679 52.6166C47.568 52.9727 47.8847 53.4004 48.1793 53.6765C48.2136 53.7069 48.2393 53.7458 48.2536 53.7894C48.268 53.8329 48.2705 53.8795 48.261 53.9243L48.0261 55.0292C48.0221 55.0471 48.024 55.0658 48.0314 55.0825C48.0389 55.0992 48.0515 55.1131 48.0674 55.1221L49.0835 55.7088C49.0993 55.7181 49.1176 55.7221 49.1358 55.7202C49.154 55.7183 49.1712 55.7106 49.1846 55.6982L50.0243 54.9426C50.0566 54.9136 50.0957 54.8931 50.1381 54.8831C50.1804 54.8732 50.2245 54.874 50.2664 54.8856C50.6699 54.9978 51.1745 55.0739 51.5938 55.0626L51.5951 55.0625C51.6401 55.0605 51.6849 55.0704 51.7249 55.091C51.765 55.1116 51.7989 55.1423 51.8235 55.1801L52.4381 56.1265C52.448 56.1419 52.4625 56.1538 52.4796 56.1604C52.4967 56.1669 52.5154 56.1678 52.5331 56.1629L53.6673 55.8591C53.685 55.8545 53.7008 55.8444 53.7123 55.8301C53.7238 55.8159 53.7304 55.7983 53.7312 55.78L53.7895 54.6679C53.7893 54.6216 53.8015 54.5761 53.8248 54.5361C53.8481 54.4961 53.8817 54.4631 53.9221 54.4405C54.2777 54.2407 54.7062 53.9235 54.982 53.6293L54.9832 53.6279C55.0136 53.594 55.0524 53.5687 55.0957 53.5546C55.1391 53.5404 55.1853 53.538 55.2299 53.5475L56.3353 53.7824C56.3532 53.7864 56.3719 53.7845 56.3886 53.7771C56.4053 53.7697 56.4192 53.7571 56.4283 53.7411L57.0148 52.7253C57.0241 52.7095 57.0281 52.6912 57.0262 52.673C57.0243 52.6548 57.0166 52.6376 57.0042 52.6242L56.2483 51.7841C56.2192 51.7518 56.1987 51.7127 56.1888 51.6704C56.1788 51.6281 56.1797 51.5839 56.1913 51.5421C56.3034 51.1384 56.3797 50.6338 56.3683 50.2146L56.3682 50.2132C56.3662 50.1682 56.376 50.1235 56.3966 50.0834C56.4173 50.0434 56.448 50.0094 56.4858 49.9849L57.4321 49.3703C57.4475 49.3605 57.4594 49.3459 57.466 49.3288C57.4725 49.3117 57.4734 49.293 57.4685 49.2754L57.1646 48.1412C57.1601 48.1234 57.1499 48.1076 57.1357 48.0961C57.1215 48.0846 57.1039 48.0779 57.0856 48.0771L55.9736 48.0189L55.9699 48.0188C55.9243 48.0184 55.8795 48.0059 55.8402 47.9827C55.8009 47.9594 55.7685 47.9262 55.7462 47.8863C55.5462 47.5303 55.2294 47.1025 54.9348 46.8264C54.9005 46.796 54.8748 46.7571 54.8605 46.7136C54.8461 46.67 54.8436 46.6235 54.8531 46.5787L55.088 45.4737C55.092 45.4559 55.0901 45.4372 55.0827 45.4205C55.0752 45.4037 55.0626 45.3898 55.0467 45.3808L54.0306 44.7941C54.0148 44.7848 53.9965 44.7808 53.9783 44.7827C53.9601 44.7846 53.9429 44.7923 53.9294 44.8047L53.0897 45.5603C53.0574 45.5894 53.0183 45.6099 52.976 45.6198C52.9336 45.6298 52.8895 45.629 52.8476 45.6173C52.4441 45.5052 51.9394 45.429 51.5202 45.4403L51.5189 45.4404C51.4739 45.4424 51.4291 45.4326 51.3891 45.412C51.349 45.3914 51.3151 45.3606 51.2905 45.3229L50.676 44.3764C50.6661 44.361 50.6516 44.3491 50.6345 44.3426C50.6174 44.336 50.5987 44.3351 50.581 44.34L49.4468 44.6439C49.429 44.6484 49.4132 44.6586 49.4017 44.6728C49.3902 44.6871 49.3836 44.7046 49.3828 44.7229L49.3246 45.8348L49.3245 45.8385C49.3241 45.8842 49.3116 45.9289 49.2884 45.9682C49.2651 46.0075 49.2318 46.04 49.192 46.0623C48.8361 46.2623 48.4082 46.5792 48.1321 46.8736L48.1309 46.875C48.1005 46.9089 48.0617 46.9342 48.0185 46.9484C47.9752 46.9625 47.9289 46.965 47.8844 46.9555ZM49.7695 49.219C50.3409 48.2301 51.6015 47.8926 52.59 48.4634L52.5897 48.4638C54.1054 49.3397 53.9559 51.6769 52.1074 52.2422C51.0391 52.5689 49.8118 51.8636 49.5585 50.7719L49.558 50.7697C49.4165 50.2245 49.5071 49.6723 49.769 49.2187L49.7695 49.219ZM45.0147 43.4513C44.9044 43.8578 45.2011 44.2965 45.7065 44.2665L45.71 44.2663L47.0225 44.242C47.6383 44.2315 47.8673 43.4669 47.4338 43.1041C47.4113 43.0853 47.4004 43.0589 47.4032 43.0298C47.4059 43.0006 47.4213 42.9767 47.4468 42.9623C51.7329 40.5491 57.1796 42.3363 59.1895 46.8218C59.9025 48.4133 60.113 50.212 59.7506 51.9547C59.7234 52.0888 59.7505 52.2282 59.8258 52.3424C59.9012 52.4566 60.0187 52.5364 60.1526 52.5642C60.2866 52.5921 60.4261 52.5658 60.5408 52.4911C60.6554 52.4164 60.7358 52.2993 60.7644 52.1655C61.5846 48.2225 59.7984 44.1573 56.259 42.1092C53.2772 40.3837 49.6425 40.4538 46.7526 42.1692C46.7412 42.1762 46.7283 42.1804 46.715 42.1814C46.7017 42.1824 46.6883 42.1802 46.676 42.175C46.6635 42.1701 46.6524 42.1624 46.6436 42.1523C46.6347 42.1423 46.6284 42.1303 46.6251 42.1174C46.4624 41.5157 45.5517 41.4742 45.3745 42.1273L45.0147 43.4513ZM42.35 48.3375C42.3786 48.2037 42.459 48.0867 42.5736 48.012C42.6882 47.9372 42.8278 47.911 42.9617 47.9388C43.0957 47.9667 43.2132 48.0464 43.2885 48.1606C43.3639 48.2749 43.3909 48.4143 43.3638 48.5484C43.0012 50.291 43.2117 52.0896 43.9249 53.6811C44.6335 55.2625 45.7748 56.5546 47.374 57.4984L47.3745 57.4975C49.974 58.9983 53.12 58.974 55.6677 57.5405C55.6933 57.5262 55.7087 57.5023 55.7114 57.4731C55.7141 57.4439 55.7032 57.4176 55.6808 57.3988C55.2471 57.0359 55.4762 56.2713 56.0919 56.2608L57.4045 56.2365L57.408 56.2364C57.9135 56.2064 58.21 56.6454 58.0997 57.0516L57.74 58.3754C57.5627 59.0286 56.6521 58.9871 56.4893 58.3854C56.4821 58.3584 56.4643 58.3383 56.4385 58.3278C56.4126 58.3173 56.3859 58.3194 56.3618 58.3336C53.4686 60.0512 49.8423 60.1179 46.8555 58.3936L46.856 58.3926C43.3167 56.3488 41.53 52.2789 42.35 48.3375ZM23.3473 48.3157L23.2153 48.1917C23.1534 48.1334 23.0806 48.0879 23.0012 48.0578C22.9217 48.0277 22.837 48.0135 22.752 48.0161C22.5804 48.0213 22.418 48.0945 22.3003 48.2196C22.1827 48.3446 22.1195 48.5113 22.1247 48.6829C22.13 48.8545 22.2031 49.017 22.3282 49.1346L23.0265 49.7906C23.2977 50.0457 23.7274 50.0198 23.9665 49.7346L23.9669 49.7349L25.3519 48.0841C25.4621 47.9524 25.5155 47.7822 25.5003 47.6111C25.485 47.44 25.4025 47.2819 25.2707 47.1717C25.2055 47.1171 25.1301 47.0759 25.049 47.0504C24.9678 47.025 24.8824 47.0157 24.7977 47.0233C24.6266 47.0385 24.4685 47.1211 24.3583 47.2528L23.4728 48.3082C23.4653 48.3173 23.456 48.3248 23.4455 48.3301C23.4349 48.3354 23.4234 48.3384 23.4116 48.3389C23.3998 48.3398 23.388 48.3382 23.3769 48.3342C23.3658 48.3302 23.3557 48.3239 23.3473 48.3157ZM24.3583 38.8807L23.4728 39.9361C23.4569 39.955 23.4362 39.9653 23.4116 39.9668C23.3869 39.9683 23.3652 39.9604 23.3473 39.9435L23.2153 39.8195C23.0903 39.7019 22.9237 39.6387 22.752 39.6439C22.5804 39.6492 22.418 39.7223 22.3003 39.8474C22.1827 39.9724 22.1195 40.1391 22.1247 40.3107C22.13 40.4823 22.2031 40.6448 22.3282 40.7624L23.0265 41.4185C23.2977 41.6735 23.7274 41.6476 23.9665 41.3624L23.9669 41.3627L25.3519 39.712C25.4621 39.5802 25.5155 39.41 25.5002 39.2389C25.485 39.0678 25.4024 38.9098 25.2707 38.7995C25.1389 38.6893 24.9688 38.6359 24.7976 38.6512C24.6265 38.6664 24.4685 38.749 24.3583 38.8807ZM23.9668 32.9907L25.3519 31.34C25.4064 31.2747 25.4476 31.1994 25.4731 31.1182C25.4986 31.037 25.5078 30.9516 25.5003 30.8669C25.4927 30.7822 25.4686 30.6998 25.4292 30.6244C25.3898 30.549 25.336 30.4821 25.2707 30.4275C25.2055 30.3729 25.1301 30.3317 25.049 30.3062C24.9678 30.2808 24.8824 30.2716 24.7977 30.2791C24.7129 30.2866 24.6305 30.3108 24.5551 30.3502C24.4797 30.3896 24.4128 30.4434 24.3583 30.5086L23.4728 31.564C23.4569 31.5828 23.4362 31.5932 23.4116 31.5947C23.3869 31.5962 23.3652 31.5883 23.3473 31.5713L23.2153 31.4473C23.1534 31.3891 23.0806 31.3436 23.0012 31.3135C22.9217 31.2833 22.837 31.2692 22.752 31.2717C22.6671 31.2743 22.5835 31.2936 22.5059 31.3285C22.4284 31.3635 22.3586 31.4133 22.3003 31.4752C22.2421 31.5371 22.1966 31.6099 22.1664 31.6894C22.1363 31.7689 22.1221 31.8535 22.1247 31.9385C22.1273 32.0235 22.1466 32.1071 22.1815 32.1846C22.2164 32.2621 22.2663 32.332 22.3282 32.3902L23.0265 33.0464C23.2977 33.3014 23.7274 33.2755 23.9665 32.9903L23.9668 32.9907ZM18.9141 26.5716V53.7388C18.9141 54.4957 19.5333 55.1151 20.2902 55.1151H35.5347C36.2916 55.1151 36.9108 54.4958 36.9108 53.7388V40.9311C36.9108 40.8835 36.9497 40.8447 36.9973 40.8447H39.2422C39.2899 40.8447 39.3287 40.8835 39.3287 40.9311V45.3866C39.3287 45.5587 39.397 45.7237 39.5187 45.8454C39.6404 45.9671 39.8055 46.0355 39.9776 46.0355H42.4918C42.6639 46.0355 42.829 45.9671 42.9507 45.8454C43.0723 45.7237 43.1407 45.5587 43.1407 45.3866C43.1407 45.2145 43.0723 45.0495 42.9507 44.9278C42.829 44.8061 42.6639 44.7377 42.4918 44.7377H40.7131C40.6902 44.7377 40.6682 44.7286 40.652 44.7124C40.6358 44.6962 40.6266 44.6742 40.6266 44.6513V35.6593C40.6266 35.6116 40.6654 35.5728 40.7131 35.5728H42.492C42.6641 35.5728 42.8291 35.5044 42.9508 35.3827C43.0725 35.261 43.1409 35.096 43.1409 34.9239C43.1409 34.7518 43.0725 34.5868 42.9508 34.4651C42.8291 34.3434 42.6641 34.275 42.492 34.275H39.9777C39.8056 34.275 39.6406 34.3434 39.5189 34.4651C39.3972 34.5868 39.3289 34.7518 39.3289 34.9239V39.4604C39.3289 39.5081 39.29 39.5469 39.2424 39.5469H36.9975C36.9746 39.5469 36.9526 39.5378 36.9364 39.5216C36.9202 39.5053 36.911 39.4834 36.911 39.4604V26.5716C36.911 25.8147 36.2918 25.1955 35.5349 25.1955H33.1033C33.0804 25.1954 33.0584 25.1863 33.0422 25.1701C33.026 25.1539 33.0169 25.1319 33.0168 25.109V23.2901C33.0168 22.6937 32.5312 22.2081 31.9347 22.2081H30.0071C29.9858 22.2082 29.9653 22.2004 29.9494 22.1863C29.9336 22.1721 29.9235 22.1526 29.9211 22.1315C29.7317 20.4866 27.6937 19.729 26.4836 20.9391C26.1699 21.2528 25.9581 21.6689 25.9039 22.1317C25.9014 22.1528 25.8913 22.1722 25.8755 22.1863C25.8596 22.2004 25.8391 22.2082 25.8179 22.2081H23.8903C23.2939 22.2081 22.8083 22.6937 22.8083 23.2901V25.1089C22.8083 25.1565 22.7695 25.1954 22.7219 25.1954H20.2903C19.5333 25.1954 18.9141 25.8147 18.9141 26.5716ZM29.1877 31.1341H33.7862C33.9583 31.1341 34.1234 31.2025 34.2451 31.3242C34.3667 31.4459 34.4351 31.6109 34.4351 31.783C34.4351 31.9551 34.3667 32.1202 34.2451 32.2419C34.1234 32.3635 33.9583 32.4319 33.7862 32.4319H29.1877C29.0156 32.4319 28.8506 32.3635 28.7289 32.2419C28.6072 32.1202 28.5388 31.9551 28.5388 31.783C28.5388 31.6109 28.6072 31.4459 28.7289 31.3242C28.8506 31.2025 29.0156 31.1341 29.1877 31.1341ZM26.5767 41.9431C26.5767 42.5093 26.1152 42.9709 25.5489 42.9709H21.9732C21.407 42.9709 20.9455 42.5094 20.9455 41.9431V38.3674C20.9455 37.8012 21.407 37.3396 21.9732 37.3396H25.5489C26.1152 37.3396 26.5767 37.8011 26.5767 38.3674V41.9431ZM21.9732 45.7117H25.5489C26.1152 45.7117 26.5767 46.1732 26.5767 46.7395V50.3152C26.5767 50.8815 26.1152 51.343 25.5489 51.343H21.9732C21.407 51.343 20.9455 50.8815 20.9455 50.3152V46.7395C20.9455 46.1733 21.407 45.7117 21.9732 45.7117ZM31.6323 25.6733H24.1926C24.1696 25.6733 24.1477 25.6642 24.1314 25.6479C24.1152 25.6317 24.1061 25.6098 24.1061 25.5868V23.5924C24.1061 23.5448 24.1449 23.506 24.1926 23.506H26.5389C26.711 23.506 26.8761 23.4376 26.9978 23.3159C27.1194 23.1942 27.1878 23.0292 27.1878 22.8571C27.1878 22.4551 27.1299 22.1279 27.4012 21.8567C27.8635 21.3943 28.637 21.736 28.637 22.3679V22.857C28.637 22.9422 28.6538 23.0266 28.6864 23.1053C28.719 23.184 28.7668 23.2556 28.827 23.3158C28.8873 23.3761 28.9588 23.4239 29.0376 23.4565C29.1163 23.4891 29.2007 23.5059 29.2859 23.5059H31.6322C31.6799 23.5059 31.7187 23.5447 31.7187 23.5924V25.5867C31.7187 25.5981 31.7165 25.6093 31.7122 25.6198C31.7078 25.6303 31.7015 25.6399 31.6935 25.6479C31.6854 25.656 31.6759 25.6623 31.6654 25.6667C31.6549 25.671 31.6437 25.6733 31.6323 25.6733ZM29.1877 39.5063H33.7862C33.9583 39.5063 34.1234 39.5747 34.2451 39.6964C34.3667 39.8181 34.4351 39.9831 34.4351 40.1552C34.4351 40.3273 34.3667 40.4923 34.2451 40.614C34.1234 40.7357 33.9583 40.8041 33.7862 40.8041H29.1877C29.0156 40.8041 28.8506 40.7357 28.7289 40.614C28.6072 40.4923 28.5388 40.3273 28.5388 40.1552C28.5388 39.9831 28.6072 39.8181 28.7289 39.6964C28.8506 39.5747 29.0156 39.5063 29.1877 39.5063ZM28.5388 48.5274C28.5388 48.3553 28.6072 48.1903 28.7289 48.0686C28.8506 47.9469 29.0156 47.8785 29.1877 47.8785H33.7862C33.9583 47.8785 34.1234 47.9469 34.2451 48.0686C34.3667 48.1903 34.4351 48.3553 34.4351 48.5274C34.4351 48.6995 34.3667 48.8645 34.2451 48.9862C34.1234 49.1079 33.9583 49.1763 33.7862 49.1763H29.1877C29.0156 49.1763 28.8506 49.1079 28.7289 48.9862C28.6072 48.8645 28.5388 48.6995 28.5388 48.5274Z" fill="#014EFF"/>
</svg>
