<svg width="80" height="80" viewBox="0 0 80 80" fill="none" xmlns="http://www.w3.org/2000/svg">
<circle cx="40" cy="40" r="39.5" fill="#E6EDFF" stroke="#B0C8FF"/>
<path d="M43.0565 46.3299C43.0467 46.4127 43.0545 46.4967 43.0796 46.5763C43.1046 46.6558 43.1462 46.7292 43.2016 46.7915C43.257 46.8539 43.3251 46.9037 43.4012 46.9378C43.4773 46.972 43.5598 46.9896 43.6432 46.9895H45.5179C45.6621 46.9897 45.8015 46.9371 45.9095 46.8417C46.0176 46.7462 46.087 46.6145 46.1046 46.4713L46.9951 39.3083C47.0519 38.852 46.9881 38.3888 46.8103 37.9647C46.6324 37.5407 46.3467 37.1705 45.9814 36.8912L43.3455 34.875L44.3957 30.091L46.234 31.3269C46.8198 31.7201 47.5706 31.7669 48.2007 31.4484L53.6053 28.7188C53.6776 28.6823 53.7416 28.6312 53.7934 28.5688C53.8451 28.5065 53.8835 28.4341 53.906 28.3562C53.9286 28.2784 53.9349 28.1967 53.9245 28.1164C53.9141 28.036 53.8873 27.9586 53.8457 27.8891L52.9135 26.3303C52.8383 26.2038 52.7185 26.1101 52.5777 26.0673C52.4369 26.0246 52.2852 26.0361 52.1523 26.0994L47.1357 28.494L45.4745 27.2659C45.1851 27.052 44.85 26.9082 44.4955 26.8458L39.3661 25.9406C39.0091 25.8777 38.6423 25.8991 38.2951 26.0031L34.5222 27.5106C33.9935 27.7219 33.5445 28.0938 33.2385 28.5739L31.3647 31.5135C31.2827 31.642 31.2536 31.7973 31.2835 31.9468C31.3135 32.0963 31.4001 32.2284 31.5253 32.3155L32.8836 33.0272C32.949 33.0727 33.0229 33.1044 33.101 33.1206C33.179 33.1367 33.2595 33.1369 33.3376 33.1211C33.4157 33.1052 33.4898 33.0738 33.5554 33.0285C33.621 32.9833 33.6768 32.9253 33.7194 32.8579L35.3537 30.2741L38.4591 29.3611L35.5359 38.9968L30.8188 43.5881C30.7113 43.6929 30.6478 43.8347 30.6412 43.9846C30.6346 44.1346 30.6854 44.2814 30.7832 44.3952L32.2526 46.1051C32.3048 46.166 32.369 46.2156 32.4411 46.2509C32.5132 46.2862 32.5917 46.3065 32.6719 46.3104C32.7521 46.3143 32.8322 46.3018 32.9074 46.2736C32.9826 46.2455 33.0513 46.2023 33.1092 46.1467L38.1848 41.2803L40.0118 36.3019L43.8932 39.1339L43.0565 46.3299Z" fill="#014EFF"/>
<path d="M42.9665 25.7573C44.7257 25.7573 46.1518 24.3312 46.1518 22.572C46.1518 20.8128 44.7257 19.3867 42.9665 19.3867C41.2073 19.3867 39.7812 20.8128 39.7812 22.572C39.7812 24.3312 41.2073 25.7573 42.9665 25.7573Z" fill="#014EFF"/>
<path d="M19.7656 55.9441V60.6136H29.226V54.46H21.2498C20.4252 54.46 19.7656 55.1283 19.7656 55.9441ZM30.0939 52.7589V60.6136H39.563V51.2747H31.5781C30.7622 51.2747 30.0939 51.943 30.0939 52.7589ZM40.4309 48.5147V60.6136H49.9V47.0306H41.9151C41.0992 47.0306 40.4309 47.6989 40.4309 48.5147ZM58.7441 41.3804H52.252C51.4275 41.3804 50.7679 42.0487 50.7679 42.8645V60.6136H60.2283V42.8645C60.2283 42.0487 59.56 41.3804 58.7441 41.3804ZM56.0996 34.8345C56.0831 34.8897 56.0779 34.9476 56.0841 35.0048C56.0903 35.0621 56.1078 35.1175 56.1357 35.168C56.1636 35.2184 56.2012 35.2627 56.2463 35.2984C56.2915 35.3342 56.3433 35.3605 56.3988 35.376C56.4543 35.3915 56.5122 35.3958 56.5694 35.3887C56.6265 35.3815 56.6817 35.3631 56.7316 35.3344C56.7816 35.3057 56.8253 35.2674 56.8603 35.2217C56.8953 35.1759 56.9208 35.1237 56.9354 35.0679L57.4943 33.0648C57.525 32.9542 57.5107 32.8359 57.4544 32.7359C57.3981 32.6358 57.3045 32.5622 57.194 32.531L55.1917 31.9712C55.0809 31.9401 54.9622 31.9543 54.8619 32.0107C54.7615 32.0671 54.6877 32.1611 54.6566 32.2719C54.6255 32.3828 54.6398 32.5014 54.6962 32.6018C54.7526 32.7021 54.8465 32.7759 54.9574 32.807L55.9095 33.0735L49.8166 36.3273C49.7638 36.3526 49.7166 36.3884 49.6779 36.4324C49.6392 36.4765 49.6098 36.5279 49.5916 36.5836C49.5733 36.6393 49.5665 36.6981 49.5716 36.7565C49.5767 36.8149 49.5936 36.8717 49.6212 36.9234C49.6489 36.9751 49.6867 37.0206 49.7324 37.0573C49.7782 37.094 49.8308 37.121 49.8873 37.1368C49.9438 37.1525 50.0028 37.1567 50.061 37.149C50.1191 37.1413 50.175 37.1219 50.2254 37.0919L56.3877 33.8016L56.0996 34.8345Z" fill="#014EFF"/>
</svg>
