<svg width="80" height="22" viewBox="0 0 80 22" fill="none" xmlns="http://www.w3.org/2000/svg">
<g clip-path="url(#clip0_1248_244)">
<path d="M2.47133 6.27344L4.03964 7.84173L1.57097 10.3158L0 8.74479L2.47133 6.27344Z" fill="#1F324B"/>
<path d="M0.0703125 19.4474L7.85562 11.6621L10.327 14.1335L2.54165 21.9188L0.0703125 19.4474Z" fill="#1F324B"/>
<path d="M2.47133 0L10.3215 7.85013L7.85013 10.3215L0 2.47133L2.47133 0Z" fill="url(#paint0_linear_1248_244)"/>
<path d="M0.0703125 13.174L7.85562 5.38867L10.327 7.86002L2.54165 15.6453L0.0703125 13.174Z" fill="url(#paint1_linear_1248_244)"/>
<path d="M16.4414 16.4462H21.0264C22.0852 16.4462 22.8709 16.1564 23.3835 15.5767C23.901 14.9922 24.1597 14.2376 24.1597 13.3129C24.1597 12.8147 24.0375 12.3571 23.7932 11.9403C23.5537 11.5187 23.1919 11.2072 22.708 11.006C23.0147 10.8192 23.2542 10.5557 23.4267 10.2155C23.5991 9.87536 23.6854 9.47052 23.6854 9.001C23.6854 8.54586 23.58 8.09552 23.3692 7.64993C23.1584 7.20439 22.8254 6.83545 22.3703 6.5432C21.9151 6.24616 21.3186 6.09766 20.5808 6.09766H16.4414V16.4462ZM18.4249 10.1365V7.92304H20.5521C20.9258 7.92304 21.2108 8.03084 21.4073 8.2464C21.6037 8.462 21.7019 8.72793 21.7019 9.04412C21.7019 9.4226 21.5917 9.70051 21.3713 9.87774C21.1557 10.0502 20.8827 10.1365 20.5521 10.1365H18.4249ZM18.4249 14.6065V11.9618H20.8252C21.2803 11.9618 21.6205 12.084 21.8457 12.3284C22.0756 12.5679 22.1906 12.8722 22.1906 13.2411C22.1906 13.6579 22.0613 13.9909 21.8025 14.24C21.5486 14.4843 21.2228 14.6065 20.8252 14.6065H18.4249ZM25.593 16.4462H27.5621V12.4793C27.5621 11.5786 27.9166 10.9653 28.6257 10.6395C28.8557 10.5293 29.112 10.4647 29.3947 10.4455C29.6821 10.4215 29.9337 10.4431 30.1493 10.5102V8.68481C29.7995 8.64169 29.4497 8.65124 29.1 8.71354C28.7503 8.77105 28.434 8.88602 28.1514 9.0585C27.9693 9.16388 27.8088 9.29087 27.6699 9.43937C27.5357 9.58791 27.4183 9.75318 27.3177 9.93525V8.68481H25.593V16.4462ZM34.8685 16.6618C35.6447 16.6618 36.3274 16.4894 36.9167 16.1444C37.5108 15.7946 37.9731 15.3131 38.3037 14.6999C38.6391 14.0819 38.8067 13.3704 38.8067 12.5655C38.8067 11.7654 38.6415 11.0587 38.3109 10.4455C37.9803 9.82745 37.518 9.34354 36.9239 8.99382C36.3346 8.64407 35.6495 8.46921 34.8685 8.46921C34.102 8.46921 33.424 8.64169 32.8348 8.98661C32.2455 9.33157 31.7831 9.81306 31.4477 10.4311C31.1124 11.0444 30.9447 11.7558 30.9447 12.5655C30.9447 13.3656 31.1076 14.0747 31.4334 14.6927C31.764 15.306 32.2239 15.7875 32.8132 16.1372C33.4025 16.487 34.0876 16.6618 34.8685 16.6618ZM34.8685 14.8365C34.2601 14.8365 33.7977 14.6328 33.4815 14.2256C33.1701 13.8136 33.0144 13.2602 33.0144 12.5655C33.0144 11.89 33.1629 11.3438 33.46 10.927C33.7618 10.5054 34.2313 10.2946 34.8685 10.2946C35.4866 10.2946 35.9513 10.5006 36.2627 10.9126C36.5789 11.3246 36.737 11.8756 36.737 12.5655C36.737 13.2315 36.5813 13.7776 36.2699 14.204C35.9633 14.6256 35.4961 14.8365 34.8685 14.8365ZM40.3727 16.4462H42.3706V12.7092L45.0583 16.4462H47.6024L44.6126 12.5655L47.4154 8.68481H45.0007L42.3706 12.4218V6.09766H40.3871L40.3727 16.4462ZM51.785 16.6618C52.5321 16.6618 53.2199 16.4654 53.8473 16.0725C54.4796 15.6797 54.942 15.1287 55.2342 14.4196L53.2797 13.8591C52.9827 14.5107 52.4459 14.8365 51.6697 14.8365C51.1382 14.8365 50.7189 14.688 50.4122 14.3909C50.1104 14.0939 49.9234 13.6675 49.8517 13.1117H55.2989C55.3803 12.1726 55.2848 11.3558 55.0115 10.6611C54.7383 9.9664 54.3168 9.4274 53.7465 9.04412C53.1767 8.66083 52.4842 8.46921 51.6697 8.46921C50.9033 8.46921 50.2252 8.64407 49.6361 8.99382C49.0469 9.33878 48.5845 9.82507 48.2492 10.4527C47.9135 11.0803 47.7458 11.8181 47.7458 12.6661C47.7458 13.4423 47.9161 14.1322 48.2562 14.7359C48.6012 15.3347 49.0755 15.8067 49.6792 16.1516C50.2877 16.4917 50.9895 16.6618 51.785 16.6618ZM51.756 10.1652C52.2255 10.1652 52.5849 10.2826 52.834 10.5174C53.0879 10.7521 53.2507 11.133 53.3228 11.66H49.9018C50.1082 10.6635 50.7259 10.1652 51.756 10.1652ZM56.9216 16.4462H58.891V12.4793C58.891 11.5786 59.2452 10.9653 59.9545 10.6395C60.1846 10.5293 60.4407 10.4647 60.7232 10.4455C61.0109 10.4215 61.2622 10.4431 61.4778 10.5102V8.68481C61.1284 8.64169 60.7786 8.65124 60.4288 8.71354C60.079 8.77105 59.7627 8.88602 59.4802 9.0585C59.298 9.16388 59.1374 9.29087 58.9988 9.43937C58.8646 9.58791 58.7471 9.75318 58.6464 9.93525V8.68481H56.9216V16.4462ZM66.3121 16.6618C67.0596 16.6618 67.7473 16.4654 68.3748 16.0725C69.0071 15.6797 69.4695 15.1287 69.7617 14.4196L67.8072 13.8591C67.5102 14.5107 66.9734 14.8365 66.1972 14.8365C65.6653 14.8365 65.2464 14.688 64.9397 14.3909C64.6379 14.0939 64.4509 13.6675 64.3791 13.1117H69.8263C69.9077 12.1726 69.8123 11.3558 69.539 10.6611C69.2658 9.9664 68.8443 9.4274 68.274 9.04412C67.7042 8.66083 67.0117 8.46921 66.1972 8.46921C65.4307 8.46921 64.7527 8.64407 64.1635 8.99382C63.5744 9.33878 63.1119 9.82507 62.7767 10.4527C62.4409 11.0803 62.2733 11.8181 62.2733 12.6661C62.2733 13.4423 62.4436 14.1322 62.7837 14.7359C63.1287 15.3347 63.603 15.8067 64.2067 16.1516C64.8152 16.4917 65.517 16.6618 66.3121 16.6618ZM66.2835 10.1652C66.7529 10.1652 67.1124 10.2826 67.3615 10.5174C67.6153 10.7521 67.7781 11.133 67.8503 11.66H64.4293C64.6352 10.6635 65.2534 10.1652 66.2835 10.1652ZM75.0566 16.6618C75.8042 16.6618 76.4919 16.4654 77.1193 16.0725C77.7516 15.6797 78.2141 15.1287 78.5062 14.4196L76.5517 13.8591C76.2547 14.5107 75.7179 14.8365 74.9418 14.8365C74.4098 14.8365 73.9909 14.688 73.6843 14.3909C73.3824 14.0939 73.1954 13.6675 73.1237 13.1117H78.5709C78.6523 12.1726 78.5568 11.3558 78.2836 10.6611C78.0103 9.9664 77.5888 9.4274 77.0186 9.04412C76.4488 8.66083 75.7562 8.46921 74.9418 8.46921C74.1753 8.46921 73.4973 8.64407 72.9081 8.99382C72.3189 9.33878 71.8565 9.82507 71.5212 10.4527C71.1855 11.0803 71.0179 11.8181 71.0179 12.6661C71.0179 13.4423 71.1881 14.1322 71.5283 14.7359C71.8732 15.3347 72.3475 15.8067 72.9512 16.1516C73.5597 16.4917 74.2615 16.6618 75.0566 16.6618ZM75.028 10.1652C75.4975 10.1652 75.857 10.2826 76.106 10.5174C76.3599 10.7521 76.5227 11.133 76.5949 11.66H73.1739C73.3798 10.6635 73.998 10.1652 75.028 10.1652Z" fill="#1F324B"/>
</g>
<defs>
<linearGradient id="paint0_linear_1248_244" x1="7.42948e-08" y1="0.369517" x2="14.2546" y2="9.55979" gradientUnits="userSpaceOnUse">
<stop stop-color="#CEFB2C"/>
<stop offset="1" stop-color="#05C7FB"/>
</linearGradient>
<linearGradient id="paint1_linear_1248_244" x1="-0.00405216" y1="0.369333" x2="14.2505" y2="9.55961" gradientUnits="userSpaceOnUse">
<stop stop-color="#CEFB2C"/>
<stop offset="1" stop-color="#05C7FB"/>
</linearGradient>
<clipPath id="clip0_1248_244">
<rect width="79.2" height="22" fill="white"/>
</clipPath>
</defs>
</svg>
