<svg width="97" height="97" viewBox="0 0 97 97" fill="none" xmlns="http://www.w3.org/2000/svg">
<circle cx="48.5" cy="48.5" r="48" fill="#E6EDFF" stroke="#B0C8FF"/>
<path fill-rule="evenodd" clip-rule="evenodd" d="M56.0345 47.7948H33.3947C32.1591 47.7948 31.1575 46.7931 31.1575 45.5575V38.0696C31.1575 36.834 32.1591 35.8324 33.3947 35.8324H44.4499C45.8335 38.8918 48.9168 41.0291 52.4832 41.0291C56.0495 41.0291 59.1318 38.8918 60.5146 35.8324H63.6203C64.8559 35.8324 65.8576 36.834 65.8576 38.0696V45.5575C65.8576 46.7494 64.9256 47.7235 63.7507 47.791V45.0856C63.7507 42.9627 62.0177 41.2253 59.8947 41.2253C57.7727 41.2253 56.0345 42.9636 56.0345 45.0856V47.7948ZM34.887 40.7876H44.0733C44.5062 40.7876 44.8576 40.4361 44.8576 40.0033C44.8576 39.5703 44.5062 39.219 44.0733 39.219H34.887C34.4541 39.219 34.1027 39.5703 34.1027 40.0033C34.1027 40.4361 34.4541 40.7876 34.887 40.7876ZM34.887 44.4082H51.7633C52.1962 44.4082 52.5476 44.0567 52.5476 43.6239C52.5476 43.191 52.1962 42.8396 51.7633 42.8396H34.887C34.4541 42.8396 34.1027 43.191 34.1027 43.6239C34.1027 44.0567 34.4541 44.4082 34.887 44.4082ZM60.9859 69.4061H46.02C45.9979 69.357 45.9736 69.3088 45.9471 69.2618C45.4656 68.4019 45.242 67.5592 45.242 66.5746V56.9824C45.242 55.843 46.175 54.9143 47.3101 54.9143C47.9894 54.9143 48.5913 55.241 48.9697 55.7484V55.4045C48.9697 54.2393 49.9199 53.2848 51.085 53.2848C51.9191 53.2848 52.6415 53.7706 52.9897 54.4757C53.0112 53.2117 54.056 52.1884 55.3201 52.1884C56.438 52.1884 57.3752 52.9796 57.6032 54.0329V45.0856C57.6032 43.8258 58.635 42.794 59.8947 42.794C61.1545 42.794 62.1821 43.8258 62.1821 45.0856V55.9634L62.9733 55.9849C65.252 56.0407 66.8428 57.4553 66.8428 59.7341L66.4859 63.7498C66.3527 65.2675 65.4025 66.437 64.0868 67.2023L61.7607 68.5566C61.4057 68.7636 61.1417 69.0569 60.9859 69.4061ZM46.1836 70.9748H60.8235V73.0196H46.1836V70.9748ZM52.4832 39.4604C48.4953 39.4604 45.242 36.2093 45.242 32.2215C45.242 28.2337 48.4953 24.9803 52.4832 24.9803C56.471 24.9803 59.7221 28.2337 59.7221 32.2215C59.7221 36.2093 56.471 39.4604 52.4832 39.4604ZM51.5327 32.8588L49.9146 31.2407C49.4955 30.8216 48.815 30.8216 48.396 31.2407C47.9769 31.662 47.9769 32.3403 48.396 32.7594L50.7744 35.14C51.1935 35.5591 51.8739 35.5591 52.2931 35.14C53.7275 33.7055 55.1445 32.256 56.5725 30.8152C56.9894 30.3939 56.9873 29.7156 56.5682 29.2987C56.149 28.8817 55.4687 28.8839 55.0517 29.303L51.5327 32.8588Z" fill="#014EFF"/>
</svg>
