<svg width="190" height="58" viewBox="0 0 190 58" fill="none" xmlns="http://www.w3.org/2000/svg">
<path d="M62.3963 40.2798C61.4885 40.329 60.5906 40.0709 59.8474 39.5472C59.5369 39.317 59.287 39.0147 59.1195 38.6663C58.952 38.3179 58.8718 37.934 58.8858 37.5477V23.3988C58.8784 23.3389 58.8847 23.2781 58.9044 23.221C58.924 23.1639 58.9564 23.112 58.999 23.0694C59.0417 23.0267 59.0936 22.9943 59.1507 22.9747C59.2077 22.9551 59.2686 22.9487 59.3285 22.9561H61.8927C62.1827 22.9561 62.32 23.1088 62.32 23.3988V36.4488C62.32 37.0288 62.5795 37.3188 63.1137 37.3188C63.3402 37.3281 63.5667 37.3024 63.7853 37.2425C64.0906 37.2425 64.2585 37.334 64.2737 37.6088L64.5027 39.5167C64.5137 39.5723 64.5126 39.6296 64.4996 39.6848C64.4866 39.74 64.4619 39.7917 64.4271 39.8366C64.3924 39.8814 64.3485 39.9183 64.2984 39.9447C64.2482 39.9712 64.1929 39.9865 64.1363 39.9898C63.5747 40.1753 62.9878 40.2732 62.3963 40.2798Z" fill="#737373"/>
<path d="M76.8202 38.6461C75.5318 39.7106 73.9126 40.293 72.2413 40.293C70.5699 40.293 68.9508 39.7106 67.6623 38.6461C66.5299 37.5028 65.8945 35.9587 65.8945 34.3495C65.8945 32.7403 66.5299 31.1962 67.6623 30.0529C68.9533 28.9939 70.5715 28.415 72.2413 28.415C73.9111 28.415 75.5292 28.9939 76.8202 30.0529C77.9266 31.2067 78.5443 32.7434 78.5443 34.3419C78.5443 35.9404 77.9266 37.4771 76.8202 38.6308V38.6461ZM70.0739 36.6314C70.6718 37.173 71.4498 37.473 72.2565 37.473C73.0633 37.473 73.8412 37.173 74.4392 36.6314C74.9803 36.0091 75.2784 35.2123 75.2784 34.3877C75.2784 33.563 74.9803 32.7662 74.4392 32.144C73.8412 31.6024 73.0633 31.3024 72.2565 31.3024C71.4498 31.3024 70.6718 31.6024 70.0739 32.144C69.5327 32.7662 69.2347 33.563 69.2347 34.3877C69.2347 35.2123 69.5327 36.0091 70.0739 36.6314Z" fill="#737373"/>
<path d="M92.6608 28.8011C92.9508 28.8011 93.0882 28.9538 93.0882 29.2438V40.1875C93.1148 40.9261 92.9766 41.6614 92.6835 42.3399C92.3905 43.0184 91.95 43.6231 91.3939 44.1101C90.1598 45.1624 88.5727 45.7078 86.9524 45.6364C85.4889 45.6878 84.0449 45.2882 82.8161 44.4917C82.2913 44.1471 81.8431 43.6983 81.4991 43.1731C81.1551 42.648 80.9228 42.0577 80.8166 41.439C80.8166 41.1338 80.8166 40.9964 81.2287 40.9964H83.7929C83.9018 41.0001 84.0072 41.0352 84.0966 41.0975C84.186 41.1598 84.2554 41.2466 84.2966 41.3475C84.4629 41.811 84.7944 42.1969 85.2276 42.4311C85.7556 42.7035 86.3431 42.8399 86.9371 42.828C87.2955 42.8476 87.6542 42.7956 87.9922 42.6751C88.3303 42.5545 88.641 42.3678 88.9061 42.1259C89.1482 41.8727 89.3366 41.5732 89.4599 41.2453C89.5832 40.9174 89.6388 40.5679 89.6234 40.218V39.2564C88.7053 39.9317 87.5879 40.2809 86.4487 40.2485C85.6513 40.2775 84.8564 40.1451 84.1115 39.8592C83.3666 39.5733 82.6872 39.1398 82.114 38.5848C81.0135 37.4464 80.3984 35.925 80.3984 34.3417C80.3984 32.7583 81.0135 31.2369 82.114 30.0985C82.6899 29.5484 83.3702 29.1191 84.1147 28.836C84.8591 28.5529 85.6527 28.4217 86.4487 28.4501C87.6209 28.4191 88.7683 28.7908 89.6997 29.5032V29.259C89.6927 29.2005 89.6988 29.1412 89.7176 29.0854C89.7364 29.0295 89.7674 28.9786 89.8083 28.9362C89.8492 28.8938 89.899 28.8611 89.9542 28.8404C90.0093 28.8196 90.0684 28.8115 90.1271 28.8164L92.6608 28.8011ZM86.7387 37.5317C87.1319 37.5438 87.523 37.4695 87.8843 37.3139C88.2457 37.1583 88.5684 36.9252 88.8297 36.6311C89.3372 35.9758 89.6125 35.1705 89.6125 34.3417C89.6125 33.5128 89.3372 32.7075 88.8297 32.0522C88.5693 31.7621 88.2485 31.5325 87.8899 31.3796C87.5313 31.2266 87.1436 31.1541 86.7539 31.1669C86.3562 31.1544 85.9605 31.2285 85.5942 31.384C85.2279 31.5394 84.8997 31.7727 84.6324 32.0674C84.0702 32.6943 83.7746 33.5156 83.8082 34.3569C83.7806 35.19 84.0697 36.0026 84.6171 36.6311C84.8851 36.9251 85.2133 37.1578 85.5795 37.3132C85.9457 37.4686 86.3411 37.5431 86.7387 37.5317Z" fill="#737373"/>
<path d="M106.262 38.6465C104.971 39.7056 103.353 40.2844 101.683 40.2844C100.014 40.2844 98.3954 39.7056 97.1044 38.6465C95.9971 37.4902 95.3789 35.951 95.3789 34.3499C95.3789 32.7489 95.9971 31.2097 97.1044 30.0533C98.3966 28.997 100.014 28.4199 101.683 28.4199C103.352 28.4199 104.97 28.997 106.262 30.0533C107.369 31.2071 107.986 32.7438 107.986 34.3423C107.986 35.9408 107.369 37.4775 106.262 38.6312V38.6465ZM99.5007 36.6318C99.7933 36.9101 100.138 37.1277 100.516 37.2718C100.893 37.4159 101.295 37.4837 101.699 37.4712C102.1 37.4816 102.499 37.4128 102.874 37.2688C103.248 37.1248 103.59 36.9083 103.881 36.6318C104.414 36.0054 104.706 35.2101 104.706 34.3881C104.706 33.566 104.414 32.7708 103.881 32.1444C103.59 31.8679 103.248 31.6514 102.874 31.5074C102.499 31.3633 102.1 31.2945 101.699 31.3049C101.295 31.2925 100.893 31.3603 100.516 31.5044C100.138 31.6485 99.7933 31.866 99.5007 32.1444C98.9684 32.7708 98.6761 33.566 98.6761 34.3881C98.6761 35.2101 98.9684 36.0054 99.5007 36.6318Z" fill="#737373"/>
<path d="M113.498 26.2068C113.095 26.56 112.577 26.7546 112.041 26.7546C111.505 26.7546 110.987 26.56 110.583 26.2068C110.4 26.0342 110.255 25.826 110.155 25.5951C110.055 25.3641 110.004 25.1152 110.004 24.8637C110.004 24.6121 110.055 24.3633 110.155 24.1323C110.255 23.9013 110.4 23.6932 110.583 23.5205C110.991 23.1762 111.507 22.9873 112.041 22.9873C112.574 22.9873 113.091 23.1762 113.498 23.5205C113.681 23.6932 113.827 23.9013 113.927 24.1323C114.026 24.3633 114.078 24.6121 114.078 24.8637C114.078 25.1152 114.026 25.3641 113.927 25.5951C113.827 25.826 113.681 26.0342 113.498 26.2068ZM113.819 40.2795C112.912 40.324 112.015 40.0663 111.27 39.5468C110.964 39.3132 110.719 39.0098 110.554 38.662C110.389 38.3142 110.31 37.932 110.324 37.5474V29.2442C110.316 29.1843 110.323 29.1235 110.342 29.0664C110.362 29.0093 110.394 28.9575 110.437 28.9148C110.48 28.8721 110.531 28.8397 110.589 28.8201C110.646 28.8005 110.706 28.7941 110.766 28.8016H113.331C113.621 28.8016 113.758 28.9542 113.758 29.2442V36.4484C113.758 37.0284 114.017 37.3184 114.536 37.3184C114.768 37.3267 114.999 37.301 115.223 37.2421C115.528 37.2421 115.696 37.3337 115.712 37.6084L115.941 39.5163C115.952 39.5719 115.95 39.6293 115.937 39.6845C115.924 39.7396 115.9 39.7914 115.865 39.8362C115.83 39.8811 115.786 39.9179 115.736 39.9444C115.686 39.9708 115.631 39.9862 115.574 39.9895C115.008 40.1761 114.416 40.2739 113.819 40.2795Z" fill="#737373"/>
<path d="M125.373 28.4348C126.174 28.4032 126.973 28.5328 127.723 28.816C128.473 29.0991 129.158 29.5301 129.738 30.0832C130.818 31.2416 131.418 32.766 131.418 34.3493C131.418 35.9326 130.818 37.457 129.738 38.6154C129.161 39.1734 128.477 39.6086 127.726 39.8946C126.976 40.1805 126.175 40.3113 125.373 40.279C124.23 40.3045 123.11 39.9561 122.183 39.2869V44.7969C122.183 45.0869 122.031 45.2243 121.741 45.2243H119.176C119.118 45.2352 119.058 45.2317 119.001 45.2141C118.944 45.1965 118.892 45.1653 118.85 45.1232C118.808 45.0812 118.777 45.0294 118.759 44.9726C118.742 44.9157 118.738 44.8554 118.749 44.7969V32.2811C118.767 32.1587 118.756 32.0338 118.717 31.9163C118.678 31.7989 118.612 31.6922 118.525 31.6047C118.437 31.5172 118.331 31.4514 118.213 31.4125C118.096 31.3736 117.971 31.3627 117.848 31.3806H117.345C117.009 31.3806 116.841 31.2585 116.841 31.0143V29.2132C116.833 29.1018 116.864 28.991 116.928 28.8994C116.991 28.8077 117.085 28.7407 117.192 28.7096C117.72 28.5176 118.279 28.4245 118.841 28.4348C119.401 28.3852 119.963 28.504 120.455 28.776C120.947 29.0479 121.347 29.4606 121.603 29.9611C122.095 29.4638 122.683 29.072 123.331 28.8095C123.979 28.5471 124.674 28.4196 125.373 28.4348ZM122.992 36.6311C123.264 36.9156 123.591 37.1419 123.953 37.2966C124.315 37.4512 124.705 37.5309 125.098 37.5309C125.492 37.5309 125.882 37.4512 126.244 37.2966C126.606 37.1419 126.933 36.9156 127.205 36.6311C127.778 35.9918 128.079 35.1539 128.044 34.2959C128.084 33.4371 127.782 32.5974 127.205 31.9606C126.933 31.6762 126.606 31.4498 126.244 31.2952C125.882 31.1406 125.492 31.0608 125.098 31.0608C124.705 31.0608 124.315 31.1406 123.953 31.2952C123.591 31.4498 123.264 31.6762 122.992 31.9606C122.437 32.6087 122.148 33.4432 122.183 34.2959C122.152 35.1479 122.441 35.9808 122.992 36.6311Z" fill="#737373"/>
<path d="M138.619 40.2794C137.249 40.3357 135.89 40.0079 134.696 39.3331C134.217 39.0446 133.809 38.6519 133.503 38.1842C133.196 37.7165 132.999 37.1858 132.926 36.6315C132.926 36.3262 133.033 36.1736 133.368 36.1736H135.612C135.719 36.1777 135.822 36.2113 135.911 36.2706C136 36.3298 136.071 36.4124 136.116 36.5094C136.436 37.3336 137.276 37.7457 138.619 37.7457C139.087 37.7671 139.554 37.6727 139.977 37.471C140.123 37.405 140.249 37.3005 140.34 37.1688C140.432 37.0371 140.486 36.883 140.496 36.7231C140.496 36.3262 140.252 36.0515 139.764 35.8683C139.184 35.6755 138.585 35.5475 137.978 35.4867C137.258 35.4053 136.544 35.2778 135.841 35.1052C135.157 34.9503 134.535 34.5941 134.055 34.0825C133.773 33.7348 133.565 33.3327 133.444 32.9011C133.324 32.4696 133.293 32.0179 133.355 31.5741C133.417 31.1303 133.569 30.7039 133.802 30.3215C134.036 29.939 134.345 29.6087 134.712 29.351C135.812 28.6501 137.103 28.3088 138.405 28.3741C139.667 28.3315 140.915 28.6435 142.007 29.2746C142.448 29.5241 142.827 29.8686 143.117 30.2832C143.408 30.6977 143.602 31.1718 143.686 31.671C143.686 31.9762 143.549 32.1288 143.274 32.1288H141.015C140.92 32.1345 140.826 32.1113 140.744 32.0622C140.662 32.0132 140.597 31.9407 140.557 31.8541C140.406 31.4926 140.122 31.203 139.764 31.0452C139.359 30.8335 138.907 30.7285 138.451 30.7399C138.004 30.7156 137.557 30.8048 137.154 30.9994C137.011 31.0542 136.889 31.1504 136.802 31.2756C136.715 31.4007 136.667 31.5491 136.665 31.7015C136.675 31.9102 136.751 32.1103 136.883 32.2724C137.015 32.4345 137.196 32.55 137.398 32.602C137.984 32.8229 138.593 32.9765 139.214 33.0599C139.928 33.1538 140.636 33.2863 141.336 33.4567C142.02 33.6116 142.642 33.9678 143.122 34.4794C143.378 34.7612 143.576 35.0911 143.705 35.45C143.833 35.809 143.889 36.1898 143.869 36.5704C143.883 37.098 143.759 37.6201 143.51 38.0855C143.261 38.551 142.896 38.944 142.45 39.2262C141.31 39.9583 139.973 40.3256 138.619 40.2794Z" fill="#737373"/>
<path d="M160.003 39.5165C160.012 39.5707 160.01 39.6261 159.997 39.6794C159.984 39.7327 159.96 39.7828 159.927 39.8269C159.895 39.871 159.853 39.9081 159.806 39.936C159.759 39.964 159.707 39.9822 159.652 39.9897C159.095 40.1716 158.514 40.2693 157.928 40.2797C157.347 40.3397 156.762 40.2491 156.227 40.0164C155.692 39.7838 155.226 39.4171 154.875 38.9518C153.797 39.8787 152.403 40.3543 150.983 40.2797C150.324 40.31 149.665 40.2021 149.05 39.9629C148.435 39.7237 147.877 39.3585 147.411 38.8907C146.949 38.4005 146.59 37.8221 146.357 37.19C146.123 36.558 146.02 35.8853 146.053 35.2123V29.2444C146.053 28.9544 146.19 28.8018 146.48 28.8018H149.044C149.334 28.8018 149.472 28.9544 149.472 29.2444V34.7544C149.444 35.4409 149.679 36.1122 150.128 36.6318C150.352 36.8698 150.625 37.057 150.928 37.1807C151.231 37.3044 151.556 37.3619 151.883 37.3491C152.218 37.3638 152.552 37.312 152.866 37.1967C153.181 37.0814 153.469 36.905 153.715 36.6775C153.948 36.4379 154.128 36.153 154.247 35.8406C154.365 35.5282 154.418 35.1949 154.402 34.8612V29.2444C154.402 28.9544 154.539 28.8018 154.829 28.8018H157.424C157.714 28.8018 157.851 28.9544 157.851 29.2444V36.4333C157.851 37.0286 158.111 37.3186 158.614 37.3186C158.851 37.3278 159.087 37.302 159.316 37.2423C159.374 37.2261 159.435 37.2232 159.494 37.2338C159.553 37.2444 159.609 37.2682 159.657 37.3034C159.706 37.3387 159.745 37.3845 159.774 37.4373C159.802 37.4902 159.818 37.5487 159.82 37.6086L160.003 39.5165Z" fill="#737373"/>
<path d="M184.258 39.5163C184.272 39.5709 184.273 39.6279 184.262 39.6832C184.251 39.7384 184.228 39.7905 184.194 39.8357C184.161 39.8809 184.117 39.9182 184.068 39.9448C184.018 39.9713 183.963 39.9866 183.907 39.9894C183.34 40.1739 182.748 40.2717 182.152 40.2794C181.244 40.3263 180.347 40.0684 179.603 39.5468C179.281 39.3234 179.019 39.024 178.841 38.6752C178.663 38.3264 178.573 37.939 178.58 37.5473V33.9605C178.612 33.2761 178.383 32.605 177.939 32.0831C177.725 31.8446 177.46 31.6565 177.165 31.5324C176.869 31.4084 176.55 31.3515 176.23 31.3658C175.941 31.3549 175.654 31.4096 175.389 31.526C175.125 31.6423 174.89 31.8172 174.703 32.0373C174.3 32.5488 174.095 33.1879 174.123 33.8384V39.4705C174.123 39.7605 173.986 39.9131 173.696 39.9131H171.116C171.057 39.9206 170.996 39.9142 170.939 39.8946C170.882 39.875 170.83 39.8426 170.787 39.7999C170.744 39.7572 170.712 39.7054 170.692 39.6483C170.673 39.5912 170.666 39.5304 170.674 39.4705V33.9605C170.707 33.2835 170.496 32.6172 170.079 32.0831C169.892 31.8588 169.659 31.6782 169.395 31.5542C169.132 31.4302 168.844 31.3659 168.552 31.3658C168.241 31.3532 167.93 31.4065 167.641 31.5223C167.352 31.638 167.09 31.8135 166.873 32.0373C166.437 32.5325 166.212 33.1792 166.247 33.8384V39.4705C166.255 39.5304 166.249 39.5912 166.229 39.6483C166.209 39.7054 166.177 39.7572 166.134 39.7999C166.092 39.8426 166.04 39.875 165.983 39.8946C165.926 39.9142 165.865 39.9206 165.805 39.9131H163.317C163.027 39.9131 162.89 39.7605 162.89 39.4705V32.2816C162.908 32.1591 162.897 32.0342 162.858 31.9168C162.819 31.7993 162.753 31.6926 162.666 31.6051C162.578 31.5176 162.471 31.4518 162.354 31.4129C162.236 31.374 162.111 31.3631 161.989 31.381H161.485C161.15 31.381 160.982 31.2589 160.982 31.0147V29.2137C160.974 29.1022 161.004 28.9914 161.068 28.8998C161.132 28.8081 161.225 28.7411 161.333 28.71C161.861 28.5181 162.419 28.4249 162.981 28.4352C163.52 28.3893 164.062 28.4968 164.542 28.7452C165.023 28.9937 165.424 29.373 165.698 29.8394C166.213 29.3514 166.823 28.9748 167.49 28.7332C168.157 28.4916 168.867 28.3901 169.575 28.4352C170.263 28.4017 170.948 28.5307 171.577 28.8118C172.205 29.0929 172.759 29.5181 173.192 30.0531C173.697 29.5041 174.318 29.0742 175.01 28.7944C175.701 28.5146 176.446 28.3919 177.191 28.4352C177.857 28.4041 178.523 28.5114 179.145 28.7505C179.768 28.9895 180.334 29.3551 180.809 29.8242C181.272 30.3133 181.632 30.8916 181.865 31.5239C182.099 32.1563 182.202 32.8294 182.167 33.5026V36.4484C182.167 37.0284 182.426 37.3184 182.915 37.3184C183.151 37.3294 183.388 37.3037 183.617 37.2421C183.932 37.2421 184.1 37.3642 184.121 37.6084L184.258 39.5163Z" fill="#737373"/>
<path d="M5.28204 26.8172C6.40811 22.2911 9.01606 18.2719 12.6906 15.3996C16.3652 12.5272 20.8951 10.9668 25.5591 10.9668C30.2232 10.9668 34.7531 12.5272 38.4277 15.3996C42.1022 18.2719 44.7102 22.2911 45.8362 26.8172H44.0047C40.9149 26.7717 37.8885 27.6951 35.3505 29.4577C35.204 29.5637 35.0511 29.6606 34.8926 29.7477H34.6789C34.5204 29.6606 34.3675 29.5637 34.221 29.4577C31.6604 27.7359 28.6448 26.8162 25.5591 26.8162C22.4735 26.8162 19.4579 27.7359 16.8973 29.4577C16.7508 29.5637 16.5979 29.6606 16.4394 29.7477H16.2257C16.0672 29.6606 15.9143 29.5637 15.7678 29.4577C13.2298 27.6951 10.2034 26.7717 7.11362 26.8172H5.28204ZM40.7078 36.3872C41.6481 35.6549 42.8134 35.2719 44.0047 35.3035H46.462V30.404H44.0047C41.9063 30.3786 39.8559 31.0317 38.1589 32.2661C37.2039 32.9702 36.0485 33.35 34.862 33.35C33.6755 33.35 32.5202 32.9702 31.5652 32.2661C29.8251 31.0548 27.7557 30.4054 25.6355 30.4054C23.5152 30.4054 21.4459 31.0548 19.7057 32.2661C18.7507 32.9702 17.5954 33.35 16.4089 33.35C15.2224 33.35 14.0671 32.9702 13.112 32.2661C11.394 31.0159 9.31425 30.362 7.18993 30.404H4.65625V35.3035H7.11362C8.30492 35.2719 9.47023 35.6549 10.4105 36.3872C12.1474 37.5993 14.2145 38.2492 16.3326 38.2492C18.4506 38.2492 20.5177 37.5993 22.2547 36.3872C23.1961 35.6572 24.3606 35.2744 25.5515 35.3035C26.7432 35.2693 27.9093 35.6526 28.8484 36.3872C30.5885 37.5985 32.6579 38.2478 34.7781 38.2478C36.8983 38.2478 38.9677 37.5985 40.7078 36.3872ZM40.7078 45.1482C41.6481 44.416 42.8134 44.0329 44.0047 44.0645H46.462V39.1651H44.0047C41.9063 39.1397 39.8559 39.7928 38.1589 41.0272C37.2039 41.7312 36.0485 42.1111 34.862 42.1111C33.6755 42.1111 32.5202 41.7312 31.5652 41.0272C29.8251 39.8158 27.7557 39.1665 25.6355 39.1665C23.5152 39.1665 21.4459 39.8158 19.7057 41.0272C18.7507 41.7312 17.5954 42.1111 16.4089 42.1111C15.2224 42.1111 14.0671 41.7312 13.112 41.0272C11.394 39.777 9.31425 39.1231 7.18993 39.1651H4.65625V44.0645H7.11362C8.30492 44.0329 9.47023 44.416 10.4105 45.1482C12.1474 46.3603 14.2145 47.0103 16.3326 47.0103C18.4506 47.0103 20.5177 46.3603 22.2547 45.1482C23.1961 44.4182 24.3606 44.0355 25.5515 44.0645C26.7432 44.0304 27.9093 44.4137 28.8484 45.1482C30.5885 46.3596 32.6579 47.0089 34.7781 47.0089C36.8983 47.0089 38.9677 46.3596 40.7078 45.1482Z" fill="#737373"/>
</svg>
