<svg width="97" height="97" viewBox="0 0 97 97" fill="none" xmlns="http://www.w3.org/2000/svg">
<circle cx="48.5" cy="48.5" r="48" fill="#E6EDFF" stroke="#B0C8FF"/>
<g clip-path="url(#clip0_235_1744)">
<path d="M45.8096 44.0977L52.7588 40.1895L45.8096 36.2822V44.0977Z" fill="#014EFF"/>
<path d="M69.8537 33.6348H63.8017C61.2807 27.9644 55.5949 24 49 24C42.4051 24 36.7193 27.9644 34.1983 33.6348H28.1463C25.86 33.6348 24 35.4948 24 37.7811V63.5717C24 65.8579 25.86 67.718 28.1463 67.718H31.1592V69.4932C31.1592 71.9775 33.1807 74 35.666 74H41.4785C42.2881 74 42.9434 73.3438 42.9434 72.5352V71.0703H46.7559C47.5645 71.0703 48.2207 70.4141 48.2207 69.6055C48.2207 68.7969 47.5645 68.1406 46.7559 68.1406H42.9434V64.3652H46.7559C47.5645 64.3652 48.2207 63.71 48.2207 62.9004C48.2207 62.0918 47.5645 61.4355 46.7559 61.4355H42.9434V59.9707C42.9434 59.1621 42.2881 58.5059 41.4785 58.5059H35.666C33.1807 58.5059 31.1592 60.5283 31.1592 63.0137V64.7883H28.1463C27.4755 64.7883 26.9297 64.2426 26.9297 63.5717V37.7811C26.9297 37.1103 27.4755 36.5645 28.1463 36.5645H33.22C32.9473 37.7535 32.81 38.9695 32.8105 40.1895C32.8105 49.1162 40.0732 56.3789 49 56.3789C57.9268 56.3789 65.1895 49.1162 65.1895 40.1895C65.1895 38.9436 65.0477 37.7303 64.78 36.5645H69.8537C70.5245 36.5645 71.0703 37.1103 71.0703 37.7811V63.5717C71.0703 64.2425 70.5245 64.7883 69.8537 64.7883H65.8643V63.0137C65.8643 60.5283 63.8428 58.5059 61.3574 58.5059H55.5449C54.7353 58.5059 54.0801 59.1621 54.0801 59.9707V72.5352C54.0801 73.3438 54.7353 74 55.5449 74H61.3574C63.8428 74 65.8643 71.9775 65.8643 69.4932V67.718H69.8537C72.14 67.718 74 65.858 74 63.5717V37.7811C74 35.4948 72.14 33.6348 69.8537 33.6348ZM56.4648 41.4668L45.0635 47.8789C44.0834 48.4268 42.8799 47.7188 42.8799 46.6016V33.7773C42.8799 32.6574 44.0892 31.952 45.0635 32.501L56.4648 38.9131C57.4593 39.4702 57.46 40.9072 56.4648 41.4668Z" fill="#014EFF"/>
</g>
<defs>
<clipPath id="clip0_235_1744">
<rect width="50" height="50" fill="white" transform="translate(24 24)"/>
</clipPath>
</defs>
</svg>
