<svg width="56" height="56" viewBox="0 0 56 56" fill="none" xmlns="http://www.w3.org/2000/svg">
<rect width="56" height="56" rx="28" fill="#E6EDFF"/>
<path fill-rule="evenodd" clip-rule="evenodd" d="M41.5625 40.3954H39.6131V25.0528C39.6131 24.9368 39.567 24.8255 39.485 24.7434C39.4029 24.6614 39.2916 24.6153 39.1756 24.6153H35.1099C34.9939 24.6153 34.8826 24.6614 34.8006 24.7434C34.7185 24.8255 34.6724 24.9368 34.6724 25.0528V40.3954H33.518V28.4515C33.518 28.3355 33.4719 28.2242 33.3898 28.1421C33.3078 28.0601 33.1965 28.014 33.0805 28.014H29.0147C28.8986 28.014 28.7874 28.0601 28.7053 28.1421C28.6233 28.2242 28.5772 28.3355 28.5772 28.4515V40.3953H27.4227V31.8497C27.4227 31.7336 27.3766 31.6224 27.2946 31.5403C27.2125 31.4583 27.1013 31.4122 26.9852 31.4122H22.9195C22.8035 31.4122 22.6922 31.4583 22.6102 31.5403C22.5281 31.6224 22.482 31.7336 22.482 31.8497V40.3954H21.3276V35.2482C21.3276 35.1321 21.2815 35.0209 21.1994 34.9388C21.1174 34.8568 21.0061 34.8107 20.8901 34.8107H16.8244C16.7084 34.8107 16.5971 34.8568 16.5151 34.9388C16.433 35.0209 16.3869 35.1321 16.3869 35.2482V40.3954H14.4375C14.3215 40.3954 14.2102 40.4415 14.1281 40.5235C14.0461 40.6056 14 40.7168 14 40.8329C14 40.9489 14.0461 41.0602 14.1281 41.1422C14.2102 41.2243 14.3215 41.2704 14.4375 41.2704H41.5625C41.6785 41.2704 41.7898 41.2243 41.8719 41.1422C41.9539 41.0602 42 40.9489 42 40.8329C42 40.7168 41.9539 40.6056 41.8719 40.5235C41.7898 40.4415 41.6785 40.3954 41.5625 40.3954ZM18.1865 30.6509C18.0764 30.6506 17.9705 30.6088 17.8898 30.5338C17.8092 30.4588 17.7598 30.3562 17.7515 30.2463C17.7432 30.1365 17.7767 30.0276 17.8451 29.9414C17.9136 29.8551 18.0121 29.7979 18.1209 29.7811C24.004 28.8849 29.4159 24.9006 33.0197 18.8278L30.9306 17.2452C30.8655 17.1958 30.8155 17.1293 30.7863 17.053C30.757 16.9767 30.7497 16.8937 30.7652 16.8135C30.7807 16.7333 30.8183 16.659 30.8739 16.5991C30.9294 16.5391 31.0006 16.4959 31.0794 16.4744L37.3981 14.7498C37.4627 14.7322 37.5306 14.7296 37.5963 14.7423C37.6621 14.755 37.7241 14.7827 37.7775 14.8231C37.8309 14.8636 37.8743 14.9158 37.9044 14.9757C37.9344 15.0355 37.9503 15.1015 37.9508 15.1685L38.0015 21.7181C38.0022 21.7998 37.9799 21.88 37.9373 21.9497C37.8946 22.0194 37.8333 22.0758 37.7603 22.1125C37.6872 22.1491 37.6054 22.1646 37.524 22.1571C37.4427 22.1496 37.365 22.1195 37.2999 22.0702L35.7556 20.9003C33.6789 23.5899 31.1117 25.862 28.1897 27.5964C24.9534 29.5074 21.4984 30.5638 18.1983 30.6509H18.1865Z" fill="#014EFF"/>
</svg>
