<svg width="56" height="56" viewBox="0 0 56 56" fill="none" xmlns="http://www.w3.org/2000/svg">
<rect width="56" height="56" rx="28" fill="#E6EDFF"/>
<g clip-path="url(#clip0_1248_212)">
<path d="M27.5036 27.4877C29.3565 27.4877 30.961 26.8231 32.272 25.5118C33.5831 24.2009 34.2476 22.5968 34.2476 20.7437C34.2476 18.8911 33.5831 17.2868 32.2718 15.9754C30.9606 14.6646 29.3563 14 27.5036 14C25.6504 14 24.0463 14.6646 22.7353 15.9756C21.4243 17.2866 20.7595 18.8909 20.7595 20.7437C20.7595 22.5968 21.4243 24.2011 22.7355 25.5121C24.0467 26.8229 25.6511 27.4877 27.5036 27.4877ZM39.3038 35.5306C39.266 34.985 39.1895 34.3898 39.0769 33.7614C38.9633 33.1281 38.817 32.5296 38.6418 31.9825C38.4609 31.417 38.2148 30.8587 37.9106 30.3235C37.5949 29.7681 37.224 29.2844 36.8079 28.8865C36.3727 28.4701 35.84 28.1354 35.2238 27.8912C34.6099 27.6484 33.9295 27.5253 33.2017 27.5253C32.9159 27.5253 32.6395 27.6426 32.1056 27.9902C31.7262 28.2373 31.3455 28.4826 30.9638 28.7262C30.597 28.96 30.1001 29.1789 29.4864 29.3772C28.8876 29.5709 28.2797 29.6692 27.6796 29.6692C27.0795 29.6692 26.4717 29.5709 25.8723 29.3772C25.2593 29.1791 24.7624 28.9602 24.396 28.7265C23.9711 28.4549 23.5866 28.2072 23.2531 27.9899C22.7199 27.6423 22.4433 27.525 22.1575 27.525C21.4294 27.525 20.7493 27.6483 20.1355 27.8914C19.5198 28.1352 18.9869 28.4699 18.5513 28.8867C18.1354 29.2849 17.7643 29.7683 17.449 30.3235C17.145 30.8586 16.899 31.4168 16.7178 31.9827C16.5428 32.5298 16.3965 33.1281 16.2828 33.7614C16.1702 34.389 16.0938 34.9843 16.056 35.5312C16.0183 36.0815 15.9996 36.633 16 37.1846C16 38.6462 16.4646 39.8295 17.3809 40.7021C18.2858 41.5633 19.4831 42.0001 20.9391 42.0001H34.4213C35.8774 42.0001 37.0742 41.5635 37.9794 40.7022C38.8958 39.8301 39.3604 38.6467 39.3604 37.1844C39.3602 36.6202 39.3412 36.0638 39.3038 35.5306Z" fill="#014EFF"/>
</g>
<defs>
<clipPath id="clip0_1248_212">
<rect width="28" height="28" fill="white" transform="translate(14 14)"/>
</clipPath>
</defs>
</svg>
