<svg width="56" height="56" viewBox="0 0 56 56" fill="none" xmlns="http://www.w3.org/2000/svg">
<rect width="56" height="56" rx="28" fill="#E6EDFF"/>
<g clip-path="url(#clip0_1248_194)">
<path fill-rule="evenodd" clip-rule="evenodd" d="M31.5 16.625H28.875V14H27.125V16.625H24.5V14H22.75V16.625H21C19.8406 16.625 18.725 17.0861 17.9069 17.9064C17.5002 18.3124 17.1776 18.7946 16.9576 19.3255C16.7376 19.8563 16.6246 20.4254 16.625 21V22.75H14V24.5H16.625V27.125H14V28.875H16.625V31.5H14V33.25H16.625V35C16.6246 35.5746 16.7376 36.1437 16.9576 36.6745C17.1776 37.2054 17.5002 37.6876 17.9069 38.0936C18.313 38.4999 18.7952 38.8222 19.3259 39.0421C19.8567 39.2619 20.4255 39.3751 21 39.375H22.75V42H24.5V39.375H27.125V42H28.875V39.375H31.5V42H33.25V39.375H35C36.1594 39.375 37.275 38.9139 38.0931 38.0936C38.4998 37.6876 38.8224 37.2054 39.0424 36.6745C39.2624 36.1437 39.3754 35.5746 39.375 35V33.25H42V31.5H39.375V28.875H42V27.125H39.375V24.5H42V22.75H39.375V21C39.3754 20.4254 39.2624 19.8563 39.0424 19.3255C38.8224 18.7946 38.4998 18.3124 38.0931 17.9064C37.687 17.5001 37.2048 17.1778 36.6741 16.9579C36.1433 16.7381 35.5745 16.6249 35 16.625H33.25V14H31.5V16.625ZM31.5 22.75V33.25H33.25V22.75H31.5ZM22.75 25.8125V33.25H24.5V30.1875H27.125V33.25H28.875V25.8125C28.875 24.1211 27.5056 22.75 25.8125 22.75C24.1194 22.75 22.75 24.1211 22.75 25.8125ZM27.125 28.4375V25.8125C27.125 25.0876 26.5387 24.5 25.8125 24.5C25.0863 24.5 24.5 25.0876 24.5 25.8125V28.4375H27.125Z" fill="#014EFF"/>
</g>
<defs>
<clipPath id="clip0_1248_194">
<rect width="28" height="28" fill="white" transform="translate(14 14)"/>
</clipPath>
</defs>
</svg>
