<svg width="56" height="56" viewBox="0 0 56 56" fill="none" xmlns="http://www.w3.org/2000/svg">
<rect width="56" height="56" rx="28" fill="#E6EDFF"/>
<path d="M30.4609 28C30.4609 27.0938 29.7265 26.3594 28.8203 26.3594H28C27.5469 26.3594 27.1797 25.9921 27.1797 25.5391V20.6172H23.0781V19.7969C23.0781 18.4399 21.9741 17.3359 20.6172 17.3359C19.2603 17.3359 18.1562 18.44 18.1562 19.7969V20.6172H14.8203C14.367 20.6172 14 20.9841 14 21.4375V25.5391C14 25.9921 14.3672 26.3594 14.8203 26.3594H15.6953C16.6015 26.3594 17.3359 27.0938 17.3359 28C17.3359 28.9062 16.6015 29.6406 15.6953 29.6406H14.8203C14.3672 29.6406 14 30.0079 14 30.4609V34.5625C14 35.0159 14.367 35.3828 14.8203 35.3828H18.1562C18.6093 35.3828 18.9766 35.0156 18.9766 34.5625V33.7422C18.9766 32.836 19.711 32.1016 20.6172 32.1016C21.5234 32.1016 22.2578 32.836 22.2578 33.7422V34.5625C22.2578 35.0159 22.6248 35.3828 23.0781 35.3828H27.1797V30.4609C27.1797 30.0079 27.5469 29.6406 28 29.6406H28.8203C29.7265 29.6406 30.4609 28.9062 30.4609 28Z" fill="#014EFF"/>
<path d="M40.3047 26.3594H41.1797C41.6328 26.3594 42 25.9921 42 25.5391V21.4375C42 20.9841 41.633 20.6172 41.1797 20.6172H37.8438C37.3907 20.6172 37.0234 20.9844 37.0234 21.4375V22.2578C37.0234 23.164 36.289 23.8984 35.3828 23.8984C34.4766 23.8984 33.7422 23.164 33.7422 22.2578V21.4375C33.7422 20.9841 33.3752 20.6172 32.9219 20.6172H28.8203V24.7188C30.6848 24.7188 32.1016 26.2735 32.1016 28C32.1016 29.7267 30.685 31.2812 28.8203 31.2812V35.3828H32.9219V36.2031C32.9219 37.5601 34.0259 38.6641 35.3828 38.6641C36.7397 38.6641 37.8438 37.56 37.8438 36.2031V35.3828H41.1797C41.633 35.3828 42 35.0159 42 34.5625V30.4609C42 30.0079 41.6328 29.6406 41.1797 29.6406H40.3047C39.3985 29.6406 38.6641 28.9062 38.6641 28C38.6641 27.0938 39.3985 26.3594 40.3047 26.3594Z" fill="#014EFF"/>
</svg>
