<svg width="56" height="56" viewBox="0 0 56 56" fill="none" xmlns="http://www.w3.org/2000/svg">
<rect width="56" height="56" rx="28" fill="#E6EDFF"/>
<g clip-path="url(#clip0_1248_172)">
<path d="M28.8641 23.6556C28.5795 23.5989 28.2901 23.5704 28 23.5703C25.5574 23.5703 23.5703 25.5574 23.5703 28C23.5703 30.4426 25.5574 32.4297 28 32.4297C30.4426 32.4297 32.4297 30.4426 32.4297 28C32.4297 27.7044 32.4 27.4155 32.3444 27.1359L29.7402 29.7402C29.2753 30.205 28.6573 30.4609 28 30.4609C27.3427 30.4609 26.7247 30.205 26.2598 29.7402C25.795 29.2753 25.5391 28.6573 25.5391 28C25.5391 27.3427 25.795 26.7247 26.2598 26.2598L28.8641 23.6556Z" fill="#014EFF"/>
<path d="M40.7471 22.2134L38.9821 23.9783C38.8082 24.1526 38.6091 24.2999 38.3915 24.4152C38.7803 25.5395 38.9922 26.7455 38.9922 28C38.9922 34.0611 34.0611 38.9922 28 38.9922C21.9389 38.9922 17.0078 34.0611 17.0078 28C17.0078 21.9389 21.9389 17.0078 28 17.0078C29.2551 17.0078 30.4616 17.2199 31.5861 17.6089C31.701 17.3912 31.8479 17.1919 32.0219 17.0177L33.7866 15.2529C32.0219 14.4486 30.0625 14 28 14C20.2803 14 14 20.2803 14 28C14 35.7197 20.2803 42 28 42C35.7197 42 42 35.7197 42 28C42 25.9375 41.5514 23.9781 40.7471 22.2134V22.2134Z" fill="#014EFF"/>
<path d="M31.4841 21.0354L31.3347 19.2632C30.2984 18.8661 29.1743 18.6484 28 18.6484C22.8435 18.6484 18.6484 22.8435 18.6484 28C18.6484 33.1565 22.8435 37.3516 28 37.3516C33.1565 37.3516 37.3516 33.1565 37.3516 28C37.3516 26.8257 37.1339 25.7016 36.7368 24.6653L34.9646 24.5158L33.6638 25.8163C33.9261 26.4945 34.0703 27.2305 34.0703 28C34.0703 31.3473 31.3473 34.0703 28 34.0703C24.6527 34.0703 21.9297 31.3473 21.9297 28C21.9297 24.6527 24.6527 21.9297 28 21.9297C28.7695 21.9297 29.5056 22.0739 30.1837 22.3362L31.4841 21.0354Z" fill="#014EFF"/>
<path d="M32.9443 18.8266L33.1831 21.6567L27.42 27.4198C27.0996 27.74 27.0996 28.2595 27.42 28.5797C27.58 28.74 27.79 28.8201 28 28.8201C28.21 28.8201 28.42 28.74 28.58 28.5797L34.3431 22.8166L37.1732 23.0552C37.2921 23.0653 37.4118 23.0492 37.5239 23.0082C37.636 22.9672 37.7378 22.9023 37.8221 22.8179L41.3023 19.3376C41.4129 19.2271 41.4896 19.0872 41.5234 18.9345C41.5572 18.7818 41.5466 18.6227 41.4929 18.4758C41.4392 18.329 41.3446 18.2005 41.2203 18.1056C41.096 18.0107 40.9471 17.9534 40.7913 17.9403L38.2718 17.7277L38.0595 15.2085C38.0464 15.0526 37.989 14.9038 37.8941 14.7795C37.7992 14.6553 37.6707 14.5607 37.5239 14.507C37.377 14.4532 37.2179 14.4426 37.0652 14.4763C36.9125 14.51 36.7726 14.5867 36.662 14.6972L33.1819 18.1776C33.0974 18.2619 33.0324 18.3637 32.9914 18.4758C32.9504 18.5879 32.9343 18.7076 32.9443 18.8266Z" fill="#014EFF"/>
</g>
<defs>
<clipPath id="clip0_1248_172">
<rect width="28" height="28" fill="white" transform="translate(14 14)"/>
</clipPath>
</defs>
</svg>
