<svg width="97" height="97" viewBox="0 0 97 97" fill="none" xmlns="http://www.w3.org/2000/svg">
<circle cx="48.5" cy="48.5" r="48" fill="#E6EDFF" stroke="#B0C8FF"/>
<path fill-rule="evenodd" clip-rule="evenodd" d="M29.0461 58.9862C29.1242 59.5155 28.7583 60.0068 28.2314 60.0843C27.6997 60.162 27.2118 59.7956 27.1338 59.2662C27.0557 58.7378 27.4216 58.2456 27.9484 58.168C28.4802 58.0915 28.9729 58.4573 29.0461 58.9862ZM55.4056 38.3281C58.1002 41.3181 60.111 43.9146 61.4377 46.2441C63.9536 50.6616 63.3309 55.1146 60.8642 58.3742L58.6648 59.6552C58.073 59.9999 57.4701 60.2183 56.847 60.3251C57.1069 59.9796 57.3081 59.5663 57.4375 59.0868C57.9267 57.2734 56.8414 55.4801 55.099 54.8763L54.9862 54.8373L54.8688 54.8158C54.4667 54.7419 54.0662 54.6591 53.6678 54.5673C54.0234 54.0917 54.2321 53.5058 54.2152 52.8002C54.2133 52.6935 54.2063 52.5869 54.1943 52.4808C54.0533 51.3189 53.4247 50.5625 52.5912 50.0593C51.8591 49.6172 50.981 49.3971 50.1761 49.265C49.5955 49.1697 48.984 49.0083 48.5361 48.716C48.1891 48.4894 47.9402 48.1615 47.917 47.6819C47.8918 47.1629 48.1183 46.7444 48.4753 46.4542C48.7549 46.2268 49.1116 46.0689 49.4983 45.9911C49.6556 45.9595 49.8153 45.9415 49.9757 45.9375C50.0136 45.9396 50.0517 45.9394 50.0896 45.9368C50.3053 45.9397 50.5199 45.9679 50.7291 46.0207C51.3757 46.1845 51.9643 46.6107 52.2744 47.3491C52.3636 47.5617 52.5336 47.7302 52.7471 47.8175C52.9605 47.9048 53.1999 47.9037 53.4126 47.8145C53.6252 47.7253 53.7937 47.5552 53.881 47.3418C53.9683 47.1283 53.9673 46.8889 53.8781 46.6762C53.3322 45.3761 52.2929 44.625 51.1504 44.3353C51.0666 44.3141 50.9822 44.2955 50.8972 44.2793V43.6053C50.8972 43.3746 50.8056 43.1534 50.6425 42.9903C50.4794 42.8271 50.2581 42.7355 50.0274 42.7355C49.7967 42.7355 49.5755 42.8271 49.4124 42.9903C49.2492 43.1534 49.1576 43.3746 49.1576 43.6053V44.2923C48.4986 44.4252 47.8798 44.7034 47.3812 45.1086C46.6151 45.7315 46.1294 46.6358 46.1842 47.7634C46.2391 48.8963 46.8045 49.6563 47.5916 50.1702C48.2777 50.6181 49.1204 50.8499 49.8974 50.9774C50.5216 51.0798 51.1879 51.2418 51.6942 51.5475C52.0991 51.7919 52.4033 52.1493 52.4683 52.6846C52.4769 52.756 52.4816 52.8079 52.4824 52.841C52.4925 53.2667 52.2888 53.591 51.9831 53.8231C51.8757 53.9037 51.7611 53.974 51.6407 54.0333C49.394 53.3724 47.3067 52.5158 45.0881 51.796C42.7719 51.0445 40.6134 51.895 38.6123 53.0542L37.2494 53.8439C36.8157 51.4662 37.2064 48.8492 38.69 46.2442C40.0168 43.9148 42.0276 41.3182 44.722 38.3283C45.0684 38.4411 45.4304 38.4984 45.7947 38.4982H54.3331C54.6973 38.4983 55.0593 38.4409 55.4056 38.3281ZM45.7946 36.9356H54.333C55.3857 36.9356 56.247 36.0743 56.247 35.0218C56.247 33.9691 55.3858 33.108 54.333 33.108H45.7946C44.7419 33.108 43.8807 33.9691 43.8807 35.0217C43.8806 36.0744 44.7419 36.9356 45.7946 36.9356ZM45.725 31.5462L44.153 29.9743C43.3882 29.2094 43.3882 27.9578 44.153 27.1929C44.8036 26.5423 45.8334 26.4324 46.6076 26.9292C46.8951 27.1138 47.2254 27.1432 47.541 27.0126C47.8565 26.8819 48.0691 26.6277 48.1421 26.2938C48.3348 25.4109 49.1253 24.7446 50.0639 24.7444C50.9856 24.7444 51.7894 25.3941 51.9859 26.2938C52.0588 26.6277 52.2715 26.8819 52.587 27.0126C52.9026 27.1434 53.2328 27.1138 53.5202 26.9292C54.2806 26.4412 55.311 26.5292 55.9748 27.1927V27.1929C56.7396 27.9578 56.7396 29.2094 55.9748 29.9743L54.4028 31.5462C54.3796 31.5457 54.3563 31.5454 54.3331 31.5454H45.7947C45.7714 31.5454 45.7481 31.5458 45.725 31.5462ZM32.1653 58.5949L37.3774 67.7923L39.3386 66.6605C39.4328 66.6059 39.537 66.5705 39.645 66.5564C39.753 66.5423 39.8628 66.5496 39.9679 66.5781L52.2845 69.2907C53.9139 69.7264 55.4459 69.5112 56.846 68.6506L71.8025 59.3552C72.6173 58.8557 72.866 57.3891 72.3051 56.4501C71.4903 55.0899 69.3341 55.2504 66.5338 56.8803L59.4512 61.0053C57.9779 61.866 56.3875 62.1445 54.597 61.8577C54.2742 61.8059 53.9522 61.7493 53.6311 61.6878C53.5628 61.683 47.606 60.1345 46.9231 59.9505C46.4792 59.8325 46.2157 59.3788 46.3377 58.9383C46.4548 58.4963 46.9085 58.2348 47.3475 58.3529C48.0452 58.5397 52.27 59.7374 53.8555 60.0458C54.6654 60.0974 55.6069 59.872 55.929 58.6797C56.1925 57.7021 55.6167 56.7093 54.5874 56.3527C51.6944 55.8229 48.8989 54.8135 46.6548 54.0008C45.8693 53.7173 45.1912 53.4724 44.6057 53.2822C42.7616 52.6841 41.0102 53.4691 39.3954 54.4062L32.1653 58.5949ZM37.1885 70.8318L29.2168 56.7458C29.1387 56.6083 29.0119 56.5096 28.8557 56.4663C28.8032 56.4522 28.7491 56.4449 28.6947 56.4448C28.5938 56.4445 28.4946 56.4706 28.4069 56.5205L25.6944 58.0547C25.4066 58.2172 25.309 58.5816 25.4699 58.867L33.4416 72.9529C33.6026 73.2393 33.9685 73.3398 34.2514 73.1784L36.9639 71.6436C37.1006 71.566 37.1981 71.4377 37.242 71.284C37.2638 71.2089 37.2703 71.1302 37.2611 71.0525C37.2519 70.9748 37.2272 70.8997 37.1885 70.8318Z" fill="#014EFF"/>
</svg>
