<svg width="97" height="97" viewBox="0 0 97 97" fill="none" xmlns="http://www.w3.org/2000/svg">
<circle cx="48.5" cy="48.5" r="48" fill="#E6EDFF" stroke="#B0C8FF"/>
<path d="M70.7323 44.1102H67.7557C67.3073 42.3863 66.621 40.7333 65.7165 39.1987L67.8245 37.0907C67.9423 36.973 68.0358 36.8333 68.0996 36.6795C68.1633 36.5257 68.1962 36.3608 68.1962 36.1943C68.1962 36.0277 68.1633 35.8629 68.0996 35.709C68.0358 35.5552 67.9423 35.4155 67.8245 35.2978L62.7022 30.1755C62.5845 30.0577 62.4448 29.9642 62.291 29.9004C62.1371 29.8367 61.9723 29.8038 61.8057 29.8038C61.6392 29.8038 61.4743 29.8367 61.3205 29.9004C61.1667 29.9642 61.027 30.0577 60.9093 30.1755L58.8013 32.2835C57.2668 31.3789 55.6137 30.6926 53.8898 30.2443V27.2677C53.8896 26.9316 53.7559 26.6092 53.5182 26.3715C53.2805 26.1338 52.9582 26.0002 52.622 26H45.378C45.0418 26.0002 44.7195 26.1338 44.4818 26.3715C44.2441 26.6092 44.1104 26.9316 44.1102 27.2677V30.2443C42.3863 30.6926 40.7332 31.3789 39.1987 32.2835L37.0907 30.1755C36.973 30.0577 36.8333 29.9642 36.6795 29.9004C36.5257 29.8367 36.3608 29.8038 36.1943 29.8038C36.0277 29.8038 35.8629 29.8367 35.709 29.9004C35.5552 29.9642 35.4155 30.0577 35.2978 30.1755L30.1755 35.2978C30.0577 35.4155 29.9642 35.5552 29.9004 35.709C29.8367 35.8629 29.8038 36.0277 29.8038 36.1943C29.8038 36.3608 29.8367 36.5257 29.9004 36.6795C29.9642 36.8333 30.0577 36.973 30.1755 37.0907L32.2835 39.1987C31.379 40.7333 30.6927 42.3863 30.2443 44.1102H27.2677C26.9316 44.1104 26.6092 44.2441 26.3715 44.4818C26.1338 44.7195 26.0002 45.0418 26 45.378V52.622C26.0002 52.9582 26.1338 53.2805 26.3715 53.5182C26.6092 53.7559 26.9316 53.8896 27.2677 53.8898H30.2443C30.6927 55.6137 31.379 57.2667 32.2835 58.8013L30.1755 60.9093C30.0577 61.027 29.9642 61.1667 29.9004 61.3205C29.8367 61.4743 29.8038 61.6392 29.8038 61.8057C29.8038 61.9723 29.8367 62.1371 29.9004 62.291C29.9642 62.4448 30.0577 62.5845 30.1755 62.7022L35.2978 67.8245C35.4155 67.9423 35.5552 68.0358 35.709 68.0996C35.8629 68.1633 36.0277 68.1962 36.1943 68.1962C36.3608 68.1962 36.5257 68.1633 36.6795 68.0996C36.8333 68.0358 36.973 67.9423 37.0907 67.8245L39.1987 65.7165C40.7333 66.621 42.3863 67.3073 44.1102 67.7557V70.7323C44.1104 71.0684 44.2441 71.3908 44.4818 71.6285C44.7195 71.8662 45.0418 71.9998 45.378 72H52.622C52.9582 71.9998 53.2805 71.8662 53.5182 71.6285C53.7559 71.3908 53.8896 71.0684 53.8898 70.7323V67.7557C55.6137 67.3073 57.2667 66.621 58.8013 65.7165L60.9093 67.8245C61.027 67.9423 61.1667 68.0358 61.3205 68.0996C61.4743 68.1633 61.6392 68.1962 61.8057 68.1962C61.9723 68.1962 62.1371 68.1633 62.291 68.0996C62.4448 68.0358 62.5845 67.9423 62.7022 67.8245L67.8245 62.7022C67.9423 62.5845 68.0358 62.4448 68.0996 62.291C68.1633 62.1371 68.1962 61.9723 68.1962 61.8057C68.1962 61.6392 68.1633 61.4743 68.0996 61.3205C68.0358 61.1667 67.9423 61.027 67.8245 60.9093L65.7165 58.8013C66.621 57.2667 67.3073 55.6137 67.7557 53.8898H70.7323C71.0684 53.8896 71.3908 53.7559 71.6285 53.5182C71.8662 53.2805 71.9998 52.9582 72 52.622V45.378C71.9998 45.0418 71.8662 44.7195 71.6285 44.4818C71.3908 44.2441 71.0684 44.1104 70.7323 44.1102ZM49 62.5827C46.3136 62.5827 43.6875 61.7861 41.4539 60.2936C39.2202 58.8011 37.4793 56.6798 36.4512 54.1979C35.4232 51.716 35.1542 48.9849 35.6783 46.3502C36.2024 43.7154 37.496 41.2952 39.3956 39.3956C41.2952 37.496 43.7154 36.2024 46.3502 35.6783C48.9849 35.1542 51.716 35.4232 54.1979 36.4512C56.6798 37.4793 58.8011 39.2202 60.2936 41.4539C61.7861 43.6875 62.5827 46.3136 62.5827 49C62.5787 52.6011 61.1463 56.0536 58.6 58.6C56.0536 61.1463 52.6011 62.5787 49 62.5827Z" fill="#014EFF"/>
<path d="M49.0006 37.9534C47.408 37.9421 45.8321 38.2777 44.3824 38.9369C42.9326 39.5961 41.6438 40.5631 40.6054 41.7706C39.567 42.9781 38.804 44.3973 38.3694 45.9294C37.9349 47.4616 37.8391 49.07 38.0888 50.6429L40.9002 48.0662C41.0266 47.9503 41.1752 47.8613 41.337 47.8045C41.4988 47.7477 41.6705 47.7244 41.8415 47.7359C42.0126 47.7474 42.1796 47.7935 42.3323 47.8715C42.4851 47.9494 42.6204 48.0575 42.7301 48.1893L45.4633 51.4687L51.0108 45.9219H49.725C49.3888 45.9219 49.0663 45.7883 48.8286 45.5506C48.5908 45.3129 48.4573 44.9904 48.4573 44.6542C48.4573 44.318 48.5908 43.9955 48.8286 43.7578C49.0663 43.52 49.3888 43.3865 49.725 43.3865H54.0715C54.238 43.3864 54.4029 43.4191 54.5567 43.4828C54.7106 43.5464 54.8503 43.6398 54.9681 43.7576C55.0858 43.8753 55.1792 44.0151 55.2429 44.1689C55.3065 44.3228 55.3393 44.4877 55.3392 44.6542V49.0006C55.3392 49.3369 55.2056 49.6593 54.9679 49.8971C54.7301 50.1348 54.4077 50.2684 54.0715 50.2684C53.7352 50.2684 53.4128 50.1348 53.175 49.8971C52.9373 49.6593 52.8037 49.3369 52.8037 49.0006V47.7148L46.2754 54.2439C46.1508 54.3684 46.0016 54.4656 45.8374 54.5292C45.6731 54.5929 45.4974 54.6217 45.3215 54.6137C45.1455 54.6057 44.9732 54.5612 44.8154 54.4829C44.6576 54.4047 44.5178 54.2944 44.4049 54.1592L41.6333 50.8327L38.8589 53.3746C39.6485 55.205 40.9188 56.7876 42.5349 57.9545C44.1511 59.1215 46.053 59.8293 48.0389 60.003C50.0247 60.1767 52.0206 59.8097 53.8148 58.9409C55.609 58.0722 57.1347 56.7341 58.23 55.0686C59.3253 53.403 59.9495 51.4721 60.0364 49.4805C60.1233 47.489 59.6696 45.511 58.7234 43.7564C57.7772 42.0018 56.3739 40.536 54.6621 39.5143C52.9504 38.4927 50.994 37.9533 49.0006 37.9534Z" fill="#014EFF"/>
</svg>
