<svg width="97" height="97" viewBox="0 0 97 97" fill="none" xmlns="http://www.w3.org/2000/svg">
<circle cx="48.5" cy="48.5" r="48" fill="#E6EDFF" stroke="#B0C8FF"/>
<path d="M49.0446 55.7061C52.8231 55.7061 55.8861 52.6833 55.8861 48.9546C55.8861 45.2259 52.8231 42.2031 49.0446 42.2031C45.2662 42.2031 42.2031 45.2259 42.2031 48.9546C42.2031 52.6833 45.2662 55.7061 49.0446 55.7061Z" fill="#014EFF"/>
<path d="M65.3436 44.9053H65.2619C64.1819 44.9053 63.2879 44.3 62.8672 43.2873C62.5375 42.4908 62.5059 41.3199 63.4725 40.352C63.9894 39.8232 63.9854 38.9767 63.4619 38.4531L59.6431 34.6343C59.1354 34.128 58.1808 34.1847 57.6758 34.691C56.9136 35.4519 55.8534 35.6629 54.8381 35.2409C54.0415 34.9112 53.101 34.1055 53.101 32.7526C53.101 32.0063 52.497 31.4023 51.7507 31.4023H46.3495C45.6031 31.4023 44.9992 32.088 44.9992 32.8344C44.9992 33.9143 44.3039 34.8084 43.2899 35.2291C42.4948 35.5548 41.3225 35.5877 40.3559 34.6238C39.8271 34.1055 38.9806 34.1109 38.457 34.6343L34.6382 38.4531C34.1108 38.9806 34.1675 39.8931 34.6949 40.4205C35.4584 41.1853 35.6642 42.2455 35.2461 43.2569C34.9151 44.0534 34.1094 44.9053 32.7565 44.9053C32.0102 44.9053 31.4062 45.5092 31.4062 46.2556V51.6567C31.4062 52.4031 32.0919 53.007 32.8383 53.007C33.9182 53.007 34.8136 53.6123 35.233 54.6263C35.5626 55.4215 35.5943 56.5924 34.6277 57.5603C34.1108 58.0891 34.1148 58.9356 34.6382 59.4592L38.457 63.278C38.9634 63.7857 39.9181 63.7263 40.4244 63.2213C41.1866 62.4578 42.2442 62.2468 43.2621 62.6714C44.0587 63.0011 44.9992 63.8968 44.9992 65.2497C44.9992 65.9961 45.6031 66.6 46.3495 66.6H51.7507C52.497 66.6 53.101 65.9143 53.101 65.168C53.101 64.088 53.7963 63.1026 54.8103 62.6832C55.6028 62.351 56.775 62.3219 57.7443 63.2885C58.273 63.8068 59.1183 63.8015 59.6431 63.278L63.4619 59.4592C63.9894 58.9318 63.9327 58.0192 63.4052 57.4918C62.6589 56.7455 62.4413 55.6352 62.8514 54.6581C63.2668 53.6559 64.2136 53.0071 65.3437 53.0071C66.0901 53.0071 66.694 52.4032 66.694 51.6568V46.2557C66.6939 45.5092 66.09 44.9053 65.3436 44.9053ZM49.0501 58.4082C43.838 58.4082 39.508 54.1683 39.508 48.9562C39.508 43.744 43.838 39.5041 49.0501 39.5041C54.2622 39.5041 58.5922 43.744 58.5922 48.9562C58.5922 54.1683 54.2622 58.4082 49.0501 58.4082Z" fill="#014EFF"/>
<path d="M68.891 40.1043C68.1921 40.3667 67.84 41.146 68.1012 41.8435C68.9556 44.1182 69.3894 46.5102 69.3894 48.955C69.3894 60.1239 60.2139 69.2994 49.045 69.2994C43.6346 69.2994 38.4318 67.1022 34.6064 63.2768C34.4177 63.0877 34.1771 62.959 33.9151 62.9069C33.6531 62.8547 33.3815 62.8816 33.1348 62.9841C32.888 63.0861 32.677 63.2592 32.5287 63.4812C32.3803 63.7033 32.3012 63.9644 32.3014 64.2315V68.0517C32.3014 68.798 32.9053 69.4019 33.6517 69.4019C34.398 69.4019 35.002 68.798 35.002 68.0517V67.2077C38.983 70.2578 43.9458 72 49.045 72C61.7027 72 72.09 61.6126 72.09 48.955C72.09 46.1845 71.5982 43.4721 70.6303 40.8941C70.3679 40.1939 69.5832 39.8471 68.891 40.1043ZM64.441 28.508C63.8001 28.4935 63.0911 29.1094 63.0899 29.8557L63.0885 30.7128C59.1036 27.6562 54.1389 26 49.045 26C36.3874 26 26 36.2973 26 48.955C26 51.7254 26.4919 54.4379 27.4598 57.0159C27.7235 57.7152 28.5016 58.0659 29.199 57.8057C29.8979 57.5433 30.25 56.764 29.9889 56.0664C29.1344 53.7917 28.7006 51.3997 28.7006 48.955C28.7006 37.7861 37.8761 28.7006 49.045 28.7006C54.4448 28.7006 59.6451 30.8105 63.477 34.6398C63.866 35.0275 64.4489 35.1462 64.9473 34.9326C65.194 34.8309 65.405 34.6584 65.5535 34.4368C65.7021 34.2152 65.7816 33.9545 65.782 33.6878L65.7886 29.861C65.79 29.1147 65.1861 28.5094 64.441 28.508Z" fill="#014EFF"/>
</svg>
