<svg width="97" height="97" viewBox="0 0 97 97" fill="none" xmlns="http://www.w3.org/2000/svg">
<circle cx="48.5" cy="48.5" r="48" fill="#E6EDFF" stroke="#B0C8FF"/>
<path d="M41.0515 56.8208C39.7445 57.8429 38.6874 59.1493 37.9606 60.6408C37.2338 62.1324 36.8563 63.7699 36.8569 65.4291V68.7147H30.2856C28.4676 68.7147 27 67.2472 27 65.4291V63.2387C27 59.0003 30.428 55.5723 34.6664 55.5723H36.8569C38.412 55.5723 39.8468 56.0323 41.0515 56.8208Z" fill="#014EFF"/>
<path d="M62.0456 55.5717C64.7675 55.5717 66.974 53.3652 66.974 50.6433C66.974 47.9214 64.7675 45.7148 62.0456 45.7148C59.3237 45.7148 57.1172 47.9214 57.1172 50.6433C57.1172 53.3652 59.3237 55.5717 62.0456 55.5717Z" fill="#014EFF"/>
<path d="M35.7644 55.5717C38.4863 55.5717 40.6928 53.3652 40.6928 50.6433C40.6928 47.9214 38.4863 45.7148 35.7644 45.7148C33.0425 45.7148 30.8359 47.9214 30.8359 50.6433C30.8359 53.3652 33.0425 55.5717 35.7644 55.5717Z" fill="#014EFF"/>
<path d="M70.8093 63.2368V65.4272C70.8093 67.2452 69.3417 68.7128 67.5237 68.7128H60.9525V65.4272C60.9525 61.9335 59.3096 58.8231 56.7578 56.8188C57.9625 56.0303 59.3973 55.5703 60.9525 55.5703H63.1429C67.3813 55.5703 70.8093 58.9983 70.8093 63.2368Z" fill="#014EFF"/>
<path d="M49.9985 56.6671H47.8081C42.9771 56.6671 39.0465 60.5978 39.0465 65.4288V68.7144C39.0465 70.5259 40.5206 72 42.3321 72H55.4745C57.286 72 58.7602 70.5259 58.7602 68.7144V65.4288C58.7602 60.5978 54.8295 56.6671 49.9985 56.6671ZM64.7838 40.9881L62.1411 41.9278C61.9677 41.9895 61.7819 42.0079 61.5998 41.9816C61.4177 41.9553 61.2447 41.8851 61.0959 41.7769C60.947 41.6687 60.8268 41.5259 60.7456 41.3608C60.6643 41.1957 60.6246 41.0133 60.6297 40.8293L60.7063 38.0256L58.9956 35.8023C58.8835 35.6564 58.8087 35.4855 58.7774 35.3041C58.7462 35.1228 58.7596 34.9367 58.8164 34.7617C58.8732 34.5867 58.9718 34.4282 59.1035 34.2998C59.2353 34.1714 59.3964 34.077 59.5728 34.0248L62.2637 33.2319L63.8496 30.9177C63.9536 30.7659 64.093 30.6418 64.2558 30.556C64.4186 30.4702 64.5998 30.4253 64.7838 30.4253C64.9678 30.4253 65.149 30.4702 65.3118 30.556C65.4746 30.6418 65.614 30.7659 65.718 30.9177L67.3039 33.2319L69.9948 34.0248C70.7581 34.2493 71.0571 35.1715 70.572 35.8023L68.8612 38.0256L68.9379 40.8293C68.9428 41.0132 68.9028 41.1954 68.8215 41.3604C68.7402 41.5254 68.62 41.6681 68.4712 41.7762C68.3224 41.8843 68.1496 41.9546 67.9676 41.981C67.7856 42.0075 67.5999 41.9892 67.4265 41.9278L64.7838 40.9881ZM33.0228 40.9881L30.3801 41.9278C30.2067 41.9895 30.0209 42.0079 29.8388 41.9816C29.6567 41.9553 29.4838 41.8851 29.3349 41.7769C29.1861 41.6687 29.0658 41.5259 28.9846 41.3608C28.9034 41.1957 28.8636 41.0133 28.8687 40.8293L28.9454 38.0256L27.2347 35.8023C27.1226 35.6564 27.0477 35.4855 27.0164 35.3041C26.9852 35.1228 26.9986 34.9367 27.0554 34.7617C27.1122 34.5867 27.2108 34.4282 27.3426 34.2998C27.4744 34.1714 27.6354 34.077 27.8118 34.0248L30.5027 33.2319L32.0886 30.9177C32.1926 30.7659 32.332 30.6418 32.4948 30.556C32.6576 30.4702 32.8388 30.4253 33.0228 30.4253C33.2068 30.4253 33.3881 30.4702 33.5508 30.556C33.7136 30.6418 33.853 30.7659 33.957 30.9177L35.5429 33.2319L38.2338 34.0248C38.9972 34.2493 39.2962 35.1715 38.811 35.8023L37.1003 38.0256L37.1769 40.8293C37.1818 41.0132 37.1418 41.1954 37.0605 41.3604C36.9792 41.5254 36.859 41.6681 36.7102 41.7762C36.5615 41.8843 36.3886 41.9546 36.2066 41.981C36.0246 42.0075 35.8389 41.9892 35.6656 41.9278L33.0228 40.9881ZM48.9033 38.5239L45.7699 39.6378C45.5644 39.7108 45.3442 39.7326 45.1283 39.7014C44.9124 39.6702 44.7074 39.5869 44.531 39.4587C44.3545 39.3305 44.212 39.1612 44.1157 38.9655C44.0194 38.7698 43.9722 38.5536 43.9782 38.3355L44.0691 35.0116L42.0407 32.3754C41.9079 32.2025 41.8191 31.9997 41.7821 31.7848C41.7451 31.5699 41.761 31.3491 41.8284 31.1417C41.8958 30.9343 42.0127 30.7463 42.1689 30.5942C42.3252 30.442 42.5161 30.3301 42.7252 30.2683L45.9156 29.3275L47.7961 26.584C47.9194 26.404 48.0847 26.2567 48.2777 26.1549C48.4707 26.0532 48.6856 26 48.9039 26C49.1221 26 49.337 26.0532 49.53 26.1549C49.723 26.2567 49.8884 26.404 50.0117 26.584L51.8921 29.3275L55.0825 30.2683C55.2916 30.3301 55.4825 30.442 55.6388 30.5942C55.7951 30.7463 55.9119 30.9343 55.9793 31.1417C56.0467 31.3491 56.0626 31.5699 56.0256 31.7848C55.9886 31.9997 55.8998 32.2025 55.767 32.3754L53.7386 35.0116L53.8295 38.3355C53.8355 38.5536 53.7883 38.7698 53.692 38.9655C53.5957 39.1612 53.4532 39.3305 53.2767 39.4587C53.1003 39.5869 52.8953 39.6702 52.6794 39.7014C52.4635 39.7326 52.2433 39.7108 52.0378 39.6378L48.9033 38.5239Z" fill="#014EFF"/>
</svg>
