<svg width="97" height="97" viewBox="0 0 97 97" fill="none" xmlns="http://www.w3.org/2000/svg">
<circle cx="48.5" cy="48.5" r="48" fill="#E6EDFF" stroke="#B0C8FF"/>
<path fill-rule="evenodd" clip-rule="evenodd" d="M48.7626 38.2344L50.7507 42.9637L55.8629 43.393L51.9794 46.7453L53.1508 51.7399L48.7626 49.0823L44.3745 51.7399L45.5459 46.7453L41.6624 43.393L46.7746 42.9637L48.7626 38.2344ZM62.9325 53.821C62.002 52.672 60.2671 52.5816 59.2214 53.619L53.0134 59.7784C52.2114 60.5741 52.0516 61.6904 52.1979 62.8107L52.4471 64.7173L61.6783 67.1908C61.7571 66.1719 62.1385 65.2639 62.9473 64.3939L66.3235 60.7623C67.0923 59.9353 67.5251 58.9907 67.5251 57.8614L67.5253 43.9046C67.5253 42.6593 66.5062 41.6406 65.2609 41.6404C64.0155 41.6404 62.9964 42.6593 62.9964 43.9046L62.9962 52.1036C65.1591 52.979 65.7174 55.8074 64.0634 57.4486L60.7472 60.7388C60.6032 60.8806 60.4089 60.9596 60.2068 60.9585C60.0047 60.9574 59.8113 60.8764 59.6688 60.7331C59.5263 60.5898 59.4463 60.396 59.4463 60.1939C59.4464 59.9918 59.5264 59.798 59.669 59.6547L62.9852 56.3645C63.6651 55.69 63.6696 54.582 62.9961 53.9033C62.9722 53.8781 62.9509 53.8505 62.9325 53.821ZM51.6871 66.1012L62.5504 69.0119C62.8153 69.083 62.9741 69.3579 62.9031 69.6227L62.3652 71.6305C62.2942 71.8953 62.0193 72.0541 61.7543 71.983L50.891 69.0723C50.6261 69.0013 50.4674 68.7264 50.5383 68.4615L51.0763 66.4538C51.1473 66.1889 51.4222 66.0302 51.6871 66.1012ZM34.5928 53.821C34.5744 53.8505 34.5531 53.878 34.5291 53.9031C33.8557 54.5818 33.8603 55.6898 34.5401 56.3643L37.8563 59.6545C37.9281 59.7252 37.9852 59.8094 38.0244 59.9022C38.0635 59.995 38.0839 60.0946 38.0845 60.1953C38.085 60.296 38.0656 60.3959 38.0275 60.4891C37.9893 60.5823 37.9331 60.667 37.862 60.7384C37.791 60.8098 37.7066 60.8665 37.6136 60.9052C37.5206 60.9439 37.4208 60.9638 37.3201 60.9638C37.2194 60.9638 37.1197 60.9439 37.0267 60.9053C36.9336 60.8667 36.8492 60.81 36.7781 60.7386L33.4619 57.4484C31.8078 55.8072 32.3661 52.9788 34.5291 52.1034L34.5289 43.9044C34.5289 42.6591 33.5098 41.6402 32.2644 41.6402C31.0191 41.6404 30 42.6591 30 43.9044L30.0002 57.8612C30.0002 58.9905 30.433 59.9351 31.2018 60.7621L34.578 64.3938C35.3869 65.2638 35.7683 66.1718 35.847 67.1906L45.0782 64.7172L45.3274 62.8105C45.4737 61.6903 45.3139 60.574 44.5119 59.7782L38.3039 53.6188C37.2582 52.5816 35.5233 52.672 34.5928 53.821ZM45.8382 66.1012C46.1031 66.0302 46.3781 66.1889 46.449 66.4538L46.987 68.4615C47.0579 68.7264 46.8992 69.0013 46.6343 69.0723L35.771 71.983C35.506 72.0541 35.2311 71.8953 35.1601 71.6305L34.6222 69.6227C34.5512 69.3578 34.7099 69.0829 34.9749 69.0119L45.8382 66.1012ZM50.0916 30.1068H51.3905C51.6779 30.1069 51.8537 29.7759 51.6699 29.5381L49.042 26.1373C49.0091 26.0946 48.9668 26.06 48.9183 26.0362C48.8699 26.0124 48.8167 26 48.7627 26C48.7088 26 48.6556 26.0124 48.6071 26.0362C48.5587 26.06 48.5164 26.0946 48.4835 26.1373L45.8556 29.5381C45.6718 29.776 45.8477 30.107 46.1351 30.1068H47.4338L47.4339 34.4627C48.317 34.3627 49.2086 34.3627 50.0918 34.4627L50.0916 30.1068ZM57.6941 34.2334H58.993C59.2804 34.2335 59.4562 33.9025 59.2724 33.6647L56.6444 30.2638C56.6115 30.2211 56.5692 30.1865 56.5207 30.1627C56.4723 30.1389 56.4191 30.1265 56.3651 30.1265C56.3112 30.1265 56.258 30.1389 56.2096 30.1627C56.1611 30.1865 56.1188 30.2211 56.0859 30.2638L53.4579 33.6646C53.2741 33.9024 53.45 34.2335 53.7374 34.2333H55.0361V36.1939C56.0305 36.8201 56.9263 37.5907 57.6941 38.4803V34.2334ZM42.4891 34.2334H43.788C44.0753 34.2335 44.2512 33.9025 44.0674 33.6647L41.4395 30.2638C41.4066 30.2211 41.3643 30.1865 41.3158 30.1627C41.2674 30.1389 41.2142 30.1265 41.1602 30.1265C41.1063 30.1265 41.0531 30.1389 41.0046 30.1627C40.9562 30.1865 40.9139 30.2211 40.881 30.2638L38.253 33.6646C38.0692 33.9024 38.2451 34.2335 38.5325 34.2333H39.8312V38.4801C40.5989 37.5905 41.4947 36.82 42.4891 36.1938V34.2334ZM48.7626 35.921C43.0969 35.921 38.5039 40.514 38.5039 46.1798C38.5039 51.8455 43.0969 56.4385 48.7626 56.4385C54.4284 56.4385 59.0214 51.8456 59.0214 46.1798C59.0214 40.5139 54.4284 35.921 48.7626 35.921Z" fill="#014EFF"/>
</svg>
