<svg width="80" height="80" viewBox="0 0 80 80" fill="none" xmlns="http://www.w3.org/2000/svg">
<circle opacity="0.3" cx="40" cy="40" r="39.5" fill="#E6EDFF" stroke="#B0C8FF"/>
<path d="M57.5519 44.9713V42.4467H45.9136C45.9136 45.7134 43.2654 48.3617 39.9986 48.3617C36.7318 48.3617 34.0836 45.7135 34.0836 42.4467H22.4453V44.9713L27.4991 45.5065C27.8101 46.7809 28.3155 47.9999 28.9973 49.1207L25.8013 53.0736L29.3717 56.644L33.3246 53.448C34.4454 54.1299 35.6644 54.6352 36.9388 54.9463L37.474 60H42.5232L43.0584 54.9463C44.3328 54.6352 45.5518 54.1299 46.6726 53.448L50.6255 56.644L54.1959 53.0736L50.9999 49.1207C51.6817 47.9999 52.187 46.7809 52.4981 45.5065L57.5519 44.9713ZM39.9986 20C37.4987 20 35.4648 22.0339 35.4648 24.5338C35.4648 27.0338 37.4987 29.0676 39.9986 29.0676C42.4985 29.0676 44.5324 27.0338 44.5324 24.5338C44.5324 22.0339 42.4985 20 39.9986 20ZM44.8257 30.321H35.1715C32.9489 30.3211 31.1407 32.1292 31.1407 34.3518V40.1029H48.8565V34.3518C48.8565 32.1292 47.0483 30.321 44.8257 30.321ZM30.3804 22.0944C28.1409 22.0944 26.3189 23.9164 26.3189 26.1559C26.3189 28.3773 28.112 30.187 30.3267 30.2159C31.2439 29.1431 32.5095 28.3774 33.9473 28.0966C34.2726 27.5015 34.4427 26.834 34.4419 26.1559C34.4419 23.9163 32.6199 22.0944 30.3804 22.0944ZM26.0562 31.3402C24.0652 31.3402 22.4453 32.9599 22.4453 34.951V40.103H28.797V34.3518C28.7958 33.3006 29.0563 32.2656 29.555 31.3402H26.0562ZM49.6168 22.0944C47.3773 22.0944 45.5553 23.9164 45.5553 26.1559C45.5545 26.834 45.7246 27.5015 46.0498 28.0966C47.4877 28.3774 48.7533 29.1431 49.6705 30.2159C51.8852 30.187 53.6783 28.3773 53.6783 26.1559C53.6783 23.9163 51.8563 22.0944 49.6168 22.0944ZM53.941 31.3402H50.4422C50.9409 32.2656 51.2014 33.3006 51.2002 34.3518V40.1029H57.5519V34.9509C57.5519 32.9599 55.932 31.3402 53.941 31.3402Z" fill="white"/>
</svg>
