<svg width="29" height="28" viewBox="0 0 29 28" fill="none" xmlns="http://www.w3.org/2000/svg">
<path d="M5.06593 18.9098H13.3895C13.7365 18.9098 14.0188 19.1921 14.0188 19.539C14.0188 19.8859 13.7365 20.1681 13.3895 20.1681H11.8857C10.7466 20.1681 9.81978 21.0947 9.81978 22.2336C9.81978 23.3725 10.7466 24.2992 11.8857 24.2992H24.9341C26.0732 24.2992 27 23.3726 27 22.2336C27 21.0947 26.0732 20.1681 24.9341 20.1681H17.8739C17.5269 20.1681 17.2446 19.8859 17.2446 19.539C17.2446 19.1921 17.5269 18.9098 17.8739 18.9098H18.1143C19.2535 18.9098 20.1803 17.9832 20.1803 16.8443C20.1803 15.7053 19.2535 14.7787 18.1143 14.7787H14.863C14.5159 14.7787 14.2336 14.4965 14.2336 14.1496C14.2336 13.8026 14.5159 13.5204 14.863 13.5204H22.6608C23.8 13.5204 24.7268 12.5938 24.7268 11.4548C24.7268 10.3159 23.8 9.38936 22.6608 9.38936H18.8987C18.5517 9.38936 18.2693 9.1071 18.2693 8.7602C18.2693 8.41329 18.5517 8.13103 18.8987 8.13103H18.9452C20.0843 8.13103 21.0111 7.20445 21.0111 6.06554C21.0111 4.92664 20.0843 4 18.9452 4H5.89682C4.75769 4 3.83088 4.92659 3.83088 6.06554C3.83088 7.2045 4.75769 8.13103 5.89682 8.13103H13.9335C14.2805 8.13103 14.5628 8.41329 14.5628 8.7602C14.5628 9.1071 14.2805 9.38936 13.9335 9.38936H9.61243C8.47331 9.38936 7.5465 10.3159 7.5465 11.4549C7.5465 12.5939 8.47331 13.5204 9.61243 13.5204H9.89773C10.2447 13.5204 10.5271 13.8026 10.5271 14.1496C10.5271 14.4965 10.2447 14.7787 9.89773 14.7787H5.06593C3.92681 14.7787 3 15.7053 3 16.8443C3 17.9832 3.92681 18.9098 5.06593 18.9098ZM5.06593 15.4406H9.89773C10.6097 15.4406 11.189 14.8615 11.189 14.1496C11.189 13.4377 10.6097 12.8585 9.89773 12.8585H9.61243C8.83825 12.8585 8.20843 12.2288 8.20843 11.4548C8.20843 10.6809 8.83825 10.0513 9.61243 10.0513H13.9335C14.6455 10.0513 15.2248 9.4721 15.2248 8.7602C15.2248 8.04829 14.6455 7.46911 13.9335 7.46911H5.89682C5.12264 7.46911 4.49281 6.83945 4.49281 6.06554C4.49281 5.29164 5.12264 4.66193 5.89682 4.66193H18.9452C19.7193 4.66193 20.3492 5.29159 20.3492 6.06554C20.3492 6.8395 19.7193 7.46911 18.9452 7.46911H18.8987C18.1867 7.46911 17.6074 8.04829 17.6074 8.7602C17.6074 9.4721 18.1867 10.0513 18.8987 10.0513H22.6608C23.435 10.0513 24.0648 10.6809 24.0648 11.4549C24.0648 12.2289 23.435 12.8585 22.6608 12.8585H14.863C14.1509 12.8585 13.5716 13.4377 13.5716 14.1496C13.5716 14.8615 14.1509 15.4406 14.863 15.4406H18.1143C18.8885 15.4406 19.5183 16.0703 19.5183 16.8443C19.5183 17.6182 18.8885 18.2479 18.1143 18.2479H17.8739C17.1619 18.2479 16.5826 18.8271 16.5826 19.539C16.5826 20.2509 17.1619 20.8301 17.8739 20.8301H24.9341C25.7083 20.8301 26.3381 21.4597 26.3381 22.2336C26.3381 23.0075 25.7083 23.6372 24.9341 23.6372H11.8857C11.1115 23.6372 10.4817 23.0076 10.4817 22.2336C10.4817 21.4597 11.1115 20.8301 11.8857 20.8301H13.3895C14.1015 20.8301 14.6808 20.2509 14.6808 19.539C14.6808 18.8271 14.1015 18.2479 13.3895 18.2479H5.06593C4.29175 18.2479 3.66193 17.6182 3.66193 16.8443C3.66193 16.0703 4.29175 15.4407 5.06593 15.4407V15.4406Z" fill="#014EFF" stroke="#014EFF" stroke-width="0.2"/>
</svg>
