<svg width="97" height="97" viewBox="0 0 97 97" fill="none" xmlns="http://www.w3.org/2000/svg">
<circle cx="48.5" cy="48.5" r="48" fill="#E6EDFF" stroke="#B0C8FF"/>
<g clip-path="url(#clip0_93_6536)">
<path d="M49.5208 28.1667H47.2291C46.5416 25.7708 44.3333 24 41.7083 24C39.0833 24 36.8749 25.7708 36.1874 28.1667H33.8958C33.0416 28.1667 32.3333 28.875 32.3333 29.7292V32.8542C32.3333 34.8542 33.9791 36.5 35.9791 36.5H47.4374C49.4374 36.5 51.0833 34.8542 51.0833 32.8542V29.7292C51.0833 28.875 50.3749 28.1667 49.5208 28.1667Z" fill="#014EFF"/>
<path d="M53.6875 30.25H53.1667V32.8542C53.1667 36.0208 50.6042 38.5833 47.4375 38.5833H35.9792C32.8125 38.5833 30.25 36.0208 30.25 32.8542V30.25H29.7292C26.5625 30.25 24 32.8125 24 35.9792V62.0208C24 65.1875 26.5625 67.75 29.7292 67.75H45.1042L45.5625 65.1875C45.7708 64.0208 46.3125 62.9792 47.1458 62.125L48.8125 60.4583H31.8125C30.9583 60.4583 30.25 59.75 30.25 58.8958C30.25 58.0417 30.9583 57.3333 31.8125 57.3333H51.6042C51.7083 57.3333 51.7917 57.3333 51.8958 57.375H51.9167L59.4167 49.875V35.9792C59.4167 32.8125 56.8542 30.25 53.6875 30.25ZM51.6042 53.6875H31.8125C30.9583 53.6875 30.25 52.9792 30.25 52.125C30.25 51.2708 30.9583 50.5625 31.8125 50.5625H51.6042C52.4583 50.5625 53.1667 51.2708 53.1667 52.125C53.1667 52.9792 52.4583 53.6875 51.6042 53.6875ZM51.6042 46.9167H31.8125C30.9583 46.9167 30.25 46.2083 30.25 45.3542C30.25 44.5 30.9583 43.7917 31.8125 43.7917H51.6042C52.4583 43.7917 53.1667 44.5 53.1667 45.3542C53.1667 46.2083 52.4583 46.9167 51.6042 46.9167ZM50.0979 74C49.8695 74.0006 49.6437 73.9509 49.4366 73.8546C49.2294 73.7582 49.046 73.6175 48.8993 73.4424C48.7526 73.2672 48.6462 73.062 48.5877 72.8412C48.5291 72.6204 48.5198 72.3894 48.5604 72.1646L49.6646 65.9042C49.7205 65.5887 49.8718 65.2978 50.0979 65.0708L65.5667 49.6042C67.4667 47.7 69.3333 48.2146 70.3542 49.2354L72.9312 51.8125C73.2698 52.1511 73.5384 52.553 73.7217 52.9953C73.9049 53.4377 73.9992 53.9118 73.9992 54.3906C73.9992 54.8694 73.9049 55.3436 73.7217 55.7859C73.5384 56.2283 73.2698 56.6302 72.9312 56.9688L57.4625 72.4375C57.2366 72.6652 56.9453 72.8167 56.6292 72.8708L50.3687 73.975C50.2794 73.9916 50.1888 73.9999 50.0979 74Z" fill="#014EFF"/>
</g>
<defs>
<clipPath id="clip0_93_6536">
<rect width="50" height="50" fill="white" transform="translate(24 24)"/>
</clipPath>
</defs>
</svg>
